<svg width="57" height="57" viewBox="0 0 57 57" fill="none" xmlns="http://www.w3.org/2000/svg">
<rect x="0.5" y="0.836914" width="56" height="56" rx="8" fill="#E8F7E6"/>
<path d="M22.6667 28.8372C22.6667 28.1929 23.189 27.6706 23.8333 27.6706H33.1667C33.811 27.6706 34.3333 28.1929 34.3333 28.8372C34.3333 29.4816 33.811 30.0039 33.1667 30.0039H23.8333C23.189 30.0039 22.6667 29.4816 22.6667 28.8372Z" fill="#15AD07"/>
<path d="M23.8333 33.5039C23.189 33.5039 22.6667 34.0262 22.6667 34.6706C22.6667 35.3149 23.189 35.8372 23.8333 35.8372H33.1667C33.811 35.8372 34.3333 35.3149 34.3333 34.6706C34.3333 34.0262 33.811 33.5039 33.1667 33.5039H23.8333Z" fill="#15AD07"/>
<path fill-rule="evenodd" clip-rule="evenodd" d="M22.6667 16.0039C20.0893 16.0039 18 18.0932 18 20.6706V37.0039C18 39.5812 20.0893 41.6706 22.6667 41.6706H34.3333C36.9107 41.6706 39 39.5812 39 37.0039V25.4377C39 24.346 38.6173 23.2889 37.9184 22.4502L33.9457 17.683C33.0591 16.6191 31.7457 16.0039 30.3607 16.0039H22.6667ZM20.3333 20.6706C20.3333 19.3819 21.378 18.3372 22.6667 18.3372H29.6667V21.8372C29.6667 24.4146 31.756 26.5039 34.3333 26.5039H36.6667V37.0039C36.6667 38.2926 35.622 39.3372 34.3333 39.3372H22.6667C21.378 39.3372 20.3333 38.2926 20.3333 37.0039V20.6706ZM36.2926 24.1706C36.2418 24.0921 36.1862 24.0164 36.1258 23.944L32.1532 19.1768C32.1046 19.1185 32.0535 19.0629 32 19.0101V21.8372C32 23.1259 33.0447 24.1706 34.3333 24.1706H36.2926Z" fill="#15AD07"/>
</svg>
