<svg width="57" height="57" viewBox="0 0 57 57" fill="none" xmlns="http://www.w3.org/2000/svg">
<rect x="0.5" y="0.836914" width="56" height="56" rx="8" fill="#E8F7E6"/>
<path fill-rule="evenodd" clip-rule="evenodd" d="M28.5001 20.6699C25.9228 20.6699 23.8334 22.7593 23.8334 25.3366C23.8334 27.9139 25.9228 30.0033 28.5001 30.0033C31.0774 30.0033 33.1668 27.9139 33.1668 25.3366C33.1668 22.7593 31.0774 20.6699 28.5001 20.6699ZM26.1668 25.3366C26.1668 24.0479 27.2114 23.0033 28.5001 23.0033C29.7888 23.0033 30.8334 24.0479 30.8334 25.3366C30.8334 26.6253 29.7888 27.6699 28.5001 27.6699C27.2114 27.6699 26.1668 26.6253 26.1668 25.3366Z" fill="#15AD07"/>
<path fill-rule="evenodd" clip-rule="evenodd" d="M28.5001 40.5033C27.1737 40.5033 25.2613 40.1898 23.8099 39.5228C23.098 39.1956 22.3341 38.7103 21.8835 37.9843C21.6456 37.601 21.4953 37.1492 21.5002 36.6463C21.5051 36.1483 21.6613 35.6759 21.917 35.2431C23.0866 33.2638 25.5129 31.1699 28.5001 31.1699C31.4873 31.1699 33.9136 33.2638 35.0831 35.2431C35.3389 35.6759 35.4951 36.1483 35.5 36.6463C35.5049 37.1492 35.3546 37.601 35.1167 37.9843C34.6661 38.7103 33.9022 39.1956 33.1903 39.5228C31.7389 40.1898 29.8265 40.5033 28.5001 40.5033ZM23.9259 36.4301C23.8365 36.5813 23.8336 36.6564 23.8334 36.6692C23.8333 36.6776 23.833 36.7008 23.866 36.7539C23.9586 36.9031 24.2276 37.1468 24.7842 37.4026C25.87 37.9016 27.4371 38.1699 28.5001 38.1699C29.5631 38.1699 31.1302 37.9016 32.216 37.4026C32.7725 37.1468 33.0416 36.9031 33.1342 36.7539C33.1671 36.7008 33.1669 36.6782 33.1668 36.6697C33.1666 36.657 33.1636 36.5813 33.0743 36.4301C32.1676 34.8955 30.3942 33.5033 28.5001 33.5033C26.606 33.5033 24.8326 34.8955 23.9259 36.4301Z" fill="#15AD07"/>
<path fill-rule="evenodd" clip-rule="evenodd" d="M17.4168 28.8366C17.4168 26.9036 18.9838 25.3366 20.9168 25.3366C22.8498 25.3366 24.4168 26.9036 24.4168 28.8366C24.4168 30.7696 22.8498 32.3366 20.9168 32.3366C18.9838 32.3366 17.4168 30.7696 17.4168 28.8366ZM20.9168 27.6699C20.2724 27.6699 19.7501 28.1923 19.7501 28.8366C19.7501 29.4809 20.2724 30.0033 20.9168 30.0033C21.5611 30.0033 22.0834 29.4809 22.0834 28.8366C22.0834 28.1923 21.5611 27.6699 20.9168 27.6699Z" fill="#15AD07"/>
<path d="M17.8785 37.5219C17.592 38.0991 16.8919 38.3347 16.3147 38.0483C15.7376 37.7618 15.5019 37.0617 15.7884 36.4846C16.217 35.621 16.8658 34.754 17.6819 34.0906C18.4983 33.4269 19.5445 32.9199 20.7385 32.9199C21.3828 32.9199 21.9051 33.4423 21.9051 34.0866C21.9051 34.7309 21.3828 35.2533 20.7385 35.2533C20.224 35.2533 19.681 35.4725 19.1537 35.9012C18.6261 36.3301 18.1765 36.9214 17.8785 37.5219Z" fill="#15AD07"/>
<path fill-rule="evenodd" clip-rule="evenodd" d="M32.9452 28.8366C32.9452 26.9036 34.5122 25.3366 36.4452 25.3366C38.3782 25.3366 39.9452 26.9036 39.9452 28.8366C39.9452 30.7696 38.3782 32.3366 36.4452 32.3366C34.5122 32.3366 32.9452 30.7696 32.9452 28.8366ZM36.4452 27.6699C35.8008 27.6699 35.2785 28.1923 35.2785 28.8366C35.2785 29.4809 35.8008 30.0033 36.4452 30.0033C37.0895 30.0033 37.6118 29.4809 37.6118 28.8366C37.6118 28.1923 37.0895 27.6699 36.4452 27.6699Z" fill="#15AD07"/>
<path d="M41.2169 36.4846C41.5034 37.0617 41.2677 37.7618 40.6906 38.0483C40.1134 38.3347 39.4133 38.0991 39.1269 37.5219C38.8288 36.9214 38.3793 36.3301 37.8516 35.9012C37.3243 35.4725 36.7813 35.2533 36.2669 35.2533C35.6225 35.2533 35.1002 34.7309 35.1002 34.0866C35.1002 33.4423 35.6225 32.9199 36.2669 32.9199C37.4608 32.9199 38.507 33.4269 39.3234 34.0906C40.1396 34.754 40.7883 35.621 41.2169 36.4846Z" fill="#15AD07"/>
</svg>
