<svg width="56" height="57" viewBox="0 0 56 57" fill="none" xmlns="http://www.w3.org/2000/svg">
<rect y="0.836914" width="56" height="56" rx="8" fill="#E8F7E6"/>
<path d="M20.9999 32.3366C20.3556 32.3366 19.8333 31.8143 19.8333 31.1699C19.8333 30.5256 20.3556 30.0033 20.9999 30.0033C21.6443 30.0033 22.1666 30.5256 22.1666 31.1699C22.1666 31.8143 21.6443 32.3366 20.9999 32.3366Z" fill="#15AD07"/>
<path d="M24.4999 31.1699C24.4999 31.8143 25.0223 32.3366 25.6666 32.3366C26.3109 32.3366 26.8333 31.8143 26.8333 31.1699C26.8333 30.5256 26.3109 30.0033 25.6666 30.0033C25.0223 30.0033 24.4999 30.5256 24.4999 31.1699Z" fill="#15AD07"/>
<path d="M30.3333 32.3366C29.6889 32.3366 29.1666 31.8143 29.1666 31.1699C29.1666 30.5256 29.6889 30.0033 30.3333 30.0033C30.9776 30.0033 31.4999 30.5256 31.4999 31.1699C31.4999 31.8143 30.9776 32.3366 30.3333 32.3366Z" fill="#15AD07"/>
<path fill-rule="evenodd" clip-rule="evenodd" d="M37.891 30.526L34.9957 30.8879C34.9985 30.9815 34.9999 31.0756 34.9999 31.1699C34.9999 36.3246 30.8212 40.5033 25.6666 40.5033C24.8955 40.5033 24.1447 40.4095 23.4257 40.2322L18.4103 39.6053C17.1768 39.4511 16.3196 38.3013 16.5239 37.0751L16.8316 35.2292L16.6043 33.4108C16.427 32.6918 16.3333 31.941 16.3333 31.1699C16.3333 26.0153 20.5119 21.8366 25.6666 21.8366C25.7992 21.8366 25.9311 21.8394 26.0623 21.8448C27.021 19.1223 29.6145 17.1699 32.6666 17.1699C36.5326 17.1699 39.6666 20.3039 39.6666 24.1699C39.6666 24.7409 39.598 25.2975 39.468 25.8311L39.3141 27.0625L39.5258 28.3331C39.703 29.3958 38.96 30.3923 37.891 30.526ZM32.6666 19.5033C35.2439 19.5033 37.3333 21.5926 37.3333 24.1699C37.3333 24.5713 37.2828 24.9592 37.1886 25.3284L37.1705 25.3995L36.9909 26.8364C36.9681 27.0183 36.9719 27.2025 37.002 27.3832L37.1493 28.2672L34.6363 28.5813C33.7661 25.5606 31.4113 23.1689 28.4128 22.2472C29.1456 20.6286 30.7758 19.5033 32.6666 19.5033ZM25.6666 24.1699C21.8006 24.1699 18.6666 27.3039 18.6666 31.1699C18.6666 31.7711 18.7421 32.353 18.8836 32.9072L18.9017 32.9783L19.1495 34.9609C19.1758 35.1707 19.1714 35.3832 19.1367 35.5918L18.8505 37.3088L23.8582 37.9348L23.9293 37.9529C24.4836 38.0944 25.0654 38.1699 25.6666 38.1699C29.5326 38.1699 32.6666 35.0359 32.6666 31.1699C32.6666 27.3039 29.5326 24.1699 25.6666 24.1699Z" fill="#15AD07"/>
</svg>
