<svg width="163" height="22" viewBox="0 0 163 22" fill="none" xmlns="http://www.w3.org/2000/svg">
<g style="mix-blend-mode:multiply">
<rect width="163" height="22" rx="11" fill="#FDF2FA"/>
<path d="M16.6703 9.1108H15.3407C15.2896 8.8267 15.1944 8.5767 15.0552 8.3608C14.916 8.14489 14.7456 7.96165 14.5439 7.81108C14.3422 7.66051 14.1163 7.54687 13.8663 7.47017C13.6191 7.39347 13.3564 7.35511 13.0779 7.35511C12.5751 7.35511 12.1248 7.48153 11.7271 7.73438C11.3322 7.98722 11.0197 8.35795 10.7896 8.84659C10.5623 9.33523 10.4487 9.93182 10.4487 10.6364C10.4487 11.3466 10.5623 11.946 10.7896 12.4347C11.0197 12.9233 11.3336 13.2926 11.7314 13.5426C12.1291 13.7926 12.5765 13.9176 13.0737 13.9176C13.3493 13.9176 13.6106 13.8807 13.8578 13.8068C14.1078 13.7301 14.3336 13.6179 14.5353 13.4702C14.737 13.3224 14.9075 13.142 15.0467 12.929C15.1887 12.7131 15.2868 12.4659 15.3407 12.1875L16.6703 12.1918C16.5993 12.6207 16.4615 13.0156 16.2569 13.3764C16.0552 13.7344 15.7953 14.044 15.4771 14.3054C15.1618 14.5639 14.801 14.7642 14.3947 14.9062C13.9885 15.0483 13.5453 15.1193 13.0652 15.1193C12.3095 15.1193 11.6362 14.9403 11.0453 14.5824C10.4544 14.2216 9.98846 13.706 9.64755 13.0355C9.30948 12.3651 9.14045 11.5653 9.14045 10.6364C9.14045 9.70455 9.3109 8.90483 9.65181 8.23722C9.99272 7.56676 10.4586 7.05256 11.0495 6.6946C11.6404 6.33381 12.3123 6.15341 13.0652 6.15341C13.5282 6.15341 13.96 6.22017 14.3606 6.35369C14.764 6.48437 15.1262 6.67756 15.4473 6.93324C15.7683 7.18608 16.0339 7.49574 16.2441 7.86222C16.4544 8.22585 16.5964 8.64205 16.6703 9.1108ZM20.0485 15.1449C19.6337 15.1449 19.2587 15.0682 18.9235 14.9148C18.5882 14.7585 18.3226 14.5327 18.1266 14.2372C17.9334 13.9418 17.8368 13.5795 17.8368 13.1506C17.8368 12.7812 17.9078 12.4773 18.0499 12.2386C18.1919 12 18.3837 11.8111 18.6252 11.6719C18.8667 11.5327 19.1365 11.4276 19.4348 11.3565C19.7331 11.2855 20.0371 11.2315 20.3468 11.1946C20.7388 11.1491 21.057 11.1122 21.3013 11.0838C21.5456 11.0526 21.7232 11.0028 21.834 10.9347C21.9448 10.8665 22.0002 10.7557 22.0002 10.6023V10.5724C22.0002 10.2003 21.8951 9.91193 21.6848 9.70739C21.4775 9.50284 21.1678 9.40057 20.7559 9.40057C20.3269 9.40057 19.9888 9.49574 19.7417 9.68608C19.4973 9.87358 19.3283 10.0824 19.2346 10.3125L18.0371 10.0398C18.1792 9.64205 18.3865 9.32102 18.6593 9.0767C18.9348 8.82955 19.2516 8.65057 19.6096 8.53977C19.9675 8.42614 20.3439 8.36932 20.7388 8.36932C21.0002 8.36932 21.2772 8.40057 21.5698 8.46307C21.8652 8.52273 22.1408 8.63352 22.3965 8.79545C22.655 8.95739 22.8667 9.18892 23.0314 9.49006C23.1962 9.78835 23.2786 10.1761 23.2786 10.6534V15H22.0343V14.1051H21.9831C21.9007 14.2699 21.7772 14.4318 21.6124 14.5909C21.4476 14.75 21.236 14.8821 20.9775 14.9872C20.7189 15.0923 20.4093 15.1449 20.0485 15.1449ZM20.3255 14.1222C20.6777 14.1222 20.9789 14.0526 21.2289 13.9134C21.4817 13.7741 21.6735 13.5923 21.8042 13.3679C21.9377 13.1406 22.0044 12.8977 22.0044 12.6392V11.7955C21.959 11.8409 21.8709 11.8835 21.7402 11.9233C21.6124 11.9602 21.4661 11.9929 21.3013 12.0213C21.1365 12.0469 20.976 12.071 20.8198 12.0938C20.6635 12.1136 20.5328 12.1307 20.4277 12.1449C20.1806 12.1761 19.9547 12.2287 19.7502 12.3026C19.5485 12.3764 19.3865 12.483 19.2644 12.6222C19.1451 12.7585 19.0854 12.9403 19.0854 13.1676C19.0854 13.483 19.2019 13.7216 19.4348 13.8835C19.6678 14.0426 19.9647 14.1222 20.3255 14.1222ZM29.8805 10.0526L28.7257 10.2571C28.6774 10.1094 28.6007 9.96875 28.4956 9.83523C28.3933 9.7017 28.2541 9.59233 28.0779 9.5071C27.9018 9.42187 27.6816 9.37926 27.4174 9.37926C27.0566 9.37926 26.7555 9.46023 26.514 9.62216C26.2725 9.78125 26.1518 9.98722 26.1518 10.2401C26.1518 10.4588 26.2328 10.6349 26.3947 10.7685C26.5566 10.902 26.818 11.0114 27.1788 11.0966L28.2186 11.3352C28.8208 11.4744 29.2697 11.6889 29.5652 11.9787C29.8606 12.2685 30.0083 12.6449 30.0083 13.108C30.0083 13.5 29.8947 13.8494 29.6674 14.1562C29.443 14.4602 29.1291 14.6989 28.7257 14.8722C28.3251 15.0455 27.8606 15.1321 27.3322 15.1321C26.5993 15.1321 26.0012 14.9759 25.5382 14.6634C25.0751 14.348 24.791 13.9006 24.6859 13.321L25.9174 13.1335C25.9941 13.4545 26.1518 13.6974 26.3904 13.8622C26.6291 14.0241 26.9402 14.1051 27.3237 14.1051C27.7413 14.1051 28.0751 14.0185 28.3251 13.8452C28.5751 13.669 28.7001 13.4545 28.7001 13.2017C28.7001 12.9972 28.6234 12.8253 28.47 12.6861C28.3194 12.5469 28.0879 12.4418 27.7754 12.3707L26.6674 12.1278C26.0566 11.9886 25.6049 11.767 25.3123 11.4631C25.0225 11.1591 24.8777 10.7741 24.8777 10.3082C24.8777 9.92187 24.9856 9.58381 25.2015 9.29403C25.4174 9.00426 25.7157 8.77841 26.0964 8.61648C26.4771 8.4517 26.9132 8.36932 27.4047 8.36932C28.112 8.36932 28.6689 8.52273 29.0751 8.82955C29.4814 9.13352 29.7498 9.54119 29.8805 10.0526ZM34.2303 15.1321C33.5854 15.1321 33.03 14.9943 32.5641 14.7188C32.101 14.4403 31.7431 14.0497 31.4902 13.5469C31.2402 13.0412 31.1152 12.4489 31.1152 11.7699C31.1152 11.0994 31.2402 10.5085 31.4902 9.99716C31.7431 9.4858 32.0953 9.08665 32.5471 8.79972C33.0016 8.51278 33.5328 8.36932 34.1408 8.36932C34.5101 8.36932 34.8681 8.4304 35.2147 8.55256C35.5613 8.67472 35.8723 8.86648 36.1479 9.12784C36.4235 9.3892 36.6408 9.72869 36.7999 10.1463C36.959 10.5611 37.0385 11.0653 37.0385 11.6591V12.1108H31.8354V11.1562H35.79C35.79 10.821 35.7218 10.5241 35.5854 10.2656C35.449 10.0043 35.2573 9.7983 35.0101 9.64773C34.7658 9.49716 34.4789 9.42188 34.1493 9.42188C33.7914 9.42188 33.4789 9.50994 33.2118 9.68608C32.9476 9.85937 32.7431 10.0866 32.5982 10.3679C32.4561 10.6463 32.3851 10.9489 32.3851 11.2756V12.0213C32.3851 12.4588 32.4618 12.831 32.6152 13.1378C32.7715 13.4446 32.9888 13.679 33.2672 13.8409C33.5456 14 33.8709 14.0795 34.2431 14.0795C34.4846 14.0795 34.7047 14.0455 34.9036 13.9773C35.1025 13.9062 35.2743 13.8011 35.4192 13.6619C35.5641 13.5227 35.6749 13.3509 35.7516 13.1463L36.9576 13.3636C36.861 13.7187 36.6877 14.0298 36.4377 14.2969C36.1905 14.5611 35.8794 14.767 35.5044 14.9148C35.1323 15.0597 34.7076 15.1321 34.2303 15.1321ZM44.3851 15.1321C43.7516 15.1321 43.2061 14.9886 42.7488 14.7017C42.2942 14.4119 41.9448 14.0128 41.7005 13.5043C41.4561 12.9957 41.334 12.4134 41.334 11.7571C41.334 11.0923 41.459 10.5057 41.709 9.99716C41.959 9.4858 42.3113 9.08665 42.7658 8.79972C43.2203 8.51278 43.7559 8.36932 44.3723 8.36932C44.8695 8.36932 45.3127 8.46165 45.7019 8.64631C46.0911 8.82812 46.405 9.08381 46.6436 9.41335C46.8851 9.7429 47.0286 10.1278 47.074 10.5682H45.834C45.7658 10.2614 45.6096 9.99716 45.3652 9.77557C45.1238 9.55398 44.7999 9.44318 44.3936 9.44318C44.0385 9.44318 43.7275 9.53693 43.4604 9.72443C43.1962 9.90909 42.9902 10.1733 42.8425 10.517C42.6948 10.858 42.6209 11.2614 42.6209 11.7273C42.6209 12.2045 42.6934 12.6165 42.8382 12.9631C42.9831 13.3097 43.1877 13.5781 43.4519 13.7685C43.7189 13.9588 44.0328 14.054 44.3936 14.054C44.6351 14.054 44.8539 14.0099 45.0499 13.9219C45.2488 13.831 45.415 13.7017 45.5485 13.5341C45.6848 13.3665 45.78 13.1648 45.834 12.929H47.074C47.0286 13.3523 46.8908 13.7301 46.6607 14.0625C46.4306 14.3949 46.1223 14.6562 45.736 14.8466C45.3525 15.0369 44.9022 15.1321 44.3851 15.1321ZM49.7108 6.27273V15H48.4366V6.27273H49.7108ZM54.182 15.1321C53.5684 15.1321 53.0328 14.9915 52.5755 14.7102C52.1181 14.429 51.763 14.0355 51.5101 13.5298C51.2573 13.0241 51.1309 12.4332 51.1309 11.7571C51.1309 11.0781 51.2573 10.4844 51.5101 9.97585C51.763 9.46733 52.1181 9.07244 52.5755 8.79119C53.0328 8.50994 53.5684 8.36932 54.182 8.36932C54.7956 8.36932 55.3311 8.50994 55.7885 8.79119C56.2459 9.07244 56.601 9.46733 56.8539 9.97585C57.1067 10.4844 57.2331 11.0781 57.2331 11.7571C57.2331 12.4332 57.1067 13.0241 56.8539 13.5298C56.601 14.0355 56.2459 14.429 55.7885 14.7102C55.3311 14.9915 54.7956 15.1321 54.182 15.1321ZM54.1863 14.0625C54.584 14.0625 54.9135 13.9574 55.1749 13.7472C55.4363 13.5369 55.6294 13.2571 55.7544 12.9077C55.8823 12.5582 55.9462 12.1733 55.9462 11.7528C55.9462 11.3352 55.8823 10.9517 55.7544 10.6023C55.6294 10.25 55.4363 9.96733 55.1749 9.75426C54.9135 9.54119 54.584 9.43466 54.1863 9.43466C53.7857 9.43466 53.4533 9.54119 53.1891 9.75426C52.9277 9.96733 52.7331 10.25 52.6053 10.6023C52.4803 10.9517 52.4178 11.3352 52.4178 11.7528C52.4178 12.1733 52.4803 12.5582 52.6053 12.9077C52.7331 13.2571 52.9277 13.5369 53.1891 13.7472C53.4533 13.9574 53.7857 14.0625 54.1863 14.0625ZM63.5602 10.0526L62.4054 10.2571C62.3571 10.1094 62.2804 9.96875 62.1752 9.83523C62.073 9.7017 61.9338 9.59233 61.7576 9.5071C61.5815 9.42187 61.3613 9.37926 61.0971 9.37926C60.7363 9.37926 60.4352 9.46023 60.1937 9.62216C59.9522 9.78125 59.8315 9.98722 59.8315 10.2401C59.8315 10.4588 59.9125 10.6349 60.0744 10.7685C60.2363 10.902 60.4977 11.0114 60.8585 11.0966L61.8983 11.3352C62.5005 11.4744 62.9494 11.6889 63.2449 11.9787C63.5403 12.2685 63.688 12.6449 63.688 13.108C63.688 13.5 63.5744 13.8494 63.3471 14.1562C63.1227 14.4602 62.8088 14.6989 62.4054 14.8722C62.0048 15.0455 61.5403 15.1321 61.0119 15.1321C60.2789 15.1321 59.6809 14.9759 59.2179 14.6634C58.7548 14.348 58.4707 13.9006 58.3656 13.321L59.5971 13.1335C59.6738 13.4545 59.8315 13.6974 60.0701 13.8622C60.3088 14.0241 60.6199 14.1051 61.0034 14.1051C61.421 14.1051 61.7548 14.0185 62.0048 13.8452C62.2548 13.669 62.3798 13.4545 62.3798 13.2017C62.3798 12.9972 62.3031 12.8253 62.1497 12.6861C61.9991 12.5469 61.7676 12.4418 61.4551 12.3707L60.3471 12.1278C59.7363 11.9886 59.2846 11.767 58.992 11.4631C58.7022 11.1591 58.5574 10.7741 58.5574 10.3082C58.5574 9.92187 58.6653 9.58381 58.8812 9.29403C59.0971 9.00426 59.3954 8.77841 59.7761 8.61648C60.1568 8.4517 60.5929 8.36932 61.0843 8.36932C61.7917 8.36932 62.3485 8.52273 62.7548 8.82955C63.161 9.13352 63.4295 9.54119 63.5602 10.0526ZM67.91 15.1321C67.2651 15.1321 66.7097 14.9943 66.2438 14.7188C65.7807 14.4403 65.4228 14.0497 65.1699 13.5469C64.9199 13.0412 64.7949 12.4489 64.7949 11.7699C64.7949 11.0994 64.9199 10.5085 65.1699 9.99716C65.4228 9.4858 65.775 9.08665 66.2267 8.79972C66.6813 8.51278 67.2125 8.36932 67.8205 8.36932C68.1898 8.36932 68.5478 8.4304 68.8944 8.55256C69.2409 8.67472 69.552 8.86648 69.8276 9.12784C70.1032 9.3892 70.3205 9.72869 70.4796 10.1463C70.6387 10.5611 70.7182 11.0653 70.7182 11.6591V12.1108H65.5151V11.1562H69.4696C69.4696 10.821 69.4015 10.5241 69.2651 10.2656C69.1287 10.0043 68.937 9.7983 68.6898 9.64773C68.4455 9.49716 68.1586 9.42188 67.829 9.42188C67.4711 9.42188 67.1586 9.50994 66.8915 9.68608C66.6273 9.85937 66.4228 10.0866 66.2779 10.3679C66.1358 10.6463 66.0648 10.9489 66.0648 11.2756V12.0213C66.0648 12.4588 66.1415 12.831 66.2949 13.1378C66.4512 13.4446 66.6685 13.679 66.9469 13.8409C67.2253 14 67.5506 14.0795 67.9228 14.0795C68.1642 14.0795 68.3844 14.0455 68.5833 13.9773C68.7821 13.9062 68.954 13.8011 69.0989 13.6619C69.2438 13.5227 69.3546 13.3509 69.4313 13.1463L70.6373 13.3636C70.5407 13.7187 70.3674 14.0298 70.1174 14.2969C69.8702 14.5611 69.5591 14.767 69.1841 14.9148C68.812 15.0597 68.3873 15.1321 67.91 15.1321ZM74.5822 15.1278C74.0538 15.1278 73.5822 14.9929 73.1674 14.723C72.7555 14.4503 72.4316 14.0625 72.1958 13.5597C71.9629 13.054 71.8464 12.4474 71.8464 11.7401C71.8464 11.0327 71.9643 10.4276 72.2001 9.92472C72.4387 9.42187 72.7654 9.03693 73.1802 8.76989C73.595 8.50284 74.0652 8.36932 74.5907 8.36932C74.997 8.36932 75.3237 8.4375 75.5708 8.57386C75.8208 8.70739 76.014 8.86364 76.1504 9.04261C76.2896 9.22159 76.3975 9.37926 76.4743 9.51562H76.551V6.27273H77.8251V15H76.5808V13.9815H76.4743C76.3975 14.1207 76.2868 14.2798 76.1419 14.4588C75.9998 14.6378 75.8038 14.794 75.5538 14.9276C75.3038 15.0611 74.9799 15.1278 74.5822 15.1278ZM74.8635 14.0412C75.2299 14.0412 75.5396 13.9446 75.7924 13.7514C76.0481 13.5554 76.2413 13.2841 76.372 12.9375C76.5055 12.5909 76.5723 12.1875 76.5723 11.7273C76.5723 11.2727 76.5069 10.875 76.3762 10.5341C76.2456 10.1932 76.0538 9.92756 75.801 9.73722C75.5481 9.54687 75.2356 9.4517 74.8635 9.4517C74.4799 9.4517 74.1603 9.55114 73.9047 9.75C73.649 9.94886 73.4558 10.2202 73.3251 10.5639C73.1973 10.9077 73.1333 11.2955 73.1333 11.7273C73.1333 12.1648 73.1987 12.5582 73.3294 12.9077C73.46 13.2571 73.6532 13.5341 73.9089 13.7386C74.1674 13.9403 74.4856 14.0412 74.8635 14.0412ZM83.1902 11.3778C83.1902 10.3097 83.3308 9.3267 83.612 8.42898C83.8933 7.53125 84.3038 6.70312 84.8436 5.9446H86.0112C85.801 6.22585 85.6049 6.57102 85.4231 6.98011C85.2413 7.3892 85.0822 7.83807 84.9458 8.3267C84.8095 8.8125 84.7029 9.31676 84.6262 9.83949C84.5495 10.3594 84.5112 10.8722 84.5112 11.3778C84.5112 12.054 84.5779 12.7386 84.7115 13.4318C84.845 14.125 85.0254 14.7685 85.2527 15.3622C85.4799 15.956 85.7328 16.4403 86.0112 16.8153H84.8436C84.3038 16.0568 83.8933 15.2287 83.612 14.331C83.3308 13.4332 83.1902 12.4489 83.1902 11.3778ZM91.5009 12.2855V8.45455H92.7793V15H91.5265V13.8665H91.4583C91.3077 14.2159 91.0662 14.5071 90.7338 14.7401C90.4043 14.9702 89.9938 15.0852 89.5023 15.0852C89.0819 15.0852 88.7097 14.9929 88.3858 14.8082C88.0648 14.6207 87.812 14.3438 87.6273 13.9773C87.4455 13.6108 87.3546 13.1577 87.3546 12.6179V8.45455H88.6287V12.4645C88.6287 12.9105 88.7523 13.2656 88.9995 13.5298C89.2466 13.794 89.5676 13.9261 89.9625 13.9261C90.2012 13.9261 90.4384 13.8665 90.6742 13.7472C90.9128 13.6278 91.1103 13.4474 91.2665 13.206C91.4256 12.9645 91.5037 12.6577 91.5009 12.2855ZM95.7654 11.1136V15H94.4913V8.45455H95.7143V9.51989H95.7953C95.9458 9.1733 96.1816 8.89489 96.5027 8.68466C96.8265 8.47443 97.2342 8.36932 97.7257 8.36932C98.1717 8.36932 98.5623 8.46307 98.8975 8.65057C99.2328 8.83523 99.4927 9.1108 99.6774 9.47727C99.862 9.84375 99.9544 10.2969 99.9544 10.8366V15H98.6802V10.9901C98.6802 10.5156 98.5566 10.1449 98.3095 9.87784C98.0623 9.60795 97.7228 9.47301 97.291 9.47301C96.9956 9.47301 96.7328 9.53693 96.5027 9.66477C96.2754 9.79261 96.095 9.98011 95.9615 10.2273C95.8308 10.4716 95.7654 10.767 95.7654 11.1136ZM101.663 15V8.45455H102.895V9.49432H102.963C103.082 9.14205 103.292 8.86506 103.594 8.66335C103.898 8.45881 104.241 8.35653 104.625 8.35653C104.704 8.35653 104.798 8.35937 104.906 8.36506C105.017 8.37074 105.104 8.37784 105.166 8.38636V9.60511C105.115 9.59091 105.024 9.57528 104.893 9.55824C104.763 9.53835 104.632 9.52841 104.501 9.52841C104.2 9.52841 103.932 9.59233 103.696 9.72017C103.463 9.84517 103.278 10.0199 103.142 10.2443C103.006 10.4659 102.937 10.7187 102.937 11.0028V15H101.663ZM108.855 15.1321C108.21 15.1321 107.655 14.9943 107.189 14.7188C106.726 14.4403 106.368 14.0497 106.115 13.5469C105.865 13.0412 105.74 12.4489 105.74 11.7699C105.74 11.0994 105.865 10.5085 106.115 9.99716C106.368 9.4858 106.72 9.08665 107.172 8.79972C107.627 8.51278 108.158 8.36932 108.766 8.36932C109.135 8.36932 109.493 8.4304 109.84 8.55256C110.186 8.67472 110.497 8.86648 110.773 9.12784C111.048 9.3892 111.266 9.72869 111.425 10.1463C111.584 10.5611 111.664 11.0653 111.664 11.6591V12.1108H106.46V11.1562H110.415C110.415 10.821 110.347 10.5241 110.21 10.2656C110.074 10.0043 109.882 9.7983 109.635 9.64773C109.391 9.49716 109.104 9.42188 108.774 9.42188C108.416 9.42188 108.104 9.50994 107.837 9.68608C107.573 9.85937 107.368 10.0866 107.223 10.3679C107.081 10.6463 107.01 10.9489 107.01 11.2756V12.0213C107.01 12.4588 107.087 12.831 107.24 13.1378C107.396 13.4446 107.614 13.679 107.892 13.8409C108.171 14 108.496 14.0795 108.868 14.0795C109.11 14.0795 109.33 14.0455 109.529 13.9773C109.727 13.9062 109.899 13.8011 110.044 13.6619C110.189 13.5227 110.3 13.3509 110.377 13.1463L111.583 13.3636C111.486 13.7187 111.313 14.0298 111.063 14.2969C110.816 14.5611 110.504 14.767 110.129 14.9148C109.757 15.0597 109.333 15.1321 108.855 15.1321ZM117.982 10.0526L116.827 10.2571C116.779 10.1094 116.702 9.96875 116.597 9.83523C116.495 9.7017 116.356 9.59233 116.18 9.5071C116.003 9.42187 115.783 9.37926 115.519 9.37926C115.158 9.37926 114.857 9.46023 114.616 9.62216C114.374 9.78125 114.253 9.98722 114.253 10.2401C114.253 10.4588 114.334 10.6349 114.496 10.7685C114.658 10.902 114.92 11.0114 115.28 11.0966L116.32 11.3352C116.922 11.4744 117.371 11.6889 117.667 11.9787C117.962 12.2685 118.11 12.6449 118.11 13.108C118.11 13.5 117.996 13.8494 117.769 14.1562C117.545 14.4602 117.231 14.6989 116.827 14.8722C116.427 15.0455 115.962 15.1321 115.434 15.1321C114.701 15.1321 114.103 14.9759 113.64 14.6634C113.177 14.348 112.893 13.9006 112.787 13.321L114.019 13.1335C114.096 13.4545 114.253 13.6974 114.492 13.8622C114.731 14.0241 115.042 14.1051 115.425 14.1051C115.843 14.1051 116.177 14.0185 116.427 13.8452C116.677 13.669 116.802 13.4545 116.802 13.2017C116.802 12.9972 116.725 12.8253 116.572 12.6861C116.421 12.5469 116.189 12.4418 115.877 12.3707L114.769 12.1278C114.158 11.9886 113.706 11.767 113.414 11.4631C113.124 11.1591 112.979 10.7741 112.979 10.3082C112.979 9.92187 113.087 9.58381 113.303 9.29403C113.519 9.00426 113.817 8.77841 114.198 8.61648C114.579 8.4517 115.015 8.36932 115.506 8.36932C116.214 8.36932 116.77 8.52273 117.177 8.82955C117.583 9.13352 117.851 9.54119 117.982 10.0526ZM122.268 15.1321C121.654 15.1321 121.119 14.9915 120.661 14.7102C120.204 14.429 119.849 14.0355 119.596 13.5298C119.343 13.0241 119.217 12.4332 119.217 11.7571C119.217 11.0781 119.343 10.4844 119.596 9.97585C119.849 9.46733 120.204 9.07244 120.661 8.79119C121.119 8.50994 121.654 8.36932 122.268 8.36932C122.882 8.36932 123.417 8.50994 123.874 8.79119C124.332 9.07244 124.687 9.46733 124.94 9.97585C125.193 10.4844 125.319 11.0781 125.319 11.7571C125.319 12.4332 125.193 13.0241 124.94 13.5298C124.687 14.0355 124.332 14.429 123.874 14.7102C123.417 14.9915 122.882 15.1321 122.268 15.1321ZM122.272 14.0625C122.67 14.0625 122.999 13.9574 123.261 13.7472C123.522 13.5369 123.715 13.2571 123.84 12.9077C123.968 12.5582 124.032 12.1733 124.032 11.7528C124.032 11.3352 123.968 10.9517 123.84 10.6023C123.715 10.25 123.522 9.96733 123.261 9.75426C122.999 9.54119 122.67 9.43466 122.272 9.43466C121.872 9.43466 121.539 9.54119 121.275 9.75426C121.014 9.96733 120.819 10.25 120.691 10.6023C120.566 10.9517 120.504 11.3352 120.504 11.7528C120.504 12.1733 120.566 12.5582 120.691 12.9077C120.819 13.2571 121.014 13.5369 121.275 13.7472C121.539 13.9574 121.872 14.0625 122.272 14.0625ZM128.015 6.27273V15H126.741V6.27273H128.015ZM135.329 8.45455L132.955 15H131.592L129.214 8.45455H130.582L132.24 13.4915H132.308L133.961 8.45455H135.329ZM139.125 15.1321C138.48 15.1321 137.925 14.9943 137.459 14.7188C136.996 14.4403 136.638 14.0497 136.385 13.5469C136.135 13.0412 136.01 12.4489 136.01 11.7699C136.01 11.0994 136.135 10.5085 136.385 9.99716C136.638 9.4858 136.99 9.08665 137.442 8.79972C137.896 8.51278 138.427 8.36932 139.035 8.36932C139.405 8.36932 139.763 8.4304 140.109 8.55256C140.456 8.67472 140.767 8.86648 141.042 9.12784C141.318 9.3892 141.535 9.72869 141.694 10.1463C141.854 10.5611 141.933 11.0653 141.933 11.6591V12.1108H136.73V11.1562H140.684C140.684 10.821 140.616 10.5241 140.48 10.2656C140.344 10.0043 140.152 9.7983 139.905 9.64773C139.66 9.49716 139.373 9.42188 139.044 9.42188C138.686 9.42188 138.373 9.50994 138.106 9.68608C137.842 9.85937 137.638 10.0866 137.493 10.3679C137.351 10.6463 137.28 10.9489 137.28 11.2756V12.0213C137.28 12.4588 137.356 12.831 137.51 13.1378C137.666 13.4446 137.883 13.679 138.162 13.8409C138.44 14 138.765 14.0795 139.138 14.0795C139.379 14.0795 139.599 14.0455 139.798 13.9773C139.997 13.9062 140.169 13.8011 140.314 13.6619C140.459 13.5227 140.569 13.3509 140.646 13.1463L141.852 13.3636C141.756 13.7187 141.582 14.0298 141.332 14.2969C141.085 14.5611 140.774 14.767 140.399 14.9148C140.027 15.0597 139.602 15.1321 139.125 15.1321ZM145.797 15.1278C145.269 15.1278 144.797 14.9929 144.382 14.723C143.97 14.4503 143.646 14.0625 143.411 13.5597C143.178 13.054 143.061 12.4474 143.061 11.7401C143.061 11.0327 143.179 10.4276 143.415 9.92472C143.654 9.42187 143.98 9.03693 144.395 8.76989C144.81 8.50284 145.28 8.36932 145.806 8.36932C146.212 8.36932 146.539 8.4375 146.786 8.57386C147.036 8.70739 147.229 8.86364 147.365 9.04261C147.504 9.22159 147.612 9.37926 147.689 9.51562H147.766V6.27273H149.04V15H147.796V13.9815H147.689C147.612 14.1207 147.502 14.2798 147.357 14.4588C147.215 14.6378 147.019 14.794 146.769 14.9276C146.519 15.0611 146.195 15.1278 145.797 15.1278ZM146.078 14.0412C146.445 14.0412 146.754 13.9446 147.007 13.7514C147.263 13.5554 147.456 13.2841 147.587 12.9375C147.72 12.5909 147.787 12.1875 147.787 11.7273C147.787 11.2727 147.722 10.875 147.591 10.5341C147.46 10.1932 147.269 9.92756 147.016 9.73722C146.763 9.54687 146.45 9.4517 146.078 9.4517C145.695 9.4517 145.375 9.55114 145.119 9.75C144.864 9.94886 144.671 10.2202 144.54 10.5639C144.412 10.9077 144.348 11.2955 144.348 11.7273C144.348 12.1648 144.414 12.5582 144.544 12.9077C144.675 13.2571 144.868 13.5341 145.124 13.7386C145.382 13.9403 145.7 14.0412 146.078 14.0412ZM153.309 11.3778C153.309 12.4489 153.168 13.4332 152.887 14.331C152.606 15.2287 152.195 16.0568 151.655 16.8153H150.488C150.698 16.5341 150.894 16.1889 151.076 15.7798C151.258 15.3707 151.417 14.9233 151.553 14.4375C151.689 13.9489 151.796 13.4432 151.873 12.9205C151.949 12.3977 151.988 11.8835 151.988 11.3778C151.988 10.7045 151.921 10.0213 151.787 9.32812C151.654 8.63494 151.474 7.99148 151.246 7.39773C151.019 6.80398 150.766 6.3196 150.488 5.9446H151.655C152.195 6.70312 152.606 7.53125 152.887 8.42898C153.168 9.3267 153.309 10.3097 153.309 11.3778Z" fill="#C11574"/>
</g>
</svg>
