<svg width="83" height="22" viewBox="0 0 83 22" fill="none" xmlns="http://www.w3.org/2000/svg">
<g style="mix-blend-mode:multiply">
<rect width="83" height="22" rx="11" fill="#F0F9FF"/>
<path d="M16.3734 9.1108H15.0439C14.9927 8.8267 14.8975 8.5767 14.7583 8.3608C14.6191 8.14489 14.4487 7.96165 14.247 7.81108C14.0453 7.66051 13.8194 7.54687 13.5694 7.47017C13.3223 7.39347 13.0595 7.35511 12.7811 7.35511C12.2782 7.35511 11.8279 7.48153 11.4302 7.73438C11.0353 7.98722 10.7228 8.35795 10.4927 8.84659C10.2654 9.33523 10.1518 9.93182 10.1518 10.6364C10.1518 11.3466 10.2654 11.946 10.4927 12.4347C10.7228 12.9233 11.0368 13.2926 11.4345 13.5426C11.8322 13.7926 12.2797 13.9176 12.7768 13.9176C13.0524 13.9176 13.3137 13.8807 13.5609 13.8068C13.8109 13.7301 14.0368 13.6179 14.2385 13.4702C14.4402 13.3224 14.6106 13.142 14.7498 12.929C14.8919 12.7131 14.9899 12.4659 15.0439 12.1875L16.3734 12.1918C16.3024 12.6207 16.1646 13.0156 15.9601 13.3764C15.7583 13.7344 15.4984 14.044 15.1802 14.3054C14.8649 14.5639 14.5041 14.7642 14.0978 14.9062C13.6916 15.0483 13.2484 15.1193 12.7683 15.1193C12.0126 15.1193 11.3393 14.9403 10.7484 14.5824C10.1575 14.2216 9.69158 13.706 9.35067 13.0355C9.01261 12.3651 8.84357 11.5653 8.84357 10.6364C8.84357 9.70455 9.01403 8.90483 9.35494 8.23722C9.69585 7.56676 10.1618 7.05256 10.7527 6.6946C11.3436 6.33381 12.0154 6.15341 12.7683 6.15341C13.2314 6.15341 13.6632 6.22017 14.0637 6.35369C14.4672 6.48437 14.8294 6.67756 15.1504 6.93324C15.4714 7.18608 15.737 7.49574 15.9473 7.86222C16.1575 8.22585 16.2995 8.64205 16.3734 9.1108ZM19.7516 15.1449C19.3368 15.1449 18.9618 15.0682 18.6266 14.9148C18.2914 14.7585 18.0257 14.5327 17.8297 14.2372C17.6365 13.9418 17.54 13.5795 17.54 13.1506C17.54 12.7812 17.611 12.4773 17.753 12.2386C17.8951 12 18.0868 11.8111 18.3283 11.6719C18.5698 11.5327 18.8397 11.4276 19.138 11.3565C19.4363 11.2855 19.7402 11.2315 20.0499 11.1946C20.4419 11.1491 20.7601 11.1122 21.0044 11.0838C21.2488 11.0526 21.4263 11.0028 21.5371 10.9347C21.6479 10.8665 21.7033 10.7557 21.7033 10.6023V10.5724C21.7033 10.2003 21.5982 9.91193 21.388 9.70739C21.1806 9.50284 20.8709 9.40057 20.459 9.40057C20.03 9.40057 19.6919 9.49574 19.4448 9.68608C19.2005 9.87358 19.0314 10.0824 18.9377 10.3125L17.7402 10.0398C17.8823 9.64205 18.0897 9.32102 18.3624 9.0767C18.638 8.82955 18.9547 8.65057 19.3127 8.53977C19.6706 8.42614 20.0471 8.36932 20.4419 8.36932C20.7033 8.36932 20.9803 8.40057 21.2729 8.46307C21.5684 8.52273 21.8439 8.63352 22.0996 8.79545C22.3581 8.95739 22.5698 9.18892 22.7346 9.49006C22.8993 9.78835 22.9817 10.1761 22.9817 10.6534V15H21.7374V14.1051H21.6863C21.6039 14.2699 21.4803 14.4318 21.3155 14.5909C21.1507 14.75 20.9391 14.8821 20.6806 14.9872C20.4221 15.0923 20.1124 15.1449 19.7516 15.1449ZM20.0286 14.1222C20.3809 14.1222 20.682 14.0526 20.932 13.9134C21.1848 13.7741 21.3766 13.5923 21.5073 13.3679C21.6408 13.1406 21.7076 12.8977 21.7076 12.6392V11.7955C21.6621 11.8409 21.574 11.8835 21.4434 11.9233C21.3155 11.9602 21.1692 11.9929 21.0044 12.0213C20.8397 12.0469 20.6792 12.071 20.5229 12.0938C20.3667 12.1136 20.236 12.1307 20.1309 12.1449C19.8837 12.1761 19.6578 12.2287 19.4533 12.3026C19.2516 12.3764 19.0897 12.483 18.9675 12.6222C18.8482 12.7585 18.7885 12.9403 18.7885 13.1676C18.7885 13.483 18.905 13.7216 19.138 13.8835C19.3709 14.0426 19.6678 14.1222 20.0286 14.1222ZM29.5836 10.0526L28.4288 10.2571C28.3805 10.1094 28.3038 9.96875 28.1987 9.83523C28.0964 9.7017 27.9572 9.59233 27.7811 9.5071C27.6049 9.42187 27.3848 9.37926 27.1206 9.37926C26.7598 9.37926 26.4586 9.46023 26.2172 9.62216C25.9757 9.78125 25.8549 9.98722 25.8549 10.2401C25.8549 10.4588 25.9359 10.6349 26.0978 10.7685C26.2598 10.902 26.5211 11.0114 26.8819 11.0966L27.9217 11.3352C28.524 11.4744 28.9728 11.6889 29.2683 11.9787C29.5637 12.2685 29.7115 12.6449 29.7115 13.108C29.7115 13.5 29.5978 13.8494 29.3706 14.1562C29.1461 14.4602 28.8322 14.6989 28.4288 14.8722C28.0282 15.0455 27.5637 15.1321 27.0353 15.1321C26.3024 15.1321 25.7044 14.9759 25.2413 14.6634C24.7782 14.348 24.4941 13.9006 24.389 13.321L25.6206 13.1335C25.6973 13.4545 25.8549 13.6974 26.0936 13.8622C26.3322 14.0241 26.6433 14.1051 27.0268 14.1051C27.4444 14.1051 27.7782 14.0185 28.0282 13.8452C28.2782 13.669 28.4032 13.4545 28.4032 13.2017C28.4032 12.9972 28.3265 12.8253 28.1731 12.6861C28.0225 12.5469 27.791 12.4418 27.4785 12.3707L26.3706 12.1278C25.7598 11.9886 25.3081 11.767 25.0154 11.4631C24.7257 11.1591 24.5808 10.7741 24.5808 10.3082C24.5808 9.92187 24.6887 9.58381 24.9047 9.29403C25.1206 9.00426 25.4189 8.77841 25.7995 8.61648C26.1802 8.4517 26.6163 8.36932 27.1078 8.36932C27.8152 8.36932 28.372 8.52273 28.7782 8.82955C29.1845 9.13352 29.4529 9.54119 29.5836 10.0526ZM33.9334 15.1321C33.2885 15.1321 32.7331 14.9943 32.2672 14.7188C31.8042 14.4403 31.4462 14.0497 31.1934 13.5469C30.9434 13.0412 30.8184 12.4489 30.8184 11.7699C30.8184 11.0994 30.9434 10.5085 31.1934 9.99716C31.4462 9.4858 31.7985 9.08665 32.2502 8.79972C32.7047 8.51278 33.236 8.36932 33.8439 8.36932C34.2132 8.36932 34.5712 8.4304 34.9178 8.55256C35.2644 8.67472 35.5755 8.86648 35.851 9.12784C36.1266 9.3892 36.3439 9.72869 36.503 10.1463C36.6621 10.5611 36.7417 11.0653 36.7417 11.6591V12.1108H31.5385V11.1562H35.4931C35.4931 10.821 35.4249 10.5241 35.2885 10.2656C35.1522 10.0043 34.9604 9.7983 34.7132 9.64773C34.4689 9.49716 34.182 9.42188 33.8525 9.42188C33.4945 9.42188 33.182 9.50994 32.915 9.68608C32.6507 9.85937 32.4462 10.0866 32.3013 10.3679C32.1593 10.6463 32.0882 10.9489 32.0882 11.2756V12.0213C32.0882 12.4588 32.165 12.831 32.3184 13.1378C32.4746 13.4446 32.6919 13.679 32.9703 13.8409C33.2488 14 33.574 14.0795 33.9462 14.0795C34.1877 14.0795 34.4078 14.0455 34.6067 13.9773C34.8056 13.9062 34.9775 13.8011 35.1223 13.6619C35.2672 13.5227 35.378 13.3509 35.4547 13.1463L36.6607 13.3636C36.5641 13.7187 36.3908 14.0298 36.1408 14.2969C35.8936 14.5611 35.5826 14.767 35.2076 14.9148C34.8354 15.0597 34.4107 15.1321 33.9334 15.1321ZM41.3311 15V8.45455H42.6053V15H41.3311ZM41.9746 7.4446C41.753 7.4446 41.5627 7.37074 41.4036 7.22301C41.2473 7.07244 41.1692 6.89347 41.1692 6.68608C41.1692 6.47585 41.2473 6.29687 41.4036 6.14915C41.5627 5.99858 41.753 5.9233 41.9746 5.9233C42.1962 5.9233 42.3851 5.99858 42.5414 6.14915C42.7005 6.29687 42.78 6.47585 42.78 6.68608C42.78 6.89347 42.7005 7.07244 42.5414 7.22301C42.3851 7.37074 42.1962 7.4446 41.9746 7.4446ZM45.5936 11.1136V15H44.3194V8.45455H45.5424V9.51989H45.6234C45.774 9.1733 46.0098 8.89489 46.3308 8.68466C46.6547 8.47443 47.0623 8.36932 47.5538 8.36932C47.9998 8.36932 48.3904 8.46307 48.7257 8.65057C49.0609 8.83523 49.3208 9.1108 49.5055 9.47727C49.6902 9.84375 49.7825 10.2969 49.7825 10.8366V15H48.5083V10.9901C48.5083 10.5156 48.3848 10.1449 48.1376 9.87784C47.8904 9.60795 47.551 9.47301 47.1191 9.47301C46.8237 9.47301 46.5609 9.53693 46.3308 9.66477C46.1035 9.79261 45.9231 9.98011 45.7896 10.2273C45.6589 10.4716 45.5936 10.767 45.5936 11.1136ZM61.8134 6.27273V15H60.6032L56.1671 8.59943H56.0861V15H54.7694V6.27273H55.9881L60.4284 12.6818H60.5094V6.27273H61.8134ZM65.051 6.27273V15H63.7342V6.27273H65.051ZM74.2172 9.1108H72.8876C72.8365 8.8267 72.7413 8.5767 72.6021 8.3608C72.4629 8.14489 72.2924 7.96165 72.0907 7.81108C71.889 7.66051 71.6632 7.54687 71.4132 7.47017C71.166 7.39347 70.9032 7.35511 70.6248 7.35511C70.122 7.35511 69.6717 7.48153 69.274 7.73438C68.8791 7.98722 68.5666 8.35795 68.3365 8.84659C68.1092 9.33523 67.9956 9.93182 67.9956 10.6364C67.9956 11.3466 68.1092 11.946 68.3365 12.4347C68.5666 12.9233 68.8805 13.2926 69.2782 13.5426C69.676 13.7926 70.1234 13.9176 70.6206 13.9176C70.8961 13.9176 71.1575 13.8807 71.4047 13.8068C71.6547 13.7301 71.8805 13.6179 72.0822 13.4702C72.2839 13.3224 72.4544 13.142 72.5936 12.929C72.7356 12.7131 72.8336 12.4659 72.8876 12.1875L74.2172 12.1918C74.1461 12.6207 74.0083 13.0156 73.8038 13.3764C73.6021 13.7344 73.3422 14.044 73.024 14.3054C72.7086 14.5639 72.3478 14.7642 71.9416 14.9062C71.5353 15.0483 71.0922 15.1193 70.612 15.1193C69.8564 15.1193 69.1831 14.9403 68.5922 14.5824C68.0012 14.2216 67.5353 13.706 67.1944 13.0355C66.8564 12.3651 66.6873 11.5653 66.6873 10.6364C66.6873 9.70455 66.8578 8.90483 67.1987 8.23722C67.5396 7.56676 68.0055 7.05256 68.5964 6.6946C69.1873 6.33381 69.8592 6.15341 70.612 6.15341C71.0751 6.15341 71.5069 6.22017 71.9075 6.35369C72.3109 6.48437 72.6731 6.67756 72.9941 6.93324C73.3152 7.18608 73.5808 7.49574 73.791 7.86222C74.0012 8.22585 74.1433 8.64205 74.2172 9.1108Z" fill="#026AA2"/>
</g>
</svg>
