<svg width="148" height="22" viewBox="0 0 148 22" fill="none" xmlns="http://www.w3.org/2000/svg">
<g style="mix-blend-mode:multiply">
<rect width="148" height="22" rx="11" fill="#F0F9FF"/>
<path d="M16.3246 9.1108H14.995C14.9439 8.8267 14.8487 8.5767 14.7095 8.3608C14.5703 8.14489 14.3999 7.96165 14.1982 7.81108C13.9964 7.66051 13.7706 7.54687 13.5206 7.47017C13.2734 7.39347 13.0107 7.35511 12.7322 7.35511C12.2294 7.35511 11.7791 7.48153 11.3814 7.73438C10.9865 7.98722 10.674 8.35795 10.4439 8.84659C10.2166 9.33523 10.103 9.93182 10.103 10.6364C10.103 11.3466 10.2166 11.946 10.4439 12.4347C10.674 12.9233 10.9879 13.2926 11.3857 13.5426C11.7834 13.7926 12.2308 13.9176 12.728 13.9176C13.0036 13.9176 13.2649 13.8807 13.5121 13.8068C13.7621 13.7301 13.9879 13.6179 14.1896 13.4702C14.3913 13.3224 14.5618 13.142 14.701 12.929C14.843 12.7131 14.9411 12.4659 14.995 12.1875L16.3246 12.1918C16.2536 12.6207 16.1158 13.0156 15.9112 13.3764C15.7095 13.7344 15.4496 14.044 15.1314 14.3054C14.8161 14.5639 14.4553 14.7642 14.049 14.9062C13.6428 15.0483 13.1996 15.1193 12.7195 15.1193C11.9638 15.1193 11.2905 14.9403 10.6996 14.5824C10.1087 14.2216 9.64276 13.706 9.30185 13.0355C8.96378 12.3651 8.79474 11.5653 8.79474 10.6364C8.79474 9.70455 8.9652 8.90483 9.30611 8.23722C9.64702 7.56676 10.1129 7.05256 10.7038 6.6946C11.2947 6.33381 11.9666 6.15341 12.7195 6.15341C13.1825 6.15341 13.6143 6.22017 14.0149 6.35369C14.4183 6.48437 14.7805 6.67756 15.1016 6.93324C15.4226 7.18608 15.6882 7.49574 15.8984 7.86222C16.1087 8.22585 16.2507 8.64205 16.3246 9.1108ZM19.7028 15.1449C19.288 15.1449 18.913 15.0682 18.5778 14.9148C18.2425 14.7585 17.9769 14.5327 17.7809 14.2372C17.5877 13.9418 17.4911 13.5795 17.4911 13.1506C17.4911 12.7812 17.5621 12.4773 17.7042 12.2386C17.8462 12 18.038 11.8111 18.2795 11.6719C18.521 11.5327 18.7908 11.4276 19.0891 11.3565C19.3874 11.2855 19.6914 11.2315 20.0011 11.1946C20.3931 11.1491 20.7113 11.1122 20.9556 11.0838C21.1999 11.0526 21.3775 11.0028 21.4883 10.9347C21.5991 10.8665 21.6545 10.7557 21.6545 10.6023V10.5724C21.6545 10.2003 21.5494 9.91193 21.3391 9.70739C21.1317 9.50284 20.8221 9.40057 20.4102 9.40057C19.9812 9.40057 19.6431 9.49574 19.396 9.68608C19.1516 9.87358 18.9826 10.0824 18.8888 10.3125L17.6914 10.0398C17.8335 9.64205 18.0408 9.32102 18.3136 9.0767C18.5891 8.82955 18.9059 8.65057 19.2638 8.53977C19.6218 8.42614 19.9982 8.36932 20.3931 8.36932C20.6545 8.36932 20.9315 8.40057 21.2241 8.46307C21.5195 8.52273 21.7951 8.63352 22.0508 8.79545C22.3093 8.95739 22.521 9.18892 22.6857 9.49006C22.8505 9.78835 22.9329 10.1761 22.9329 10.6534V15H21.6886V14.1051H21.6374C21.555 14.2699 21.4315 14.4318 21.2667 14.5909C21.1019 14.75 20.8903 14.8821 20.6317 14.9872C20.3732 15.0923 20.0636 15.1449 19.7028 15.1449ZM19.9798 14.1222C20.332 14.1222 20.6332 14.0526 20.8832 13.9134C21.136 13.7741 21.3278 13.5923 21.4585 13.3679C21.592 13.1406 21.6587 12.8977 21.6587 12.6392V11.7955C21.6133 11.8409 21.5252 11.8835 21.3945 11.9233C21.2667 11.9602 21.1204 11.9929 20.9556 12.0213C20.7908 12.0469 20.6303 12.071 20.4741 12.0938C20.3178 12.1136 20.1871 12.1307 20.082 12.1449C19.8349 12.1761 19.609 12.2287 19.4045 12.3026C19.2028 12.3764 19.0408 12.483 18.9187 12.6222C18.7994 12.7585 18.7397 12.9403 18.7397 13.1676C18.7397 13.483 18.8562 13.7216 19.0891 13.8835C19.3221 14.0426 19.619 14.1222 19.9798 14.1222ZM29.5348 10.0526L28.38 10.2571C28.3317 10.1094 28.255 9.96875 28.1499 9.83523C28.0476 9.7017 27.9084 9.59233 27.7322 9.5071C27.5561 9.42187 27.3359 9.37926 27.0717 9.37926C26.7109 9.37926 26.4098 9.46023 26.1683 9.62216C25.9268 9.78125 25.8061 9.98722 25.8061 10.2401C25.8061 10.4588 25.8871 10.6349 26.049 10.7685C26.2109 10.902 26.4723 11.0114 26.8331 11.0966L27.8729 11.3352C28.4751 11.4744 28.924 11.6889 29.2195 11.9787C29.5149 12.2685 29.6626 12.6449 29.6626 13.108C29.6626 13.5 29.549 13.8494 29.3217 14.1562C29.0973 14.4602 28.7834 14.6989 28.38 14.8722C27.9794 15.0455 27.5149 15.1321 26.9865 15.1321C26.2536 15.1321 25.6555 14.9759 25.1925 14.6634C24.7294 14.348 24.4453 13.9006 24.3402 13.321L25.5717 13.1335C25.6484 13.4545 25.8061 13.6974 26.0447 13.8622C26.2834 14.0241 26.5945 14.1051 26.978 14.1051C27.3956 14.1051 27.7294 14.0185 27.9794 13.8452C28.2294 13.669 28.3544 13.4545 28.3544 13.2017C28.3544 12.9972 28.2777 12.8253 28.1243 12.6861C27.9737 12.5469 27.7422 12.4418 27.4297 12.3707L26.3217 12.1278C25.7109 11.9886 25.2592 11.767 24.9666 11.4631C24.6768 11.1591 24.532 10.7741 24.532 10.3082C24.532 9.92187 24.6399 9.58381 24.8558 9.29403C25.0717 9.00426 25.37 8.77841 25.7507 8.61648C26.1314 8.4517 26.5675 8.36932 27.0589 8.36932C27.7663 8.36932 28.3232 8.52273 28.7294 8.82955C29.1357 9.13352 29.4041 9.54119 29.5348 10.0526ZM33.8846 15.1321C33.2397 15.1321 32.6843 14.9943 32.2184 14.7188C31.7553 14.4403 31.3974 14.0497 31.1445 13.5469C30.8945 13.0412 30.7695 12.4489 30.7695 11.7699C30.7695 11.0994 30.8945 10.5085 31.1445 9.99716C31.3974 9.4858 31.7496 9.08665 32.2013 8.79972C32.6559 8.51278 33.1871 8.36932 33.7951 8.36932C34.1644 8.36932 34.5224 8.4304 34.869 8.55256C35.2156 8.67472 35.5266 8.86648 35.8022 9.12784C36.0778 9.3892 36.2951 9.72869 36.4542 10.1463C36.6133 10.5611 36.6928 11.0653 36.6928 11.6591V12.1108H31.4897V11.1562H35.4442C35.4442 10.821 35.3761 10.5241 35.2397 10.2656C35.1033 10.0043 34.9116 9.7983 34.6644 9.64773C34.4201 9.49716 34.1332 9.42188 33.8036 9.42188C33.4457 9.42188 33.1332 9.50994 32.8661 9.68608C32.6019 9.85937 32.3974 10.0866 32.2525 10.3679C32.1104 10.6463 32.0394 10.9489 32.0394 11.2756V12.0213C32.0394 12.4588 32.1161 12.831 32.2695 13.1378C32.4258 13.4446 32.6431 13.679 32.9215 13.8409C33.1999 14 33.5252 14.0795 33.8974 14.0795C34.1388 14.0795 34.359 14.0455 34.5579 13.9773C34.7567 13.9062 34.9286 13.8011 35.0735 13.6619C35.2184 13.5227 35.3292 13.3509 35.4059 13.1463L36.6119 13.3636C36.5153 13.7187 36.342 14.0298 36.092 14.2969C35.8448 14.5611 35.5337 14.767 35.1587 14.9148C34.7866 15.0597 34.3619 15.1321 33.8846 15.1321ZM44.0394 15.1321C43.4059 15.1321 42.8604 14.9886 42.4031 14.7017C41.9485 14.4119 41.5991 14.0128 41.3548 13.5043C41.1104 12.9957 40.9883 12.4134 40.9883 11.7571C40.9883 11.0923 41.1133 10.5057 41.3633 9.99716C41.6133 9.4858 41.9656 9.08665 42.4201 8.79972C42.8746 8.51278 43.4102 8.36932 44.0266 8.36932C44.5238 8.36932 44.967 8.46165 45.3562 8.64631C45.7454 8.82812 46.0593 9.08381 46.2979 9.41335C46.5394 9.7429 46.6829 10.1278 46.7283 10.5682H45.4883C45.4201 10.2614 45.2638 9.99716 45.0195 9.77557C44.7781 9.55398 44.4542 9.44318 44.0479 9.44318C43.6928 9.44318 43.3817 9.53693 43.1147 9.72443C42.8505 9.90909 42.6445 10.1733 42.4968 10.517C42.3491 10.858 42.2752 11.2614 42.2752 11.7273C42.2752 12.2045 42.3477 12.6165 42.4925 12.9631C42.6374 13.3097 42.842 13.5781 43.1062 13.7685C43.3732 13.9588 43.6871 14.054 44.0479 14.054C44.2894 14.054 44.5082 14.0099 44.7042 13.9219C44.9031 13.831 45.0692 13.7017 45.2028 13.5341C45.3391 13.3665 45.4343 13.1648 45.4883 12.929H46.7283C46.6829 13.3523 46.5451 13.7301 46.315 14.0625C46.0849 14.3949 45.7766 14.6562 45.3903 14.8466C45.0067 15.0369 44.5565 15.1321 44.0394 15.1321ZM49.3651 6.27273V15H48.0909V6.27273H49.3651ZM53.8363 15.1321C53.2227 15.1321 52.6871 14.9915 52.2298 14.7102C51.7724 14.429 51.4173 14.0355 51.1644 13.5298C50.9116 13.0241 50.7852 12.4332 50.7852 11.7571C50.7852 11.0781 50.9116 10.4844 51.1644 9.97585C51.4173 9.46733 51.7724 9.07244 52.2298 8.79119C52.6871 8.50994 53.2227 8.36932 53.8363 8.36932C54.4499 8.36932 54.9854 8.50994 55.4428 8.79119C55.9002 9.07244 56.2553 9.46733 56.5082 9.97585C56.761 10.4844 56.8874 11.0781 56.8874 11.7571C56.8874 12.4332 56.761 13.0241 56.5082 13.5298C56.2553 14.0355 55.9002 14.429 55.4428 14.7102C54.9854 14.9915 54.4499 15.1321 53.8363 15.1321ZM53.8406 14.0625C54.2383 14.0625 54.5678 13.9574 54.8292 13.7472C55.0906 13.5369 55.2837 13.2571 55.4087 12.9077C55.5366 12.5582 55.6005 12.1733 55.6005 11.7528C55.6005 11.3352 55.5366 10.9517 55.4087 10.6023C55.2837 10.25 55.0906 9.96733 54.8292 9.75426C54.5678 9.54119 54.2383 9.43466 53.8406 9.43466C53.44 9.43466 53.1076 9.54119 52.8434 9.75426C52.582 9.96733 52.3874 10.25 52.2596 10.6023C52.1346 10.9517 52.0721 11.3352 52.0721 11.7528C52.0721 12.1733 52.1346 12.5582 52.2596 12.9077C52.3874 13.2571 52.582 13.5369 52.8434 13.7472C53.1076 13.9574 53.44 14.0625 53.8406 14.0625ZM63.2145 10.0526L62.0597 10.2571C62.0114 10.1094 61.9347 9.96875 61.8295 9.83523C61.7273 9.7017 61.5881 9.59233 61.4119 9.5071C61.2358 9.42187 61.0156 9.37926 60.7514 9.37926C60.3906 9.37926 60.0895 9.46023 59.848 9.62216C59.6065 9.78125 59.4858 9.98722 59.4858 10.2401C59.4858 10.4588 59.5668 10.6349 59.7287 10.7685C59.8906 10.902 60.152 11.0114 60.5128 11.0966L61.5526 11.3352C62.1548 11.4744 62.6037 11.6889 62.8991 11.9787C63.1946 12.2685 63.3423 12.6449 63.3423 13.108C63.3423 13.5 63.2287 13.8494 63.0014 14.1562C62.777 14.4602 62.4631 14.6989 62.0597 14.8722C61.6591 15.0455 61.1946 15.1321 60.6662 15.1321C59.9332 15.1321 59.3352 14.9759 58.8722 14.6634C58.4091 14.348 58.125 13.9006 58.0199 13.321L59.2514 13.1335C59.3281 13.4545 59.4858 13.6974 59.7244 13.8622C59.9631 14.0241 60.2741 14.1051 60.6577 14.1051C61.0753 14.1051 61.4091 14.0185 61.6591 13.8452C61.9091 13.669 62.0341 13.4545 62.0341 13.2017C62.0341 12.9972 61.9574 12.8253 61.804 12.6861C61.6534 12.5469 61.4219 12.4418 61.1094 12.3707L60.0014 12.1278C59.3906 11.9886 58.9389 11.767 58.6463 11.4631C58.3565 11.1591 58.2116 10.7741 58.2116 10.3082C58.2116 9.92187 58.3196 9.58381 58.5355 9.29403C58.7514 9.00426 59.0497 8.77841 59.4304 8.61648C59.8111 8.4517 60.2472 8.36932 60.7386 8.36932C61.446 8.36932 62.0028 8.52273 62.4091 8.82955C62.8153 9.13352 63.0838 9.54119 63.2145 10.0526ZM67.5643 15.1321C66.9194 15.1321 66.364 14.9943 65.8981 14.7188C65.435 14.4403 65.0771 14.0497 64.8242 13.5469C64.5742 13.0412 64.4492 12.4489 64.4492 11.7699C64.4492 11.0994 64.5742 10.5085 64.8242 9.99716C65.0771 9.4858 65.4293 9.08665 65.881 8.79972C66.3356 8.51278 66.8668 8.36932 67.4748 8.36932C67.8441 8.36932 68.2021 8.4304 68.5487 8.55256C68.8952 8.67472 69.2063 8.86648 69.4819 9.12784C69.7575 9.3892 69.9748 9.72869 70.1339 10.1463C70.293 10.5611 70.3725 11.0653 70.3725 11.6591V12.1108H65.1694V11.1562H69.1239C69.1239 10.821 69.0558 10.5241 68.9194 10.2656C68.783 10.0043 68.5913 9.7983 68.3441 9.64773C68.0998 9.49716 67.8129 9.42188 67.4833 9.42188C67.1254 9.42188 66.8129 9.50994 66.5458 9.68608C66.2816 9.85937 66.0771 10.0866 65.9322 10.3679C65.7901 10.6463 65.7191 10.9489 65.7191 11.2756V12.0213C65.7191 12.4588 65.7958 12.831 65.9492 13.1378C66.1055 13.4446 66.3228 13.679 66.6012 13.8409C66.8796 14 67.2049 14.0795 67.5771 14.0795C67.8185 14.0795 68.0387 14.0455 68.2376 13.9773C68.4364 13.9062 68.6083 13.8011 68.7532 13.6619C68.8981 13.5227 69.0089 13.3509 69.0856 13.1463L70.2915 13.3636C70.195 13.7187 70.0217 14.0298 69.7717 14.2969C69.5245 14.5611 69.2134 14.767 68.8384 14.9148C68.4663 15.0597 68.0415 15.1321 67.5643 15.1321ZM74.2365 15.1278C73.7081 15.1278 73.2365 14.9929 72.8217 14.723C72.4098 14.4503 72.0859 14.0625 71.8501 13.5597C71.6172 13.054 71.5007 12.4474 71.5007 11.7401C71.5007 11.0327 71.6186 10.4276 71.8544 9.92472C72.093 9.42187 72.4197 9.03693 72.8345 8.76989C73.2493 8.50284 73.7195 8.36932 74.245 8.36932C74.6513 8.36932 74.978 8.4375 75.2251 8.57386C75.4751 8.70739 75.6683 8.86364 75.8047 9.04261C75.9439 9.22159 76.0518 9.37926 76.1286 9.51562H76.2053V6.27273H77.4794V15H76.2351V13.9815H76.1286C76.0518 14.1207 75.9411 14.2798 75.7962 14.4588C75.6541 14.6378 75.4581 14.794 75.2081 14.9276C74.9581 15.0611 74.6342 15.1278 74.2365 15.1278ZM74.5178 14.0412C74.8842 14.0412 75.1939 13.9446 75.4467 13.7514C75.7024 13.5554 75.8956 13.2841 76.0263 12.9375C76.1598 12.5909 76.2266 12.1875 76.2266 11.7273C76.2266 11.2727 76.1612 10.875 76.0305 10.5341C75.8999 10.1932 75.7081 9.92756 75.4553 9.73722C75.2024 9.54687 74.8899 9.4517 74.5178 9.4517C74.1342 9.4517 73.8146 9.55114 73.5589 9.75C73.3033 9.94886 73.1101 10.2202 72.9794 10.5639C72.8516 10.9077 72.7876 11.2955 72.7876 11.7273C72.7876 12.1648 72.853 12.5582 72.9837 12.9077C73.1143 13.2571 73.3075 13.5341 73.5632 13.7386C73.8217 13.9403 74.1399 14.0412 74.5178 14.0412ZM82.8445 11.3778C82.8445 10.3097 82.9851 9.3267 83.2663 8.42898C83.5476 7.53125 83.9581 6.70312 84.4979 5.9446H85.6655C85.4553 6.22585 85.2592 6.57102 85.0774 6.98011C84.8956 7.3892 84.7365 7.83807 84.6001 8.3267C84.4638 8.8125 84.3572 9.31676 84.2805 9.83949C84.2038 10.3594 84.1655 10.8722 84.1655 11.3778C84.1655 12.054 84.2322 12.7386 84.3658 13.4318C84.4993 14.125 84.6797 14.7685 84.907 15.3622C85.1342 15.956 85.3871 16.4403 85.6655 16.8153H84.4979C83.9581 16.0568 83.5476 15.2287 83.2663 14.331C82.9851 13.4332 82.8445 12.4489 82.8445 11.3778ZM87.0089 15V8.45455H88.2404V9.49432H88.3086C88.4279 9.14205 88.6381 8.86506 88.9393 8.66335C89.2433 8.45881 89.587 8.35653 89.9705 8.35653C90.0501 8.35653 90.1438 8.35937 90.2518 8.36506C90.3626 8.37074 90.4492 8.37784 90.5117 8.38636V9.60511C90.4606 9.59091 90.3697 9.57528 90.239 9.55824C90.1083 9.53835 89.9776 9.52841 89.8469 9.52841C89.5458 9.52841 89.2773 9.59233 89.0415 9.72017C88.8086 9.84517 88.6239 10.0199 88.4876 10.2443C88.3512 10.4659 88.283 10.7187 88.283 11.0028V15H87.0089ZM94.201 15.1321C93.5561 15.1321 93.0007 14.9943 92.5348 14.7188C92.0717 14.4403 91.7138 14.0497 91.4609 13.5469C91.2109 13.0412 91.0859 12.4489 91.0859 11.7699C91.0859 11.0994 91.2109 10.5085 91.4609 9.99716C91.7138 9.4858 92.0661 9.08665 92.5178 8.79972C92.9723 8.51278 93.5036 8.36932 94.1115 8.36932C94.4808 8.36932 94.8388 8.4304 95.1854 8.55256C95.532 8.67472 95.843 8.86648 96.1186 9.12784C96.3942 9.3892 96.6115 9.72869 96.7706 10.1463C96.9297 10.5611 97.0092 11.0653 97.0092 11.6591V12.1108H91.8061V11.1562H95.7607C95.7607 10.821 95.6925 10.5241 95.5561 10.2656C95.4197 10.0043 95.228 9.7983 94.9808 9.64773C94.7365 9.49716 94.4496 9.42188 94.12 9.42188C93.7621 9.42188 93.4496 9.50994 93.1825 9.68608C92.9183 9.85937 92.7138 10.0866 92.5689 10.3679C92.4268 10.6463 92.3558 10.9489 92.3558 11.2756V12.0213C92.3558 12.4588 92.4325 12.831 92.5859 13.1378C92.7422 13.4446 92.9595 13.679 93.2379 13.8409C93.5163 14 93.8416 14.0795 94.2138 14.0795C94.4553 14.0795 94.6754 14.0455 94.8743 13.9773C95.0732 13.9062 95.245 13.8011 95.3899 13.6619C95.5348 13.5227 95.6456 13.3509 95.7223 13.1463L96.9283 13.3636C96.8317 13.7187 96.6584 14.0298 96.4084 14.2969C96.1612 14.5611 95.8501 14.767 95.4751 14.9148C95.103 15.0597 94.6783 15.1321 94.201 15.1321ZM103.328 10.0526L102.173 10.2571C102.125 10.1094 102.048 9.96875 101.943 9.83523C101.841 9.7017 101.701 9.59233 101.525 9.5071C101.349 9.42187 101.129 9.37926 100.865 9.37926C100.504 9.37926 100.203 9.46023 99.9613 9.62216C99.7198 9.78125 99.5991 9.98722 99.5991 10.2401C99.5991 10.4588 99.68 10.6349 99.842 10.7685C100.004 10.902 100.265 11.0114 100.626 11.0966L101.666 11.3352C102.268 11.4744 102.717 11.6889 103.012 11.9787C103.308 12.2685 103.456 12.6449 103.456 13.108C103.456 13.5 103.342 13.8494 103.115 14.1562C102.89 14.4602 102.576 14.6989 102.173 14.8722C101.772 15.0455 101.308 15.1321 100.779 15.1321C100.047 15.1321 99.4485 14.9759 98.9854 14.6634C98.5224 14.348 98.2383 13.9006 98.1332 13.321L99.3647 13.1335C99.4414 13.4545 99.5991 13.6974 99.8377 13.8622C100.076 14.0241 100.387 14.1051 100.771 14.1051C101.189 14.1051 101.522 14.0185 101.772 13.8452C102.022 13.669 102.147 13.4545 102.147 13.2017C102.147 12.9972 102.071 12.8253 101.917 12.6861C101.767 12.5469 101.535 12.4418 101.223 12.3707L100.115 12.1278C99.5039 11.9886 99.0522 11.767 98.7596 11.4631C98.4698 11.1591 98.3249 10.7741 98.3249 10.3082C98.3249 9.92187 98.4329 9.58381 98.6488 9.29403C98.8647 9.00426 99.163 8.77841 99.5437 8.61648C99.9244 8.4517 100.36 8.36932 100.852 8.36932C101.559 8.36932 102.116 8.52273 102.522 8.82955C102.929 9.13352 103.197 9.54119 103.328 10.0526ZM107.614 15.1321C107 15.1321 106.464 14.9915 106.007 14.7102C105.55 14.429 105.195 14.0355 104.942 13.5298C104.689 13.0241 104.562 12.4332 104.562 11.7571C104.562 11.0781 104.689 10.4844 104.942 9.97585C105.195 9.46733 105.55 9.07244 106.007 8.79119C106.464 8.50994 107 8.36932 107.614 8.36932C108.227 8.36932 108.763 8.50994 109.22 8.79119C109.678 9.07244 110.033 9.46733 110.286 9.97585C110.538 10.4844 110.665 11.0781 110.665 11.7571C110.665 12.4332 110.538 13.0241 110.286 13.5298C110.033 14.0355 109.678 14.429 109.22 14.7102C108.763 14.9915 108.227 15.1321 107.614 15.1321ZM107.618 14.0625C108.016 14.0625 108.345 13.9574 108.607 13.7472C108.868 13.5369 109.061 13.2571 109.186 12.9077C109.314 12.5582 109.378 12.1733 109.378 11.7528C109.378 11.3352 109.314 10.9517 109.186 10.6023C109.061 10.25 108.868 9.96733 108.607 9.75426C108.345 9.54119 108.016 9.43466 107.618 9.43466C107.217 9.43466 106.885 9.54119 106.621 9.75426C106.359 9.96733 106.165 10.25 106.037 10.6023C105.912 10.9517 105.849 11.3352 105.849 11.7528C105.849 12.1733 105.912 12.5582 106.037 12.9077C106.165 13.2571 106.359 13.5369 106.621 13.7472C106.885 13.9574 107.217 14.0625 107.618 14.0625ZM113.361 6.27273V15H112.087V6.27273H113.361ZM120.675 8.45455L118.301 15H116.938L114.56 8.45455H115.928L117.585 13.4915H117.653L119.307 8.45455H120.675ZM124.471 15.1321C123.826 15.1321 123.27 14.9943 122.804 14.7188C122.341 14.4403 121.983 14.0497 121.73 13.5469C121.48 13.0412 121.355 12.4489 121.355 11.7699C121.355 11.0994 121.48 10.5085 121.73 9.99716C121.983 9.4858 122.336 9.08665 122.787 8.79972C123.242 8.51278 123.773 8.36932 124.381 8.36932C124.75 8.36932 125.108 8.4304 125.455 8.55256C125.801 8.67472 126.113 8.86648 126.388 9.12784C126.664 9.3892 126.881 9.72869 127.04 10.1463C127.199 10.5611 127.279 11.0653 127.279 11.6591V12.1108H122.076V11.1562H126.03C126.03 10.821 125.962 10.5241 125.826 10.2656C125.689 10.0043 125.498 9.7983 125.25 9.64773C125.006 9.49716 124.719 9.42188 124.39 9.42188C124.032 9.42188 123.719 9.50994 123.452 9.68608C123.188 9.85937 122.983 10.0866 122.838 10.3679C122.696 10.6463 122.625 10.9489 122.625 11.2756V12.0213C122.625 12.4588 122.702 12.831 122.855 13.1378C123.012 13.4446 123.229 13.679 123.507 13.8409C123.786 14 124.111 14.0795 124.483 14.0795C124.725 14.0795 124.945 14.0455 125.144 13.9773C125.343 13.9062 125.515 13.8011 125.659 13.6619C125.804 13.5227 125.915 13.3509 125.992 13.1463L127.198 13.3636C127.101 13.7187 126.928 14.0298 126.678 14.2969C126.431 14.5611 126.12 14.767 125.745 14.9148C125.373 15.0597 124.948 15.1321 124.471 15.1321ZM131.143 15.1278C130.614 15.1278 130.143 14.9929 129.728 14.723C129.316 14.4503 128.992 14.0625 128.756 13.5597C128.523 13.054 128.407 12.4474 128.407 11.7401C128.407 11.0327 128.525 10.4276 128.761 9.92472C128.999 9.42187 129.326 9.03693 129.741 8.76989C130.156 8.50284 130.626 8.36932 131.151 8.36932C131.558 8.36932 131.884 8.4375 132.131 8.57386C132.381 8.70739 132.575 8.86364 132.711 9.04261C132.85 9.22159 132.958 9.37926 133.035 9.51562H133.112V6.27273H134.386V15H133.141V13.9815H133.035C132.958 14.1207 132.847 14.2798 132.702 14.4588C132.56 14.6378 132.364 14.794 132.114 14.9276C131.864 15.0611 131.54 15.1278 131.143 15.1278ZM131.424 14.0412C131.79 14.0412 132.1 13.9446 132.353 13.7514C132.609 13.5554 132.802 13.2841 132.933 12.9375C133.066 12.5909 133.133 12.1875 133.133 11.7273C133.133 11.2727 133.067 10.875 132.937 10.5341C132.806 10.1932 132.614 9.92756 132.362 9.73722C132.109 9.54687 131.796 9.4517 131.424 9.4517C131.04 9.4517 130.721 9.55114 130.465 9.75C130.21 9.94886 130.016 10.2202 129.886 10.5639C129.758 10.9077 129.694 11.2955 129.694 11.7273C129.694 12.1648 129.759 12.5582 129.89 12.9077C130.021 13.2571 130.214 13.5341 130.469 13.7386C130.728 13.9403 131.046 14.0412 131.424 14.0412ZM138.654 11.3778C138.654 12.4489 138.514 13.4332 138.233 14.331C137.951 15.2287 137.541 16.0568 137.001 16.8153H135.833C136.044 16.5341 136.24 16.1889 136.422 15.7798C136.603 15.3707 136.762 14.9233 136.899 14.4375C137.035 13.9489 137.142 13.4432 137.218 12.9205C137.295 12.3977 137.333 11.8835 137.333 11.3778C137.333 10.7045 137.267 10.0213 137.133 9.32812C137 8.63494 136.819 7.99148 136.592 7.39773C136.365 6.80398 136.112 6.3196 135.833 5.9446H137.001C137.541 6.70312 137.951 7.53125 138.233 8.42898C138.514 9.3267 138.654 10.3097 138.654 11.3778Z" fill="#026AA2"/>
</g>
</svg>
