<svg width="128" height="22" viewBox="0 0 128 22" fill="none" xmlns="http://www.w3.org/2000/svg">
<g style="mix-blend-mode:multiply">
<rect width="128" height="22" rx="11" fill="#FFFAEB"/>
<path d="M16.5492 9.1108H15.2196C15.1685 8.8267 15.0733 8.5767 14.9341 8.3608C14.7949 8.14489 14.6245 7.96165 14.4228 7.81108C14.2211 7.66051 13.9952 7.54687 13.7452 7.47017C13.498 7.39347 13.2353 7.35511 12.9569 7.35511C12.454 7.35511 12.0037 7.48153 11.606 7.73438C11.2111 7.98722 10.8986 8.35795 10.6685 8.84659C10.4412 9.33523 10.3276 9.93182 10.3276 10.6364C10.3276 11.3466 10.4412 11.946 10.6685 12.4347C10.8986 12.9233 11.2125 13.2926 11.6103 13.5426C12.008 13.7926 12.4554 13.9176 12.9526 13.9176C13.2282 13.9176 13.4895 13.8807 13.7367 13.8068C13.9867 13.7301 14.2125 13.6179 14.4142 13.4702C14.6159 13.3224 14.7864 13.142 14.9256 12.929C15.0676 12.7131 15.1657 12.4659 15.2196 12.1875L16.5492 12.1918C16.4782 12.6207 16.3404 13.0156 16.1358 13.3764C15.9341 13.7344 15.6742 14.044 15.356 14.3054C15.0407 14.5639 14.6799 14.7642 14.2736 14.9062C13.8674 15.0483 13.4242 15.1193 12.9441 15.1193C12.1884 15.1193 11.5151 14.9403 10.9242 14.5824C10.3333 14.2216 9.86737 13.706 9.52646 13.0355C9.18839 12.3651 9.01935 11.5653 9.01935 10.6364C9.01935 9.70455 9.18981 8.90483 9.53072 8.23722C9.87163 7.56676 10.3375 7.05256 10.9284 6.6946C11.5194 6.33381 12.1912 6.15341 12.9441 6.15341C13.4071 6.15341 13.839 6.22017 14.2395 6.35369C14.6429 6.48437 15.0051 6.67756 15.3262 6.93324C15.6472 7.18608 15.9128 7.49574 16.123 7.86222C16.3333 8.22585 16.4753 8.64205 16.5492 9.1108ZM19.9274 15.1449C19.5126 15.1449 19.1376 15.0682 18.8024 14.9148C18.4672 14.7585 18.2015 14.5327 18.0055 14.2372C17.8123 13.9418 17.7157 13.5795 17.7157 13.1506C17.7157 12.7812 17.7868 12.4773 17.9288 12.2386C18.0708 12 18.2626 11.8111 18.5041 11.6719C18.7456 11.5327 19.0154 11.4276 19.3137 11.3565C19.612 11.2855 19.916 11.2315 20.2257 11.1946C20.6177 11.1491 20.9359 11.1122 21.1802 11.0838C21.4245 11.0526 21.6021 11.0028 21.7129 10.9347C21.8237 10.8665 21.8791 10.7557 21.8791 10.6023V10.5724C21.8791 10.2003 21.774 9.91193 21.5637 9.70739C21.3564 9.50284 21.0467 9.40057 20.6348 9.40057C20.2058 9.40057 19.8677 9.49574 19.6206 9.68608C19.3762 9.87358 19.2072 10.0824 19.1135 10.3125L17.916 10.0398C18.0581 9.64205 18.2654 9.32102 18.5382 9.0767C18.8137 8.82955 19.1305 8.65057 19.4885 8.53977C19.8464 8.42614 20.2228 8.36932 20.6177 8.36932C20.8791 8.36932 21.1561 8.40057 21.4487 8.46307C21.7441 8.52273 22.0197 8.63352 22.2754 8.79545C22.5339 8.95739 22.7456 9.18892 22.9103 9.49006C23.0751 9.78835 23.1575 10.1761 23.1575 10.6534V15H21.9132V14.1051H21.862C21.7797 14.2699 21.6561 14.4318 21.4913 14.5909C21.3265 14.75 21.1149 14.8821 20.8564 14.9872C20.5978 15.0923 20.2882 15.1449 19.9274 15.1449ZM20.2044 14.1222C20.5566 14.1222 20.8578 14.0526 21.1078 13.9134C21.3606 13.7741 21.5524 13.5923 21.6831 13.3679C21.8166 13.1406 21.8833 12.8977 21.8833 12.6392V11.7955C21.8379 11.8409 21.7498 11.8835 21.6191 11.9233C21.4913 11.9602 21.345 11.9929 21.1802 12.0213C21.0154 12.0469 20.8549 12.071 20.6987 12.0938C20.5424 12.1136 20.4118 12.1307 20.3066 12.1449C20.0595 12.1761 19.8336 12.2287 19.6291 12.3026C19.4274 12.3764 19.2654 12.483 19.1433 12.6222C19.024 12.7585 18.9643 12.9403 18.9643 13.1676C18.9643 13.483 19.0808 13.7216 19.3137 13.8835C19.5467 14.0426 19.8436 14.1222 20.2044 14.1222ZM29.7594 10.0526L28.6046 10.2571C28.5563 10.1094 28.4796 9.96875 28.3745 9.83523C28.2722 9.7017 28.133 9.59233 27.9569 9.5071C27.7807 9.42187 27.5605 9.37926 27.2963 9.37926C26.9355 9.37926 26.6344 9.46023 26.3929 9.62216C26.1515 9.78125 26.0307 9.98722 26.0307 10.2401C26.0307 10.4588 26.1117 10.6349 26.2736 10.7685C26.4355 10.902 26.6969 11.0114 27.0577 11.0966L28.0975 11.3352C28.6998 11.4744 29.1486 11.6889 29.4441 11.9787C29.7395 12.2685 29.8873 12.6449 29.8873 13.108C29.8873 13.5 29.7736 13.8494 29.5463 14.1562C29.3219 14.4602 29.008 14.6989 28.6046 14.8722C28.204 15.0455 27.7395 15.1321 27.2111 15.1321C26.4782 15.1321 25.8801 14.9759 25.4171 14.6634C24.954 14.348 24.6699 13.9006 24.5648 13.321L25.7963 13.1335C25.873 13.4545 26.0307 13.6974 26.2694 13.8622C26.508 14.0241 26.8191 14.1051 27.2026 14.1051C27.6202 14.1051 27.954 14.0185 28.204 13.8452C28.454 13.669 28.579 13.4545 28.579 13.2017C28.579 12.9972 28.5023 12.8253 28.3489 12.6861C28.1983 12.5469 27.9668 12.4418 27.6543 12.3707L26.5463 12.1278C25.9355 11.9886 25.4838 11.767 25.1912 11.4631C24.9015 11.1591 24.7566 10.7741 24.7566 10.3082C24.7566 9.92187 24.8645 9.58381 25.0804 9.29403C25.2963 9.00426 25.5946 8.77841 25.9753 8.61648C26.356 8.4517 26.7921 8.36932 27.2836 8.36932C27.9909 8.36932 28.5478 8.52273 28.954 8.82955C29.3603 9.13352 29.6287 9.54119 29.7594 10.0526ZM34.1092 15.1321C33.4643 15.1321 32.9089 14.9943 32.443 14.7188C31.9799 14.4403 31.622 14.0497 31.3691 13.5469C31.1191 13.0412 30.9941 12.4489 30.9941 11.7699C30.9941 11.0994 31.1191 10.5085 31.3691 9.99716C31.622 9.4858 31.9743 9.08665 32.426 8.79972C32.8805 8.51278 33.4118 8.36932 34.0197 8.36932C34.389 8.36932 34.747 8.4304 35.0936 8.55256C35.4402 8.67472 35.7512 8.86648 36.0268 9.12784C36.3024 9.3892 36.5197 9.72869 36.6788 10.1463C36.8379 10.5611 36.9174 11.0653 36.9174 11.6591V12.1108H31.7143V11.1562H35.6689C35.6689 10.821 35.6007 10.5241 35.4643 10.2656C35.3279 10.0043 35.1362 9.7983 34.889 9.64773C34.6447 9.49716 34.3578 9.42188 34.0282 9.42188C33.6703 9.42188 33.3578 9.50994 33.0907 9.68608C32.8265 9.85937 32.622 10.0866 32.4771 10.3679C32.335 10.6463 32.264 10.9489 32.264 11.2756V12.0213C32.264 12.4588 32.3407 12.831 32.4941 13.1378C32.6504 13.4446 32.8677 13.679 33.1461 13.8409C33.4245 14 33.7498 14.0795 34.122 14.0795C34.3635 14.0795 34.5836 14.0455 34.7825 13.9773C34.9814 13.9062 35.1532 13.8011 35.2981 13.6619C35.443 13.5227 35.5538 13.3509 35.6305 13.1463L36.8365 13.3636C36.7399 13.7187 36.5666 14.0298 36.3166 14.2969C36.0694 14.5611 35.7583 14.767 35.3833 14.9148C35.0112 15.0597 34.5865 15.1321 34.1092 15.1321ZM41.5069 15V8.45455H42.7811V15H41.5069ZM42.1504 7.4446C41.9288 7.4446 41.7385 7.37074 41.5794 7.22301C41.4231 7.07244 41.345 6.89347 41.345 6.68608C41.345 6.47585 41.4231 6.29687 41.5794 6.14915C41.7385 5.99858 41.9288 5.9233 42.1504 5.9233C42.372 5.9233 42.5609 5.99858 42.7172 6.14915C42.8762 6.29687 42.9558 6.47585 42.9558 6.68608C42.9558 6.89347 42.8762 7.07244 42.7172 7.22301C42.5609 7.37074 42.372 7.4446 42.1504 7.4446ZM45.7694 11.1136V15H44.4952V8.45455H45.7182V9.51989H45.7992C45.9498 9.1733 46.1855 8.89489 46.5066 8.68466C46.8304 8.47443 47.2381 8.36932 47.7296 8.36932C48.1756 8.36932 48.5662 8.46307 48.9015 8.65057C49.2367 8.83523 49.4966 9.1108 49.6813 9.47727C49.8659 9.84375 49.9583 10.2969 49.9583 10.8366V15H48.6841V10.9901C48.6841 10.5156 48.5605 10.1449 48.3134 9.87784C48.0662 9.60795 47.7267 9.47301 47.2949 9.47301C46.9995 9.47301 46.7367 9.53693 46.5066 9.66477C46.2793 9.79261 46.0989 9.98011 45.9654 10.2273C45.8347 10.4716 45.7694 10.767 45.7694 11.1136ZM57.6 15.1321C56.9664 15.1321 56.421 14.9886 55.9636 14.7017C55.5091 14.4119 55.1596 14.0128 54.9153 13.5043C54.671 12.9957 54.5488 12.4134 54.5488 11.7571C54.5488 11.0923 54.6738 10.5057 54.9238 9.99716C55.1738 9.4858 55.5261 9.08665 55.9806 8.79972C56.4352 8.51278 56.9707 8.36932 57.5872 8.36932C58.0843 8.36932 58.5275 8.46165 58.9167 8.64631C59.3059 8.82812 59.6199 9.08381 59.8585 9.41335C60.1 9.7429 60.2434 10.1278 60.2889 10.5682H59.0488C58.9806 10.2614 58.8244 9.99716 58.5801 9.77557C58.3386 9.55398 58.0147 9.44318 57.6085 9.44318C57.2534 9.44318 56.9423 9.53693 56.6752 9.72443C56.411 9.90909 56.2051 10.1733 56.0574 10.517C55.9096 10.858 55.8358 11.2614 55.8358 11.7273C55.8358 12.2045 55.9082 12.6165 56.0531 12.9631C56.198 13.3097 56.4025 13.5781 56.6667 13.7685C56.9338 13.9588 57.2477 14.054 57.6085 14.054C57.85 14.054 58.0687 14.0099 58.2647 13.9219C58.4636 13.831 58.6298 13.7017 58.7633 13.5341C58.8997 13.3665 58.9949 13.1648 59.0488 12.929H60.2889C60.2434 13.3523 60.1056 13.7301 59.8755 14.0625C59.6454 14.3949 59.3372 14.6562 58.9508 14.8466C58.5673 15.0369 58.117 15.1321 57.6 15.1321ZM64.4086 15.1321C63.7949 15.1321 63.2594 14.9915 62.802 14.7102C62.3446 14.429 61.9895 14.0355 61.7367 13.5298C61.4838 13.0241 61.3574 12.4332 61.3574 11.7571C61.3574 11.0781 61.4838 10.4844 61.7367 9.97585C61.9895 9.46733 62.3446 9.07244 62.802 8.79119C63.2594 8.50994 63.7949 8.36932 64.4086 8.36932C65.0222 8.36932 65.5577 8.50994 66.0151 8.79119C66.4725 9.07244 66.8276 9.46733 67.0804 9.97585C67.3333 10.4844 67.4597 11.0781 67.4597 11.7571C67.4597 12.4332 67.3333 13.0241 67.0804 13.5298C66.8276 14.0355 66.4725 14.429 66.0151 14.7102C65.5577 14.9915 65.0222 15.1321 64.4086 15.1321ZM64.4128 14.0625C64.8105 14.0625 65.1401 13.9574 65.4015 13.7472C65.6628 13.5369 65.856 13.2571 65.981 12.9077C66.1088 12.5582 66.1728 12.1733 66.1728 11.7528C66.1728 11.3352 66.1088 10.9517 65.981 10.6023C65.856 10.25 65.6628 9.96733 65.4015 9.75426C65.1401 9.54119 64.8105 9.43466 64.4128 9.43466C64.0123 9.43466 63.6799 9.54119 63.4157 9.75426C63.1543 9.96733 62.9597 10.25 62.8319 10.6023C62.7069 10.9517 62.6444 11.3352 62.6444 11.7528C62.6444 12.1733 62.7069 12.5582 62.8319 12.9077C62.9597 13.2571 63.1543 13.5369 63.4157 13.7472C63.6799 13.9574 64.0123 14.0625 64.4128 14.0625ZM70.1561 11.1136V15H68.8819V8.45455H70.1049V9.51989H70.1859C70.3365 9.1733 70.5723 8.89489 70.8933 8.68466C71.2172 8.47443 71.6248 8.36932 72.1163 8.36932C72.5623 8.36932 72.9529 8.46307 73.2882 8.65057C73.6234 8.83523 73.8833 9.1108 74.068 9.47727C74.2527 9.84375 74.345 10.2969 74.345 10.8366V15H73.0708V10.9901C73.0708 10.5156 72.9473 10.1449 72.7001 9.87784C72.4529 9.60795 72.1135 9.47301 71.6816 9.47301C71.3862 9.47301 71.1234 9.53693 70.8933 9.66477C70.666 9.79261 70.4856 9.98011 70.3521 10.2273C70.2214 10.4716 70.1561 10.767 70.1561 11.1136ZM78.8109 15.1321C78.1774 15.1321 77.6319 14.9886 77.1745 14.7017C76.72 14.4119 76.3706 14.0128 76.1262 13.5043C75.8819 12.9957 75.7598 12.4134 75.7598 11.7571C75.7598 11.0923 75.8848 10.5057 76.1348 9.99716C76.3848 9.4858 76.737 9.08665 77.1916 8.79972C77.6461 8.51278 78.1816 8.36932 78.7981 8.36932C79.2953 8.36932 79.7385 8.46165 80.1277 8.64631C80.5169 8.82812 80.8308 9.08381 81.0694 9.41335C81.3109 9.7429 81.4544 10.1278 81.4998 10.5682H80.2598C80.1916 10.2614 80.0353 9.99716 79.791 9.77557C79.5495 9.55398 79.2257 9.44318 78.8194 9.44318C78.4643 9.44318 78.1532 9.53693 77.8862 9.72443C77.622 9.90909 77.416 10.1733 77.2683 10.517C77.1206 10.858 77.0467 11.2614 77.0467 11.7273C77.0467 12.2045 77.1191 12.6165 77.264 12.9631C77.4089 13.3097 77.6135 13.5781 77.8777 13.7685C78.1447 13.9588 78.4586 14.054 78.8194 14.054C79.0609 14.054 79.2797 14.0099 79.4757 13.9219C79.6745 13.831 79.8407 13.7017 79.9743 13.5341C80.1106 13.3665 80.2058 13.1648 80.2598 12.929H81.4998C81.4544 13.3523 81.3166 13.7301 81.0865 14.0625C80.8564 14.3949 80.5481 14.6562 80.1618 14.8466C79.7782 15.0369 79.3279 15.1321 78.8109 15.1321ZM82.8624 15V8.45455H84.1365V15H82.8624ZM83.5059 7.4446C83.2843 7.4446 83.0939 7.37074 82.9348 7.22301C82.7786 7.07244 82.7005 6.89347 82.7005 6.68608C82.7005 6.47585 82.7786 6.29687 82.9348 6.14915C83.0939 5.99858 83.2843 5.9233 83.5059 5.9233C83.7275 5.9233 83.9164 5.99858 84.0726 6.14915C84.2317 6.29687 84.3113 6.47585 84.3113 6.68608C84.3113 6.89347 84.2317 7.07244 84.0726 7.22301C83.9164 7.37074 83.7275 7.4446 83.5059 7.4446ZM87.1248 6.27273V15H85.8507V6.27273H87.1248ZM88.839 15V8.45455H90.1131V15H88.839ZM89.4824 7.4446C89.2608 7.4446 89.0705 7.37074 88.9114 7.22301C88.7551 7.07244 88.677 6.89347 88.677 6.68608C88.677 6.47585 88.7551 6.29687 88.9114 6.14915C89.0705 5.99858 89.2608 5.9233 89.4824 5.9233C89.704 5.9233 89.8929 5.99858 90.0492 6.14915C90.2083 6.29687 90.2878 6.47585 90.2878 6.68608C90.2878 6.89347 90.2083 7.07244 90.0492 7.22301C89.8929 7.37074 89.704 7.4446 89.4824 7.4446ZM93.7321 15.1449C93.3173 15.1449 92.9423 15.0682 92.6071 14.9148C92.2718 14.7585 92.0062 14.5327 91.8102 14.2372C91.617 13.9418 91.5204 13.5795 91.5204 13.1506C91.5204 12.7812 91.5914 12.4773 91.7335 12.2386C91.8755 12 92.0673 11.8111 92.3088 11.6719C92.5502 11.5327 92.8201 11.4276 93.1184 11.3565C93.4167 11.2855 93.7207 11.2315 94.0304 11.1946C94.4224 11.1491 94.7406 11.1122 94.9849 11.0838C95.2292 11.0526 95.4068 11.0028 95.5176 10.9347C95.6284 10.8665 95.6838 10.7557 95.6838 10.6023V10.5724C95.6838 10.2003 95.5787 9.91193 95.3684 9.70739C95.161 9.50284 94.8514 9.40057 94.4395 9.40057C94.0105 9.40057 93.6724 9.49574 93.4252 9.68608C93.1809 9.87358 93.0119 10.0824 92.9181 10.3125L91.7207 10.0398C91.8627 9.64205 92.0701 9.32102 92.3429 9.0767C92.6184 8.82955 92.9352 8.65057 93.2931 8.53977C93.6511 8.42614 94.0275 8.36932 94.4224 8.36932C94.6838 8.36932 94.9608 8.40057 95.2534 8.46307C95.5488 8.52273 95.8244 8.63352 96.0801 8.79545C96.3386 8.95739 96.5502 9.18892 96.715 9.49006C96.8798 9.78835 96.9622 10.1761 96.9622 10.6534V15H95.7179V14.1051H95.6667C95.5843 14.2699 95.4608 14.4318 95.296 14.5909C95.1312 14.75 94.9196 14.8821 94.661 14.9872C94.4025 15.0923 94.0929 15.1449 93.7321 15.1449ZM94.0091 14.1222C94.3613 14.1222 94.6625 14.0526 94.9125 13.9134C95.1653 13.7741 95.3571 13.5923 95.4877 13.3679C95.6213 13.1406 95.688 12.8977 95.688 12.6392V11.7955C95.6426 11.8409 95.5545 11.8835 95.4238 11.9233C95.296 11.9602 95.1497 11.9929 94.9849 12.0213C94.8201 12.0469 94.6596 12.071 94.5034 12.0938C94.3471 12.1136 94.2164 12.1307 94.1113 12.1449C93.8642 12.1761 93.6383 12.2287 93.4338 12.3026C93.2321 12.3764 93.0701 12.483 92.948 12.6222C92.8287 12.7585 92.769 12.9403 92.769 13.1676C92.769 13.483 92.8855 13.7216 93.1184 13.8835C93.3514 14.0426 93.6483 14.1222 94.0091 14.1222ZM101.715 8.45455V9.47727H98.1394V8.45455H101.715ZM99.0982 6.88636H100.372V13.0781C100.372 13.3253 100.409 13.5114 100.483 13.6364C100.557 13.7585 100.652 13.8423 100.769 13.8878C100.888 13.9304 101.017 13.9517 101.156 13.9517C101.259 13.9517 101.348 13.9446 101.425 13.9304C101.502 13.9162 101.561 13.9048 101.604 13.8963L101.834 14.9489C101.76 14.9773 101.655 15.0057 101.519 15.0341C101.382 15.0653 101.212 15.0824 101.007 15.0852C100.672 15.0909 100.36 15.0312 100.07 14.9062C99.78 14.7812 99.5456 14.5881 99.3667 14.3267C99.1877 14.0653 99.0982 13.7372 99.0982 13.3423V6.88636ZM103.124 15V8.45455H104.398V15H103.124ZM103.768 7.4446C103.546 7.4446 103.356 7.37074 103.197 7.22301C103.04 7.07244 102.962 6.89347 102.962 6.68608C102.962 6.47585 103.04 6.29687 103.197 6.14915C103.356 5.99858 103.546 5.9233 103.768 5.9233C103.989 5.9233 104.178 5.99858 104.334 6.14915C104.493 6.29687 104.573 6.47585 104.573 6.68608C104.573 6.89347 104.493 7.07244 104.334 7.22301C104.178 7.37074 103.989 7.4446 103.768 7.4446ZM108.869 15.1321C108.256 15.1321 107.72 14.9915 107.263 14.7102C106.806 14.429 106.45 14.0355 106.198 13.5298C105.945 13.0241 105.818 12.4332 105.818 11.7571C105.818 11.0781 105.945 10.4844 106.198 9.97585C106.45 9.46733 106.806 9.07244 107.263 8.79119C107.72 8.50994 108.256 8.36932 108.869 8.36932C109.483 8.36932 110.019 8.50994 110.476 8.79119C110.933 9.07244 111.289 9.46733 111.541 9.97585C111.794 10.4844 111.921 11.0781 111.921 11.7571C111.921 12.4332 111.794 13.0241 111.541 13.5298C111.289 14.0355 110.933 14.429 110.476 14.7102C110.019 14.9915 109.483 15.1321 108.869 15.1321ZM108.874 14.0625C109.271 14.0625 109.601 13.9574 109.862 13.7472C110.124 13.5369 110.317 13.2571 110.442 12.9077C110.57 12.5582 110.634 12.1733 110.634 11.7528C110.634 11.3352 110.57 10.9517 110.442 10.6023C110.317 10.25 110.124 9.96733 109.862 9.75426C109.601 9.54119 109.271 9.43466 108.874 9.43466C108.473 9.43466 108.141 9.54119 107.877 9.75426C107.615 9.96733 107.421 10.25 107.293 10.6023C107.168 10.9517 107.105 11.3352 107.105 11.7528C107.105 12.1733 107.168 12.5582 107.293 12.9077C107.421 13.2571 107.615 13.5369 107.877 13.7472C108.141 13.9574 108.473 14.0625 108.874 14.0625ZM114.617 11.1136V15H113.343V8.45455H114.566V9.51989H114.647C114.797 9.1733 115.033 8.89489 115.354 8.68466C115.678 8.47443 116.086 8.36932 116.577 8.36932C117.023 8.36932 117.414 8.46307 117.749 8.65057C118.084 8.83523 118.344 9.1108 118.529 9.47727C118.714 9.84375 118.806 10.2969 118.806 10.8366V15H117.532V10.9901C117.532 10.5156 117.408 10.1449 117.161 9.87784C116.914 9.60795 116.574 9.47301 116.143 9.47301C115.847 9.47301 115.584 9.53693 115.354 9.66477C115.127 9.79261 114.947 9.98011 114.813 10.2273C114.682 10.4716 114.617 10.767 114.617 11.1136Z" fill="#B54708"/>
</g>
</svg>
