<svg width="172" height="22" viewBox="0 0 172 22" fill="none" xmlns="http://www.w3.org/2000/svg">
<g style="mix-blend-mode:multiply">
<rect width="172" height="22" rx="11" fill="#ECFDF3"/>
<path d="M16.4359 9.1108H15.1064C15.0552 8.8267 14.96 8.5767 14.8208 8.3608C14.6816 8.14489 14.5112 7.96165 14.3095 7.81108C14.1078 7.66051 13.8819 7.54687 13.6319 7.47017C13.3848 7.39347 13.122 7.35511 12.8436 7.35511C12.3407 7.35511 11.8904 7.48153 11.4927 7.73438C11.0978 7.98722 10.7853 8.35795 10.5552 8.84659C10.3279 9.33523 10.2143 9.93182 10.2143 10.6364C10.2143 11.3466 10.3279 11.946 10.5552 12.4347C10.7853 12.9233 11.0993 13.2926 11.497 13.5426C11.8947 13.7926 12.3422 13.9176 12.8393 13.9176C13.1149 13.9176 13.3762 13.8807 13.6234 13.8068C13.8734 13.7301 14.0993 13.6179 14.301 13.4702C14.5027 13.3224 14.6731 13.142 14.8123 12.929C14.9544 12.7131 15.0524 12.4659 15.1064 12.1875L16.4359 12.1918C16.3649 12.6207 16.2271 13.0156 16.0226 13.3764C15.8208 13.7344 15.5609 14.044 15.2427 14.3054C14.9274 14.5639 14.5666 14.7642 14.1603 14.9062C13.7541 15.0483 13.3109 15.1193 12.8308 15.1193C12.0751 15.1193 11.4018 14.9403 10.8109 14.5824C10.22 14.2216 9.75408 13.706 9.41317 13.0355C9.07511 12.3651 8.90607 11.5653 8.90607 10.6364C8.90607 9.70455 9.07653 8.90483 9.41744 8.23722C9.75835 7.56676 10.2243 7.05256 10.8152 6.6946C11.4061 6.33381 12.0779 6.15341 12.8308 6.15341C13.2939 6.15341 13.7257 6.22017 14.1262 6.35369C14.5297 6.48437 14.8919 6.67756 15.2129 6.93324C15.5339 7.18608 15.7995 7.49574 16.0098 7.86222C16.22 8.22585 16.362 8.64205 16.4359 9.1108ZM19.8141 15.1449C19.3993 15.1449 19.0243 15.0682 18.6891 14.9148C18.3539 14.7585 18.0882 14.5327 17.8922 14.2372C17.699 13.9418 17.6025 13.5795 17.6025 13.1506C17.6025 12.7812 17.6735 12.4773 17.8155 12.2386C17.9576 12 18.1493 11.8111 18.3908 11.6719C18.6323 11.5327 18.9022 11.4276 19.2005 11.3565C19.4988 11.2855 19.8027 11.2315 20.1124 11.1946C20.5044 11.1491 20.8226 11.1122 21.0669 11.0838C21.3113 11.0526 21.4888 11.0028 21.5996 10.9347C21.7104 10.8665 21.7658 10.7557 21.7658 10.6023V10.5724C21.7658 10.2003 21.6607 9.91193 21.4505 9.70739C21.2431 9.50284 20.9334 9.40057 20.5215 9.40057C20.0925 9.40057 19.7544 9.49574 19.5073 9.68608C19.263 9.87358 19.0939 10.0824 19.0002 10.3125L17.8027 10.0398C17.9448 9.64205 18.1522 9.32102 18.4249 9.0767C18.7005 8.82955 19.0172 8.65057 19.3752 8.53977C19.7331 8.42614 20.1096 8.36932 20.5044 8.36932C20.7658 8.36932 21.0428 8.40057 21.3354 8.46307C21.6309 8.52273 21.9064 8.63352 22.1621 8.79545C22.4206 8.95739 22.6323 9.18892 22.7971 9.49006C22.9618 9.78835 23.0442 10.1761 23.0442 10.6534V15H21.7999V14.1051H21.7488C21.6664 14.2699 21.5428 14.4318 21.378 14.5909C21.2132 14.75 21.0016 14.8821 20.7431 14.9872C20.4846 15.0923 20.1749 15.1449 19.8141 15.1449ZM20.0911 14.1222C20.4434 14.1222 20.7445 14.0526 20.9945 13.9134C21.2473 13.7741 21.4391 13.5923 21.5698 13.3679C21.7033 13.1406 21.7701 12.8977 21.7701 12.6392V11.7955C21.7246 11.8409 21.6365 11.8835 21.5059 11.9233C21.378 11.9602 21.2317 11.9929 21.0669 12.0213C20.9022 12.0469 20.7417 12.071 20.5854 12.0938C20.4292 12.1136 20.2985 12.1307 20.1934 12.1449C19.9462 12.1761 19.7203 12.2287 19.5158 12.3026C19.3141 12.3764 19.1522 12.483 19.03 12.6222C18.9107 12.7585 18.851 12.9403 18.851 13.1676C18.851 13.483 18.9675 13.7216 19.2005 13.8835C19.4334 14.0426 19.7303 14.1222 20.0911 14.1222ZM29.6461 10.0526L28.4913 10.2571C28.443 10.1094 28.3663 9.96875 28.2612 9.83523C28.1589 9.7017 28.0197 9.59233 27.8436 9.5071C27.6674 9.42187 27.4473 9.37926 27.1831 9.37926C26.8223 9.37926 26.5211 9.46023 26.2797 9.62216C26.0382 9.78125 25.9174 9.98722 25.9174 10.2401C25.9174 10.4588 25.9984 10.6349 26.1603 10.7685C26.3223 10.902 26.5836 11.0114 26.9444 11.0966L27.9842 11.3352C28.5865 11.4744 29.0353 11.6889 29.3308 11.9787C29.6262 12.2685 29.774 12.6449 29.774 13.108C29.774 13.5 29.6603 13.8494 29.4331 14.1562C29.2086 14.4602 28.8947 14.6989 28.4913 14.8722C28.0907 15.0455 27.6262 15.1321 27.0978 15.1321C26.3649 15.1321 25.7669 14.9759 25.3038 14.6634C24.8407 14.348 24.5566 13.9006 24.4515 13.321L25.6831 13.1335C25.7598 13.4545 25.9174 13.6974 26.1561 13.8622C26.3947 14.0241 26.7058 14.1051 27.0893 14.1051C27.5069 14.1051 27.8407 14.0185 28.0907 13.8452C28.3407 13.669 28.4657 13.4545 28.4657 13.2017C28.4657 12.9972 28.389 12.8253 28.2356 12.6861C28.085 12.5469 27.8535 12.4418 27.541 12.3707L26.4331 12.1278C25.8223 11.9886 25.3706 11.767 25.0779 11.4631C24.7882 11.1591 24.6433 10.7741 24.6433 10.3082C24.6433 9.92187 24.7512 9.58381 24.9672 9.29403C25.1831 9.00426 25.4814 8.77841 25.862 8.61648C26.2427 8.4517 26.6788 8.36932 27.1703 8.36932C27.8777 8.36932 28.4345 8.52273 28.8407 8.82955C29.247 9.13352 29.5154 9.54119 29.6461 10.0526ZM33.9959 15.1321C33.351 15.1321 32.7956 14.9943 32.3297 14.7188C31.8667 14.4403 31.5087 14.0497 31.2559 13.5469C31.0059 13.0412 30.8809 12.4489 30.8809 11.7699C30.8809 11.0994 31.0059 10.5085 31.2559 9.99716C31.5087 9.4858 31.861 9.08665 32.3127 8.79972C32.7672 8.51278 33.2985 8.36932 33.9064 8.36932C34.2757 8.36932 34.6337 8.4304 34.9803 8.55256C35.3269 8.67472 35.638 8.86648 35.9135 9.12784C36.1891 9.3892 36.4064 9.72869 36.5655 10.1463C36.7246 10.5611 36.8042 11.0653 36.8042 11.6591V12.1108H31.601V11.1562H35.5556C35.5556 10.821 35.4874 10.5241 35.351 10.2656C35.2147 10.0043 35.0229 9.7983 34.7757 9.64773C34.5314 9.49716 34.2445 9.42188 33.915 9.42188C33.557 9.42188 33.2445 9.50994 32.9775 9.68608C32.7132 9.85937 32.5087 10.0866 32.3638 10.3679C32.2218 10.6463 32.1507 10.9489 32.1507 11.2756V12.0213C32.1507 12.4588 32.2275 12.831 32.3809 13.1378C32.5371 13.4446 32.7544 13.679 33.0328 13.8409C33.3113 14 33.6365 14.0795 34.0087 14.0795C34.2502 14.0795 34.4703 14.0455 34.6692 13.9773C34.8681 13.9062 35.04 13.8011 35.1848 13.6619C35.3297 13.5227 35.4405 13.3509 35.5172 13.1463L36.7232 13.3636C36.6266 13.7187 36.4533 14.0298 36.2033 14.2969C35.9561 14.5611 35.6451 14.767 35.2701 14.9148C34.8979 15.0597 34.4732 15.1321 33.9959 15.1321ZM42.8127 15L40.8865 8.45455H42.2033L43.486 13.2614H43.5499L44.8368 8.45455H46.1536L47.432 13.2401H47.4959L48.7701 8.45455H50.0868L48.165 15H46.8652L45.5357 10.2741H45.4377L44.1081 15H42.8127ZM51.296 15V8.45455H52.5701V15H51.296ZM51.9395 7.4446C51.7179 7.4446 51.5275 7.37074 51.3684 7.22301C51.2122 7.07244 51.1341 6.89347 51.1341 6.68608C51.1341 6.47585 51.2122 6.29687 51.3684 6.14915C51.5275 5.99858 51.7179 5.9233 51.9395 5.9233C52.161 5.9233 52.35 5.99858 52.5062 6.14915C52.6653 6.29687 52.7449 6.47585 52.7449 6.68608C52.7449 6.89347 52.6653 7.07244 52.5062 7.22301C52.35 7.37074 52.161 7.4446 51.9395 7.4446ZM57.3397 8.45455V9.47727H53.7644V8.45455H57.3397ZM54.7232 6.88636H55.9973V13.0781C55.9973 13.3253 56.0343 13.5114 56.1081 13.6364C56.182 13.7585 56.2772 13.8423 56.3936 13.8878C56.513 13.9304 56.6422 13.9517 56.7814 13.9517C56.8837 13.9517 56.9732 13.9446 57.0499 13.9304C57.1266 13.9162 57.1863 13.9048 57.2289 13.8963L57.459 14.9489C57.3851 14.9773 57.28 15.0057 57.1436 15.0341C57.0073 15.0653 56.8368 15.0824 56.6323 15.0852C56.2971 15.0909 55.9846 15.0312 55.6948 14.9062C55.405 14.7812 55.1706 14.5881 54.9917 14.3267C54.8127 14.0653 54.7232 13.7372 54.7232 13.3423V6.88636ZM60.1639 11.1136V15H58.8897V6.27273H60.1468V9.51989H60.2278C60.3812 9.16761 60.6156 8.88778 60.9309 8.6804C61.2463 8.47301 61.6582 8.36932 62.1667 8.36932C62.6156 8.36932 63.0076 8.46165 63.3429 8.64631C63.6809 8.83097 63.9423 9.10653 64.127 9.47301C64.3145 9.83665 64.4082 10.2912 64.4082 10.8366V15H63.1341V10.9901C63.1341 10.5099 63.0105 10.1378 62.7633 9.87358C62.5162 9.60653 62.1724 9.47301 61.7321 9.47301C61.4309 9.47301 61.161 9.53693 60.9224 9.66477C60.6866 9.79261 60.5005 9.98011 60.3642 10.2273C60.2306 10.4716 60.1639 10.767 60.1639 11.1136ZM69.3865 15V6.27273H72.5826C73.2019 6.27273 73.7147 6.375 74.1209 6.57955C74.5272 6.78125 74.8311 7.0554 75.0328 7.40199C75.2346 7.74574 75.3354 8.13352 75.3354 8.56534C75.3354 8.92898 75.2686 9.2358 75.1351 9.4858C75.0016 9.73295 74.8226 9.93182 74.5982 10.0824C74.3766 10.2301 74.1323 10.3381 73.8652 10.4062V10.4915C74.155 10.5057 74.4377 10.5994 74.7132 10.7727C74.9917 10.9432 75.2218 11.1861 75.4036 11.5014C75.5854 11.8168 75.6763 12.2003 75.6763 12.652C75.6763 13.098 75.5712 13.4986 75.361 13.8537C75.1536 14.206 74.8326 14.4858 74.3979 14.6932C73.9632 14.8977 73.4078 15 72.7317 15H69.3865ZM70.7033 13.8707H72.6039C73.2346 13.8707 73.6863 13.7486 73.959 13.5043C74.2317 13.2599 74.3681 12.9545 74.3681 12.5881C74.3681 12.3125 74.2985 12.0597 74.1593 11.8295C74.0201 11.5994 73.8212 11.4162 73.5627 11.2798C73.307 11.1435 73.003 11.0753 72.6507 11.0753H70.7033V13.8707ZM70.7033 10.0483H72.4675C72.763 10.0483 73.0286 9.99148 73.2644 9.87784C73.503 9.7642 73.6919 9.60511 73.8311 9.40057C73.9732 9.19318 74.0442 8.94886 74.0442 8.66761C74.0442 8.30682 73.9178 8.00426 73.665 7.75994C73.4121 7.51562 73.0243 7.39347 72.5016 7.39347H70.7033V10.0483ZM79.8929 15.1321C79.2793 15.1321 78.7438 14.9915 78.2864 14.7102C77.829 14.429 77.4739 14.0355 77.2211 13.5298C76.9682 13.0241 76.8418 12.4332 76.8418 11.7571C76.8418 11.0781 76.9682 10.4844 77.2211 9.97585C77.4739 9.46733 77.829 9.07244 78.2864 8.79119C78.7438 8.50994 79.2793 8.36932 79.8929 8.36932C80.5066 8.36932 81.0421 8.50994 81.4995 8.79119C81.9569 9.07244 82.312 9.46733 82.5648 9.97585C82.8176 10.4844 82.9441 11.0781 82.9441 11.7571C82.9441 12.4332 82.8176 13.0241 82.5648 13.5298C82.312 14.0355 81.9569 14.429 81.4995 14.7102C81.0421 14.9915 80.5066 15.1321 79.8929 15.1321ZM79.8972 14.0625C80.2949 14.0625 80.6245 13.9574 80.8858 13.7472C81.1472 13.5369 81.3404 13.2571 81.4654 12.9077C81.5932 12.5582 81.6571 12.1733 81.6571 11.7528C81.6571 11.3352 81.5932 10.9517 81.4654 10.6023C81.3404 10.25 81.1472 9.96733 80.8858 9.75426C80.6245 9.54119 80.2949 9.43466 79.8972 9.43466C79.4966 9.43466 79.1642 9.54119 78.9 9.75426C78.6387 9.96733 78.4441 10.25 78.3162 10.6023C78.1912 10.9517 78.1287 11.3352 78.1287 11.7528C78.1287 12.1733 78.1912 12.5582 78.3162 12.9077C78.4441 13.2571 78.6387 13.5369 78.9 13.7472C79.1642 13.9574 79.4966 14.0625 79.8972 14.0625ZM86.2711 15.1449C85.8564 15.1449 85.4814 15.0682 85.1461 14.9148C84.8109 14.7585 84.5453 14.5327 84.3493 14.2372C84.1561 13.9418 84.0595 13.5795 84.0595 13.1506C84.0595 12.7812 84.1305 12.4773 84.2725 12.2386C84.4146 12 84.6064 11.8111 84.8478 11.6719C85.0893 11.5327 85.3592 11.4276 85.6575 11.3565C85.9558 11.2855 86.2598 11.2315 86.5694 11.1946C86.9615 11.1491 87.2797 11.1122 87.524 11.0838C87.7683 11.0526 87.9458 11.0028 88.0566 10.9347C88.1674 10.8665 88.2228 10.7557 88.2228 10.6023V10.5724C88.2228 10.2003 88.1177 9.91193 87.9075 9.70739C87.7001 9.50284 87.3904 9.40057 86.9785 9.40057C86.5495 9.40057 86.2115 9.49574 85.9643 9.68608C85.72 9.87358 85.551 10.0824 85.4572 10.3125L84.2598 10.0398C84.4018 9.64205 84.6092 9.32102 84.8819 9.0767C85.1575 8.82955 85.4743 8.65057 85.8322 8.53977C86.1902 8.42614 86.5666 8.36932 86.9615 8.36932C87.2228 8.36932 87.4998 8.40057 87.7924 8.46307C88.0879 8.52273 88.3635 8.63352 88.6191 8.79545C88.8777 8.95739 89.0893 9.18892 89.2541 9.49006C89.4189 9.78835 89.5012 10.1761 89.5012 10.6534V15H88.2569V14.1051H88.2058C88.1234 14.2699 87.9998 14.4318 87.835 14.5909C87.6703 14.75 87.4586 14.8821 87.2001 14.9872C86.9416 15.0923 86.6319 15.1449 86.2711 15.1449ZM86.5481 14.1222C86.9004 14.1222 87.2015 14.0526 87.4515 13.9134C87.7044 13.7741 87.8961 13.5923 88.0268 13.3679C88.1603 13.1406 88.2271 12.8977 88.2271 12.6392V11.7955C88.1816 11.8409 88.0936 11.8835 87.9629 11.9233C87.835 11.9602 87.6887 11.9929 87.524 12.0213C87.3592 12.0469 87.1987 12.071 87.0424 12.0938C86.8862 12.1136 86.7555 12.1307 86.6504 12.1449C86.4032 12.1761 86.1774 12.2287 85.9728 12.3026C85.7711 12.3764 85.6092 12.483 85.487 12.6222C85.3677 12.7585 85.3081 12.9403 85.3081 13.1676C85.3081 13.483 85.4245 13.7216 85.6575 13.8835C85.8904 14.0426 86.1873 14.1222 86.5481 14.1222ZM91.1983 15V8.45455H92.4299V9.49432H92.498C92.6174 9.14205 92.8276 8.86506 93.1287 8.66335C93.4327 8.45881 93.7765 8.35653 94.16 8.35653C94.2395 8.35653 94.3333 8.35937 94.4412 8.36506C94.552 8.37074 94.6387 8.37784 94.7012 8.38636V9.60511C94.65 9.59091 94.5591 9.57528 94.4284 9.55824C94.2978 9.53835 94.1671 9.52841 94.0364 9.52841C93.7353 9.52841 93.4668 9.59233 93.231 9.72017C92.998 9.84517 92.8134 10.0199 92.677 10.2443C92.5407 10.4659 92.4725 10.7187 92.4725 11.0028V15H91.1983ZM98.0197 15.1278C97.4913 15.1278 97.0197 14.9929 96.6049 14.723C96.193 14.4503 95.8691 14.0625 95.6333 13.5597C95.4004 13.054 95.2839 12.4474 95.2839 11.7401C95.2839 11.0327 95.4018 10.4276 95.6376 9.92472C95.8762 9.42187 96.2029 9.03693 96.6177 8.76989C97.0325 8.50284 97.5027 8.36932 98.0282 8.36932C98.4345 8.36932 98.7612 8.4375 99.0083 8.57386C99.2583 8.70739 99.4515 8.86364 99.5879 9.04261C99.7271 9.22159 99.835 9.37926 99.9118 9.51562H99.9885V6.27273H101.263V15H100.018V13.9815H99.9118C99.835 14.1207 99.7243 14.2798 99.5794 14.4588C99.4373 14.6378 99.2413 14.794 98.9913 14.9276C98.7413 15.0611 98.4174 15.1278 98.0197 15.1278ZM98.301 14.0412C98.6674 14.0412 98.9771 13.9446 99.2299 13.7514C99.4856 13.5554 99.6788 13.2841 99.8095 12.9375C99.943 12.5909 100.01 12.1875 100.01 11.7273C100.01 11.2727 99.9444 10.875 99.8137 10.5341C99.6831 10.1932 99.4913 9.92756 99.2385 9.73722C98.9856 9.54687 98.6731 9.4517 98.301 9.4517C97.9174 9.4517 97.5978 9.55114 97.3422 9.75C97.0865 9.94886 96.8933 10.2202 96.7626 10.5639C96.6348 10.9077 96.5708 11.2955 96.5708 11.7273C96.5708 12.1648 96.6362 12.5582 96.7669 12.9077C96.8975 13.2571 97.0907 13.5341 97.3464 13.7386C97.6049 13.9403 97.9231 14.0412 98.301 14.0412ZM109.014 15.1321C108.4 15.1321 107.865 14.9915 107.407 14.7102C106.95 14.429 106.595 14.0355 106.342 13.5298C106.089 13.0241 105.963 12.4332 105.963 11.7571C105.963 11.0781 106.089 10.4844 106.342 9.97585C106.595 9.46733 106.95 9.07244 107.407 8.79119C107.865 8.50994 108.4 8.36932 109.014 8.36932C109.628 8.36932 110.163 8.50994 110.621 8.79119C111.078 9.07244 111.433 9.46733 111.686 9.97585C111.939 10.4844 112.065 11.0781 112.065 11.7571C112.065 12.4332 111.939 13.0241 111.686 13.5298C111.433 14.0355 111.078 14.429 110.621 14.7102C110.163 14.9915 109.628 15.1321 109.014 15.1321ZM109.018 14.0625C109.416 14.0625 109.746 13.9574 110.007 13.7472C110.268 13.5369 110.461 13.2571 110.586 12.9077C110.714 12.5582 110.778 12.1733 110.778 11.7528C110.778 11.3352 110.714 10.9517 110.586 10.6023C110.461 10.25 110.268 9.96733 110.007 9.75426C109.746 9.54119 109.416 9.43466 109.018 9.43466C108.618 9.43466 108.285 9.54119 108.021 9.75426C107.76 9.96733 107.565 10.25 107.437 10.6023C107.312 10.9517 107.25 11.3352 107.25 11.7528C107.25 12.1733 107.312 12.5582 107.437 12.9077C107.565 13.2571 107.76 13.5369 108.021 13.7472C108.285 13.9574 108.618 14.0625 109.018 14.0625ZM116.602 8.45455V9.47727H112.904V8.45455H116.602ZM113.918 15V7.69602C113.918 7.28693 114.007 6.94744 114.186 6.67756C114.365 6.40483 114.602 6.2017 114.898 6.06818C115.193 5.93182 115.514 5.86364 115.861 5.86364C116.117 5.86364 116.335 5.88494 116.517 5.92756C116.699 5.96733 116.834 6.00426 116.922 6.03835L116.624 7.0696C116.564 7.05256 116.487 7.03267 116.394 7.00994C116.3 6.98437 116.186 6.97159 116.053 6.97159C115.743 6.97159 115.521 7.0483 115.388 7.2017C115.257 7.35511 115.192 7.5767 115.192 7.86648V15H113.918ZM121.195 15V6.27273H126.667V7.40625H122.512V10.0653H126.381V11.1946H122.512V13.8665H126.718V15H121.195ZM129.597 11.1136V15H128.323V8.45455H129.546V9.51989H129.627C129.778 9.1733 130.014 8.89489 130.335 8.68466C130.659 8.47443 131.066 8.36932 131.558 8.36932C132.004 8.36932 132.394 8.46307 132.73 8.65057C133.065 8.83523 133.325 9.1108 133.509 9.47727C133.694 9.84375 133.786 10.2969 133.786 10.8366V15H132.512V10.9901C132.512 10.5156 132.389 10.1449 132.142 9.87784C131.894 9.60795 131.555 9.47301 131.123 9.47301C130.828 9.47301 130.565 9.53693 130.335 9.66477C130.107 9.79261 129.927 9.98011 129.794 10.2273C129.663 10.4716 129.597 10.767 129.597 11.1136ZM139.914 17.4545V13.9815H139.838C139.761 14.1207 139.65 14.2798 139.505 14.4588C139.363 14.6378 139.167 14.794 138.917 14.9276C138.667 15.0611 138.343 15.1278 137.945 15.1278C137.417 15.1278 136.945 14.9929 136.531 14.723C136.119 14.4503 135.795 14.0625 135.559 13.5597C135.326 13.054 135.21 12.4474 135.21 11.7401C135.21 11.0327 135.328 10.4276 135.563 9.92472C135.802 9.42187 136.129 9.03693 136.544 8.76989C136.958 8.50284 137.428 8.36932 137.954 8.36932C138.36 8.36932 138.687 8.4375 138.934 8.57386C139.184 8.70739 139.377 8.86364 139.514 9.04261C139.653 9.22159 139.761 9.37926 139.838 9.51562H139.944V8.45455H141.188V17.4545H139.914ZM138.227 14.0412C138.593 14.0412 138.903 13.9446 139.156 13.7514C139.411 13.5554 139.605 13.2841 139.735 12.9375C139.869 12.5909 139.936 12.1875 139.936 11.7273C139.936 11.2727 139.87 10.875 139.74 10.5341C139.609 10.1932 139.417 9.92756 139.164 9.73722C138.911 9.54687 138.599 9.4517 138.227 9.4517C137.843 9.4517 137.524 9.55114 137.268 9.75C137.012 9.94886 136.819 10.2202 136.688 10.5639C136.561 10.9077 136.497 11.2955 136.497 11.7273C136.497 12.1648 136.562 12.5582 136.693 12.9077C136.823 13.2571 137.017 13.5341 137.272 13.7386C137.531 13.9403 137.849 14.0412 138.227 14.0412ZM147.048 12.2855V8.45455H148.326V15H147.073V13.8665H147.005C146.855 14.2159 146.613 14.5071 146.281 14.7401C145.951 14.9702 145.541 15.0852 145.049 15.0852C144.629 15.0852 144.257 14.9929 143.933 14.8082C143.612 14.6207 143.359 14.3438 143.174 13.9773C142.992 13.6108 142.901 13.1577 142.901 12.6179V8.45455H144.176V12.4645C144.176 12.9105 144.299 13.2656 144.546 13.5298C144.794 13.794 145.115 13.9261 145.509 13.9261C145.748 13.9261 145.985 13.8665 146.221 13.7472C146.46 13.6278 146.657 13.4474 146.813 13.206C146.972 12.9645 147.051 12.6577 147.048 12.2855ZM150.038 15V8.45455H151.312V15H150.038ZM150.682 7.4446C150.46 7.4446 150.27 7.37074 150.111 7.22301C149.954 7.07244 149.876 6.89347 149.876 6.68608C149.876 6.47585 149.954 6.29687 150.111 6.14915C150.27 5.99858 150.46 5.9233 150.682 5.9233C150.903 5.9233 151.092 5.99858 151.248 6.14915C151.407 6.29687 151.487 6.47585 151.487 6.68608C151.487 6.89347 151.407 7.07244 151.248 7.22301C151.092 7.37074 150.903 7.4446 150.682 7.4446ZM153.026 15V8.45455H154.258V9.49432H154.326C154.445 9.14205 154.656 8.86506 154.957 8.66335C155.261 8.45881 155.605 8.35653 155.988 8.35653C156.068 8.35653 156.161 8.35937 156.269 8.36506C156.38 8.37074 156.467 8.37784 156.529 8.38636V9.60511C156.478 9.59091 156.387 9.57528 156.257 9.55824C156.126 9.53835 155.995 9.52841 155.865 9.52841C155.563 9.52841 155.295 9.59233 155.059 9.72017C154.826 9.84517 154.642 10.0199 154.505 10.2443C154.369 10.4659 154.301 10.7187 154.301 11.0028V15H153.026ZM158.637 17.4545C158.446 17.4545 158.273 17.4389 158.117 17.4077C157.96 17.3793 157.844 17.348 157.767 17.3139L158.074 16.2699C158.307 16.3324 158.514 16.3594 158.696 16.3509C158.878 16.3423 159.039 16.2741 159.178 16.1463C159.32 16.0185 159.445 15.8097 159.553 15.5199L159.71 15.0852L157.316 8.45455H158.679L160.337 13.5341H160.405L162.063 8.45455H163.431L160.733 15.8736C160.608 16.2145 160.449 16.5028 160.256 16.7386C160.063 16.9773 159.833 17.1563 159.566 17.2756C159.298 17.3949 158.989 17.4545 158.637 17.4545Z" fill="#027A48"/>
</g>
</svg>
