<svg width="122" height="22" viewBox="0 0 122 22" fill="none" xmlns="http://www.w3.org/2000/svg">
<g style="mix-blend-mode:multiply">
<rect width="122" height="22" rx="11" fill="#FEF3F2"/>
<path d="M16.5668 9.1108H15.2372C15.1861 8.8267 15.0909 8.5767 14.9517 8.3608C14.8125 8.14489 14.642 7.96165 14.4403 7.81108C14.2386 7.66051 14.0128 7.54687 13.7628 7.47017C13.5156 7.39347 13.2528 7.35511 12.9744 7.35511C12.4716 7.35511 12.0213 7.48153 11.6236 7.73438C11.2287 7.98722 10.9162 8.35795 10.6861 8.84659C10.4588 9.33523 10.3452 9.93182 10.3452 10.6364C10.3452 11.3466 10.4588 11.946 10.6861 12.4347C10.9162 12.9233 11.2301 13.2926 11.6278 13.5426C12.0256 13.7926 12.473 13.9176 12.9702 13.9176C13.2457 13.9176 13.5071 13.8807 13.7543 13.8068C14.0043 13.7301 14.2301 13.6179 14.4318 13.4702C14.6335 13.3224 14.804 13.142 14.9432 12.929C15.0852 12.7131 15.1832 12.4659 15.2372 12.1875L16.5668 12.1918C16.4957 12.6207 16.358 13.0156 16.1534 13.3764C15.9517 13.7344 15.6918 14.044 15.3736 14.3054C15.0582 14.5639 14.6974 14.7642 14.2912 14.9062C13.8849 15.0483 13.4418 15.1193 12.9616 15.1193C12.206 15.1193 11.5327 14.9403 10.9418 14.5824C10.3509 14.2216 9.88494 13.706 9.54403 13.0355C9.20597 12.3651 9.03693 11.5653 9.03693 10.6364C9.03693 9.70455 9.20739 8.90483 9.5483 8.23722C9.8892 7.56676 10.3551 7.05256 10.946 6.6946C11.5369 6.33381 12.2088 6.15341 12.9616 6.15341C13.4247 6.15341 13.8565 6.22017 14.2571 6.35369C14.6605 6.48437 15.0227 6.67756 15.3438 6.93324C15.6648 7.18608 15.9304 7.49574 16.1406 7.86222C16.3509 8.22585 16.4929 8.64205 16.5668 9.1108ZM19.945 15.1449C19.5302 15.1449 19.1552 15.0682 18.82 14.9148C18.4847 14.7585 18.2191 14.5327 18.0231 14.2372C17.8299 13.9418 17.7333 13.5795 17.7333 13.1506C17.7333 12.7812 17.8043 12.4773 17.9464 12.2386C18.0884 12 18.2802 11.8111 18.5217 11.6719C18.7631 11.5327 19.033 11.4276 19.3313 11.3565C19.6296 11.2855 19.9336 11.2315 20.2433 11.1946C20.6353 11.1491 20.9535 11.1122 21.1978 11.0838C21.4421 11.0526 21.6197 11.0028 21.7305 10.9347C21.8413 10.8665 21.8967 10.7557 21.8967 10.6023V10.5724C21.8967 10.2003 21.7915 9.91193 21.5813 9.70739C21.3739 9.50284 21.0643 9.40057 20.6523 9.40057C20.2234 9.40057 19.8853 9.49574 19.6381 9.68608C19.3938 9.87358 19.2248 10.0824 19.131 10.3125L17.9336 10.0398C18.0756 9.64205 18.283 9.32102 18.5558 9.0767C18.8313 8.82955 19.1481 8.65057 19.506 8.53977C19.864 8.42614 20.2404 8.36932 20.6353 8.36932C20.8967 8.36932 21.1737 8.40057 21.4663 8.46307C21.7617 8.52273 22.0373 8.63352 22.293 8.79545C22.5515 8.95739 22.7631 9.18892 22.9279 9.49006C23.0927 9.78835 23.1751 10.1761 23.1751 10.6534V15H21.9308V14.1051H21.8796C21.7972 14.2699 21.6737 14.4318 21.5089 14.5909C21.3441 14.75 21.1325 14.8821 20.8739 14.9872C20.6154 15.0923 20.3058 15.1449 19.945 15.1449ZM20.2219 14.1222C20.5742 14.1222 20.8754 14.0526 21.1254 13.9134C21.3782 13.7741 21.57 13.5923 21.7006 13.3679C21.8342 13.1406 21.9009 12.8977 21.9009 12.6392V11.7955C21.8555 11.8409 21.7674 11.8835 21.6367 11.9233C21.5089 11.9602 21.3626 11.9929 21.1978 12.0213C21.033 12.0469 20.8725 12.071 20.7163 12.0938C20.56 12.1136 20.4293 12.1307 20.3242 12.1449C20.0771 12.1761 19.8512 12.2287 19.6467 12.3026C19.445 12.3764 19.283 12.483 19.1609 12.6222C19.0415 12.7585 18.9819 12.9403 18.9819 13.1676C18.9819 13.483 19.0984 13.7216 19.3313 13.8835C19.5643 14.0426 19.8612 14.1222 20.2219 14.1222ZM29.777 10.0526L28.6222 10.2571C28.5739 10.1094 28.4972 9.96875 28.392 9.83523C28.2898 9.7017 28.1506 9.59233 27.9744 9.5071C27.7983 9.42187 27.5781 9.37926 27.3139 9.37926C26.9531 9.37926 26.652 9.46023 26.4105 9.62216C26.169 9.78125 26.0483 9.98722 26.0483 10.2401C26.0483 10.4588 26.1293 10.6349 26.2912 10.7685C26.4531 10.902 26.7145 11.0114 27.0753 11.0966L28.1151 11.3352C28.7173 11.4744 29.1662 11.6889 29.4616 11.9787C29.7571 12.2685 29.9048 12.6449 29.9048 13.108C29.9048 13.5 29.7912 13.8494 29.5639 14.1562C29.3395 14.4602 29.0256 14.6989 28.6222 14.8722C28.2216 15.0455 27.7571 15.1321 27.2287 15.1321C26.4957 15.1321 25.8977 14.9759 25.4347 14.6634C24.9716 14.348 24.6875 13.9006 24.5824 13.321L25.8139 13.1335C25.8906 13.4545 26.0483 13.6974 26.2869 13.8622C26.5256 14.0241 26.8366 14.1051 27.2202 14.1051C27.6378 14.1051 27.9716 14.0185 28.2216 13.8452C28.4716 13.669 28.5966 13.4545 28.5966 13.2017C28.5966 12.9972 28.5199 12.8253 28.3665 12.6861C28.2159 12.5469 27.9844 12.4418 27.6719 12.3707L26.5639 12.1278C25.9531 11.9886 25.5014 11.767 25.2088 11.4631C24.919 11.1591 24.7741 10.7741 24.7741 10.3082C24.7741 9.92187 24.8821 9.58381 25.098 9.29403C25.3139 9.00426 25.6122 8.77841 25.9929 8.61648C26.3736 8.4517 26.8097 8.36932 27.3011 8.36932C28.0085 8.36932 28.5653 8.52273 28.9716 8.82955C29.3778 9.13352 29.6463 9.54119 29.777 10.0526ZM34.1268 15.1321C33.4819 15.1321 32.9265 14.9943 32.4606 14.7188C31.9975 14.4403 31.6396 14.0497 31.3867 13.5469C31.1367 13.0412 31.0117 12.4489 31.0117 11.7699C31.0117 11.0994 31.1367 10.5085 31.3867 9.99716C31.6396 9.4858 31.9918 9.08665 32.4435 8.79972C32.8981 8.51278 33.4293 8.36932 34.0373 8.36932C34.4066 8.36932 34.7646 8.4304 35.1112 8.55256C35.4577 8.67472 35.7688 8.86648 36.0444 9.12784C36.32 9.3892 36.5373 9.72869 36.6964 10.1463C36.8555 10.5611 36.935 11.0653 36.935 11.6591V12.1108H31.7319V11.1562H35.6864C35.6864 10.821 35.6183 10.5241 35.4819 10.2656C35.3455 10.0043 35.1538 9.7983 34.9066 9.64773C34.6623 9.49716 34.3754 9.42188 34.0458 9.42188C33.6879 9.42188 33.3754 9.50994 33.1083 9.68608C32.8441 9.85937 32.6396 10.0866 32.4947 10.3679C32.3526 10.6463 32.2816 10.9489 32.2816 11.2756V12.0213C32.2816 12.4588 32.3583 12.831 32.5117 13.1378C32.668 13.4446 32.8853 13.679 33.1637 13.8409C33.4421 14 33.7674 14.0795 34.1396 14.0795C34.381 14.0795 34.6012 14.0455 34.8001 13.9773C34.9989 13.9062 35.1708 13.8011 35.3157 13.6619C35.4606 13.5227 35.5714 13.3509 35.6481 13.1463L36.854 13.3636C36.7575 13.7187 36.5842 14.0298 36.3342 14.2969C36.087 14.5611 35.7759 14.767 35.4009 14.9148C35.0288 15.0597 34.604 15.1321 34.1268 15.1321ZM41.5245 15V8.45455H42.7987V15H41.5245ZM42.168 7.4446C41.9464 7.4446 41.756 7.37074 41.5969 7.22301C41.4407 7.07244 41.3626 6.89347 41.3626 6.68608C41.3626 6.47585 41.4407 6.29687 41.5969 6.14915C41.756 5.99858 41.9464 5.9233 42.168 5.9233C42.3896 5.9233 42.5785 5.99858 42.7347 6.14915C42.8938 6.29687 42.9734 6.47585 42.9734 6.68608C42.9734 6.89347 42.8938 7.07244 42.7347 7.22301C42.5785 7.37074 42.3896 7.4446 42.168 7.4446ZM45.7869 11.1136V15H44.5128V8.45455H45.7358V9.51989H45.8168C45.9673 9.1733 46.2031 8.89489 46.5241 8.68466C46.848 8.47443 47.2557 8.36932 47.7472 8.36932C48.1932 8.36932 48.5838 8.46307 48.919 8.65057C49.2543 8.83523 49.5142 9.1108 49.6989 9.47727C49.8835 9.84375 49.9759 10.2969 49.9759 10.8366V15H48.7017V10.9901C48.7017 10.5156 48.5781 10.1449 48.331 9.87784C48.0838 9.60795 47.7443 9.47301 47.3125 9.47301C47.017 9.47301 46.7543 9.53693 46.5241 9.66477C46.2969 9.79261 46.1165 9.98011 45.983 10.2273C45.8523 10.4716 45.7869 10.767 45.7869 11.1136ZM56.7653 15.1449C56.3505 15.1449 55.9755 15.0682 55.6403 14.9148C55.305 14.7585 55.0394 14.5327 54.8434 14.2372C54.6502 13.9418 54.5536 13.5795 54.5536 13.1506C54.5536 12.7812 54.6246 12.4773 54.7667 12.2386C54.9087 12 55.1005 11.8111 55.342 11.6719C55.5835 11.5327 55.8533 11.4276 56.1516 11.3565C56.4499 11.2855 56.7539 11.2315 57.0636 11.1946C57.4556 11.1491 57.7738 11.1122 58.0181 11.0838C58.2624 11.0526 58.44 11.0028 58.5508 10.9347C58.6616 10.8665 58.717 10.7557 58.717 10.6023V10.5724C58.717 10.2003 58.6119 9.91193 58.4016 9.70739C58.1942 9.50284 57.8846 9.40057 57.4727 9.40057C57.0437 9.40057 56.7056 9.49574 56.4585 9.68608C56.2141 9.87358 56.0451 10.0824 55.9513 10.3125L54.7539 10.0398C54.896 9.64205 55.1033 9.32102 55.3761 9.0767C55.6516 8.82955 55.9684 8.65057 56.3263 8.53977C56.6843 8.42614 57.0607 8.36932 57.4556 8.36932C57.717 8.36932 57.994 8.40057 58.2866 8.46307C58.582 8.52273 58.8576 8.63352 59.1133 8.79545C59.3718 8.95739 59.5835 9.18892 59.7482 9.49006C59.913 9.78835 59.9954 10.1761 59.9954 10.6534V15H58.7511V14.1051H58.6999C58.6175 14.2699 58.494 14.4318 58.3292 14.5909C58.1644 14.75 57.9528 14.8821 57.6942 14.9872C57.4357 15.0923 57.1261 15.1449 56.7653 15.1449ZM57.0423 14.1222C57.3945 14.1222 57.6957 14.0526 57.9457 13.9134C58.1985 13.7741 58.3903 13.5923 58.521 13.3679C58.6545 13.1406 58.7212 12.8977 58.7212 12.6392V11.7955C58.6758 11.8409 58.5877 11.8835 58.457 11.9233C58.3292 11.9602 58.1829 11.9929 58.0181 12.0213C57.8533 12.0469 57.6928 12.071 57.5366 12.0938C57.3803 12.1136 57.2496 12.1307 57.1445 12.1449C56.8974 12.1761 56.6715 12.2287 56.467 12.3026C56.2653 12.3764 56.1033 12.483 55.9812 12.6222C55.8619 12.7585 55.8022 12.9403 55.8022 13.1676C55.8022 13.483 55.9187 13.7216 56.1516 13.8835C56.3846 14.0426 56.6815 14.1222 57.0423 14.1222ZM61.6925 15V8.45455H62.924V9.49432H62.9922C63.1115 9.14205 63.3217 8.86506 63.6229 8.66335C63.9268 8.45881 64.2706 8.35653 64.6541 8.35653C64.7337 8.35653 64.8274 8.35937 64.9354 8.36506C65.0462 8.37074 65.1328 8.37784 65.1953 8.38636V9.60511C65.1442 9.59091 65.0533 9.57528 64.9226 9.55824C64.7919 9.53835 64.6612 9.52841 64.5305 9.52841C64.2294 9.52841 63.9609 9.59233 63.7251 9.72017C63.4922 9.84517 63.3075 10.0199 63.1712 10.2443C63.0348 10.4659 62.9666 10.7187 62.9666 11.0028V15H61.6925ZM66.4002 15V6.27273H67.6744V9.51562H67.7511C67.8249 9.37926 67.9315 9.22159 68.0707 9.04261C68.2099 8.86364 68.4031 8.70739 68.6502 8.57386C68.8974 8.4375 69.2241 8.36932 69.6303 8.36932C70.1587 8.36932 70.6303 8.50284 71.0451 8.76989C71.4599 9.03693 71.7852 9.42187 72.021 9.92472C72.2596 10.4276 72.3789 11.0327 72.3789 11.7401C72.3789 12.4474 72.261 13.054 72.0252 13.5597C71.7894 14.0625 71.4656 14.4503 71.0536 14.723C70.6417 14.9929 70.1715 15.1278 69.6431 15.1278C69.2454 15.1278 68.9201 15.0611 68.6673 14.9276C68.4173 14.794 68.2212 14.6378 68.0792 14.4588C67.9371 14.2798 67.8278 14.1207 67.7511 13.9815H67.6445V15H66.4002ZM67.6488 11.7273C67.6488 12.1875 67.7156 12.5909 67.8491 12.9375C67.9826 13.2841 68.1758 13.5554 68.4286 13.7514C68.6815 13.9446 68.9911 14.0412 69.3576 14.0412C69.7383 14.0412 70.0565 13.9403 70.3121 13.7386C70.5678 13.5341 70.761 13.2571 70.8917 12.9077C71.0252 12.5582 71.092 12.1648 71.092 11.7273C71.092 11.2955 71.0266 10.9077 70.896 10.5639C70.7681 10.2202 70.5749 9.94886 70.3164 9.75C70.0607 9.55114 69.7411 9.4517 69.3576 9.4517C68.9883 9.4517 68.6758 9.54687 68.4201 9.73722C68.1673 9.92756 67.9755 10.1932 67.8448 10.5341C67.7141 10.875 67.6488 11.2727 67.6488 11.7273ZM73.8097 15V8.45455H75.0838V15H73.8097ZM74.4531 7.4446C74.2315 7.4446 74.0412 7.37074 73.8821 7.22301C73.7259 7.07244 73.6477 6.89347 73.6477 6.68608C73.6477 6.47585 73.7259 6.29687 73.8821 6.14915C74.0412 5.99858 74.2315 5.9233 74.4531 5.9233C74.6747 5.9233 74.8636 5.99858 75.0199 6.14915C75.179 6.29687 75.2585 6.47585 75.2585 6.68608C75.2585 6.89347 75.179 7.07244 75.0199 7.22301C74.8636 7.37074 74.6747 7.4446 74.4531 7.4446ZM79.8533 8.45455V9.47727H76.2781V8.45455H79.8533ZM77.2369 6.88636H78.511V13.0781C78.511 13.3253 78.5479 13.5114 78.6218 13.6364C78.6957 13.7585 78.7908 13.8423 78.9073 13.8878C79.0266 13.9304 79.1559 13.9517 79.2951 13.9517C79.3974 13.9517 79.4869 13.9446 79.5636 13.9304C79.6403 13.9162 79.6999 13.9048 79.7425 13.8963L79.9727 14.9489C79.8988 14.9773 79.7937 15.0057 79.6573 15.0341C79.521 15.0653 79.3505 15.0824 79.146 15.0852C78.8107 15.0909 78.4982 15.0312 78.2085 14.9062C77.9187 14.7812 77.6843 14.5881 77.5053 14.3267C77.3263 14.0653 77.2369 13.7372 77.2369 13.3423V6.88636ZM81.2628 15V8.45455H82.4943V9.49432H82.5625C82.6818 9.14205 82.892 8.86506 83.1932 8.66335C83.4972 8.45881 83.8409 8.35653 84.2244 8.35653C84.304 8.35653 84.3977 8.35937 84.5057 8.36506C84.6165 8.37074 84.7031 8.37784 84.7656 8.38636V9.60511C84.7145 9.59091 84.6236 9.57528 84.4929 9.55824C84.3622 9.53835 84.2315 9.52841 84.1009 9.52841C83.7997 9.52841 83.5313 9.59233 83.2955 9.72017C83.0625 9.84517 82.8778 10.0199 82.7415 10.2443C82.6051 10.4659 82.5369 10.7187 82.5369 11.0028V15H81.2628ZM87.7145 15.1449C87.2997 15.1449 86.9247 15.0682 86.5895 14.9148C86.2543 14.7585 85.9886 14.5327 85.7926 14.2372C85.5994 13.9418 85.5028 13.5795 85.5028 13.1506C85.5028 12.7812 85.5739 12.4773 85.7159 12.2386C85.858 12 86.0497 11.8111 86.2912 11.6719C86.5327 11.5327 86.8026 11.4276 87.1009 11.3565C87.3991 11.2855 87.7031 11.2315 88.0128 11.1946C88.4048 11.1491 88.723 11.1122 88.9673 11.0838C89.2116 11.0526 89.3892 11.0028 89.5 10.9347C89.6108 10.8665 89.6662 10.7557 89.6662 10.6023V10.5724C89.6662 10.2003 89.5611 9.91193 89.3509 9.70739C89.1435 9.50284 88.8338 9.40057 88.4219 9.40057C87.9929 9.40057 87.6548 9.49574 87.4077 9.68608C87.1634 9.87358 86.9943 10.0824 86.9006 10.3125L85.7031 10.0398C85.8452 9.64205 86.0526 9.32102 86.3253 9.0767C86.6009 8.82955 86.9176 8.65057 87.2756 8.53977C87.6335 8.42614 88.0099 8.36932 88.4048 8.36932C88.6662 8.36932 88.9432 8.40057 89.2358 8.46307C89.5313 8.52273 89.8068 8.63352 90.0625 8.79545C90.321 8.95739 90.5327 9.18892 90.6974 9.49006C90.8622 9.78835 90.9446 10.1761 90.9446 10.6534V15H89.7003V14.1051H89.6491C89.5668 14.2699 89.4432 14.4318 89.2784 14.5909C89.1136 14.75 88.902 14.8821 88.6435 14.9872C88.3849 15.0923 88.0753 15.1449 87.7145 15.1449ZM87.9915 14.1222C88.3438 14.1222 88.6449 14.0526 88.8949 13.9134C89.1477 13.7741 89.3395 13.5923 89.4702 13.3679C89.6037 13.1406 89.6705 12.8977 89.6705 12.6392V11.7955C89.625 11.8409 89.5369 11.8835 89.4062 11.9233C89.2784 11.9602 89.1321 11.9929 88.9673 12.0213C88.8026 12.0469 88.642 12.071 88.4858 12.0938C88.3295 12.1136 88.1989 12.1307 88.0938 12.1449C87.8466 12.1761 87.6207 12.2287 87.4162 12.3026C87.2145 12.3764 87.0526 12.483 86.9304 12.6222C86.8111 12.7585 86.7514 12.9403 86.7514 13.1676C86.7514 13.483 86.8679 13.7216 87.1009 13.8835C87.3338 14.0426 87.6307 14.1222 87.9915 14.1222ZM95.6971 8.45455V9.47727H92.1218V8.45455H95.6971ZM93.0806 6.88636H94.3548V13.0781C94.3548 13.3253 94.3917 13.5114 94.4656 13.6364C94.5394 13.7585 94.6346 13.8423 94.7511 13.8878C94.8704 13.9304 94.9996 13.9517 95.1388 13.9517C95.2411 13.9517 95.3306 13.9446 95.4073 13.9304C95.484 13.9162 95.5437 13.9048 95.5863 13.8963L95.8164 14.9489C95.7425 14.9773 95.6374 15.0057 95.5011 15.0341C95.3647 15.0653 95.1942 15.0824 94.9897 15.0852C94.6545 15.0909 94.342 15.0312 94.0522 14.9062C93.7624 14.7812 93.5281 14.5881 93.3491 14.3267C93.1701 14.0653 93.0806 13.7372 93.0806 13.3423V6.88636ZM97.1065 15V8.45455H98.3807V15H97.1065ZM97.75 7.4446C97.5284 7.4446 97.3381 7.37074 97.179 7.22301C97.0227 7.07244 96.9446 6.89347 96.9446 6.68608C96.9446 6.47585 97.0227 6.29687 97.179 6.14915C97.3381 5.99858 97.5284 5.9233 97.75 5.9233C97.9716 5.9233 98.1605 5.99858 98.3168 6.14915C98.4759 6.29687 98.5554 6.47585 98.5554 6.68608C98.5554 6.89347 98.4759 7.07244 98.3168 7.22301C98.1605 7.37074 97.9716 7.4446 97.75 7.4446ZM102.852 15.1321C102.238 15.1321 101.703 14.9915 101.245 14.7102C100.788 14.429 100.433 14.0355 100.18 13.5298C99.9272 13.0241 99.8008 12.4332 99.8008 11.7571C99.8008 11.0781 99.9272 10.4844 100.18 9.97585C100.433 9.46733 100.788 9.07244 101.245 8.79119C101.703 8.50994 102.238 8.36932 102.852 8.36932C103.466 8.36932 104.001 8.50994 104.458 8.79119C104.916 9.07244 105.271 9.46733 105.524 9.97585C105.777 10.4844 105.903 11.0781 105.903 11.7571C105.903 12.4332 105.777 13.0241 105.524 13.5298C105.271 14.0355 104.916 14.429 104.458 14.7102C104.001 14.9915 103.466 15.1321 102.852 15.1321ZM102.856 14.0625C103.254 14.0625 103.583 13.9574 103.845 13.7472C104.106 13.5369 104.299 13.2571 104.424 12.9077C104.552 12.5582 104.616 12.1733 104.616 11.7528C104.616 11.3352 104.552 10.9517 104.424 10.6023C104.299 10.25 104.106 9.96733 103.845 9.75426C103.583 9.54119 103.254 9.43466 102.856 9.43466C102.456 9.43466 102.123 9.54119 101.859 9.75426C101.598 9.96733 101.403 10.25 101.275 10.6023C101.15 10.9517 101.088 11.3352 101.088 11.7528C101.088 12.1733 101.15 12.5582 101.275 12.9077C101.403 13.2571 101.598 13.5369 101.859 13.7472C102.123 13.9574 102.456 14.0625 102.856 14.0625ZM108.599 11.1136V15H107.325V8.45455H108.548V9.51989H108.629C108.78 9.1733 109.016 8.89489 109.337 8.68466C109.661 8.47443 110.068 8.36932 110.56 8.36932C111.006 8.36932 111.396 8.46307 111.732 8.65057C112.067 8.83523 112.327 9.1108 112.511 9.47727C112.696 9.84375 112.788 10.2969 112.788 10.8366V15H111.514V10.9901C111.514 10.5156 111.391 10.1449 111.143 9.87784C110.896 9.60795 110.557 9.47301 110.125 9.47301C109.83 9.47301 109.567 9.53693 109.337 9.66477C109.109 9.79261 108.929 9.98011 108.795 10.2273C108.665 10.4716 108.599 10.767 108.599 11.1136Z" fill="#B42318"/>
</g>
</svg>
