<svg width="119" height="22" viewBox="0 0 119 22" fill="none" xmlns="http://www.w3.org/2000/svg">
<g style="mix-blend-mode:multiply">
<rect width="119" height="22" rx="11" fill="#F9F5FF"/>
<path d="M16.4672 9.1108H15.1376C15.0865 8.8267 14.9913 8.5767 14.8521 8.3608C14.7129 8.14489 14.5424 7.96165 14.3407 7.81108C14.139 7.66051 13.9132 7.54687 13.6632 7.47017C13.416 7.39347 13.1532 7.35511 12.8748 7.35511C12.372 7.35511 11.9217 7.48153 11.524 7.73438C11.1291 7.98722 10.8166 8.35795 10.5865 8.84659C10.3592 9.33523 10.2456 9.93182 10.2456 10.6364C10.2456 11.3466 10.3592 11.946 10.5865 12.4347C10.8166 12.9233 11.1305 13.2926 11.5282 13.5426C11.926 13.7926 12.3734 13.9176 12.8706 13.9176C13.1461 13.9176 13.4075 13.8807 13.6547 13.8068C13.9047 13.7301 14.1305 13.6179 14.3322 13.4702C14.5339 13.3224 14.7044 13.142 14.8436 12.929C14.9856 12.7131 15.0836 12.4659 15.1376 12.1875L16.4672 12.1918C16.3961 12.6207 16.2583 13.0156 16.0538 13.3764C15.8521 13.7344 15.5922 14.044 15.274 14.3054C14.9586 14.5639 14.5978 14.7642 14.1916 14.9062C13.7853 15.0483 13.3422 15.1193 12.862 15.1193C12.1064 15.1193 11.4331 14.9403 10.8422 14.5824C10.2512 14.2216 9.78533 13.706 9.44442 13.0355C9.10636 12.3651 8.93732 11.5653 8.93732 10.6364C8.93732 9.70455 9.10778 8.90483 9.44869 8.23722C9.7896 7.56676 10.2555 7.05256 10.8464 6.6946C11.4373 6.33381 12.1092 6.15341 12.862 6.15341C13.3251 6.15341 13.7569 6.22017 14.1575 6.35369C14.5609 6.48437 14.9231 6.67756 15.2441 6.93324C15.5652 7.18608 15.8308 7.49574 16.041 7.86222C16.2512 8.22585 16.3933 8.64205 16.4672 9.1108ZM19.8453 15.1449C19.4306 15.1449 19.0556 15.0682 18.7203 14.9148C18.3851 14.7585 18.1195 14.5327 17.9235 14.2372C17.7303 13.9418 17.6337 13.5795 17.6337 13.1506C17.6337 12.7812 17.7047 12.4773 17.8468 12.2386C17.9888 12 18.1806 11.8111 18.4221 11.6719C18.6635 11.5327 18.9334 11.4276 19.2317 11.3565C19.53 11.2855 19.834 11.2315 20.1436 11.1946C20.5357 11.1491 20.8539 11.1122 21.0982 11.0838C21.3425 11.0526 21.5201 11.0028 21.6309 10.9347C21.7417 10.8665 21.7971 10.7557 21.7971 10.6023V10.5724C21.7971 10.2003 21.6919 9.91193 21.4817 9.70739C21.2743 9.50284 20.9647 9.40057 20.5527 9.40057C20.1238 9.40057 19.7857 9.49574 19.5385 9.68608C19.2942 9.87358 19.1252 10.0824 19.0314 10.3125L17.834 10.0398C17.976 9.64205 18.1834 9.32102 18.4561 9.0767C18.7317 8.82955 19.0485 8.65057 19.4064 8.53977C19.7644 8.42614 20.1408 8.36932 20.5357 8.36932C20.7971 8.36932 21.074 8.40057 21.3667 8.46307C21.6621 8.52273 21.9377 8.63352 22.1934 8.79545C22.4519 8.95739 22.6635 9.18892 22.8283 9.49006C22.9931 9.78835 23.0755 10.1761 23.0755 10.6534V15H21.8311V14.1051H21.78C21.6976 14.2699 21.574 14.4318 21.4093 14.5909C21.2445 14.75 21.0328 14.8821 20.7743 14.9872C20.5158 15.0923 20.2061 15.1449 19.8453 15.1449ZM20.1223 14.1222C20.4746 14.1222 20.7757 14.0526 21.0257 13.9134C21.2786 13.7741 21.4703 13.5923 21.601 13.3679C21.7346 13.1406 21.8013 12.8977 21.8013 12.6392V11.7955C21.7559 11.8409 21.6678 11.8835 21.5371 11.9233C21.4093 11.9602 21.263 11.9929 21.0982 12.0213C20.9334 12.0469 20.7729 12.071 20.6167 12.0938C20.4604 12.1136 20.3297 12.1307 20.2246 12.1449C19.9775 12.1761 19.7516 12.2287 19.5471 12.3026C19.3453 12.3764 19.1834 12.483 19.0613 12.6222C18.9419 12.7585 18.8823 12.9403 18.8823 13.1676C18.8823 13.483 18.9988 13.7216 19.2317 13.8835C19.4647 14.0426 19.7615 14.1222 20.1223 14.1222ZM29.6774 10.0526L28.5225 10.2571C28.4743 10.1094 28.3975 9.96875 28.2924 9.83523C28.1902 9.7017 28.051 9.59233 27.8748 9.5071C27.6987 9.42187 27.4785 9.37926 27.2143 9.37926C26.8535 9.37926 26.5524 9.46023 26.3109 9.62216C26.0694 9.78125 25.9487 9.98722 25.9487 10.2401C25.9487 10.4588 26.0297 10.6349 26.1916 10.7685C26.3535 10.902 26.6149 11.0114 26.9757 11.0966L28.0154 11.3352C28.6177 11.4744 29.0666 11.6889 29.362 11.9787C29.6575 12.2685 29.8052 12.6449 29.8052 13.108C29.8052 13.5 29.6916 13.8494 29.4643 14.1562C29.2399 14.4602 28.926 14.6989 28.5225 14.8722C28.122 15.0455 27.6575 15.1321 27.1291 15.1321C26.3961 15.1321 25.7981 14.9759 25.335 14.6634C24.872 14.348 24.5879 13.9006 24.4828 13.321L25.7143 13.1335C25.791 13.4545 25.9487 13.6974 26.1873 13.8622C26.426 14.0241 26.737 14.1051 27.1206 14.1051C27.5382 14.1051 27.872 14.0185 28.122 13.8452C28.372 13.669 28.497 13.4545 28.497 13.2017C28.497 12.9972 28.4203 12.8253 28.2669 12.6861C28.1163 12.5469 27.8848 12.4418 27.5723 12.3707L26.4643 12.1278C25.8535 11.9886 25.4018 11.767 25.1092 11.4631C24.8194 11.1591 24.6745 10.7741 24.6745 10.3082C24.6745 9.92187 24.7825 9.58381 24.9984 9.29403C25.2143 9.00426 25.5126 8.77841 25.8933 8.61648C26.274 8.4517 26.71 8.36932 27.2015 8.36932C27.9089 8.36932 28.4657 8.52273 28.872 8.82955C29.2782 9.13352 29.5467 9.54119 29.6774 10.0526ZM34.0272 15.1321C33.3823 15.1321 32.8269 14.9943 32.361 14.7188C31.8979 14.4403 31.54 14.0497 31.2871 13.5469C31.0371 13.0412 30.9121 12.4489 30.9121 11.7699C30.9121 11.0994 31.0371 10.5085 31.2871 9.99716C31.54 9.4858 31.8922 9.08665 32.3439 8.79972C32.7985 8.51278 33.3297 8.36932 33.9377 8.36932C34.307 8.36932 34.665 8.4304 35.0115 8.55256C35.3581 8.67472 35.6692 8.86648 35.9448 9.12784C36.2203 9.3892 36.4377 9.72869 36.5968 10.1463C36.7559 10.5611 36.8354 11.0653 36.8354 11.6591V12.1108H31.6323V11.1562H35.5868C35.5868 10.821 35.5186 10.5241 35.3823 10.2656C35.2459 10.0043 35.0542 9.7983 34.807 9.64773C34.5627 9.49716 34.2757 9.42188 33.9462 9.42188C33.5882 9.42188 33.2757 9.50994 33.0087 9.68608C32.7445 9.85937 32.54 10.0866 32.3951 10.3679C32.253 10.6463 32.182 10.9489 32.182 11.2756V12.0213C32.182 12.4588 32.2587 12.831 32.4121 13.1378C32.5684 13.4446 32.7857 13.679 33.0641 13.8409C33.3425 14 33.6678 14.0795 34.04 14.0795C34.2814 14.0795 34.5016 14.0455 34.7005 13.9773C34.8993 13.9062 35.0712 13.8011 35.2161 13.6619C35.361 13.5227 35.4718 13.3509 35.5485 13.1463L36.7544 13.3636C36.6578 13.7187 36.4846 14.0298 36.2346 14.2969C35.9874 14.5611 35.6763 14.767 35.3013 14.9148C34.9292 15.0597 34.5044 15.1321 34.0272 15.1321ZM41.4249 15V8.45455H42.699V15H41.4249ZM42.0684 7.4446C41.8468 7.4446 41.6564 7.37074 41.4973 7.22301C41.3411 7.07244 41.263 6.89347 41.263 6.68608C41.263 6.47585 41.3411 6.29687 41.4973 6.14915C41.6564 5.99858 41.8468 5.9233 42.0684 5.9233C42.29 5.9233 42.4789 5.99858 42.6351 6.14915C42.7942 6.29687 42.8738 6.47585 42.8738 6.68608C42.8738 6.89347 42.7942 7.07244 42.6351 7.22301C42.4789 7.37074 42.29 7.4446 42.0684 7.4446ZM45.6873 11.1136V15H44.4132V8.45455H45.6362V9.51989H45.7172C45.8677 9.1733 46.1035 8.89489 46.4245 8.68466C46.7484 8.47443 47.1561 8.36932 47.6475 8.36932C48.0936 8.36932 48.4842 8.46307 48.8194 8.65057C49.1547 8.83523 49.4146 9.1108 49.5993 9.47727C49.7839 9.84375 49.8762 10.2969 49.8762 10.8366V15H48.6021V10.9901C48.6021 10.5156 48.4785 10.1449 48.2314 9.87784C47.9842 9.60795 47.6447 9.47301 47.2129 9.47301C46.9174 9.47301 46.6547 9.53693 46.4245 9.66477C46.1973 9.79261 46.0169 9.98011 45.8833 10.2273C45.7527 10.4716 45.6873 10.767 45.6873 11.1136ZM54.7608 15V8.45455H55.9838V9.51989H56.0648C56.2012 9.15909 56.4242 8.87784 56.7338 8.67614C57.0435 8.47159 57.4142 8.36932 57.8461 8.36932C58.2836 8.36932 58.65 8.47159 58.9455 8.67614C59.2438 8.88068 59.464 9.16193 59.606 9.51989H59.6742C59.8304 9.17045 60.079 8.89205 60.4199 8.68466C60.7608 8.47443 61.1671 8.36932 61.6387 8.36932C62.2324 8.36932 62.7168 8.5554 63.0918 8.92756C63.4696 9.29972 63.6586 9.8608 63.6586 10.6108V15H62.3844V10.7301C62.3844 10.2869 62.2637 9.96591 62.0222 9.76705C61.7807 9.56818 61.4924 9.46875 61.1571 9.46875C60.7424 9.46875 60.4199 9.59659 60.1898 9.85227C59.9597 10.1051 59.8446 10.4304 59.8446 10.8281V15H58.5748V10.6491C58.5748 10.294 58.464 10.0085 58.2424 9.79261C58.0208 9.5767 57.7324 9.46875 57.3773 9.46875C57.1358 9.46875 56.9128 9.53267 56.7083 9.66051C56.5066 9.78551 56.3432 9.96023 56.2182 10.1847C56.0961 10.4091 56.035 10.669 56.035 10.9645V15H54.7608ZM68.1873 15.1321C67.5424 15.1321 66.987 14.9943 66.5211 14.7188C66.0581 14.4403 65.7001 14.0497 65.4473 13.5469C65.1973 13.0412 65.0723 12.4489 65.0723 11.7699C65.0723 11.0994 65.1973 10.5085 65.4473 9.99716C65.7001 9.4858 66.0524 9.08665 66.5041 8.79972C66.9586 8.51278 67.4899 8.36932 68.0978 8.36932C68.4672 8.36932 68.8251 8.4304 69.1717 8.55256C69.5183 8.67472 69.8294 8.86648 70.1049 9.12784C70.3805 9.3892 70.5978 9.72869 70.7569 10.1463C70.916 10.5611 70.9956 11.0653 70.9956 11.6591V12.1108H65.7924V11.1562H69.747C69.747 10.821 69.6788 10.5241 69.5424 10.2656C69.4061 10.0043 69.2143 9.7983 68.9672 9.64773C68.7228 9.49716 68.4359 9.42188 68.1064 9.42188C67.7484 9.42188 67.4359 9.50994 67.1689 9.68608C66.9047 9.85937 66.7001 10.0866 66.5552 10.3679C66.4132 10.6463 66.3422 10.9489 66.3422 11.2756V12.0213C66.3422 12.4588 66.4189 12.831 66.5723 13.1378C66.7285 13.4446 66.9458 13.679 67.2243 13.8409C67.5027 14 67.8279 14.0795 68.2001 14.0795C68.4416 14.0795 68.6618 14.0455 68.8606 13.9773C69.0595 13.9062 69.2314 13.8011 69.3762 13.6619C69.5211 13.5227 69.6319 13.3509 69.7086 13.1463L70.9146 13.3636C70.818 13.7187 70.6447 14.0298 70.3947 14.2969C70.1475 14.5611 69.8365 14.767 69.4615 14.9148C69.0893 15.0597 68.6646 15.1321 68.1873 15.1321ZM74.8596 15.1278C74.3311 15.1278 73.8596 14.9929 73.4448 14.723C73.0328 14.4503 72.709 14.0625 72.4732 13.5597C72.2402 13.054 72.1238 12.4474 72.1238 11.7401C72.1238 11.0327 72.2417 10.4276 72.4775 9.92472C72.7161 9.42187 73.0428 9.03693 73.4576 8.76989C73.8723 8.50284 74.3425 8.36932 74.8681 8.36932C75.2743 8.36932 75.601 8.4375 75.8482 8.57386C76.0982 8.70739 76.2914 8.86364 76.4277 9.04261C76.5669 9.22159 76.6749 9.37926 76.7516 9.51562H76.8283V6.27273H78.1025V15H76.8581V13.9815H76.7516C76.6749 14.1207 76.5641 14.2798 76.4192 14.4588C76.2772 14.6378 76.0811 14.794 75.8311 14.9276C75.5811 15.0611 75.2573 15.1278 74.8596 15.1278ZM75.1408 14.0412C75.5073 14.0412 75.8169 13.9446 76.0698 13.7514C76.3255 13.5554 76.5186 13.2841 76.6493 12.9375C76.7828 12.5909 76.8496 12.1875 76.8496 11.7273C76.8496 11.2727 76.7843 10.875 76.6536 10.5341C76.5229 10.1932 76.3311 9.92756 76.0783 9.73722C75.8255 9.54687 75.513 9.4517 75.1408 9.4517C74.7573 9.4517 74.4377 9.55114 74.182 9.75C73.9263 9.94886 73.7331 10.2202 73.6025 10.5639C73.4746 10.9077 73.4107 11.2955 73.4107 11.7273C73.4107 12.1648 73.476 12.5582 73.6067 12.9077C73.7374 13.2571 73.9306 13.5341 74.1863 13.7386C74.4448 13.9403 74.763 14.0412 75.1408 14.0412ZM79.921 15V8.45455H81.1951V15H79.921ZM80.5645 7.4446C80.3429 7.4446 80.1525 7.37074 79.9934 7.22301C79.8372 7.07244 79.7591 6.89347 79.7591 6.68608C79.7591 6.47585 79.8372 6.29687 79.9934 6.14915C80.1525 5.99858 80.3429 5.9233 80.5645 5.9233C80.786 5.9233 80.975 5.99858 81.1312 6.14915C81.2903 6.29687 81.3699 6.47585 81.3699 6.68608C81.3699 6.89347 81.2903 7.07244 81.1312 7.22301C80.975 7.37074 80.786 7.4446 80.5645 7.4446ZM84.8141 15.1449C84.3993 15.1449 84.0243 15.0682 83.6891 14.9148C83.3539 14.7585 83.0882 14.5327 82.8922 14.2372C82.699 13.9418 82.6025 13.5795 82.6025 13.1506C82.6025 12.7812 82.6735 12.4773 82.8155 12.2386C82.9576 12 83.1493 11.8111 83.3908 11.6719C83.6323 11.5327 83.9022 11.4276 84.2005 11.3565C84.4988 11.2855 84.8027 11.2315 85.1124 11.1946C85.5044 11.1491 85.8226 11.1122 86.0669 11.0838C86.3113 11.0526 86.4888 11.0028 86.5996 10.9347C86.7104 10.8665 86.7658 10.7557 86.7658 10.6023V10.5724C86.7658 10.2003 86.6607 9.91193 86.4505 9.70739C86.2431 9.50284 85.9334 9.40057 85.5215 9.40057C85.0925 9.40057 84.7544 9.49574 84.5073 9.68608C84.263 9.87358 84.0939 10.0824 84.0002 10.3125L82.8027 10.0398C82.9448 9.64205 83.1522 9.32102 83.4249 9.0767C83.7005 8.82955 84.0172 8.65057 84.3752 8.53977C84.7331 8.42614 85.1096 8.36932 85.5044 8.36932C85.7658 8.36932 86.0428 8.40057 86.3354 8.46307C86.6309 8.52273 86.9064 8.63352 87.1621 8.79545C87.4206 8.95739 87.6323 9.18892 87.7971 9.49006C87.9618 9.78835 88.0442 10.1761 88.0442 10.6534V15H86.7999V14.1051H86.7488C86.6664 14.2699 86.5428 14.4318 86.378 14.5909C86.2132 14.75 86.0016 14.8821 85.7431 14.9872C85.4846 15.0923 85.1749 15.1449 84.8141 15.1449ZM85.0911 14.1222C85.4434 14.1222 85.7445 14.0526 85.9945 13.9134C86.2473 13.7741 86.4391 13.5923 86.5698 13.3679C86.7033 13.1406 86.7701 12.8977 86.7701 12.6392V11.7955C86.7246 11.8409 86.6365 11.8835 86.5059 11.9233C86.378 11.9602 86.2317 11.9929 86.0669 12.0213C85.9022 12.0469 85.7417 12.071 85.5854 12.0938C85.4292 12.1136 85.2985 12.1307 85.1934 12.1449C84.9462 12.1761 84.7203 12.2287 84.5158 12.3026C84.3141 12.3764 84.1522 12.483 84.03 12.6222C83.9107 12.7585 83.851 12.9403 83.851 13.1676C83.851 13.483 83.9675 13.7216 84.2005 13.8835C84.4334 14.0426 84.7303 14.1222 85.0911 14.1222ZM92.7967 8.45455V9.47727H89.2214V8.45455H92.7967ZM90.1802 6.88636H91.4544V13.0781C91.4544 13.3253 91.4913 13.5114 91.5652 13.6364C91.639 13.7585 91.7342 13.8423 91.8507 13.8878C91.97 13.9304 92.0993 13.9517 92.2385 13.9517C92.3407 13.9517 92.4302 13.9446 92.5069 13.9304C92.5836 13.9162 92.6433 13.9048 92.6859 13.8963L92.916 14.9489C92.8422 14.9773 92.737 15.0057 92.6007 15.0341C92.4643 15.0653 92.2939 15.0824 92.0893 15.0852C91.7541 15.0909 91.4416 15.0312 91.1518 14.9062C90.862 14.7812 90.6277 14.5881 90.4487 14.3267C90.2697 14.0653 90.1802 13.7372 90.1802 13.3423V6.88636ZM94.2061 15V8.45455H95.4803V15H94.2061ZM94.8496 7.4446C94.628 7.4446 94.4377 7.37074 94.2786 7.22301C94.1223 7.07244 94.0442 6.89347 94.0442 6.68608C94.0442 6.47585 94.1223 6.29687 94.2786 6.14915C94.4377 5.99858 94.628 5.9233 94.8496 5.9233C95.0712 5.9233 95.2601 5.99858 95.4164 6.14915C95.5755 6.29687 95.655 6.47585 95.655 6.68608C95.655 6.89347 95.5755 7.07244 95.4164 7.22301C95.2601 7.37074 95.0712 7.4446 94.8496 7.4446ZM99.9515 15.1321C99.3379 15.1321 98.8024 14.9915 98.345 14.7102C97.8876 14.429 97.5325 14.0355 97.2797 13.5298C97.0268 13.0241 96.9004 12.4332 96.9004 11.7571C96.9004 11.0781 97.0268 10.4844 97.2797 9.97585C97.5325 9.46733 97.8876 9.07244 98.345 8.79119C98.8024 8.50994 99.3379 8.36932 99.9515 8.36932C100.565 8.36932 101.101 8.50994 101.558 8.79119C102.015 9.07244 102.371 9.46733 102.623 9.97585C102.876 10.4844 103.003 11.0781 103.003 11.7571C103.003 12.4332 102.876 13.0241 102.623 13.5298C102.371 14.0355 102.015 14.429 101.558 14.7102C101.101 14.9915 100.565 15.1321 99.9515 15.1321ZM99.9558 14.0625C100.354 14.0625 100.683 13.9574 100.944 13.7472C101.206 13.5369 101.399 13.2571 101.524 12.9077C101.652 12.5582 101.716 12.1733 101.716 11.7528C101.716 11.3352 101.652 10.9517 101.524 10.6023C101.399 10.25 101.206 9.96733 100.944 9.75426C100.683 9.54119 100.354 9.43466 99.9558 9.43466C99.5552 9.43466 99.2228 9.54119 98.9586 9.75426C98.6973 9.96733 98.5027 10.25 98.3748 10.6023C98.2498 10.9517 98.1873 11.3352 98.1873 11.7528C98.1873 12.1733 98.2498 12.5582 98.3748 12.9077C98.5027 13.2571 98.6973 13.5369 98.9586 13.7472C99.2228 13.9574 99.5552 14.0625 99.9558 14.0625ZM105.699 11.1136V15H104.425V8.45455H105.648V9.51989H105.729C105.879 9.1733 106.115 8.89489 106.436 8.68466C106.76 8.47443 107.168 8.36932 107.659 8.36932C108.105 8.36932 108.496 8.46307 108.831 8.65057C109.166 8.83523 109.426 9.1108 109.611 9.47727C109.796 9.84375 109.888 10.2969 109.888 10.8366V15H108.614V10.9901C108.614 10.5156 108.49 10.1449 108.243 9.87784C107.996 9.60795 107.656 9.47301 107.225 9.47301C106.929 9.47301 106.666 9.53693 106.436 9.66477C106.209 9.79261 106.029 9.98011 105.895 10.2273C105.764 10.4716 105.699 10.767 105.699 11.1136Z" fill="#6941C6"/>
</g>
</svg>
