<svg width="92" height="22" viewBox="0 0 92 22" fill="none" xmlns="http://www.w3.org/2000/svg">
<g style="mix-blend-mode:multiply">
<rect width="92" height="22" rx="11" fill="#F2F4F7"/>
<path d="M16.35 9.1108H15.0204C14.9693 8.8267 14.8741 8.5767 14.7349 8.3608C14.5957 8.14489 14.4252 7.96165 14.2235 7.81108C14.0218 7.66051 13.796 7.54687 13.546 7.47017C13.2988 7.39347 13.036 7.35511 12.7576 7.35511C12.2548 7.35511 11.8045 7.48153 11.4068 7.73438C11.0119 7.98722 10.6994 8.35795 10.4693 8.84659C10.242 9.33523 10.1284 9.93182 10.1284 10.6364C10.1284 11.3466 10.242 11.946 10.4693 12.4347C10.6994 12.9233 11.0133 13.2926 11.411 13.5426C11.8088 13.7926 12.2562 13.9176 12.7534 13.9176C13.0289 13.9176 13.2903 13.8807 13.5375 13.8068C13.7875 13.7301 14.0133 13.6179 14.215 13.4702C14.4167 13.3224 14.5872 13.142 14.7264 12.929C14.8684 12.7131 14.9664 12.4659 15.0204 12.1875L16.35 12.1918C16.2789 12.6207 16.1412 13.0156 15.9366 13.3764C15.7349 13.7344 15.475 14.044 15.1568 14.3054C14.8414 14.5639 14.4806 14.7642 14.0744 14.9062C13.6681 15.0483 13.225 15.1193 12.7449 15.1193C11.9892 15.1193 11.3159 14.9403 10.725 14.5824C10.1341 14.2216 9.66815 13.706 9.32724 13.0355C8.98917 12.3651 8.82013 11.5653 8.82013 10.6364C8.82013 9.70455 8.99059 8.90483 9.3315 8.23722C9.67241 7.56676 10.1383 7.05256 10.7292 6.6946C11.3201 6.33381 11.992 6.15341 12.7449 6.15341C13.2079 6.15341 13.6397 6.22017 14.0403 6.35369C14.4437 6.48437 14.8059 6.67756 15.127 6.93324C15.448 7.18608 15.7136 7.49574 15.9238 7.86222C16.1341 8.22585 16.2761 8.64205 16.35 9.1108ZM19.7282 15.1449C19.3134 15.1449 18.9384 15.0682 18.6032 14.9148C18.2679 14.7585 18.0023 14.5327 17.8063 14.2372C17.6131 13.9418 17.5165 13.5795 17.5165 13.1506C17.5165 12.7812 17.5875 12.4773 17.7296 12.2386C17.8716 12 18.0634 11.8111 18.3049 11.6719C18.5463 11.5327 18.8162 11.4276 19.1145 11.3565C19.4128 11.2855 19.7168 11.2315 20.0265 11.1946C20.4185 11.1491 20.7367 11.1122 20.981 11.0838C21.2253 11.0526 21.4029 11.0028 21.5137 10.9347C21.6245 10.8665 21.6799 10.7557 21.6799 10.6023V10.5724C21.6799 10.2003 21.5748 9.91193 21.3645 9.70739C21.1571 9.50284 20.8475 9.40057 20.4355 9.40057C20.0066 9.40057 19.6685 9.49574 19.4213 9.68608C19.177 9.87358 19.008 10.0824 18.9142 10.3125L17.7168 10.0398C17.8588 9.64205 18.0662 9.32102 18.339 9.0767C18.6145 8.82955 18.9313 8.65057 19.2892 8.53977C19.6472 8.42614 20.0236 8.36932 20.4185 8.36932C20.6799 8.36932 20.9569 8.40057 21.2495 8.46307C21.5449 8.52273 21.8205 8.63352 22.0762 8.79545C22.3347 8.95739 22.5463 9.18892 22.7111 9.49006C22.8759 9.78835 22.9583 10.1761 22.9583 10.6534V15H21.714V14.1051H21.6628C21.5804 14.2699 21.4569 14.4318 21.2921 14.5909C21.1273 14.75 20.9157 14.8821 20.6571 14.9872C20.3986 15.0923 20.089 15.1449 19.7282 15.1449ZM20.0051 14.1222C20.3574 14.1222 20.6586 14.0526 20.9086 13.9134C21.1614 13.7741 21.3532 13.5923 21.4838 13.3679C21.6174 13.1406 21.6841 12.8977 21.6841 12.6392V11.7955C21.6387 11.8409 21.5506 11.8835 21.4199 11.9233C21.2921 11.9602 21.1458 11.9929 20.981 12.0213C20.8162 12.0469 20.6557 12.071 20.4995 12.0938C20.3432 12.1136 20.2125 12.1307 20.1074 12.1449C19.8603 12.1761 19.6344 12.2287 19.4299 12.3026C19.2282 12.3764 19.0662 12.483 18.9441 12.6222C18.8248 12.7585 18.7651 12.9403 18.7651 13.1676C18.7651 13.483 18.8816 13.7216 19.1145 13.8835C19.3475 14.0426 19.6444 14.1222 20.0051 14.1222ZM29.5602 10.0526L28.4054 10.2571C28.3571 10.1094 28.2804 9.96875 28.1752 9.83523C28.073 9.7017 27.9338 9.59233 27.7576 9.5071C27.5815 9.42187 27.3613 9.37926 27.0971 9.37926C26.7363 9.37926 26.4352 9.46023 26.1937 9.62216C25.9522 9.78125 25.8315 9.98722 25.8315 10.2401C25.8315 10.4588 25.9125 10.6349 26.0744 10.7685C26.2363 10.902 26.4977 11.0114 26.8585 11.0966L27.8983 11.3352C28.5005 11.4744 28.9494 11.6889 29.2449 11.9787C29.5403 12.2685 29.688 12.6449 29.688 13.108C29.688 13.5 29.5744 13.8494 29.3471 14.1562C29.1227 14.4602 28.8088 14.6989 28.4054 14.8722C28.0048 15.0455 27.5403 15.1321 27.0119 15.1321C26.2789 15.1321 25.6809 14.9759 25.2179 14.6634C24.7548 14.348 24.4707 13.9006 24.3656 13.321L25.5971 13.1335C25.6738 13.4545 25.8315 13.6974 26.0701 13.8622C26.3088 14.0241 26.6199 14.1051 27.0034 14.1051C27.421 14.1051 27.7548 14.0185 28.0048 13.8452C28.2548 13.669 28.3798 13.4545 28.3798 13.2017C28.3798 12.9972 28.3031 12.8253 28.1497 12.6861C27.9991 12.5469 27.7676 12.4418 27.4551 12.3707L26.3471 12.1278C25.7363 11.9886 25.2846 11.767 24.992 11.4631C24.7022 11.1591 24.5574 10.7741 24.5574 10.3082C24.5574 9.92187 24.6653 9.58381 24.8812 9.29403C25.0971 9.00426 25.3954 8.77841 25.7761 8.61648C26.1568 8.4517 26.5929 8.36932 27.0843 8.36932C27.7917 8.36932 28.3485 8.52273 28.7548 8.82955C29.161 9.13352 29.4295 9.54119 29.5602 10.0526ZM33.91 15.1321C33.2651 15.1321 32.7097 14.9943 32.2438 14.7188C31.7807 14.4403 31.4228 14.0497 31.1699 13.5469C30.9199 13.0412 30.7949 12.4489 30.7949 11.7699C30.7949 11.0994 30.9199 10.5085 31.1699 9.99716C31.4228 9.4858 31.775 9.08665 32.2267 8.79972C32.6813 8.51278 33.2125 8.36932 33.8205 8.36932C34.1898 8.36932 34.5478 8.4304 34.8944 8.55256C35.2409 8.67472 35.552 8.86648 35.8276 9.12784C36.1032 9.3892 36.3205 9.72869 36.4796 10.1463C36.6387 10.5611 36.7182 11.0653 36.7182 11.6591V12.1108H31.5151V11.1562H35.4696C35.4696 10.821 35.4015 10.5241 35.2651 10.2656C35.1287 10.0043 34.937 9.7983 34.6898 9.64773C34.4455 9.49716 34.1586 9.42188 33.829 9.42188C33.4711 9.42188 33.1586 9.50994 32.8915 9.68608C32.6273 9.85937 32.4228 10.0866 32.2779 10.3679C32.1358 10.6463 32.0648 10.9489 32.0648 11.2756V12.0213C32.0648 12.4588 32.1415 12.831 32.2949 13.1378C32.4512 13.4446 32.6685 13.679 32.9469 13.8409C33.2253 14 33.5506 14.0795 33.9228 14.0795C34.1642 14.0795 34.3844 14.0455 34.5833 13.9773C34.7821 13.9062 34.954 13.8011 35.0989 13.6619C35.2438 13.5227 35.3546 13.3509 35.4313 13.1463L36.6373 13.3636C36.5407 13.7187 36.3674 14.0298 36.1174 14.2969C35.8702 14.5611 35.5591 14.767 35.1841 14.9148C34.812 15.0597 34.3873 15.1321 33.91 15.1321ZM44.0648 15.1321C43.4512 15.1321 42.9157 14.9915 42.4583 14.7102C42.0009 14.429 41.6458 14.0355 41.3929 13.5298C41.1401 13.0241 41.0137 12.4332 41.0137 11.7571C41.0137 11.0781 41.1401 10.4844 41.3929 9.97585C41.6458 9.46733 42.0009 9.07244 42.4583 8.79119C42.9157 8.50994 43.4512 8.36932 44.0648 8.36932C44.6784 8.36932 45.214 8.50994 45.6713 8.79119C46.1287 9.07244 46.4838 9.46733 46.7367 9.97585C46.9895 10.4844 47.1159 11.0781 47.1159 11.7571C47.1159 12.4332 46.9895 13.0241 46.7367 13.5298C46.4838 14.0355 46.1287 14.429 45.6713 14.7102C45.214 14.9915 44.6784 15.1321 44.0648 15.1321ZM44.0691 14.0625C44.4668 14.0625 44.7963 13.9574 45.0577 13.7472C45.3191 13.5369 45.5123 13.2571 45.6373 12.9077C45.7651 12.5582 45.829 12.1733 45.829 11.7528C45.829 11.3352 45.7651 10.9517 45.6373 10.6023C45.5123 10.25 45.3191 9.96733 45.0577 9.75426C44.7963 9.54119 44.4668 9.43466 44.0691 9.43466C43.6685 9.43466 43.3361 9.54119 43.0719 9.75426C42.8105 9.96733 42.6159 10.25 42.4881 10.6023C42.3631 10.9517 42.3006 11.3352 42.3006 11.7528C42.3006 12.1733 42.3631 12.5582 42.4881 12.9077C42.6159 13.2571 42.8105 13.5369 43.0719 13.7472C43.3361 13.9574 43.6685 14.0625 44.0691 14.0625ZM48.5382 17.4545V8.45455H49.7825V9.51562H49.889C49.9629 9.37926 50.0694 9.22159 50.2086 9.04261C50.3478 8.86364 50.541 8.70739 50.7882 8.57386C51.0353 8.4375 51.362 8.36932 51.7683 8.36932C52.2967 8.36932 52.7683 8.50284 53.1831 8.76989C53.5978 9.03693 53.9231 9.42187 54.1589 9.92472C54.3976 10.4276 54.5169 11.0327 54.5169 11.7401C54.5169 12.4474 54.399 13.054 54.1632 13.5597C53.9274 14.0625 53.6035 14.4503 53.1916 14.723C52.7797 14.9929 52.3095 15.1278 51.7811 15.1278C51.3833 15.1278 51.0581 15.0611 50.8052 14.9276C50.5552 14.794 50.3592 14.6378 50.2172 14.4588C50.0751 14.2798 49.9657 14.1207 49.889 13.9815H49.8123V17.4545H48.5382ZM49.7868 11.7273C49.7868 12.1875 49.8535 12.5909 49.987 12.9375C50.1206 13.2841 50.3137 13.5554 50.5666 13.7514C50.8194 13.9446 51.1291 14.0412 51.4956 14.0412C51.8762 14.0412 52.1944 13.9403 52.4501 13.7386C52.7058 13.5341 52.899 13.2571 53.0297 12.9077C53.1632 12.5582 53.2299 12.1648 53.2299 11.7273C53.2299 11.2955 53.1646 10.9077 53.0339 10.5639C52.9061 10.2202 52.7129 9.94886 52.4544 9.75C52.1987 9.55114 51.8791 9.4517 51.4956 9.4517C51.1262 9.4517 50.8137 9.54687 50.5581 9.73722C50.3052 9.92756 50.1135 10.1932 49.9828 10.5341C49.8521 10.875 49.7868 11.2727 49.7868 11.7273ZM58.7654 15.1321C58.1206 15.1321 57.5652 14.9943 57.0993 14.7188C56.6362 14.4403 56.2782 14.0497 56.0254 13.5469C55.7754 13.0412 55.6504 12.4489 55.6504 11.7699C55.6504 11.0994 55.7754 10.5085 56.0254 9.99716C56.2782 9.4858 56.6305 9.08665 57.0822 8.79972C57.5368 8.51278 58.068 8.36932 58.676 8.36932C59.0453 8.36932 59.4032 8.4304 59.7498 8.55256C60.0964 8.67472 60.4075 8.86648 60.6831 9.12784C60.9586 9.3892 61.176 9.72869 61.3351 10.1463C61.4941 10.5611 61.5737 11.0653 61.5737 11.6591V12.1108H56.3706V11.1562H60.3251C60.3251 10.821 60.2569 10.5241 60.1206 10.2656C59.9842 10.0043 59.7924 9.7983 59.5453 9.64773C59.301 9.49716 59.014 9.42188 58.6845 9.42188C58.3265 9.42188 58.014 9.50994 57.747 9.68608C57.4828 9.85937 57.2782 10.0866 57.1333 10.3679C56.9913 10.6463 56.9203 10.9489 56.9203 11.2756V12.0213C56.9203 12.4588 56.997 12.831 57.1504 13.1378C57.3066 13.4446 57.524 13.679 57.8024 13.8409C58.0808 14 58.4061 14.0795 58.7782 14.0795C59.0197 14.0795 59.2399 14.0455 59.4387 13.9773C59.6376 13.9062 59.8095 13.8011 59.9544 13.6619C60.0993 13.5227 60.21 13.3509 60.2868 13.1463L61.4927 13.3636C61.3961 13.7187 61.2228 14.0298 60.9728 14.2969C60.7257 14.5611 60.4146 14.767 60.0396 14.9148C59.6674 15.0597 59.2427 15.1321 58.7654 15.1321ZM64.2615 11.1136V15H62.9874V8.45455H64.2104V9.51989H64.2914C64.4419 9.1733 64.6777 8.89489 64.9988 8.68466C65.3226 8.47443 65.7303 8.36932 66.2218 8.36932C66.6678 8.36932 67.0584 8.46307 67.3936 8.65057C67.7289 8.83523 67.9888 9.1108 68.1735 9.47727C68.3581 9.84375 68.4505 10.2969 68.4505 10.8366V15H67.1763V10.9901C67.1763 10.5156 67.0527 10.1449 66.8056 9.87784C66.5584 9.60795 66.2189 9.47301 65.7871 9.47301C65.4917 9.47301 65.2289 9.53693 64.9988 9.66477C64.7715 9.79261 64.5911 9.98011 64.4576 10.2273C64.3269 10.4716 64.2615 10.767 64.2615 11.1136ZM72.9803 15.1321C72.3354 15.1321 71.78 14.9943 71.3141 14.7188C70.851 14.4403 70.4931 14.0497 70.2402 13.5469C69.9902 13.0412 69.8652 12.4489 69.8652 11.7699C69.8652 11.0994 69.9902 10.5085 70.2402 9.99716C70.4931 9.4858 70.8453 9.08665 71.2971 8.79972C71.7516 8.51278 72.2828 8.36932 72.8908 8.36932C73.2601 8.36932 73.6181 8.4304 73.9647 8.55256C74.3113 8.67472 74.6223 8.86648 74.8979 9.12784C75.1735 9.3892 75.3908 9.72869 75.5499 10.1463C75.709 10.5611 75.7885 11.0653 75.7885 11.6591V12.1108H70.5854V11.1562H74.54C74.54 10.821 74.4718 10.5241 74.3354 10.2656C74.199 10.0043 74.0073 9.7983 73.7601 9.64773C73.5158 9.49716 73.2289 9.42188 72.8993 9.42188C72.5414 9.42188 72.2289 9.50994 71.9618 9.68608C71.6976 9.85937 71.4931 10.0866 71.3482 10.3679C71.2061 10.6463 71.1351 10.9489 71.1351 11.2756V12.0213C71.1351 12.4588 71.2118 12.831 71.3652 13.1378C71.5215 13.4446 71.7388 13.679 72.0172 13.8409C72.2956 14 72.6209 14.0795 72.9931 14.0795C73.2346 14.0795 73.4547 14.0455 73.6536 13.9773C73.8525 13.9062 74.0243 13.8011 74.1692 13.6619C74.3141 13.5227 74.4249 13.3509 74.5016 13.1463L75.7076 13.3636C75.611 13.7187 75.4377 14.0298 75.1877 14.2969C74.9405 14.5611 74.6294 14.767 74.2544 14.9148C73.8823 15.0597 73.4576 15.1321 72.9803 15.1321ZM79.6525 15.1278C79.1241 15.1278 78.6525 14.9929 78.2377 14.723C77.8258 14.4503 77.502 14.0625 77.2662 13.5597C77.0332 13.054 76.9167 12.4474 76.9167 11.7401C76.9167 11.0327 77.0346 10.4276 77.2704 9.92472C77.5091 9.42187 77.8358 9.03693 78.2505 8.76989C78.6653 8.50284 79.1355 8.36932 79.661 8.36932C80.0673 8.36932 80.394 8.4375 80.6412 8.57386C80.8912 8.70739 81.0843 8.86364 81.2207 9.04261C81.3599 9.22159 81.4679 9.37926 81.5446 9.51562H81.6213V6.27273H82.8954V15H81.6511V13.9815H81.5446C81.4679 14.1207 81.3571 14.2798 81.2122 14.4588C81.0701 14.6378 80.8741 14.794 80.6241 14.9276C80.3741 15.0611 80.0502 15.1278 79.6525 15.1278ZM79.9338 14.0412C80.3002 14.0412 80.6099 13.9446 80.8627 13.7514C81.1184 13.5554 81.3116 13.2841 81.4423 12.9375C81.5758 12.5909 81.6426 12.1875 81.6426 11.7273C81.6426 11.2727 81.5772 10.875 81.4466 10.5341C81.3159 10.1932 81.1241 9.92756 80.8713 9.73722C80.6184 9.54687 80.3059 9.4517 79.9338 9.4517C79.5502 9.4517 79.2306 9.55114 78.975 9.75C78.7193 9.94886 78.5261 10.2202 78.3954 10.5639C78.2676 10.9077 78.2037 11.2955 78.2037 11.7273C78.2037 12.1648 78.269 12.5582 78.3997 12.9077C78.5304 13.2571 78.7235 13.5341 78.9792 13.7386C79.2377 13.9403 79.5559 14.0412 79.9338 14.0412Z" fill="#344054"/>
</g>
</svg>
