<svg width="40" height="31" viewBox="0 0 40 31" fill="none" xmlns="http://www.w3.org/2000/svg">
<path d="M10.9546 6.26973L17.5195 13.4444L23.576 19.921C24.6454 21.0646 24.5799 22.8601 23.43 23.9227L21.8643 25.3695L19.5827 27.4569C18.44 28.5023 16.6685 28.4319 15.6123 27.2993L2.88191 13.6469C1.80673 12.4938 1.88429 10.6836 3.05415 9.62675L6.9794 6.08064C8.13115 5.04014 9.90686 5.12461 10.9546 6.26973Z" fill="#FEFEFE"/>
<path fill-rule="evenodd" clip-rule="evenodd" d="M5.7165 4.68368C7.63609 2.94952 10.5956 3.09029 12.3419 4.99883L18.8998 12.166L24.9494 18.6352C26.7318 20.5411 26.6225 23.5335 24.706 25.3045L23.1369 26.7545L20.8518 28.845C18.9474 30.5874 15.9949 30.4702 14.2346 28.5824L1.50419 14.93C-0.287772 13.0082 -0.158511 9.99122 1.79125 8.22979L5.7165 4.68368ZM9.56489 7.5398C9.21563 7.1581 8.62373 7.12994 8.23981 7.47678L4.31456 11.0229C3.92461 11.3752 3.89875 11.9786 4.25715 12.3629L16.9876 26.0153C17.3396 26.3929 17.9301 26.4163 18.311 26.0679L20.5857 23.9868L20.5926 23.9805L22.1514 22.54C22.5348 22.1858 22.5566 21.5873 22.2001 21.2061L16.1366 14.722L9.56489 7.5398Z" fill="white"/>
<path d="M14.2742 16.4603L17.6108 13.3519L28.4674 2.69125C29.5531 1.62516 31.2884 1.61132 32.3909 2.65995L36.7992 6.85264C37.9575 7.9542 37.9709 9.79674 36.829 10.9152L25.4684 22.0415C24.5006 22.8068 23.0667 22.3808 22.6737 21.2113L22.5693 20.9006C22.1061 19.5223 20.3791 19.0749 19.3049 20.0548L18.3747 20.9035C17.2337 21.9444 15.4679 21.8751 14.4119 20.748L14.1384 20.456C13.0703 19.3159 13.1312 17.5252 14.2742 16.4603Z" fill="#FEFEFE"/>
<path fill-rule="evenodd" clip-rule="evenodd" d="M27.148 1.34795C28.9575 -0.428865 31.8496 -0.451936 33.6872 1.29578L38.0955 5.48847C40.0259 7.3244 40.0484 10.3953 38.1451 12.2593L26.7132 23.4555L26.6349 23.5174C24.6451 25.0908 21.6971 24.215 20.889 21.8104L20.7845 21.4997C20.7734 21.4667 20.7609 21.4529 20.7519 21.4448C20.7396 21.4337 20.7199 21.4217 20.6935 21.4148C20.667 21.408 20.644 21.4089 20.6278 21.4126C20.616 21.4154 20.5983 21.4213 20.5726 21.4448L19.6424 22.2934C17.7406 24.0284 14.7976 23.9129 13.0376 22.0343L12.7641 21.7423C10.984 19.8422 11.0855 16.8577 12.9906 15.0829L16.309 11.9913L27.148 1.34795ZM31.0931 4.02327C30.7256 3.67372 30.1472 3.67834 29.7853 4.0337L18.911 14.7117L15.5564 17.837C15.1754 18.1919 15.1551 18.7888 15.5111 19.1689L15.7846 19.4608C16.1366 19.8365 16.7252 19.8596 17.1055 19.5126L18.0358 18.664C20.1144 16.7677 23.4562 17.6336 24.3525 20.3006L24.4027 20.4498L35.5114 9.57013C35.892 9.19733 35.8875 8.58314 35.5014 8.21596L31.0931 4.02327Z" fill="white"/>
<path d="M10.9546 6.26973L17.5195 13.4444L23.576 19.921C24.6454 21.0646 24.5799 22.8601 23.43 23.9227L21.8643 25.3695L19.5827 27.4569C18.44 28.5023 16.6685 28.4319 15.6123 27.2993L2.88191 13.6469C1.80673 12.4938 1.88429 10.6836 3.05415 9.62675L6.9794 6.08064C8.13115 5.04014 9.90686 5.12461 10.9546 6.26973Z" fill="#15AD07"/>
<path d="M14.2742 16.4603L17.6108 13.3519L28.4674 2.69125C29.5531 1.62516 31.2884 1.61132 32.3909 2.65995L36.7992 6.85264C37.9575 7.9542 37.9709 9.79674 36.829 10.9152L25.4684 22.0415C24.5006 22.8068 23.0667 22.3808 22.6737 21.2113L22.5693 20.9006C22.1061 19.5223 20.3791 19.0749 19.3049 20.0548L18.3747 20.9035C17.2337 21.9444 15.4679 21.8751 14.4119 20.748L14.1384 20.456C13.0703 19.3159 13.1312 17.5252 14.2742 16.4603Z" fill="#002B22"/>
</svg>
