<svg width="141" height="22" viewBox="0 0 141 22" fill="none" xmlns="http://www.w3.org/2000/svg">
<g style="mix-blend-mode:multiply">
<rect width="141" height="22" rx="11" fill="#EFF8FF"/>
<path d="M16.2353 6.27273V15H15.025L10.589 8.59943H10.508V15H9.19123V6.27273H10.41L14.8503 12.6818H14.9313V6.27273H16.2353ZM19.4728 6.27273V15H18.1561V6.27273H19.4728ZM28.639 9.1108H27.3095C27.2583 8.8267 27.1632 8.5767 27.024 8.3608C26.8848 8.14489 26.7143 7.96165 26.5126 7.81108C26.3109 7.66051 26.085 7.54687 25.835 7.47017C25.5879 7.39347 25.3251 7.35511 25.0467 7.35511C24.5439 7.35511 24.0936 7.48153 23.6958 7.73438C23.301 7.98722 22.9885 8.35795 22.7583 8.84659C22.5311 9.33523 22.4174 9.93182 22.4174 10.6364C22.4174 11.3466 22.5311 11.946 22.7583 12.4347C22.9885 12.9233 23.3024 13.2926 23.7001 13.5426C24.0978 13.7926 24.5453 13.9176 25.0424 13.9176C25.318 13.9176 25.5794 13.8807 25.8265 13.8068C26.0765 13.7301 26.3024 13.6179 26.5041 13.4702C26.7058 13.3224 26.8762 13.142 27.0154 12.929C27.1575 12.7131 27.2555 12.4659 27.3095 12.1875L28.639 12.1918C28.568 12.6207 28.4302 13.0156 28.2257 13.3764C28.024 13.7344 27.764 14.044 27.4458 14.3054C27.1305 14.5639 26.7697 14.7642 26.3635 14.9062C25.9572 15.0483 25.514 15.1193 25.0339 15.1193C24.2782 15.1193 23.6049 14.9403 23.014 14.5824C22.4231 14.2216 21.9572 13.706 21.6163 13.0355C21.2782 12.3651 21.1092 11.5653 21.1092 10.6364C21.1092 9.70455 21.2797 8.90483 21.6206 8.23722C21.9615 7.56676 22.4274 7.05256 23.0183 6.6946C23.6092 6.33381 24.2811 6.15341 25.0339 6.15341C25.497 6.15341 25.9288 6.22017 26.3294 6.35369C26.7328 6.48437 27.095 6.67756 27.416 6.93324C27.737 7.18608 28.0027 7.49574 28.2129 7.86222C28.4231 8.22585 28.5652 8.64205 28.639 9.1108ZM36.7825 6.27273H38.095V12.4602C38.095 13.0199 37.9842 13.4986 37.7626 13.8963C37.5439 14.294 37.2356 14.598 36.8379 14.8082C36.4402 15.0156 35.9743 15.1193 35.4402 15.1193C34.9487 15.1193 34.5069 15.0298 34.1149 14.8509C33.7257 14.6719 33.4174 14.4119 33.1902 14.071C32.9657 13.7273 32.8535 13.3097 32.8535 12.8182H34.1618C34.1618 13.0597 34.2172 13.2685 34.3279 13.4446C34.4416 13.6207 34.5964 13.7585 34.7924 13.858C34.9913 13.9545 35.2186 14.0028 35.4743 14.0028C35.7527 14.0028 35.9885 13.9446 36.1816 13.8281C36.3777 13.7088 36.5268 13.5341 36.6291 13.304C36.7314 13.0739 36.7825 12.7926 36.7825 12.4602V6.27273ZM44.0556 12.2855V8.45455H45.334V15H44.0811V13.8665H44.013C43.8624 14.2159 43.6209 14.5071 43.2885 14.7401C42.959 14.9702 42.5485 15.0852 42.057 15.0852C41.6365 15.0852 41.2644 14.9929 40.9405 14.8082C40.6195 14.6207 40.3667 14.3438 40.182 13.9773C40.0002 13.6108 39.9093 13.1577 39.9093 12.6179V8.45455H41.1834V12.4645C41.1834 12.9105 41.307 13.2656 41.5542 13.5298C41.8013 13.794 42.1223 13.9261 42.5172 13.9261C42.7559 13.9261 42.9931 13.8665 43.2289 13.7472C43.4675 13.6278 43.665 13.4474 43.8212 13.206C43.9803 12.9645 44.0584 12.6577 44.0556 12.2855ZM49.4963 15.1278C48.9679 15.1278 48.4963 14.9929 48.0815 14.723C47.6696 14.4503 47.3457 14.0625 47.1099 13.5597C46.877 13.054 46.7605 12.4474 46.7605 11.7401C46.7605 11.0327 46.8784 10.4276 47.1142 9.92472C47.3528 9.42187 47.6795 9.03693 48.0943 8.76989C48.5091 8.50284 48.9792 8.36932 49.5048 8.36932C49.911 8.36932 50.2377 8.4375 50.4849 8.57386C50.7349 8.70739 50.9281 8.86364 51.0645 9.04261C51.2037 9.22159 51.3116 9.37926 51.3883 9.51562H51.465V6.27273H52.7392V15H51.4949V13.9815H51.3883C51.3116 14.1207 51.2008 14.2798 51.0559 14.4588C50.9139 14.6378 50.7179 14.794 50.4679 14.9276C50.2179 15.0611 49.894 15.1278 49.4963 15.1278ZM49.7775 14.0412C50.144 14.0412 50.4537 13.9446 50.7065 13.7514C50.9622 13.5554 51.1554 13.2841 51.286 12.9375C51.4196 12.5909 51.4863 12.1875 51.4863 11.7273C51.4863 11.2727 51.421 10.875 51.2903 10.5341C51.1596 10.1932 50.9679 9.92756 50.715 9.73722C50.4622 9.54687 50.1497 9.4517 49.7775 9.4517C49.394 9.4517 49.0744 9.55114 48.8187 9.75C48.563 9.94886 48.3699 10.2202 48.2392 10.5639C48.1113 10.9077 48.0474 11.2955 48.0474 11.7273C48.0474 12.1648 48.1127 12.5582 48.2434 12.9077C48.3741 13.2571 48.5673 13.5341 48.823 13.7386C49.0815 13.9403 49.3997 14.0412 49.7775 14.0412ZM57.302 17.5909C56.7821 17.5909 56.3347 17.5227 55.9597 17.3864C55.5875 17.25 55.2836 17.0696 55.0478 16.8452C54.812 16.6207 54.6358 16.375 54.5194 16.108L55.6145 15.6562C55.6912 15.7812 55.7935 15.9134 55.9213 16.0526C56.052 16.1946 56.2282 16.3153 56.4498 16.4148C56.6742 16.5142 56.9625 16.5639 57.3148 16.5639C57.7978 16.5639 58.1969 16.446 58.5123 16.2102C58.8276 15.9773 58.9853 15.6051 58.9853 15.0938V13.8068H58.9043C58.8276 13.946 58.7168 14.1009 58.5719 14.2713C58.4299 14.4418 58.2338 14.5895 57.9838 14.7145C57.7338 14.8395 57.4086 14.902 57.008 14.902C56.4909 14.902 56.025 14.7812 55.6103 14.5398C55.1983 14.2955 54.8716 13.9361 54.6301 13.4616C54.3915 12.9844 54.2722 12.3977 54.2722 11.7017C54.2722 11.0057 54.3901 10.4091 54.6259 9.91193C54.8645 9.41477 55.1912 9.03409 55.606 8.76989C56.0208 8.50284 56.4909 8.36932 57.0165 8.36932C57.4228 8.36932 57.7509 8.4375 58.0009 8.57386C58.2509 8.70739 58.4455 8.86364 58.5847 9.04261C58.7267 9.22159 58.8361 9.37926 58.9128 9.51562H59.0066V8.45455H60.2551V15.1449C60.2551 15.7074 60.1245 16.169 59.8631 16.5298C59.6017 16.8906 59.248 17.1577 58.802 17.331C58.3588 17.5043 57.8588 17.5909 57.302 17.5909ZM57.2892 13.8452C57.6557 13.8452 57.9654 13.7599 58.2182 13.5895C58.4739 13.4162 58.6671 13.169 58.7978 12.848C58.9313 12.5241 58.998 12.1364 58.998 11.6847C58.998 11.2443 58.9327 10.8565 58.802 10.5213C58.6713 10.1861 58.4796 9.92472 58.2267 9.73722C57.9739 9.54687 57.6614 9.4517 57.2892 9.4517C56.9057 9.4517 56.5861 9.55114 56.3304 9.75C56.0748 9.94602 55.8816 10.2131 55.7509 10.5511C55.623 10.8892 55.5591 11.267 55.5591 11.6847C55.5591 12.1136 55.6245 12.4901 55.7551 12.8139C55.8858 13.1378 56.079 13.3906 56.3347 13.5724C56.5932 13.7543 56.9114 13.8452 57.2892 13.8452ZM64.785 15.1321C64.1401 15.1321 63.5847 14.9943 63.1188 14.7188C62.6557 14.4403 62.2978 14.0497 62.0449 13.5469C61.7949 13.0412 61.6699 12.4489 61.6699 11.7699C61.6699 11.0994 61.7949 10.5085 62.0449 9.99716C62.2978 9.4858 62.65 9.08665 63.1017 8.79972C63.5563 8.51278 64.0875 8.36932 64.6955 8.36932C65.0648 8.36932 65.4228 8.4304 65.7694 8.55256C66.1159 8.67472 66.427 8.86648 66.7026 9.12784C66.9782 9.3892 67.1955 9.72869 67.3546 10.1463C67.5137 10.5611 67.5932 11.0653 67.5932 11.6591V12.1108H62.3901V11.1562H66.3446C66.3446 10.821 66.2765 10.5241 66.1401 10.2656C66.0037 10.0043 65.812 9.7983 65.5648 9.64773C65.3205 9.49716 65.0336 9.42188 64.704 9.42188C64.3461 9.42188 64.0336 9.50994 63.7665 9.68608C63.5023 9.85937 63.2978 10.0866 63.1529 10.3679C63.0108 10.6463 62.9398 10.9489 62.9398 11.2756V12.0213C62.9398 12.4588 63.0165 12.831 63.1699 13.1378C63.3262 13.4446 63.5435 13.679 63.8219 13.8409C64.1003 14 64.4256 14.0795 64.7978 14.0795C65.0392 14.0795 65.2594 14.0455 65.4583 13.9773C65.6571 13.9062 65.829 13.8011 65.9739 13.6619C66.1188 13.5227 66.2296 13.3509 66.3063 13.1463L67.5123 13.3636C67.4157 13.7187 67.2424 14.0298 66.9924 14.2969C66.7452 14.5611 66.4341 14.767 66.0591 14.9148C65.687 15.0597 65.2623 15.1321 64.785 15.1321ZM69.0069 15V8.45455H70.2299V9.51989H70.3109C70.4473 9.15909 70.6703 8.87784 70.9799 8.67614C71.2896 8.47159 71.6603 8.36932 72.0922 8.36932C72.5297 8.36932 72.8961 8.47159 73.1916 8.67614C73.4899 8.88068 73.71 9.16193 73.8521 9.51989H73.9203C74.0765 9.17045 74.3251 8.89205 74.666 8.68466C75.0069 8.47443 75.4132 8.36932 75.8848 8.36932C76.4785 8.36932 76.9629 8.5554 77.3379 8.92756C77.7157 9.29972 77.9047 9.8608 77.9047 10.6108V15H76.6305V10.7301C76.6305 10.2869 76.5098 9.96591 76.2683 9.76705C76.0268 9.56818 75.7385 9.46875 75.4032 9.46875C74.9885 9.46875 74.666 9.59659 74.4359 9.85227C74.2058 10.1051 74.0907 10.4304 74.0907 10.8281V15H72.8208V10.6491C72.8208 10.294 72.71 10.0085 72.4885 9.79261C72.2669 9.5767 71.9785 9.46875 71.6234 9.46875C71.3819 9.46875 71.1589 9.53267 70.9544 9.66051C70.7527 9.78551 70.5893 9.96023 70.4643 10.1847C70.3422 10.4091 70.2811 10.669 70.2811 10.9645V15H69.0069ZM82.4334 15.1321C81.7885 15.1321 81.2331 14.9943 80.7672 14.7188C80.3042 14.4403 79.9462 14.0497 79.6934 13.5469C79.4434 13.0412 79.3184 12.4489 79.3184 11.7699C79.3184 11.0994 79.4434 10.5085 79.6934 9.99716C79.9462 9.4858 80.2985 9.08665 80.7502 8.79972C81.2047 8.51278 81.736 8.36932 82.3439 8.36932C82.7132 8.36932 83.0712 8.4304 83.4178 8.55256C83.7644 8.67472 84.0755 8.86648 84.351 9.12784C84.6266 9.3892 84.8439 9.72869 85.003 10.1463C85.1621 10.5611 85.2417 11.0653 85.2417 11.6591V12.1108H80.0385V11.1562H83.9931C83.9931 10.821 83.9249 10.5241 83.7885 10.2656C83.6522 10.0043 83.4604 9.7983 83.2132 9.64773C82.9689 9.49716 82.682 9.42188 82.3525 9.42188C81.9945 9.42188 81.682 9.50994 81.415 9.68608C81.1507 9.85937 80.9462 10.0866 80.8013 10.3679C80.6593 10.6463 80.5882 10.9489 80.5882 11.2756V12.0213C80.5882 12.4588 80.665 12.831 80.8184 13.1378C80.9746 13.4446 81.1919 13.679 81.4703 13.8409C81.7488 14 82.074 14.0795 82.4462 14.0795C82.6877 14.0795 82.9078 14.0455 83.1067 13.9773C83.3056 13.9062 83.4775 13.8011 83.6223 13.6619C83.7672 13.5227 83.878 13.3509 83.9547 13.1463L85.1607 13.3636C85.0641 13.7187 84.8908 14.0298 84.6408 14.2969C84.3936 14.5611 84.0826 14.767 83.7076 14.9148C83.3354 15.0597 82.9107 15.1321 82.4334 15.1321ZM87.9295 11.1136V15H86.6554V8.45455H87.8784V9.51989H87.9593C88.1099 9.1733 88.3457 8.89489 88.6667 8.68466C88.9906 8.47443 89.3983 8.36932 89.8897 8.36932C90.3358 8.36932 90.7264 8.46307 91.0616 8.65057C91.3968 8.83523 91.6568 9.1108 91.8414 9.47727C92.0261 9.84375 92.1184 10.2969 92.1184 10.8366V15H90.8443V10.9901C90.8443 10.5156 90.7207 10.1449 90.4735 9.87784C90.2264 9.60795 89.8869 9.47301 89.4551 9.47301C89.1596 9.47301 88.8968 9.53693 88.6667 9.66477C88.4395 9.79261 88.2591 9.98011 88.1255 10.2273C87.9949 10.4716 87.9295 10.767 87.9295 11.1136ZM96.8826 8.45455V9.47727H93.3074V8.45455H96.8826ZM94.2662 6.88636H95.5403V13.0781C95.5403 13.3253 95.5772 13.5114 95.6511 13.6364C95.725 13.7585 95.8201 13.8423 95.9366 13.8878C96.0559 13.9304 96.1852 13.9517 96.3244 13.9517C96.4267 13.9517 96.5162 13.9446 96.5929 13.9304C96.6696 13.9162 96.7292 13.9048 96.7718 13.8963L97.002 14.9489C96.9281 14.9773 96.823 15.0057 96.6866 15.0341C96.5502 15.0653 96.3798 15.0824 96.1752 15.0852C95.84 15.0909 95.5275 15.0312 95.2377 14.9062C94.948 14.7812 94.7136 14.5881 94.5346 14.3267C94.3556 14.0653 94.2662 13.7372 94.2662 13.3423V6.88636ZM101.57 6.27273H103.168L105.947 13.0568H106.049L108.827 6.27273H110.425V15H109.172V8.68466H109.091L106.518 14.9872H105.478L102.904 8.6804H102.823V15H101.57V6.27273ZM114.142 15.1449C113.727 15.1449 113.352 15.0682 113.017 14.9148C112.682 14.7585 112.416 14.5327 112.22 14.2372C112.027 13.9418 111.931 13.5795 111.931 13.1506C111.931 12.7812 112.002 12.4773 112.144 12.2386C112.286 12 112.477 11.8111 112.719 11.6719C112.96 11.5327 113.23 11.4276 113.529 11.3565C113.827 11.2855 114.131 11.2315 114.441 11.1946C114.833 11.1491 115.151 11.1122 115.395 11.0838C115.639 11.0526 115.817 11.0028 115.928 10.9347C116.039 10.8665 116.094 10.7557 116.094 10.6023V10.5724C116.094 10.2003 115.989 9.91193 115.779 9.70739C115.571 9.50284 115.262 9.40057 114.85 9.40057C114.421 9.40057 114.083 9.49574 113.835 9.68608C113.591 9.87358 113.422 10.0824 113.328 10.3125L112.131 10.0398C112.273 9.64205 112.48 9.32102 112.753 9.0767C113.029 8.82955 113.345 8.65057 113.703 8.53977C114.061 8.42614 114.438 8.36932 114.833 8.36932C115.094 8.36932 115.371 8.40057 115.664 8.46307C115.959 8.52273 116.235 8.63352 116.49 8.79545C116.749 8.95739 116.96 9.18892 117.125 9.49006C117.29 9.78835 117.372 10.1761 117.372 10.6534V15H116.128V14.1051H116.077C115.994 14.2699 115.871 14.4318 115.706 14.5909C115.541 14.75 115.33 14.8821 115.071 14.9872C114.813 15.0923 114.503 15.1449 114.142 15.1449ZM114.419 14.1222C114.771 14.1222 115.073 14.0526 115.323 13.9134C115.575 13.7741 115.767 13.5923 115.898 13.3679C116.031 13.1406 116.098 12.8977 116.098 12.6392V11.7955C116.053 11.8409 115.965 11.8835 115.834 11.9233C115.706 11.9602 115.56 11.9929 115.395 12.0213C115.23 12.0469 115.07 12.071 114.914 12.0938C114.757 12.1136 114.627 12.1307 114.521 12.1449C114.274 12.1761 114.048 12.2287 113.844 12.3026C113.642 12.3764 113.48 12.483 113.358 12.6222C113.239 12.7585 113.179 12.9403 113.179 13.1676C113.179 13.483 113.296 13.7216 113.529 13.8835C113.762 14.0426 114.058 14.1222 114.419 14.1222ZM121.52 15.1278C120.991 15.1278 120.52 14.9929 120.105 14.723C119.693 14.4503 119.369 14.0625 119.133 13.5597C118.9 13.054 118.784 12.4474 118.784 11.7401C118.784 11.0327 118.902 10.4276 119.138 9.92472C119.376 9.42187 119.703 9.03693 120.118 8.76989C120.532 8.50284 121.003 8.36932 121.528 8.36932C121.934 8.36932 122.261 8.4375 122.508 8.57386C122.758 8.70739 122.952 8.86364 123.088 9.04261C123.227 9.22159 123.335 9.37926 123.412 9.51562H123.488V6.27273H124.763V15H123.518V13.9815H123.412C123.335 14.1207 123.224 14.2798 123.079 14.4588C122.937 14.6378 122.741 14.794 122.491 14.9276C122.241 15.0611 121.917 15.1278 121.52 15.1278ZM121.801 14.0412C122.167 14.0412 122.477 13.9446 122.73 13.7514C122.986 13.5554 123.179 13.2841 123.309 12.9375C123.443 12.5909 123.51 12.1875 123.51 11.7273C123.51 11.2727 123.444 10.875 123.314 10.5341C123.183 10.1932 122.991 9.92756 122.738 9.73722C122.486 9.54687 122.173 9.4517 121.801 9.4517C121.417 9.4517 121.098 9.55114 120.842 9.75C120.586 9.94886 120.393 10.2202 120.263 10.5639C120.135 10.9077 120.071 11.2955 120.071 11.7273C120.071 12.1648 120.136 12.5582 120.267 12.9077C120.398 13.2571 120.591 13.5341 120.846 13.7386C121.105 13.9403 121.423 14.0412 121.801 14.0412ZM129.402 15.1321C128.757 15.1321 128.202 14.9943 127.736 14.7188C127.273 14.4403 126.915 14.0497 126.662 13.5469C126.412 13.0412 126.287 12.4489 126.287 11.7699C126.287 11.0994 126.412 10.5085 126.662 9.99716C126.915 9.4858 127.267 9.08665 127.719 8.79972C128.173 8.51278 128.705 8.36932 129.313 8.36932C129.682 8.36932 130.04 8.4304 130.387 8.55256C130.733 8.67472 131.044 8.86648 131.32 9.12784C131.595 9.3892 131.813 9.72869 131.972 10.1463C132.131 10.5611 132.21 11.0653 132.21 11.6591V12.1108H127.007V11.1562H130.962C130.962 10.821 130.894 10.5241 130.757 10.2656C130.621 10.0043 130.429 9.7983 130.182 9.64773C129.938 9.49716 129.651 9.42188 129.321 9.42188C128.963 9.42188 128.651 9.50994 128.384 9.68608C128.119 9.85937 127.915 10.0866 127.77 10.3679C127.628 10.6463 127.557 10.9489 127.557 11.2756V12.0213C127.557 12.4588 127.634 12.831 127.787 13.1378C127.943 13.4446 128.161 13.679 128.439 13.8409C128.718 14 129.043 14.0795 129.415 14.0795C129.656 14.0795 129.877 14.0455 130.075 13.9773C130.274 13.9062 130.446 13.8011 130.591 13.6619C130.736 13.5227 130.847 13.3509 130.923 13.1463L132.129 13.3636C132.033 13.7187 131.86 14.0298 131.61 14.2969C131.362 14.5611 131.051 14.767 130.676 14.9148C130.304 15.0597 129.879 15.1321 129.402 15.1321Z" fill="#175CD3"/>
</g>
</svg>
