<svg width="305" height="268" viewBox="0 0 305 268" fill="none" xmlns="http://www.w3.org/2000/svg">
<g filter="url(#filter0_dd_10030_257)">
<rect x="7.75" y="2.83691" width="289" height="252.731" rx="6" fill="#E8F7E6" shape-rendering="crispEdges"/>
<path d="M28.3275 34.0854H26.4349C26.4003 33.8406 26.3297 33.6231 26.2231 33.4329C26.1165 33.2399 25.9797 33.0757 25.8126 32.9403C25.6455 32.8049 25.4525 32.7012 25.2336 32.6292C25.0175 32.5572 24.7827 32.5212 24.5292 32.5212C24.0712 32.5212 23.6722 32.6349 23.3323 32.8625C22.9923 33.0872 22.7287 33.4156 22.5415 33.8478C22.3542 34.277 22.2606 34.7984 22.2606 35.412C22.2606 36.0429 22.3542 36.573 22.5415 37.0022C22.7316 37.4315 22.9966 37.7555 23.3366 37.9745C23.6765 38.1934 24.0697 38.3029 24.5163 38.3029C24.7669 38.3029 24.9988 38.2698 25.212 38.2035C25.428 38.1373 25.6196 38.0407 25.7867 37.914C25.9538 37.7844 26.0921 37.6274 26.2015 37.443C26.3139 37.2586 26.3917 37.0483 26.4349 36.8121L28.3275 36.8207C28.2786 37.2269 28.1561 37.6187 27.9602 37.9961C27.7672 38.3706 27.5065 38.7062 27.1781 39.0029C26.8526 39.2968 26.4637 39.5301 26.0114 39.703C25.562 39.8729 25.0535 39.9579 24.486 39.9579C23.6967 39.9579 22.9909 39.7793 22.3686 39.4221C21.7493 39.0649 21.2595 38.5478 20.8994 37.8708C20.5422 37.1938 20.3636 36.3742 20.3636 35.412C20.3636 34.447 20.5451 33.6259 20.9081 32.949C21.2711 32.272 21.7637 31.7563 22.3859 31.402C23.0082 31.0448 23.7082 30.8661 24.486 30.8661C24.9988 30.8661 25.4741 30.9382 25.912 31.0822C26.3528 31.2262 26.7431 31.4365 27.083 31.7131C27.423 31.9868 27.6995 32.3224 27.9127 32.7199C28.1288 33.1175 28.267 33.5726 28.3275 34.0854ZM31.5274 39.9622C31.1039 39.9622 30.7265 39.8888 30.3952 39.7418C30.0639 39.592 29.8018 39.3717 29.6088 39.0807C29.4186 38.7869 29.3236 38.421 29.3236 37.9831C29.3236 37.6144 29.3913 37.3047 29.5267 37.0541C29.6621 36.8034 29.8464 36.6018 30.0798 36.4491C30.3131 36.2964 30.5782 36.1812 30.8749 36.1034C31.1745 36.0256 31.4885 35.9709 31.8169 35.9392C32.2029 35.8989 32.514 35.8614 32.7503 35.8269C32.9865 35.7894 33.1579 35.7347 33.2645 35.6627C33.3711 35.5906 33.4244 35.484 33.4244 35.3429V35.317C33.4244 35.0433 33.3379 34.8315 33.1651 34.6817C32.9951 34.5319 32.7531 34.457 32.4391 34.457C32.1079 34.457 31.8443 34.5305 31.6484 34.6774C31.4525 34.8215 31.3228 35.003 31.2595 35.2219L29.5569 35.0836C29.6433 34.6803 29.8133 34.3317 30.0668 34.0379C30.3203 33.7412 30.6473 33.5136 31.0477 33.3551C31.451 33.1938 31.9177 33.1132 32.4478 33.1132C32.8165 33.1132 33.1694 33.1564 33.5065 33.2428C33.8464 33.3292 34.1474 33.4632 34.4096 33.6447C34.6746 33.8262 34.8835 34.0595 35.0362 34.3447C35.1889 34.627 35.2652 34.9655 35.2652 35.3602V39.8369H33.5194V38.9165H33.4676C33.361 39.1239 33.2184 39.3068 33.0398 39.4653C32.8612 39.6209 32.6466 39.7433 32.3959 39.8326C32.1453 39.919 31.8558 39.9622 31.5274 39.9622ZM32.0546 38.6918C32.3254 38.6918 32.5645 38.6385 32.7719 38.5319C32.9793 38.4224 33.1421 38.2755 33.2602 38.0912C33.3783 37.9068 33.4373 37.6979 33.4373 37.4646V36.7602C33.3797 36.7977 33.3005 36.8323 33.1997 36.8639C33.1017 36.8928 32.9908 36.9201 32.8669 36.946C32.7431 36.9691 32.6192 36.9907 32.4953 37.0109C32.3714 37.0281 32.2591 37.044 32.1583 37.0584C31.9422 37.0901 31.7535 37.1405 31.5922 37.2096C31.4309 37.2788 31.3056 37.3724 31.2162 37.4905C31.1269 37.6057 31.0823 37.7498 31.0823 37.9226C31.0823 38.1733 31.173 38.3648 31.3545 38.4973C31.5389 38.627 31.7722 38.6918 32.0546 38.6918ZM42.2158 35.0923L40.5306 35.196C40.5017 35.0519 40.4398 34.9223 40.3447 34.8071C40.2497 34.6889 40.1244 34.5953 39.9688 34.5262C39.8161 34.4542 39.6332 34.4182 39.42 34.4182C39.1348 34.4182 38.8943 34.4787 38.6984 34.5996C38.5025 34.7178 38.4045 34.8762 38.4045 35.075C38.4045 35.2334 38.4679 35.3674 38.5947 35.4768C38.7214 35.5863 38.9389 35.6742 39.2472 35.7404L40.4484 35.9824C41.0937 36.1149 41.5748 36.3281 41.8917 36.622C42.2086 36.9158 42.3671 37.3018 42.3671 37.78C42.3671 38.215 42.2389 38.5967 41.9825 38.9251C41.729 39.2536 41.3804 39.5099 40.9367 39.6943C40.496 39.8758 39.9875 39.9665 39.4114 39.9665C38.5327 39.9665 37.8327 39.7836 37.3113 39.4178C36.7927 39.049 36.4888 38.5478 36.3995 37.914L38.2101 37.8189C38.2648 38.0868 38.3973 38.2914 38.6076 38.4325C38.8179 38.5708 39.0873 38.6399 39.4157 38.6399C39.7383 38.6399 39.9976 38.578 40.1935 38.4541C40.3923 38.3274 40.4931 38.1646 40.496 37.9658C40.4931 37.7988 40.4225 37.6619 40.2842 37.5553C40.146 37.4459 39.9328 37.3623 39.6447 37.3047L38.4953 37.0757C37.8471 36.946 37.3646 36.7213 37.0477 36.4016C36.7337 36.0818 36.5767 35.6742 36.5767 35.1787C36.5767 34.7523 36.6919 34.385 36.9224 34.0768C37.1557 33.7685 37.4827 33.5309 37.9033 33.3638C38.3268 33.1967 38.8222 33.1132 39.3898 33.1132C40.2281 33.1132 40.8878 33.2903 41.3689 33.6447C41.8528 33.999 42.1351 34.4815 42.2158 35.0923ZM46.551 39.9665C45.8683 39.9665 45.2806 39.8283 44.788 39.5517C44.2983 39.2723 43.9209 38.8776 43.6558 38.3677C43.3908 37.8549 43.2583 37.2485 43.2583 36.5485C43.2583 35.8658 43.3908 35.2665 43.6558 34.7509C43.9209 34.2352 44.2939 33.8334 44.775 33.5453C45.259 33.2572 45.8265 33.1132 46.4776 33.1132C46.9155 33.1132 47.3231 33.1837 47.7005 33.3249C48.0807 33.4632 48.412 33.672 48.6943 33.9515C48.9795 34.2309 49.2014 34.5824 49.3598 35.0058C49.5182 35.4264 49.5975 35.919 49.5975 36.4837V36.9893H43.9929V35.8485H47.8647C47.8647 35.5834 47.8071 35.3486 47.6918 35.1441C47.5766 34.9396 47.4167 34.7797 47.2122 34.6645C47.0105 34.5464 46.7757 34.4873 46.5078 34.4873C46.2284 34.4873 45.9806 34.5521 45.7646 34.6817C45.5514 34.8085 45.3843 34.9799 45.2633 35.196C45.1423 35.4091 45.0804 35.6468 45.0775 35.909V36.9936C45.0775 37.322 45.138 37.6057 45.259 37.8449C45.3829 38.084 45.5572 38.2683 45.7819 38.398C46.0066 38.5276 46.273 38.5924 46.5813 38.5924C46.7858 38.5924 46.9731 38.5636 47.143 38.506C47.313 38.4484 47.4585 38.362 47.5795 38.2467C47.7005 38.1315 47.7927 37.9903 47.856 37.8232L49.5586 37.9356C49.4722 38.3447 49.295 38.7019 49.0271 39.0072C48.762 39.3097 48.4192 39.546 47.9986 39.7159C47.5809 39.883 47.0984 39.9665 46.551 39.9665ZM57.2006 33.1996V34.4095H53.385V33.1996H57.2006ZM54.327 31.6094H55.8913V37.8405C55.8913 38.0508 55.923 38.2122 55.9863 38.3245C56.0526 38.434 56.139 38.5089 56.2456 38.5492C56.3522 38.5895 56.4703 38.6097 56.5999 38.6097C56.6979 38.6097 56.7872 38.6025 56.8678 38.5881C56.9514 38.5737 57.0148 38.5607 57.058 38.5492L57.3216 39.7721C57.238 39.8009 57.1185 39.8326 56.9629 39.8672C56.8102 39.9017 56.623 39.9219 56.4012 39.9277C56.0094 39.9392 55.6565 39.8801 55.3425 39.7505C55.0285 39.618 54.7793 39.4134 54.5949 39.1369C54.4134 38.8603 54.3241 38.5146 54.327 38.0998V31.6094ZM58.5088 39.8369V33.1996H60.0731V39.8369H58.5088ZM59.2953 32.2576C59.0475 32.2576 58.8343 32.1755 58.6557 32.0113C58.4771 31.8442 58.3878 31.644 58.3878 31.4106C58.3878 31.1744 58.4771 30.9742 58.6557 30.81C58.8343 30.6429 59.0475 30.5593 59.2953 30.5593C59.5459 30.5593 59.7591 30.6429 59.9348 30.81C60.1134 30.9742 60.2027 31.1744 60.2027 31.4106C60.2027 31.644 60.1134 31.8442 59.9348 32.0113C59.7591 32.1755 59.5459 32.2576 59.2953 32.2576ZM64.996 33.1996V34.4095H61.1804V33.1996H64.996ZM62.1224 31.6094H63.6867V37.8405C63.6867 38.0508 63.7184 38.2122 63.7817 38.3245C63.848 38.434 63.9344 38.5089 64.041 38.5492C64.1476 38.5895 64.2657 38.6097 64.3953 38.6097C64.4933 38.6097 64.5826 38.6025 64.6633 38.5881C64.7468 38.5737 64.8102 38.5607 64.8534 38.5492L65.117 39.7721C65.0334 39.8009 64.9139 39.8326 64.7583 39.8672C64.6056 39.9017 64.4184 39.9219 64.1966 39.9277C63.8048 39.9392 63.4519 39.8801 63.1379 39.7505C62.8239 39.618 62.5747 39.4134 62.3903 39.1369C62.2088 38.8603 62.1195 38.5146 62.1224 38.0998V31.6094ZM68.0111 30.9871V39.8369H66.4468V30.9871H68.0111ZM72.5581 39.9665C71.8926 39.9665 71.3179 39.8283 70.8339 39.5517C70.3528 39.2723 69.9826 38.8776 69.7234 38.3677C69.4641 37.8549 69.3345 37.2514 69.3345 36.5571C69.3345 35.8744 69.4641 35.2752 69.7234 34.7595C69.9855 34.241 70.3514 33.8377 70.8209 33.5496C71.2905 33.2586 71.8422 33.1132 72.4759 33.1132C72.885 33.1132 73.271 33.1794 73.634 33.3119C73.9999 33.4416 74.3225 33.6432 74.602 33.9169C74.8843 34.1906 75.1061 34.5391 75.2674 34.9626C75.4288 35.3832 75.5094 35.8845 75.5094 36.4664V36.946H70.0691V35.8917H74.01C74.0071 35.5921 73.9423 35.3256 73.8155 35.0923C73.6888 34.856 73.5116 34.6702 73.284 34.5348C73.0593 34.3994 72.7972 34.3317 72.4976 34.3317C72.1778 34.3317 71.8969 34.4095 71.6549 34.5651C71.4129 34.7178 71.2242 34.9194 71.0889 35.17C70.9563 35.4178 70.8886 35.69 70.8858 35.9867V36.9072C70.8858 37.2932 70.9563 37.6245 71.0975 37.901C71.2387 38.1747 71.436 38.385 71.6895 38.5319C71.943 38.676 72.2397 38.748 72.5797 38.748C72.8072 38.748 73.0132 38.7163 73.1976 38.6529C73.382 38.5867 73.5418 38.4901 73.6772 38.3634C73.8126 38.2366 73.9149 38.0796 73.984 37.8924L75.4446 38.0566C75.3524 38.4426 75.1767 38.7797 74.9174 39.0677C74.661 39.3529 74.3326 39.5748 73.9322 39.7332C73.5318 39.8888 73.0737 39.9665 72.5581 39.9665Z" fill="#002B22"/>
<rect x="20.1846" y="48.7481" width="264.483" height="33.8978" rx="4.78046" fill="white"/>
<rect x="20.1846" y="48.7481" width="264.483" height="33.8978" rx="4.78046" stroke="#E4E7EC" stroke-width="0.869174"/>
<path d="M37.0595 60.8475H38.1311V66.707C38.1311 67.312 37.9885 67.8521 37.7033 68.3275C37.421 68.7999 37.022 69.173 36.5064 69.4466C35.9907 69.7174 35.3858 69.8528 34.6915 69.8528C33.9972 69.8528 33.3923 69.7174 32.8766 69.4466C32.3609 69.173 31.9605 68.7999 31.6753 68.3275C31.393 67.8521 31.2518 67.312 31.2518 66.707V60.8475H32.3235V66.6206C32.3235 67.0527 32.4185 67.4373 32.6087 67.7743C32.7988 68.1085 33.0696 68.3721 33.4211 68.5651C33.7754 68.7552 34.1989 68.8503 34.6915 68.8503C35.1841 68.8503 35.6076 68.7552 35.9619 68.5651C36.3163 68.3721 36.587 68.1085 36.7743 67.7743C36.9644 67.4373 37.0595 67.0527 37.0595 66.6206V60.8475ZM41.1527 65.7045V69.6973H40.1329V63.0599H41.1182V64.097H41.2046C41.3601 63.76 41.5964 63.4892 41.9133 63.2846C42.2301 63.0772 42.6392 62.9735 43.1405 62.9735C43.5899 62.9735 43.9831 63.0657 44.3202 63.2501C44.6572 63.4316 44.9194 63.7081 45.1066 64.0797C45.2939 64.4485 45.3875 64.9152 45.3875 65.4798V69.6973H44.3677V65.5489C44.3677 65.0275 44.2323 64.6213 43.9615 64.3304C43.6907 64.0365 43.3191 63.8896 42.8466 63.8896C42.5211 63.8896 42.2301 63.9602 41.9738 64.1013C41.7202 64.2425 41.52 64.4485 41.3731 64.7193C41.2262 64.9901 41.1527 65.3185 41.1527 65.7045ZM50.2067 63.0599V63.9242H46.6287V63.0599H50.2067ZM47.7004 69.6973V62.1438C47.7004 61.7636 47.7897 61.4467 47.9683 61.1932C48.1469 60.9397 48.3788 60.7495 48.664 60.6228C48.9492 60.496 49.2503 60.4327 49.5671 60.4327C49.8178 60.4327 50.0223 60.4528 50.1808 60.4932C50.3392 60.5335 50.4573 60.5709 50.5351 60.6055L50.2413 61.487C50.1894 61.4697 50.1174 61.4481 50.0252 61.4222C49.9359 61.3963 49.8178 61.3833 49.6709 61.3833C49.3338 61.3833 49.0904 61.4683 48.9406 61.6383C48.7937 61.8082 48.7202 62.0574 48.7202 62.3858V69.6973H47.7004ZM53.399 69.8528C52.9784 69.8528 52.5967 69.7736 52.2538 69.6152C51.911 69.4538 51.6388 69.2219 51.4371 68.9195C51.2355 68.6141 51.1347 68.2453 51.1347 67.8132C51.1347 67.433 51.2096 67.1247 51.3594 66.8885C51.5092 66.6494 51.7094 66.4621 51.96 66.3267C52.2106 66.1913 52.4872 66.0905 52.7897 66.0243C53.095 65.9551 53.4018 65.9004 53.7101 65.8601C54.1134 65.8082 54.4404 65.7693 54.691 65.7434C54.9445 65.7146 55.1289 65.667 55.2441 65.6008C55.3622 65.5345 55.4213 65.4193 55.4213 65.2551V65.2205C55.4213 64.7942 55.3046 64.4629 55.0712 64.2267C54.8408 63.9904 54.4908 63.8723 54.0212 63.8723C53.5344 63.8723 53.1526 63.9789 52.8761 64.1921C52.5995 64.4053 52.4051 64.6328 52.2927 64.8748L51.3248 64.5291C51.4976 64.1258 51.7281 63.8118 52.0162 63.5871C52.3071 63.3595 52.624 63.2011 52.9668 63.1118C53.3125 63.0196 53.6525 62.9735 53.9866 62.9735C54.1998 62.9735 54.4447 62.9994 54.7212 63.0513C55.0007 63.1003 55.27 63.2025 55.5293 63.3581C55.7914 63.5137 56.0089 63.7484 56.1818 64.0624C56.3546 64.3765 56.4411 64.797 56.4411 65.3242V69.6973H55.4213V68.7985H55.3694C55.3003 68.9425 55.185 69.0966 55.0237 69.2608C54.8624 69.425 54.6478 69.5647 54.3799 69.68C54.1119 69.7952 53.785 69.8528 53.399 69.8528ZM53.5545 68.9367C53.9578 68.9367 54.2978 68.8575 54.5743 68.6991C54.8538 68.5406 55.064 68.3361 55.2052 68.0855C55.3492 67.8348 55.4213 67.5712 55.4213 67.2947V66.3613C55.3781 66.4132 55.283 66.4607 55.1361 66.5039C54.992 66.5442 54.8249 66.5803 54.6348 66.6119C54.4476 66.6408 54.2646 66.6667 54.086 66.6897C53.9103 66.7099 53.7677 66.7272 53.6582 66.7416C53.3932 66.7761 53.1454 66.8323 52.915 66.9101C52.6874 66.985 52.503 67.0988 52.3619 67.2515C52.2236 67.4013 52.1545 67.6058 52.1545 67.8651C52.1545 68.2194 52.2855 68.4873 52.5477 68.6688C52.8127 68.8474 53.1483 68.9367 53.5545 68.9367ZM58.3024 69.6973V63.0599H59.3222V69.6973H58.3024ZM58.821 61.9537C58.6222 61.9537 58.4508 61.886 58.3067 61.7506C58.1656 61.6152 58.095 61.4525 58.095 61.2623C58.095 61.0722 58.1656 60.9094 58.3067 60.774C58.4508 60.6386 58.6222 60.5709 58.821 60.5709C59.0197 60.5709 59.1897 60.6386 59.3309 60.774C59.4749 60.9094 59.5469 61.0722 59.5469 61.2623C59.5469 61.4525 59.4749 61.6152 59.3309 61.7506C59.1897 61.886 59.0197 61.9537 58.821 61.9537ZM61.19 69.6973V63.0599H62.1753V64.0624H62.2444C62.3654 63.734 62.5843 63.4676 62.9012 63.263C63.2181 63.0585 63.5753 62.9562 63.9729 62.9562C64.0478 62.9562 64.1414 62.9577 64.2538 62.9605C64.3661 62.9634 64.4511 62.9677 64.5087 62.9735V64.0106C64.4741 64.002 64.3949 63.989 64.271 63.9717C64.15 63.9515 64.0219 63.9415 63.8865 63.9415C63.5638 63.9415 63.2757 64.0092 63.0222 64.1446C62.7716 64.2771 62.5728 64.4614 62.4259 64.6977C62.2819 64.931 62.2098 65.1975 62.2098 65.4971V69.6973H61.19ZM74.1179 63.0599C74.0661 62.6221 73.8558 62.2821 73.487 62.0401C73.1183 61.7981 72.666 61.6772 72.1302 61.6772C71.7384 61.6772 71.3956 61.7405 71.1017 61.8673C70.8108 61.994 70.5832 62.1683 70.419 62.3902C70.2577 62.612 70.177 62.864 70.177 63.1464C70.177 63.3826 70.2332 63.5857 70.3455 63.7556C70.4608 63.9227 70.6077 64.0624 70.7863 64.1748C70.9649 64.2843 71.1522 64.375 71.3481 64.447C71.5439 64.5162 71.724 64.5723 71.8882 64.6156L72.787 64.8575C73.0175 64.918 73.2739 65.0016 73.5562 65.1082C73.8414 65.2148 74.1136 65.3602 74.3729 65.5446C74.635 65.7261 74.8511 65.9594 75.0211 66.2446C75.191 66.5298 75.276 66.8799 75.276 67.2947C75.276 67.7729 75.1507 68.205 74.9001 68.591C74.6523 68.9771 74.2893 69.2839 73.8111 69.5115C73.3358 69.739 72.7582 69.8528 72.0783 69.8528C71.4446 69.8528 70.8958 69.7506 70.432 69.546C69.971 69.3415 69.6081 69.0563 69.343 68.6904C69.0809 68.3246 68.9325 67.8997 68.8979 67.4157H70.0042C70.033 67.7499 70.1453 68.0264 70.3412 68.2453C70.54 68.4614 70.7906 68.6227 71.0931 68.7293C71.3985 68.833 71.7269 68.8849 72.0783 68.8849C72.4874 68.8849 72.8547 68.8186 73.1802 68.6861C73.5058 68.5507 73.7636 68.3635 73.9537 68.1244C74.1439 67.8824 74.2389 67.6001 74.2389 67.2774C74.2389 66.9836 74.1568 66.7445 73.9926 66.5601C73.8284 66.3757 73.6123 66.2259 73.3444 66.1107C73.0765 65.9955 72.787 65.8946 72.4759 65.8082L71.3869 65.4971C70.6956 65.2983 70.1482 65.0145 69.7449 64.6458C69.3416 64.2771 69.1399 63.7945 69.1399 63.1982C69.1399 62.7027 69.2739 62.2706 69.5418 61.9019C69.8126 61.5302 70.1756 61.2422 70.6307 61.0376C71.0888 60.8302 71.6001 60.7265 72.1648 60.7265C72.7352 60.7265 73.2422 60.8288 73.6858 61.0333C74.1295 61.235 74.4809 61.5115 74.7402 61.863C75.0023 62.2144 75.1406 62.6134 75.155 63.0599H74.1179ZM78.8529 69.8528C78.4323 69.8528 78.0506 69.7736 77.7077 69.6152C77.3649 69.4538 77.0927 69.2219 76.891 68.9195C76.6894 68.6141 76.5886 68.2453 76.5886 67.8132C76.5886 67.433 76.6635 67.1247 76.8133 66.8885C76.9631 66.6494 77.1633 66.4621 77.4139 66.3267C77.6645 66.1913 77.9411 66.0905 78.2436 66.0243C78.5489 65.9551 78.8557 65.9004 79.164 65.8601C79.5673 65.8082 79.8943 65.7693 80.1449 65.7434C80.3984 65.7146 80.5828 65.667 80.698 65.6008C80.8161 65.5345 80.8752 65.4193 80.8752 65.2551V65.2205C80.8752 64.7942 80.7585 64.4629 80.5252 64.2267C80.2947 63.9904 79.9447 63.8723 79.4751 63.8723C78.9883 63.8723 78.6066 63.9789 78.33 64.1921C78.0534 64.4053 77.859 64.6328 77.7466 64.8748L76.7787 64.5291C76.9515 64.1258 77.182 63.8118 77.4701 63.5871C77.761 63.3595 78.0779 63.2011 78.4207 63.1118C78.7664 63.0196 79.1064 62.9735 79.4405 62.9735C79.6537 62.9735 79.8986 62.9994 80.1751 63.0513C80.4546 63.1003 80.7239 63.2025 80.9832 63.3581C81.2454 63.5137 81.4629 63.7484 81.6357 64.0624C81.8085 64.3765 81.895 64.797 81.895 65.3242V69.6973H80.8752V68.7985H80.8233C80.7542 68.9425 80.6389 69.0966 80.4776 69.2608C80.3163 69.425 80.1017 69.5647 79.8338 69.68C79.5659 69.7952 79.2389 69.8528 78.8529 69.8528ZM79.0084 68.9367C79.4117 68.9367 79.7517 68.8575 80.0282 68.6991C80.3077 68.5406 80.518 68.3361 80.6591 68.0855C80.8032 67.8348 80.8752 67.5712 80.8752 67.2947V66.3613C80.832 66.4132 80.7369 66.4607 80.59 66.5039C80.4459 66.5442 80.2788 66.5803 80.0887 66.6119C79.9015 66.6408 79.7185 66.6667 79.5399 66.6897C79.3642 66.7099 79.2216 66.7272 79.1121 66.7416C78.8471 66.7761 78.5994 66.8323 78.3689 66.9101C78.1413 66.985 77.9569 67.0988 77.8158 67.2515C77.6775 67.4013 77.6084 67.6058 77.6084 67.8651C77.6084 68.2194 77.7394 68.4873 78.0016 68.6688C78.2666 68.8474 78.6022 68.9367 79.0084 68.9367ZM84.7761 60.8475V69.6973H83.7563V60.8475H84.7761ZM88.5971 69.8528C88.1765 69.8528 87.7948 69.7736 87.452 69.6152C87.1092 69.4538 86.837 69.2219 86.6353 68.9195C86.4336 68.6141 86.3328 68.2453 86.3328 67.8132C86.3328 67.433 86.4077 67.1247 86.5575 66.8885C86.7073 66.6494 86.9075 66.4621 87.1582 66.3267C87.4088 66.1913 87.6854 66.0905 87.9878 66.0243C88.2932 65.9551 88.6 65.9004 88.9082 65.8601C89.3116 65.8082 89.6385 65.7693 89.8892 65.7434C90.1427 65.7146 90.327 65.667 90.4423 65.6008C90.5604 65.5345 90.6194 65.4193 90.6194 65.2551V65.2205C90.6194 64.7942 90.5028 64.4629 90.2694 64.2267C90.039 63.9904 89.6889 63.8723 89.2194 63.8723C88.7325 63.8723 88.3508 63.9789 88.0743 64.1921C87.7977 64.4053 87.6032 64.6328 87.4909 64.8748L86.523 64.5291C86.6958 64.1258 86.9263 63.8118 87.2143 63.5871C87.5053 63.3595 87.8222 63.2011 88.165 63.1118C88.5107 63.0196 88.8506 62.9735 89.1848 62.9735C89.398 62.9735 89.6428 62.9994 89.9194 63.0513C90.1988 63.1003 90.4682 63.2025 90.7275 63.3581C90.9896 63.5137 91.2071 63.7484 91.38 64.0624C91.5528 64.3765 91.6392 64.797 91.6392 65.3242V69.6973H90.6194V68.7985H90.5676C90.4984 68.9425 90.3832 69.0966 90.2219 69.2608C90.0606 69.425 89.8459 69.5647 89.578 69.68C89.3101 69.7952 88.9831 69.8528 88.5971 69.8528ZM88.7527 68.9367C89.156 68.9367 89.4959 68.8575 89.7725 68.6991C90.0519 68.5406 90.2622 68.3361 90.4034 68.0855C90.5474 67.8348 90.6194 67.5712 90.6194 67.2947V66.3613C90.5762 66.4132 90.4812 66.4607 90.3342 66.5039C90.1902 66.5442 90.0231 66.5803 89.833 66.6119C89.6457 66.6408 89.4628 66.6667 89.2842 66.6897C89.1085 66.7099 88.9659 66.7272 88.8564 66.7416C88.5914 66.7761 88.3436 66.8323 88.1131 66.9101C87.8856 66.985 87.7012 67.0988 87.56 67.2515C87.4218 67.4013 87.3526 67.6058 87.3526 67.8651C87.3526 68.2194 87.4837 68.4873 87.7458 68.6688C88.0109 68.8474 88.3465 68.9367 88.7527 68.9367ZM93.5006 69.6973V63.0599H94.4858V64.0624H94.5549C94.6759 63.734 94.8949 63.4676 95.2118 63.263C95.5286 63.0585 95.8859 62.9562 96.2834 62.9562C96.3583 62.9562 96.4519 62.9577 96.5643 62.9605C96.6766 62.9634 96.7616 62.9677 96.8192 62.9735V64.0106C96.7847 64.002 96.7054 63.989 96.5816 63.9717C96.4606 63.9515 96.3324 63.9415 96.197 63.9415C95.8743 63.9415 95.5863 64.0092 95.3328 64.1446C95.0821 64.2771 94.8834 64.4614 94.7364 64.6977C94.5924 64.931 94.5204 65.1975 94.5204 65.4971V69.6973H93.5006ZM98.8869 72.1863C98.7141 72.1863 98.56 72.1719 98.4246 72.1431C98.2892 72.1171 98.1955 72.0912 98.1437 72.0653L98.403 71.1665C98.6507 71.2298 98.8696 71.2529 99.0598 71.2356C99.2499 71.2183 99.4184 71.1333 99.5653 70.9807C99.7152 70.8309 99.852 70.5874 99.9759 70.2504L100.166 69.7318L97.7116 63.0599H98.8178L100.65 68.3491H100.719L102.551 63.0599H103.658L100.84 70.6652C100.713 71.008 100.556 71.2918 100.369 71.5165C100.182 71.7441 99.9643 71.9126 99.7166 72.0221C99.4717 72.1315 99.1952 72.1863 98.8869 72.1863ZM115.686 63.613H114.614C114.55 63.3048 114.44 63.034 114.281 62.8007C114.126 62.5673 113.935 62.3714 113.711 62.213C113.489 62.0517 113.243 61.9307 112.972 61.85C112.701 61.7693 112.419 61.729 112.125 61.729C111.589 61.729 111.104 61.8644 110.669 62.1352C110.237 62.406 109.892 62.805 109.636 63.3322C109.382 63.8594 109.256 64.5061 109.256 65.2724C109.256 66.0387 109.382 66.6854 109.636 67.2126C109.892 67.7398 110.237 68.1388 110.669 68.4096C111.104 68.6803 111.589 68.8157 112.125 68.8157C112.419 68.8157 112.701 68.7754 112.972 68.6948C113.243 68.6141 113.489 68.4945 113.711 68.3361C113.935 68.1748 114.126 67.9774 114.281 67.7441C114.44 67.5079 114.55 67.2371 114.614 66.9317H115.686C115.605 67.384 115.458 67.7887 115.245 68.146C115.032 68.5032 114.767 68.8071 114.45 69.0577C114.133 69.3055 113.777 69.4942 113.382 69.6238C112.991 69.7534 112.571 69.8183 112.125 69.8183C111.37 69.8183 110.699 69.6339 110.111 69.2651C109.524 68.8964 109.061 68.3721 108.724 67.6922C108.387 67.0124 108.219 66.2058 108.219 65.2724C108.219 64.339 108.387 63.5324 108.724 62.8525C109.061 62.1727 109.524 61.6483 110.111 61.2796C110.699 60.9109 111.37 60.7265 112.125 60.7265C112.571 60.7265 112.991 60.7913 113.382 60.921C113.777 61.0506 114.133 61.2407 114.45 61.4913C114.767 61.7391 115.032 62.0416 115.245 62.3988C115.458 62.7531 115.605 63.1579 115.686 63.613ZM121.462 66.9836V63.0599H122.482V69.6973H121.462V68.5738H121.393C121.237 68.9108 120.995 69.1974 120.667 69.4337C120.338 69.667 119.924 69.7837 119.422 69.7837C119.007 69.7837 118.639 69.6929 118.316 69.5115C117.993 69.3271 117.74 69.0505 117.556 68.6818C117.371 68.3102 117.279 67.842 117.279 67.2774V63.0599H118.299V67.2083C118.299 67.6922 118.434 68.0783 118.705 68.3663C118.979 68.6544 119.327 68.7985 119.751 68.7985C120.004 68.7985 120.262 68.7336 120.524 68.604C120.789 68.4744 121.011 68.2756 121.19 68.0077C121.371 67.7398 121.462 67.3984 121.462 66.9836ZM127.236 63.0599V63.9242H123.796V63.0599H127.236ZM124.799 61.4697H125.819V67.7959C125.819 68.084 125.86 68.3001 125.944 68.4441C126.03 68.5853 126.14 68.6803 126.272 68.7293C126.408 68.7754 126.55 68.7985 126.7 68.7985C126.813 68.7985 126.905 68.7927 126.977 68.7812C127.049 68.7668 127.106 68.7552 127.15 68.7466L127.357 69.6627C127.288 69.6886 127.191 69.7146 127.067 69.7405C126.944 69.7693 126.787 69.7837 126.596 69.7837C126.308 69.7837 126.026 69.7218 125.75 69.5979C125.476 69.474 125.248 69.2853 125.067 69.0318C124.888 68.7783 124.799 68.4585 124.799 68.0725V61.4697ZM133.353 64.5464L132.437 64.8057C132.379 64.653 132.294 64.5046 132.182 64.3606C132.072 64.2137 131.922 64.0927 131.732 63.9976C131.542 63.9026 131.299 63.855 131.002 63.855C130.596 63.855 130.257 63.9487 129.986 64.1359C129.719 64.3203 129.585 64.5551 129.585 64.8403C129.585 65.0938 129.677 65.294 129.861 65.4409C130.046 65.5878 130.334 65.7103 130.725 65.8082L131.711 66.0502C132.304 66.1942 132.746 66.4146 133.037 66.7113C133.328 67.0052 133.474 67.384 133.474 67.8478C133.474 68.2281 133.364 68.568 133.145 68.8676C132.929 69.1672 132.627 69.4034 132.238 69.5763C131.849 69.7491 131.397 69.8355 130.881 69.8355C130.204 69.8355 129.644 69.6886 129.2 69.3948C128.756 69.1009 128.475 68.6717 128.357 68.1071L129.325 67.8651C129.417 68.2223 129.592 68.4902 129.848 68.6688C130.107 68.8474 130.446 68.9367 130.864 68.9367C131.339 68.9367 131.716 68.8359 131.996 68.6343C132.278 68.4297 132.419 68.1849 132.419 67.8997C132.419 67.6692 132.339 67.4762 132.177 67.3206C132.016 67.1622 131.768 67.0441 131.434 66.9663L130.328 66.707C129.72 66.563 129.273 66.3397 128.988 66.0372C128.706 65.7319 128.565 65.3502 128.565 64.8921C128.565 64.5176 128.67 64.1863 128.88 63.8982C129.093 63.6102 129.383 63.384 129.749 63.2198C130.118 63.0556 130.535 62.9735 131.002 62.9735C131.659 62.9735 132.174 63.1175 132.549 63.4056C132.926 63.6937 133.194 64.074 133.353 64.5464ZM140.937 69.8183C140.355 69.8183 139.854 69.7117 139.434 69.4985C139.013 69.2853 138.689 68.9929 138.461 68.6213C138.234 68.2497 138.12 67.8248 138.12 67.3465C138.12 66.9778 138.198 66.6508 138.353 66.3656C138.512 66.0776 138.729 65.8111 139.006 65.5662C139.285 65.3185 139.606 65.0707 139.969 64.823L141.249 63.8723C141.499 63.7081 141.699 63.5324 141.849 63.3451C142.002 63.1579 142.078 62.913 142.078 62.6105C142.078 62.3858 141.979 62.1683 141.78 61.958C141.584 61.7477 141.326 61.6426 141.007 61.6426C140.782 61.6426 140.583 61.7002 140.41 61.8154C140.24 61.9278 140.106 62.0718 140.008 62.2476C139.913 62.4204 139.866 62.599 139.866 62.7834C139.866 62.9908 139.922 63.2011 140.034 63.4143C140.15 63.6246 140.295 63.8406 140.471 64.0624C140.649 64.2814 140.834 64.5061 141.024 64.7366L145.086 69.6973H143.859L140.505 65.6526C140.194 65.2781 139.912 64.9382 139.658 64.6328C139.405 64.3275 139.203 64.0264 139.053 63.7297C138.904 63.433 138.829 63.1118 138.829 62.7661C138.829 62.3685 138.917 62.02 139.092 61.7204C139.271 61.4179 139.52 61.1831 139.84 61.016C140.162 60.8461 140.54 60.7611 140.972 60.7611C141.416 60.7611 141.797 60.8475 142.117 61.0203C142.437 61.1903 142.683 61.4164 142.856 61.6988C143.029 61.9782 143.115 62.2821 143.115 62.6105C143.115 63.034 143.01 63.4013 142.8 63.7124C142.59 64.0236 142.303 64.3131 141.94 64.581L140.177 65.8946C139.779 66.1885 139.51 66.4737 139.369 66.7502C139.228 67.0268 139.157 67.2256 139.157 67.3465C139.157 67.6231 139.229 67.8809 139.373 68.12C139.517 68.3591 139.72 68.5522 139.982 68.6991C140.245 68.846 140.551 68.9195 140.903 68.9195C141.237 68.9195 141.563 68.8489 141.879 68.7077C142.196 68.5637 142.483 68.3563 142.739 68.0855C142.999 67.8147 143.203 67.4891 143.353 67.1089C143.506 66.7286 143.582 66.3008 143.582 65.8255H144.567C144.567 66.4132 144.499 66.8928 144.364 67.2644C144.229 67.6361 144.076 67.927 143.906 68.1373C143.736 68.3476 143.599 68.5046 143.496 68.6083C143.461 68.6515 143.429 68.6948 143.4 68.738C143.372 68.7812 143.34 68.8244 143.305 68.8676C143.02 69.1874 142.66 69.4265 142.225 69.5849C141.79 69.7405 141.361 69.8183 140.937 69.8183ZM151.383 69.6973L148.963 60.8475H150.052L151.901 68.0552H151.988L153.872 60.8475H155.082L156.966 68.0552H157.052L158.902 60.8475H159.991L157.571 69.6973H156.464L154.511 62.6451H154.442L152.489 69.6973H151.383ZM163.266 69.8355C162.667 69.8355 162.141 69.6929 161.689 69.4077C161.239 69.1225 160.888 68.7236 160.634 68.2108C160.384 67.698 160.258 67.0988 160.258 66.4132C160.258 65.7218 160.384 65.1183 160.634 64.6026C160.888 64.0869 161.239 63.6865 161.689 63.4013C162.141 63.1161 162.667 62.9735 163.266 62.9735C163.865 62.9735 164.39 63.1161 164.839 63.4013C165.291 63.6865 165.643 64.0869 165.893 64.6026C166.147 65.1183 166.274 65.7218 166.274 66.4132C166.274 67.0988 166.147 67.698 165.893 68.2108C165.643 68.7236 165.291 69.1225 164.839 69.4077C164.39 69.6929 163.865 69.8355 163.266 69.8355ZM163.266 68.9195C163.721 68.9195 164.096 68.8028 164.39 68.5694C164.683 68.3361 164.901 68.0293 165.042 67.649C165.183 67.2688 165.254 66.8568 165.254 66.4132C165.254 65.9695 165.183 65.5561 165.042 65.173C164.901 64.7898 164.683 64.4802 164.39 64.2439C164.096 64.0077 163.721 63.8896 163.266 63.8896C162.811 63.8896 162.436 64.0077 162.143 64.2439C161.849 64.4802 161.631 64.7898 161.49 65.173C161.349 65.5561 161.278 65.9695 161.278 66.4132C161.278 66.8568 161.349 67.2688 161.49 67.649C161.631 68.0293 161.849 68.3361 162.143 68.5694C162.436 68.8028 162.811 68.9195 163.266 68.9195ZM167.83 69.6973V63.0599H168.815V64.0624H168.885C169.006 63.734 169.225 63.4676 169.541 63.263C169.858 63.0585 170.216 62.9562 170.613 62.9562C170.688 62.9562 170.782 62.9577 170.894 62.9605C171.006 62.9634 171.091 62.9677 171.149 62.9735V64.0106C171.114 64.002 171.035 63.989 170.911 63.9717C170.79 63.9515 170.662 63.9415 170.527 63.9415C170.204 63.9415 169.916 64.0092 169.662 64.1446C169.412 64.2771 169.213 64.4614 169.066 64.6977C168.922 64.931 168.85 65.1975 168.85 65.4971V69.6973H167.83ZM173.308 67.2774L173.291 66.0156H173.499L176.402 63.0599H177.664L174.57 66.1885H174.484L173.308 67.2774ZM172.358 69.6973V60.8475H173.378V69.6973H172.358ZM176.575 69.6973L173.983 66.4132L174.709 65.7045L177.872 69.6973H176.575ZM183.419 65.7045V69.6973H182.399V60.8475H183.419V64.097H183.505C183.661 63.7542 183.894 63.482 184.205 63.2803C184.519 63.0758 184.937 62.9735 185.459 62.9735C185.911 62.9735 186.307 63.0643 186.647 63.2457C186.987 63.4244 187.25 63.6995 187.438 64.0711C187.628 64.4398 187.723 64.9094 187.723 65.4798V69.6973H186.703V65.5489C186.703 65.0217 186.566 64.6141 186.293 64.326C186.022 64.0351 185.646 63.8896 185.165 63.8896C184.831 63.8896 184.531 63.9602 184.266 64.1013C184.004 64.2425 183.796 64.4485 183.644 64.7193C183.494 64.9901 183.419 65.3185 183.419 65.7045ZM192.285 69.8355C191.686 69.8355 191.16 69.6929 190.708 69.4077C190.258 69.1225 189.907 68.7236 189.653 68.2108C189.403 67.698 189.277 67.0988 189.277 66.4132C189.277 65.7218 189.403 65.1183 189.653 64.6026C189.907 64.0869 190.258 63.6865 190.708 63.4013C191.16 63.1161 191.686 62.9735 192.285 62.9735C192.884 62.9735 193.408 63.1161 193.858 63.4013C194.31 63.6865 194.662 64.0869 194.912 64.6026C195.166 65.1183 195.292 65.7218 195.292 66.4132C195.292 67.0988 195.166 67.698 194.912 68.2108C194.662 68.7236 194.31 69.1225 193.858 69.4077C193.408 69.6929 192.884 69.8355 192.285 69.8355ZM192.285 68.9195C192.74 68.9195 193.115 68.8028 193.408 68.5694C193.702 68.3361 193.92 68.0293 194.061 67.649C194.202 67.2688 194.273 66.8568 194.273 66.4132C194.273 65.9695 194.202 65.5561 194.061 65.173C193.92 64.7898 193.702 64.4802 193.408 64.2439C193.115 64.0077 192.74 63.8896 192.285 63.8896C191.83 63.8896 191.455 64.0077 191.161 64.2439C190.868 64.4802 190.65 64.7898 190.509 65.173C190.368 65.5561 190.297 65.9695 190.297 66.4132C190.297 66.8568 190.368 67.2688 190.509 67.649C190.65 68.0293 190.868 68.3361 191.161 68.5694C191.455 68.8028 191.83 68.9195 192.285 68.9195ZM201.032 66.9836V63.0599H202.052V69.6973H201.032V68.5738H200.963C200.807 68.9108 200.565 69.1974 200.237 69.4337C199.909 69.667 199.494 69.7837 198.992 69.7837C198.578 69.7837 198.209 69.6929 197.886 69.5115C197.564 69.3271 197.31 69.0505 197.126 68.6818C196.941 68.3102 196.849 67.842 196.849 67.2774V63.0599H197.869V67.2083C197.869 67.6922 198.004 68.0783 198.275 68.3663C198.549 68.6544 198.897 68.7985 199.321 68.7985C199.574 68.7985 199.832 68.7336 200.094 68.604C200.359 68.4744 200.581 68.2756 200.76 68.0077C200.941 67.7398 201.032 67.3984 201.032 66.9836ZM203.92 69.6973V63.0599H204.905V64.0624H204.974C205.095 63.734 205.314 63.4676 205.631 63.263C205.948 63.0585 206.305 62.9562 206.703 62.9562C206.777 62.9562 206.871 62.9577 206.983 62.9605C207.096 62.9634 207.181 62.9677 207.238 62.9735V64.0106C207.204 64.002 207.125 63.989 207.001 63.9717C206.88 63.9515 206.751 63.9415 206.616 63.9415C206.293 63.9415 206.005 64.0092 205.752 64.1446C205.501 64.2771 205.302 64.4614 205.156 64.6977C205.011 64.931 204.939 65.1975 204.939 65.4971V69.6973H203.92ZM213.149 64.5464L212.233 64.8057C212.175 64.653 212.09 64.5046 211.978 64.3606C211.868 64.2137 211.718 64.0927 211.528 63.9976C211.338 63.9026 211.095 63.855 210.798 63.855C210.392 63.855 210.053 63.9487 209.782 64.1359C209.515 64.3203 209.381 64.5551 209.381 64.8403C209.381 65.0938 209.473 65.294 209.657 65.4409C209.841 65.5878 210.13 65.7103 210.521 65.8082L211.507 66.0502C212.1 66.1942 212.542 66.4146 212.833 66.7113C213.124 67.0052 213.27 67.384 213.27 67.8478C213.27 68.2281 213.16 68.568 212.941 68.8676C212.725 69.1672 212.423 69.4034 212.034 69.5763C211.645 69.7491 211.193 69.8355 210.677 69.8355C210 69.8355 209.44 69.6886 208.996 69.3948C208.552 69.1009 208.271 68.6717 208.153 68.1071L209.121 67.8651C209.213 68.2223 209.388 68.4902 209.644 68.6688C209.903 68.8474 210.242 68.9367 210.66 68.9367C211.135 68.9367 211.512 68.8359 211.792 68.6343C212.074 68.4297 212.215 68.1849 212.215 67.8997C212.215 67.6692 212.135 67.4762 211.973 67.3206C211.812 67.1622 211.564 67.0441 211.23 66.9663L210.124 66.707C209.516 66.563 209.069 66.3397 208.784 66.0372C208.502 65.7319 208.361 65.3502 208.361 64.8921C208.361 64.5176 208.466 64.1863 208.676 63.8982C208.889 63.6102 209.179 63.384 209.545 63.2198C209.914 63.0556 210.331 62.9735 210.798 62.9735C211.455 62.9735 211.97 63.1175 212.345 63.4056C212.722 63.6937 212.99 64.074 213.149 64.5464Z" fill="#001A14"/>
<path d="M23.6563 114.081H20.5192V105.231H23.6823C24.5724 105.231 25.3387 105.408 25.9811 105.763C26.6236 106.114 27.1176 106.62 27.4633 107.28C27.8119 107.939 27.9862 108.729 27.9862 109.648C27.9862 110.569 27.8119 111.362 27.4633 112.024C27.1176 112.687 26.6207 113.195 25.9725 113.55C25.3272 113.904 24.5552 114.081 23.6563 114.081ZM22.3902 112.478H23.5786C24.1317 112.478 24.5969 112.38 24.9743 112.184C25.3546 111.985 25.6398 111.678 25.8299 111.264C26.0229 110.846 26.1194 110.307 26.1194 109.648C26.1194 108.994 26.0229 108.459 25.8299 108.044C25.6398 107.63 25.356 107.324 24.9786 107.128C24.6012 106.932 24.136 106.834 23.5829 106.834H22.3902V112.478ZM29.3376 114.081V107.444H31.1784V114.081H29.3376ZM30.2623 106.588C29.9887 106.588 29.7539 106.497 29.558 106.316C29.365 106.132 29.2685 105.911 29.2685 105.655C29.2685 105.401 29.365 105.184 29.558 105.002C29.7539 104.818 29.9887 104.726 30.2623 104.726C30.536 104.726 30.7694 104.818 30.9624 105.002C31.1583 105.184 31.2562 105.401 31.2562 105.655C31.2562 105.911 31.1583 106.132 30.9624 106.316C30.7694 106.497 30.536 106.588 30.2623 106.588ZM38.1755 109.336L36.4902 109.44C36.4614 109.296 36.3995 109.166 36.3044 109.051C36.2094 108.933 36.0841 108.839 35.9285 108.77C35.7758 108.698 35.5929 108.662 35.3797 108.662C35.0945 108.662 34.854 108.723 34.6581 108.844C34.4622 108.962 34.3642 109.12 34.3642 109.319C34.3642 109.478 34.4276 109.612 34.5544 109.721C34.6811 109.83 34.8986 109.918 35.2069 109.985L36.4081 110.227C37.0534 110.359 37.5345 110.572 37.8514 110.866C38.1683 111.16 38.3268 111.546 38.3268 112.024C38.3268 112.459 38.1986 112.841 37.9422 113.169C37.6887 113.498 37.3401 113.754 36.8964 113.938C36.4557 114.12 35.9472 114.211 35.3711 114.211C34.4924 114.211 33.7924 114.028 33.271 113.662C32.7524 113.293 32.4485 112.792 32.3592 112.158L34.1698 112.063C34.2245 112.331 34.357 112.536 34.5673 112.677C34.7776 112.815 35.047 112.884 35.3754 112.884C35.698 112.884 35.9573 112.822 36.1532 112.698C36.352 112.572 36.4528 112.409 36.4557 112.21C36.4528 112.043 36.3822 111.906 36.2439 111.799C36.1057 111.69 35.8925 111.606 35.6044 111.549L34.455 111.32C33.8068 111.19 33.3243 110.965 33.0074 110.646C32.6934 110.326 32.5364 109.918 32.5364 109.423C32.5364 108.996 32.6516 108.629 32.8821 108.321C33.1154 108.013 33.4424 107.775 33.863 107.608C34.2864 107.441 34.7819 107.357 35.3495 107.357C36.1878 107.357 36.8475 107.534 37.3286 107.889C37.8125 108.243 38.0948 108.726 38.1755 109.336ZM39.4859 116.57V107.444H41.3008V108.559H41.3829C41.4636 108.38 41.5802 108.198 41.7329 108.014C41.8885 107.827 42.0901 107.671 42.3379 107.547C42.5885 107.421 42.8996 107.357 43.2713 107.357C43.7552 107.357 44.2018 107.484 44.6108 107.738C45.0199 107.988 45.3469 108.367 45.5917 108.874C45.8366 109.378 45.959 110.011 45.959 110.771C45.959 111.511 45.8395 112.137 45.6004 112.646C45.3641 113.153 45.0415 113.538 44.6324 113.8C44.2262 114.059 43.7711 114.189 43.2669 114.189C42.9097 114.189 42.6058 114.13 42.3552 114.012C42.1074 113.894 41.9043 113.745 41.7459 113.567C41.5874 113.385 41.4664 113.202 41.3829 113.018H41.3267V116.57H39.4859ZM41.2878 110.762C41.2878 111.157 41.3426 111.501 41.452 111.795C41.5615 112.089 41.72 112.318 41.9274 112.482C42.1348 112.644 42.3869 112.724 42.6836 112.724C42.9832 112.724 43.2367 112.642 43.4441 112.478C43.6515 112.311 43.8085 112.08 43.9151 111.787C44.0246 111.49 44.0793 111.148 44.0793 110.762C44.0793 110.379 44.026 110.042 43.9194 109.751C43.8128 109.46 43.6558 109.233 43.4484 109.068C43.241 108.904 42.9861 108.822 42.6836 108.822C42.384 108.822 42.1305 108.901 41.9231 109.06C41.7185 109.218 41.5615 109.443 41.452 109.734C41.3426 110.025 41.2878 110.368 41.2878 110.762ZM51.4426 111.255V107.444H53.2834V114.081H51.5161V112.875H51.4469C51.2971 113.264 51.0479 113.577 50.6994 113.813C50.3537 114.049 49.9316 114.167 49.4333 114.167C48.9896 114.167 48.5993 114.067 48.2622 113.865C47.9252 113.663 47.6616 113.377 47.4714 113.005C47.2842 112.633 47.1891 112.188 47.1862 111.67V107.444H49.0271V111.341C49.03 111.733 49.1351 112.043 49.3425 112.27C49.5499 112.498 49.8279 112.612 50.1765 112.612C50.3983 112.612 50.6057 112.561 50.7988 112.461C50.9918 112.357 51.1473 112.204 51.2654 112.003C51.3864 111.801 51.4455 111.552 51.4426 111.255ZM58.2863 107.444V108.827H54.2892V107.444H58.2863ZM55.1966 105.854H57.0375V112.041C57.0375 112.211 57.0634 112.344 57.1152 112.439C57.1671 112.531 57.2391 112.596 57.3313 112.633C57.4264 112.671 57.5358 112.69 57.6597 112.69C57.7461 112.69 57.8326 112.682 57.919 112.668C58.0054 112.651 58.0717 112.638 58.1177 112.629L58.4073 113.999C58.3151 114.028 58.1854 114.061 58.0184 114.098C57.8513 114.139 57.6482 114.163 57.4091 114.172C56.9654 114.189 56.5765 114.13 56.2424 113.995C55.9111 113.859 55.6532 113.649 55.4689 113.364C55.2845 113.079 55.1938 112.718 55.1966 112.283V105.854ZM62.4389 114.211C61.7562 114.211 61.1685 114.072 60.6759 113.796C60.1862 113.516 59.8088 113.122 59.5437 112.612C59.2787 112.099 59.1462 111.493 59.1462 110.793C59.1462 110.11 59.2787 109.511 59.5437 108.995C59.8088 108.479 60.1818 108.077 60.6629 107.789C61.1469 107.501 61.7144 107.357 62.3655 107.357C62.8033 107.357 63.211 107.428 63.5884 107.569C63.9686 107.707 64.2999 107.916 64.5822 108.196C64.8674 108.475 65.0893 108.827 65.2477 109.25C65.4061 109.671 65.4854 110.163 65.4854 110.728V111.233H59.8808V110.093H63.7526C63.7526 109.828 63.695 109.593 63.5797 109.388C63.4645 109.184 63.3046 109.024 63.1001 108.909C62.8984 108.79 62.6636 108.731 62.3957 108.731C62.1163 108.731 61.8685 108.796 61.6525 108.926C61.4393 109.053 61.2722 109.224 61.1512 109.44C61.0302 109.653 60.9683 109.891 60.9654 110.153V111.238C60.9654 111.566 61.0259 111.85 61.1469 112.089C61.2708 112.328 61.4451 112.512 61.6698 112.642C61.8945 112.772 62.1609 112.837 62.4692 112.837C62.6737 112.837 62.861 112.808 63.0309 112.75C63.2009 112.693 63.3464 112.606 63.4674 112.491C63.5884 112.376 63.6805 112.234 63.7439 112.067L65.4465 112.18C65.36 112.589 65.1829 112.946 64.915 113.251C64.6499 113.554 64.3071 113.79 63.8865 113.96C63.4688 114.127 62.9863 114.211 62.4389 114.211ZM73.0334 107.444V108.827H69.0363V107.444H73.0334ZM69.9437 105.854H71.7846V112.041C71.7846 112.211 71.8105 112.344 71.8623 112.439C71.9142 112.531 71.9862 112.596 72.0784 112.633C72.1735 112.671 72.2829 112.69 72.4068 112.69C72.4932 112.69 72.5797 112.682 72.6661 112.668C72.7525 112.651 72.8188 112.638 72.8649 112.629L73.1544 113.999C73.0622 114.028 72.9326 114.061 72.7655 114.098C72.5984 114.139 72.3953 114.163 72.1562 114.172C71.7125 114.189 71.3236 114.13 70.9895 113.995C70.6582 113.859 70.4003 113.649 70.216 113.364C70.0316 113.079 69.9409 112.718 69.9437 112.283V105.854ZM75.369 116.57C75.1356 116.57 74.9167 116.551 74.7122 116.514C74.5105 116.479 74.3434 116.435 74.2109 116.38L74.6257 115.006C74.8418 115.072 75.0362 115.108 75.2091 115.114C75.3848 115.12 75.5361 115.079 75.6628 114.993C75.7925 114.906 75.8976 114.759 75.9783 114.552L76.0863 114.271L73.7053 107.444H75.6412L77.0153 112.318H77.0845L78.4716 107.444H80.4204L77.8407 114.798C77.7168 115.156 77.5483 115.467 77.3351 115.732C77.1248 116 76.8583 116.206 76.5357 116.35C76.2131 116.497 75.8241 116.57 75.369 116.57ZM81.3625 116.57V107.444H83.1773V108.559H83.2595C83.3401 108.38 83.4568 108.198 83.6095 108.014C83.765 107.827 83.9667 107.671 84.2144 107.547C84.4651 107.421 84.7762 107.357 85.1478 107.357C85.6318 107.357 86.0783 107.484 86.4874 107.738C86.8964 107.988 87.2234 108.367 87.4683 108.874C87.7131 109.378 87.8356 110.011 87.8356 110.771C87.8356 111.511 87.716 112.137 87.4769 112.646C87.2407 113.153 86.9181 113.538 86.509 113.8C86.1028 114.059 85.6476 114.189 85.1435 114.189C84.7863 114.189 84.4823 114.13 84.2317 114.012C83.984 113.894 83.7809 113.745 83.6224 113.567C83.464 113.385 83.343 113.202 83.2595 113.018H83.2033V116.57H81.3625ZM83.1644 110.762C83.1644 111.157 83.2191 111.501 83.3286 111.795C83.4381 112.089 83.5965 112.318 83.8039 112.482C84.0113 112.644 84.2634 112.724 84.5601 112.724C84.8597 112.724 85.1132 112.642 85.3207 112.478C85.5281 112.311 85.6851 112.08 85.7917 111.787C85.9011 111.49 85.9559 111.148 85.9559 110.762C85.9559 110.379 85.9026 110.042 85.796 109.751C85.6894 109.46 85.5324 109.233 85.325 109.068C85.1176 108.904 84.8626 108.822 84.5601 108.822C84.2605 108.822 84.007 108.901 83.7996 109.06C83.5951 109.218 83.4381 109.443 83.3286 109.734C83.2191 110.025 83.1644 110.368 83.1644 110.762ZM92.0876 114.211C91.4049 114.211 90.8172 114.072 90.3246 113.796C89.8348 113.516 89.4575 113.122 89.1924 112.612C88.9274 112.099 88.7949 111.493 88.7949 110.793C88.7949 110.11 88.9274 109.511 89.1924 108.995C89.4575 108.479 89.8305 108.077 90.3116 107.789C90.7956 107.501 91.3631 107.357 92.0142 107.357C92.452 107.357 92.8597 107.428 93.2371 107.569C93.6173 107.707 93.9486 107.916 94.2309 108.196C94.5161 108.475 94.7379 108.827 94.8964 109.25C95.0548 109.671 95.1341 110.163 95.1341 110.728V111.233H89.5295V110.093H93.4013C93.4013 109.828 93.3436 109.593 93.2284 109.388C93.1132 109.184 92.9533 109.024 92.7488 108.909C92.5471 108.79 92.3123 108.731 92.0444 108.731C91.765 108.731 91.5172 108.796 91.3012 108.926C91.088 109.053 90.9209 109.224 90.7999 109.44C90.6789 109.653 90.617 109.891 90.6141 110.153V111.238C90.6141 111.566 90.6746 111.85 90.7956 112.089C90.9195 112.328 91.0937 112.512 91.3184 112.642C91.5432 112.772 91.8096 112.837 92.1179 112.837C92.3224 112.837 92.5097 112.808 92.6796 112.75C92.8496 112.693 92.9951 112.606 93.1161 112.491C93.2371 112.376 93.3292 112.234 93.3926 112.067L95.0952 112.18C95.0087 112.589 94.8316 112.946 94.5637 113.251C94.2986 113.554 93.9558 113.79 93.5352 113.96C93.1175 114.127 92.635 114.211 92.0876 114.211Z" fill="#002B22"/>
<rect x="20.1846" y="122.992" width="264.483" height="33.8978" rx="4.78046" fill="white"/>
<rect x="20.1846" y="122.992" width="264.483" height="33.8978" rx="4.78046" stroke="#E4E7EC" stroke-width="0.869174"/>
<path d="M32.8593 143.941L30.4394 135.092H31.5284L33.3778 142.299H33.4643L35.3483 135.092H36.5582L38.4423 142.299H38.5287L40.3782 135.092H41.4671L39.0472 143.941H37.941L35.9878 136.889H35.9187L33.9655 143.941H32.8593ZM43.9993 144.097C43.5787 144.097 43.197 144.018 42.8542 143.859C42.5114 143.698 42.2391 143.466 42.0375 143.164C41.8358 142.858 41.735 142.489 41.735 142.057C41.735 141.677 41.8099 141.369 41.9597 141.133C42.1095 140.894 42.3097 140.706 42.5604 140.571C42.811 140.435 43.0875 140.335 43.39 140.268C43.6954 140.199 44.0022 140.145 44.3104 140.104C44.7137 140.052 45.0407 140.013 45.2913 139.988C45.5448 139.959 45.7292 139.911 45.8445 139.845C45.9626 139.779 46.0216 139.663 46.0216 139.499V139.465C46.0216 139.038 45.9049 138.707 45.6716 138.471C45.4411 138.235 45.0911 138.116 44.6216 138.116C44.1347 138.116 43.753 138.223 43.4764 138.436C43.1999 138.649 43.0054 138.877 42.8931 139.119L41.9251 138.773C42.098 138.37 42.3285 138.056 42.6165 137.831C42.9075 137.604 43.2244 137.445 43.5672 137.356C43.9129 137.264 44.2528 137.218 44.587 137.218C44.8002 137.218 45.045 137.244 45.3216 137.295C45.601 137.344 45.8704 137.447 46.1296 137.602C46.3918 137.758 46.6093 137.993 46.7821 138.307C46.955 138.621 47.0414 139.041 47.0414 139.568V143.941H46.0216V143.043H45.9698C45.9006 143.187 45.7854 143.341 45.6241 143.505C45.4627 143.669 45.2481 143.809 44.9802 143.924C44.7123 144.039 44.3853 144.097 43.9993 144.097ZM44.1549 143.181C44.5582 143.181 44.8981 143.102 45.1747 142.943C45.4541 142.785 45.6644 142.58 45.8056 142.33C45.9496 142.079 46.0216 141.815 46.0216 141.539V140.605C45.9784 140.657 45.8833 140.705 45.7364 140.748C45.5924 140.788 45.4253 140.824 45.2352 140.856C45.0479 140.885 44.865 140.911 44.6864 140.934C44.5106 140.954 44.368 140.971 44.2586 140.986C43.9935 141.02 43.7458 141.076 43.5153 141.154C43.2878 141.229 43.1034 141.343 42.9622 141.496C42.8239 141.645 42.7548 141.85 42.7548 142.109C42.7548 142.464 42.8859 142.731 43.148 142.913C43.4131 143.092 43.7487 143.181 44.1549 143.181ZM51.5819 146.569C51.0893 146.569 50.6658 146.505 50.3115 146.379C49.9571 146.255 49.6619 146.09 49.4256 145.886C49.1923 145.684 49.0065 145.468 48.8682 145.238L49.6806 144.667C49.7728 144.788 49.8894 144.927 50.0306 145.082C50.1718 145.241 50.3648 145.377 50.6096 145.493C50.8574 145.611 51.1815 145.67 51.5819 145.67C52.1177 145.67 52.5599 145.54 52.9085 145.281C53.2571 145.022 53.4314 144.616 53.4314 144.062V142.714H53.3449C53.27 142.835 53.1634 142.985 53.0252 143.164C52.8898 143.339 52.6939 143.496 52.4375 143.635C52.184 143.77 51.8412 143.838 51.409 143.838C50.8732 143.838 50.3921 143.711 49.9658 143.457C49.5423 143.204 49.2067 142.835 48.9589 142.351C48.7141 141.867 48.5916 141.28 48.5916 140.588C48.5916 139.908 48.7112 139.316 48.9503 138.812C49.1894 138.305 49.5221 137.913 49.9485 137.637C50.3748 137.357 50.8675 137.218 51.4263 137.218C51.8585 137.218 52.2013 137.29 52.4548 137.434C52.7112 137.575 52.9071 137.736 53.0425 137.918C53.1807 138.096 53.2873 138.243 53.3622 138.358H53.4659V137.304H54.4512V144.132C54.4512 144.702 54.3215 145.166 54.0623 145.523C53.8059 145.883 53.4602 146.147 53.0252 146.314C52.5931 146.484 52.112 146.569 51.5819 146.569ZM51.5473 142.922C51.9564 142.922 52.3021 142.828 52.5844 142.641C52.8667 142.453 53.0813 142.184 53.2283 141.833C53.3752 141.481 53.4486 141.061 53.4486 140.571C53.4486 140.093 53.3766 139.671 53.2326 139.305C53.0885 138.939 52.8754 138.652 52.5931 138.445C52.3107 138.237 51.9622 138.134 51.5473 138.134C51.1152 138.134 50.7551 138.243 50.467 138.462C50.1818 138.681 49.9672 138.975 49.8232 139.344C49.682 139.712 49.6114 140.121 49.6114 140.571C49.6114 141.032 49.6835 141.439 49.8275 141.794C49.9744 142.145 50.1905 142.422 50.4757 142.623C50.7638 142.822 51.121 142.922 51.5473 142.922ZM59.1007 144.08C58.4612 144.08 57.9095 143.939 57.4457 143.656C56.9848 143.371 56.629 142.973 56.3784 142.464C56.1307 141.951 56.0068 141.354 56.0068 140.675C56.0068 139.995 56.1307 139.396 56.3784 138.877C56.629 138.356 56.9776 137.949 57.4241 137.658C57.8735 137.365 58.3978 137.218 58.997 137.218C59.3427 137.218 59.6841 137.275 60.0212 137.39C60.3582 137.506 60.665 137.693 60.9416 137.952C61.2181 138.209 61.4385 138.549 61.6027 138.972C61.7669 139.396 61.849 139.917 61.849 140.536V140.968H56.7327V140.087H60.8119C60.8119 139.712 60.737 139.378 60.5872 139.084C60.4403 138.791 60.23 138.559 59.9563 138.389C59.6855 138.219 59.3658 138.134 58.997 138.134C58.5908 138.134 58.2394 138.235 57.9427 138.436C57.6488 138.635 57.4227 138.894 57.2642 139.214C57.1058 139.534 57.0266 139.877 57.0266 140.242V140.83C57.0266 141.331 57.113 141.756 57.2859 142.105C57.4616 142.451 57.705 142.714 58.0161 142.896C58.3273 143.074 58.6888 143.164 59.1007 143.164C59.3687 143.164 59.6106 143.126 59.8267 143.051C60.0456 142.973 60.2343 142.858 60.3928 142.706C60.5512 142.55 60.6737 142.357 60.7601 142.127L61.7453 142.403C61.6416 142.737 61.4673 143.031 61.2224 143.285C60.9776 143.535 60.6751 143.731 60.315 143.872C59.9549 144.011 59.5502 144.08 59.1007 144.08ZM68.1018 138.791L67.1857 139.05C67.1281 138.897 67.0431 138.749 66.9307 138.605C66.8213 138.458 66.6715 138.337 66.4813 138.242C66.2912 138.147 66.0478 138.099 65.751 138.099C65.3449 138.099 65.0064 138.193 64.7356 138.38C64.4677 138.564 64.3337 138.799 64.3337 139.084C64.3337 139.338 64.4259 139.538 64.6103 139.685C64.7946 139.832 65.0827 139.954 65.4745 140.052L66.4597 140.294C67.0532 140.438 67.4954 140.659 67.7863 140.955C68.0773 141.249 68.2228 141.628 68.2228 142.092C68.2228 142.472 68.1133 142.812 67.8943 143.112C67.6783 143.411 67.3758 143.648 66.9869 143.82C66.598 143.993 66.1457 144.08 65.63 144.08C64.9531 144.08 64.3928 143.933 63.9491 143.639C63.5055 143.345 63.2246 142.916 63.1065 142.351L64.0744 142.109C64.1666 142.466 64.3409 142.734 64.5973 142.913C64.8566 143.092 65.1951 143.181 65.6128 143.181C66.0881 143.181 66.4655 143.08 66.7449 142.878C67.0272 142.674 67.1684 142.429 67.1684 142.144C67.1684 141.913 67.0877 141.72 66.9264 141.565C66.7651 141.406 66.5173 141.288 66.1832 141.21L65.0769 140.951C64.4691 140.807 64.0226 140.584 63.7374 140.281C63.4551 139.976 63.3139 139.594 63.3139 139.136C63.3139 138.762 63.419 138.43 63.6293 138.142C63.8425 137.854 64.132 137.628 64.4979 137.464C64.8666 137.3 65.2844 137.218 65.751 137.218C66.4079 137.218 66.9235 137.362 67.298 137.65C67.6754 137.938 67.9433 138.318 68.1018 138.791ZM75.6865 144.062C75.1046 144.062 74.6033 143.956 74.1827 143.743C73.7622 143.529 73.4381 143.237 73.2105 142.865C72.9829 142.494 72.8691 142.069 72.8691 141.591C72.8691 141.222 72.9469 140.895 73.1025 140.61C73.2609 140.322 73.4784 140.055 73.7549 139.81C74.0344 139.563 74.3556 139.315 74.7186 139.067L75.9976 138.116C76.2483 137.952 76.4485 137.777 76.5983 137.589C76.751 137.402 76.8273 137.157 76.8273 136.855C76.8273 136.63 76.7279 136.412 76.5291 136.202C76.3333 135.992 76.0754 135.887 75.7557 135.887C75.531 135.887 75.3322 135.944 75.1593 136.06C74.9894 136.172 74.8554 136.316 74.7575 136.492C74.6624 136.665 74.6149 136.843 74.6149 137.028C74.6149 137.235 74.671 137.445 74.7834 137.658C74.8986 137.869 75.0441 138.085 75.2198 138.307C75.3984 138.526 75.5828 138.75 75.7729 138.981L79.8348 143.941H78.6076L75.2544 139.897C74.9433 139.522 74.661 139.182 74.4074 138.877C74.1539 138.572 73.9523 138.271 73.8025 137.974C73.6527 137.677 73.5778 137.356 73.5778 137.01C73.5778 136.613 73.6656 136.264 73.8414 135.965C74.02 135.662 74.2692 135.427 74.5889 135.26C74.9116 135.09 75.289 135.005 75.7211 135.005C76.1647 135.005 76.5464 135.092 76.8662 135.264C77.186 135.434 77.4323 135.661 77.6051 135.943C77.778 136.222 77.8644 136.526 77.8644 136.855C77.8644 137.278 77.7592 137.645 77.5489 137.957C77.3386 138.268 77.052 138.557 76.689 138.825L74.926 140.139C74.5284 140.433 74.2591 140.718 74.1179 140.994C73.9768 141.271 73.9062 141.47 73.9062 141.591C73.9062 141.867 73.9782 142.125 74.1222 142.364C74.2663 142.603 74.4694 142.796 74.7315 142.943C74.9937 143.09 75.3005 143.164 75.6519 143.164C75.9861 143.164 76.3116 143.093 76.6285 142.952C76.9454 142.808 77.2321 142.6 77.4884 142.33C77.7477 142.059 77.9523 141.733 78.1021 141.353C78.2547 140.973 78.3311 140.545 78.3311 140.07H79.3163C79.3163 140.657 79.2486 141.137 79.1132 141.509C78.9778 141.88 78.8251 142.171 78.6552 142.381C78.4852 142.592 78.3484 142.749 78.2447 142.852C78.2101 142.896 78.1784 142.939 78.1496 142.982C78.1208 143.025 78.0891 143.069 78.0545 143.112C77.7693 143.432 77.4092 143.671 76.9742 143.829C76.5392 143.985 76.11 144.062 75.6865 144.062ZM89.3641 137.304C89.3123 136.866 89.102 136.526 88.7332 136.284C88.3645 136.042 87.9122 135.921 87.3764 135.921C86.9846 135.921 86.6418 135.985 86.3479 136.111C86.057 136.238 85.8294 136.412 85.6652 136.634C85.5039 136.856 85.4232 137.108 85.4232 137.39C85.4232 137.627 85.4794 137.83 85.5917 138C85.707 138.167 85.8539 138.307 86.0325 138.419C86.2111 138.528 86.3984 138.619 86.5943 138.691C86.7901 138.76 86.9702 138.816 87.1344 138.86L88.0332 139.102C88.2637 139.162 88.5201 139.246 88.8024 139.352C89.0876 139.459 89.3598 139.604 89.6191 139.789C89.8812 139.97 90.0973 140.204 90.2673 140.489C90.4372 140.774 90.5222 141.124 90.5222 141.539C90.5222 142.017 90.3969 142.449 90.1463 142.835C89.8985 143.221 89.5355 143.528 89.0573 143.756C88.582 143.983 88.0044 144.097 87.3245 144.097C86.6908 144.097 86.142 143.995 85.6782 143.79C85.2172 143.586 84.8543 143.3 84.5892 142.935C84.3271 142.569 84.1787 142.144 84.1441 141.66H85.2504C85.2792 141.994 85.3915 142.271 85.5874 142.489C85.7862 142.706 86.0368 142.867 86.3393 142.973C86.6447 143.077 86.9731 143.129 87.3245 143.129C87.7336 143.129 88.1009 143.063 88.4264 142.93C88.752 142.795 89.0098 142.608 89.1999 142.368C89.3901 142.127 89.4851 141.844 89.4851 141.522C89.4851 141.228 89.403 140.989 89.2388 140.804C89.0746 140.62 88.8586 140.47 88.5906 140.355C88.3227 140.24 88.0332 140.139 87.7221 140.052L86.6331 139.741C85.9418 139.542 85.3944 139.259 84.9911 138.89C84.5878 138.521 84.3861 138.039 84.3861 137.442C84.3861 136.947 84.5201 136.515 84.788 136.146C85.0588 135.774 85.4218 135.486 85.8769 135.282C86.335 135.074 86.8463 134.971 87.411 134.971C87.9814 134.971 88.4884 135.073 88.932 135.277C89.3757 135.479 89.7271 135.756 89.9864 136.107C90.2485 136.459 90.3868 136.858 90.4012 137.304H89.3641ZM94.0991 144.097C93.6785 144.097 93.2968 144.018 92.9539 143.859C92.6111 143.698 92.3389 143.466 92.1372 143.164C91.9356 142.858 91.8348 142.489 91.8348 142.057C91.8348 141.677 91.9097 141.369 92.0595 141.133C92.2093 140.894 92.4095 140.706 92.6601 140.571C92.9107 140.435 93.1873 140.335 93.4898 140.268C93.7951 140.199 94.1019 140.145 94.4102 140.104C94.8135 140.052 95.1405 140.013 95.3911 139.988C95.6446 139.959 95.829 139.911 95.9442 139.845C96.0623 139.779 96.1214 139.663 96.1214 139.499V139.465C96.1214 139.038 96.0047 138.707 95.7714 138.471C95.5409 138.235 95.1909 138.116 94.7213 138.116C94.2345 138.116 93.8528 138.223 93.5762 138.436C93.2996 138.649 93.1052 138.877 92.9928 139.119L92.0249 138.773C92.1977 138.37 92.4282 138.056 92.7163 137.831C93.0072 137.604 93.3241 137.445 93.6669 137.356C94.0126 137.264 94.3526 137.218 94.6867 137.218C94.8999 137.218 95.1448 137.244 95.4213 137.295C95.7008 137.344 95.9701 137.447 96.2294 137.602C96.4916 137.758 96.7091 137.993 96.8819 138.307C97.0547 138.621 97.1412 139.041 97.1412 139.568V143.941H96.1214V143.043H96.0695C96.0004 143.187 95.8851 143.341 95.7238 143.505C95.5625 143.669 95.3479 143.809 95.08 143.924C94.8121 144.039 94.4851 144.097 94.0991 144.097ZM94.2546 143.181C94.6579 143.181 94.9979 143.102 95.2744 142.943C95.5539 142.785 95.7642 142.58 95.9053 142.33C96.0494 142.079 96.1214 141.815 96.1214 141.539V140.605C96.0782 140.657 95.9831 140.705 95.8362 140.748C95.6921 140.788 95.525 140.824 95.3349 140.856C95.1477 140.885 94.9647 140.911 94.7861 140.934C94.6104 140.954 94.4678 140.971 94.3583 140.986C94.0933 141.02 93.8456 141.076 93.6151 141.154C93.3875 141.229 93.2031 141.343 93.062 141.496C92.9237 141.645 92.8546 141.85 92.8546 142.109C92.8546 142.464 92.9856 142.731 93.2478 142.913C93.5128 143.092 93.8484 143.181 94.2546 143.181ZM100.022 135.092V143.941H99.0025V135.092H100.022ZM103.843 144.097C103.423 144.097 103.041 144.018 102.698 143.859C102.355 143.698 102.083 143.466 101.882 143.164C101.68 142.858 101.579 142.489 101.579 142.057C101.579 141.677 101.654 141.369 101.804 141.133C101.954 140.894 102.154 140.706 102.404 140.571C102.655 140.435 102.932 140.335 103.234 140.268C103.539 140.199 103.846 140.145 104.154 140.104C104.558 140.052 104.885 140.013 105.135 139.988C105.389 139.959 105.573 139.911 105.688 139.845C105.807 139.779 105.866 139.663 105.866 139.499V139.465C105.866 139.038 105.749 138.707 105.516 138.471C105.285 138.235 104.935 138.116 104.466 138.116C103.979 138.116 103.597 138.223 103.32 138.436C103.044 138.649 102.849 138.877 102.737 139.119L101.769 138.773C101.942 138.37 102.172 138.056 102.461 137.831C102.752 137.604 103.068 137.445 103.411 137.356C103.757 137.264 104.097 137.218 104.431 137.218C104.644 137.218 104.889 137.244 105.166 137.295C105.445 137.344 105.714 137.447 105.974 137.602C106.236 137.758 106.453 137.993 106.626 138.307C106.799 138.621 106.885 139.041 106.885 139.568V143.941H105.866V143.043H105.814C105.745 143.187 105.629 143.341 105.468 143.505C105.307 143.669 105.092 143.809 104.824 143.924C104.556 144.039 104.229 144.097 103.843 144.097ZM103.999 143.181C104.402 143.181 104.742 143.102 105.019 142.943C105.298 142.785 105.508 142.58 105.65 142.33C105.794 142.079 105.866 141.815 105.866 141.539V140.605C105.822 140.657 105.727 140.705 105.58 140.748C105.436 140.788 105.269 140.824 105.079 140.856C104.892 140.885 104.709 140.911 104.53 140.934C104.355 140.954 104.212 140.971 104.103 140.986C103.838 141.02 103.59 141.076 103.359 141.154C103.132 141.229 102.947 141.343 102.806 141.496C102.668 141.645 102.599 141.85 102.599 142.109C102.599 142.464 102.73 142.731 102.992 142.913C103.257 143.092 103.593 143.181 103.999 143.181ZM108.747 143.941V137.304H109.732V138.307H109.801C109.922 137.978 110.141 137.712 110.458 137.507C110.775 137.303 111.132 137.2 111.53 137.2C111.605 137.2 111.698 137.202 111.81 137.205C111.923 137.208 112.008 137.212 112.065 137.218V138.255C112.031 138.246 111.952 138.233 111.828 138.216C111.707 138.196 111.579 138.186 111.443 138.186C111.121 138.186 110.832 138.253 110.579 138.389C110.328 138.521 110.13 138.706 109.983 138.942C109.839 139.175 109.767 139.442 109.767 139.741V143.941H108.747ZM113.274 143.941V137.304H114.294V143.941H113.274ZM113.793 136.198C113.594 136.198 113.423 136.13 113.279 135.995C113.137 135.859 113.067 135.697 113.067 135.506C113.067 135.316 113.137 135.154 113.279 135.018C113.423 134.883 113.594 134.815 113.793 134.815C113.992 134.815 114.162 134.883 114.303 135.018C114.447 135.154 114.519 135.316 114.519 135.506C114.519 135.697 114.447 135.859 114.303 135.995C114.162 136.13 113.992 136.198 113.793 136.198ZM118.945 144.08C118.305 144.08 117.754 143.939 117.29 143.656C116.829 143.371 116.473 142.973 116.222 142.464C115.975 141.951 115.851 141.354 115.851 140.675C115.851 139.995 115.975 139.396 116.222 138.877C116.473 138.356 116.822 137.949 117.268 137.658C117.718 137.365 118.242 137.218 118.841 137.218C119.187 137.218 119.528 137.275 119.865 137.39C120.202 137.506 120.509 137.693 120.786 137.952C121.062 138.209 121.283 138.549 121.447 138.972C121.611 139.396 121.693 139.917 121.693 140.536V140.968H116.577V140.087H120.656C120.656 139.712 120.581 139.378 120.431 139.084C120.284 138.791 120.074 138.559 119.8 138.389C119.53 138.219 119.21 138.134 118.841 138.134C118.435 138.134 118.083 138.235 117.787 138.436C117.493 138.635 117.267 138.894 117.108 139.214C116.95 139.534 116.871 139.877 116.871 140.242V140.83C116.871 141.331 116.957 141.756 117.13 142.105C117.306 142.451 117.549 142.714 117.86 142.896C118.171 143.074 118.533 143.164 118.945 143.164C119.213 143.164 119.455 143.126 119.671 143.051C119.89 142.973 120.078 142.858 120.237 142.706C120.395 142.55 120.518 142.357 120.604 142.127L121.589 142.403C121.486 142.737 121.311 143.031 121.066 143.285C120.822 143.535 120.519 143.731 120.159 143.872C119.799 144.011 119.394 144.08 118.945 144.08ZM127.946 138.791L127.03 139.05C126.972 138.897 126.887 138.749 126.775 138.605C126.665 138.458 126.515 138.337 126.325 138.242C126.135 138.147 125.892 138.099 125.595 138.099C125.189 138.099 124.85 138.193 124.58 138.38C124.312 138.564 124.178 138.799 124.178 139.084C124.178 139.338 124.27 139.538 124.454 139.685C124.639 139.832 124.927 139.954 125.318 140.052L126.304 140.294C126.897 140.438 127.339 140.659 127.63 140.955C127.921 141.249 128.067 141.628 128.067 142.092C128.067 142.472 127.957 142.812 127.738 143.112C127.522 143.411 127.22 143.648 126.831 143.82C126.442 143.993 125.99 144.08 125.474 144.08C124.797 144.08 124.237 143.933 123.793 143.639C123.349 143.345 123.069 142.916 122.95 142.351L123.918 142.109C124.011 142.466 124.185 142.734 124.441 142.913C124.701 143.092 125.039 143.181 125.457 143.181C125.932 143.181 126.309 143.08 126.589 142.878C126.871 142.674 127.012 142.429 127.012 142.144C127.012 141.913 126.932 141.72 126.77 141.565C126.609 141.406 126.361 141.288 126.027 141.21L124.921 140.951C124.313 140.807 123.867 140.584 123.581 140.281C123.299 139.976 123.158 139.594 123.158 139.136C123.158 138.762 123.263 138.43 123.473 138.142C123.687 137.854 123.976 137.628 124.342 137.464C124.711 137.3 125.128 137.218 125.595 137.218C126.252 137.218 126.768 137.362 127.142 137.65C127.519 137.938 127.787 138.318 127.946 138.791Z" fill="#001A14"/>
<path d="M259.327 137.571L264.987 142.898C265.545 143.423 266.415 143.423 266.973 142.898L272.633 137.571C272.924 137.297 272.938 136.839 272.664 136.547C272.39 136.256 271.931 136.242 271.64 136.516L265.98 141.843L260.32 136.516C260.028 136.242 259.57 136.256 259.296 136.547C259.022 136.839 259.035 137.297 259.327 137.571Z" fill="#667185"/>
<path d="M28.1979 182.46H26.5818C26.5357 182.195 26.4507 181.961 26.3268 181.756C26.203 181.549 26.0488 181.373 25.8645 181.229C25.6801 181.085 25.4698 180.977 25.2336 180.905C25.0002 180.83 24.7482 180.792 24.4774 180.792C23.9963 180.792 23.5699 180.913 23.1983 181.155C22.8267 181.394 22.5357 181.746 22.3254 182.21C22.1151 182.671 22.01 183.234 22.01 183.899C22.01 184.576 22.1151 185.147 22.3254 185.611C22.5386 186.071 22.8296 186.42 23.1983 186.656C23.5699 186.89 23.9948 187.006 24.473 187.006C24.7381 187.006 24.9858 186.972 25.2163 186.903C25.4496 186.831 25.6585 186.725 25.8429 186.587C26.0301 186.449 26.1871 186.279 26.3139 186.077C26.4435 185.876 26.5328 185.645 26.5818 185.386L28.1979 185.394C28.1374 185.815 28.0063 186.21 27.8047 186.578C27.6059 186.947 27.3452 187.273 27.0225 187.555C26.6999 187.834 26.3225 188.053 25.8904 188.212C25.4583 188.367 24.9786 188.445 24.4514 188.445C23.6736 188.445 22.9794 188.265 22.3686 187.905C21.7579 187.545 21.2768 187.025 20.9254 186.345C20.5739 185.665 20.3982 184.85 20.3982 183.899C20.3982 182.946 20.5753 182.131 20.9297 181.454C21.284 180.774 21.7666 180.254 22.3773 179.894C22.988 179.533 23.6794 179.353 24.4514 179.353C24.9441 179.353 25.4021 179.423 25.8256 179.561C26.2491 179.699 26.6264 179.902 26.9577 180.17C27.289 180.435 27.5613 180.761 27.7744 181.147C27.9905 181.53 28.1316 181.968 28.1979 182.46ZM31.1612 179.474V188.324H29.5969V179.474H31.1612ZM34.6797 188.458C34.2591 188.458 33.8803 188.383 33.5432 188.233C33.209 188.081 32.944 187.856 32.7481 187.559C32.5551 187.263 32.4586 186.897 32.4586 186.462C32.4586 186.087 32.5277 185.778 32.666 185.533C32.8043 185.288 32.993 185.092 33.2321 184.945C33.4712 184.798 33.7405 184.687 34.0401 184.612C34.3426 184.535 34.6552 184.478 34.9778 184.444C35.3667 184.403 35.6822 184.367 35.9242 184.336C36.1662 184.301 36.3419 184.249 36.4514 184.18C36.5637 184.108 36.6199 183.997 36.6199 183.847V183.822C36.6199 183.496 36.5234 183.244 36.3304 183.065C36.1374 182.887 35.8594 182.797 35.4964 182.797C35.1132 182.797 34.8093 182.881 34.5846 183.048C34.3628 183.215 34.213 183.412 34.1352 183.64L32.6746 183.433C32.7899 183.029 32.98 182.692 33.245 182.421C33.5101 182.148 33.8342 181.943 34.2173 181.808C34.6005 181.67 35.0239 181.6 35.4877 181.6C35.8075 181.6 36.1258 181.638 36.4427 181.713C36.7596 181.788 37.0491 181.912 37.3113 182.084C37.5734 182.254 37.7837 182.486 37.9422 182.78C38.1035 183.074 38.1842 183.441 38.1842 183.882V188.324H36.6804V187.412H36.6285C36.5335 187.597 36.3995 187.77 36.2267 187.931C36.0567 188.089 35.8421 188.218 35.5828 188.316C35.3264 188.411 35.0254 188.458 34.6797 188.458ZM35.0859 187.309C35.3999 187.309 35.6721 187.247 35.9026 187.123C36.133 186.996 36.3102 186.829 36.4341 186.622C36.5608 186.414 36.6242 186.188 36.6242 185.943V185.161C36.5752 185.201 36.4917 185.239 36.3736 185.273C36.2583 185.308 36.1287 185.338 35.9847 185.364C35.8406 185.39 35.698 185.413 35.5569 185.433C35.4157 185.454 35.2933 185.471 35.1896 185.485C34.9562 185.517 34.7474 185.569 34.563 185.641C34.3786 185.713 34.2332 185.814 34.1266 185.943C34.02 186.07 33.9667 186.234 33.9667 186.436C33.9667 186.724 34.0718 186.941 34.2821 187.088C34.4924 187.235 34.7603 187.309 35.0859 187.309ZM39.7571 188.324V181.687H41.3213V188.324H39.7571ZM40.5435 180.745C40.2958 180.745 40.0826 180.663 39.904 180.499C39.7254 180.331 39.6361 180.131 39.6361 179.898C39.6361 179.662 39.7254 179.461 39.904 179.297C40.0826 179.13 40.2958 179.047 40.5435 179.047C40.7941 179.047 41.0073 179.13 41.183 179.297C41.3617 179.461 41.451 179.662 41.451 179.898C41.451 180.131 41.3617 180.331 41.183 180.499C41.0073 180.663 40.7941 180.745 40.5435 180.745ZM42.9299 188.324V181.687H44.425V182.815H44.5028C44.6411 182.434 44.8701 182.138 45.1899 181.925C45.5096 181.708 45.8913 181.6 46.335 181.6C46.7844 181.6 47.1632 181.71 47.4714 181.929C47.7826 182.145 48.0015 182.44 48.1283 182.815H48.1974C48.3443 182.446 48.5921 182.152 48.9406 181.933C49.2921 181.711 49.7084 181.6 50.1895 181.6C50.8002 181.6 51.2986 181.793 51.6846 182.18C52.0706 182.566 52.2636 183.129 52.2636 183.869V188.324H50.695V184.111C50.695 183.699 50.5856 183.398 50.3666 183.208C50.1477 183.015 49.8798 182.918 49.5629 182.918C49.1855 182.918 48.8902 183.037 48.6771 183.273C48.4668 183.506 48.3616 183.81 48.3616 184.185V188.324H46.8276V184.046C46.8276 183.703 46.7239 183.43 46.5165 183.225C46.3119 183.021 46.044 182.918 45.7127 182.918C45.488 182.918 45.2835 182.976 45.0991 183.091C44.9147 183.204 44.7678 183.364 44.6584 183.571C44.5489 183.775 44.4942 184.015 44.4942 184.288V188.324H42.9299ZM55.7605 188.458C55.34 188.458 54.9611 188.383 54.6241 188.233C54.2899 188.081 54.0249 187.856 53.829 187.559C53.636 187.263 53.5395 186.897 53.5395 186.462C53.5395 186.087 53.6086 185.778 53.7469 185.533C53.8852 185.288 54.0738 185.092 54.313 184.945C54.5521 184.798 54.8214 184.687 55.121 184.612C55.4235 184.535 55.7361 184.478 56.0587 184.444C56.4476 184.403 56.7631 184.367 57.005 184.336C57.247 184.301 57.4228 184.249 57.5322 184.18C57.6446 184.108 57.7008 183.997 57.7008 183.847V183.822C57.7008 183.496 57.6042 183.244 57.4112 183.065C57.2182 182.887 56.9402 182.797 56.5772 182.797C56.1941 182.797 55.8902 182.881 55.6655 183.048C55.4437 183.215 55.2939 183.412 55.2161 183.64L53.7555 183.433C53.8707 183.029 54.0609 182.692 54.3259 182.421C54.5909 182.148 54.915 181.943 55.2982 181.808C55.6813 181.67 56.1048 181.6 56.5686 181.6C56.8884 181.6 57.2067 181.638 57.5236 181.713C57.8405 181.788 58.13 181.912 58.3921 182.084C58.6543 182.254 58.8646 182.486 59.023 182.78C59.1844 183.074 59.265 183.441 59.265 183.882V188.324H57.7613V187.412H57.7094C57.6143 187.597 57.4804 187.77 57.3075 187.931C57.1376 188.089 56.9229 188.218 56.6637 188.316C56.4073 188.411 56.1062 188.458 55.7605 188.458ZM56.1667 187.309C56.4807 187.309 56.753 187.247 56.9834 187.123C57.2139 186.996 57.3911 186.829 57.5149 186.622C57.6417 186.414 57.7051 186.188 57.7051 185.943V185.161C57.6561 185.201 57.5726 185.239 57.4544 185.273C57.3392 185.308 57.2096 185.338 57.0655 185.364C56.9215 185.39 56.7789 185.413 56.6377 185.433C56.4966 185.454 56.3742 185.471 56.2704 185.485C56.0371 185.517 55.8282 185.569 55.6439 185.641C55.4595 185.713 55.314 185.814 55.2074 185.943C55.1008 186.07 55.0476 186.234 55.0476 186.436C55.0476 186.724 55.1527 186.941 55.363 187.088C55.5733 187.235 55.8412 187.309 56.1667 187.309ZM62.4022 184.435V188.324H60.8379V181.687H62.3331V182.815H62.4108C62.5635 182.443 62.807 182.148 63.1411 181.929C63.4782 181.71 63.8944 181.6 64.3899 181.6C64.848 181.6 65.247 181.698 65.5869 181.894C65.9297 182.09 66.1948 182.374 66.382 182.746C66.5721 183.117 66.6658 183.568 66.6629 184.098V188.324H65.0986V184.34C65.0986 183.896 64.9834 183.549 64.7529 183.299C64.5253 183.048 64.2099 182.923 63.8066 182.923C63.5329 182.923 63.2895 182.983 63.0763 183.104C62.866 183.222 62.7004 183.394 62.5794 183.618C62.4613 183.843 62.4022 184.115 62.4022 184.435ZM71.5674 181.687V182.897H67.7518V181.687H71.5674ZM68.6938 180.097H70.2581V186.328C70.2581 186.538 70.2898 186.699 70.3532 186.812C70.4194 186.921 70.5059 186.996 70.6124 187.037C70.719 187.077 70.8371 187.097 70.9668 187.097C71.0647 187.097 71.154 187.09 71.2347 187.075C71.3182 187.061 71.3816 187.048 71.4248 187.037L71.6884 188.259C71.6049 188.288 71.4853 188.32 71.3298 188.354C71.1771 188.389 70.9898 188.409 70.768 188.415C70.3762 188.426 70.0233 188.367 69.7093 188.238C69.3953 188.105 69.1461 187.901 68.9617 187.624C68.7803 187.348 68.691 187.002 68.6938 186.587V180.097ZM76.2829 183.899C76.2829 182.819 76.4255 181.827 76.7107 180.922C76.9988 180.015 77.4266 179.176 77.9941 178.407H79.4676C79.2487 178.692 79.0441 179.042 78.854 179.457C78.6639 179.869 78.4982 180.321 78.3571 180.814C78.2188 181.304 78.1093 181.812 78.0287 182.339C77.9509 182.867 77.912 183.387 77.912 183.899C77.912 184.582 77.9797 185.273 78.1151 185.973C78.2534 186.674 78.4392 187.323 78.6725 187.922C78.9087 188.519 79.1738 189.007 79.4676 189.387H77.9941C77.4266 188.618 76.9988 187.781 76.7107 186.877C76.4255 185.969 76.2829 184.977 76.2829 183.899ZM83.751 188.324H80.7521V179.474H83.8115C84.6901 179.474 85.4449 179.652 86.0758 180.006C86.7096 180.357 87.1964 180.863 87.5363 181.523C87.8763 182.182 88.0462 182.972 88.0462 183.891C88.0462 184.813 87.8748 185.605 87.532 186.267C87.1921 186.93 86.7009 187.438 86.0585 187.793C85.419 188.147 84.6498 188.324 83.751 188.324ZM82.3552 186.937H83.6732C84.2897 186.937 84.8039 186.825 85.2159 186.6C85.6278 186.372 85.9375 186.034 86.1449 185.585C86.3523 185.132 86.456 184.568 86.456 183.891C86.456 183.214 86.3523 182.652 86.1449 182.205C85.9375 181.756 85.6307 181.42 85.2245 181.199C84.8212 180.974 84.3199 180.862 83.7207 180.862H82.3552V186.937ZM92.4387 188.454C91.7733 188.454 91.1985 188.316 90.7146 188.039C90.2335 187.76 89.8633 187.365 89.604 186.855C89.3448 186.342 89.2151 185.739 89.2151 185.044C89.2151 184.362 89.3448 183.762 89.604 183.247C89.8662 182.728 90.232 182.325 90.7016 182.037C91.1712 181.746 91.7228 181.6 92.3566 181.6C92.7657 181.6 93.1517 181.667 93.5147 181.799C93.8806 181.929 94.2032 182.131 94.4826 182.404C94.765 182.678 94.9868 183.026 95.1481 183.45C95.3094 183.871 95.3901 184.372 95.3901 184.954V185.433H89.9497V184.379H93.8906C93.8878 184.079 93.8229 183.813 93.6962 183.58C93.5694 183.343 93.3923 183.158 93.1647 183.022C92.94 182.887 92.6778 182.819 92.3782 182.819C92.0585 182.819 91.7776 182.897 91.5356 183.052C91.2936 183.205 91.1049 183.407 90.9695 183.657C90.837 183.905 90.7693 184.177 90.7664 184.474V185.394C90.7664 185.78 90.837 186.112 90.9782 186.388C91.1193 186.662 91.3167 186.872 91.5702 187.019C91.8237 187.163 92.1204 187.235 92.4603 187.235C92.6879 187.235 92.8939 187.204 93.0783 187.14C93.2626 187.074 93.4225 186.977 93.5579 186.851C93.6933 186.724 93.7956 186.567 93.8647 186.38L95.3253 186.544C95.2331 186.93 95.0574 187.267 94.7981 187.555C94.5417 187.84 94.2133 188.062 93.8129 188.221C93.4124 188.376 92.9544 188.454 92.4387 188.454ZM99.6086 188.454C98.9461 188.454 98.3771 188.308 97.9018 188.017C97.4293 187.726 97.0649 187.325 96.8085 186.812C96.555 186.296 96.4282 185.703 96.4282 185.031C96.4282 184.357 96.5579 183.762 96.8172 183.247C97.0764 182.728 97.4423 182.325 97.9147 182.037C98.3901 181.746 98.9518 181.6 99.6 181.6C100.139 181.6 100.615 181.7 101.03 181.899C101.448 182.095 101.781 182.373 102.028 182.733C102.276 183.09 102.417 183.508 102.452 183.986H100.957C100.896 183.666 100.752 183.4 100.525 183.186C100.3 182.97 99.999 182.862 99.6216 182.862C99.3018 182.862 99.021 182.949 98.779 183.122C98.537 183.291 98.3483 183.536 98.2129 183.856C98.0804 184.176 98.0141 184.559 98.0141 185.006C98.0141 185.458 98.0804 185.847 98.2129 186.172C98.3454 186.495 98.5312 186.744 98.7703 186.92C99.0123 187.093 99.2961 187.179 99.6216 187.179C99.8521 187.179 100.058 187.136 100.24 187.049C100.424 186.96 100.578 186.832 100.702 186.665C100.826 186.498 100.911 186.295 100.957 186.056H102.452C102.415 186.525 102.276 186.941 102.037 187.304C101.798 187.665 101.473 187.947 101.061 188.151C100.649 188.353 100.165 188.454 99.6086 188.454ZM105.301 179.474V188.324H103.736V179.474H105.301ZM108.819 188.458C108.399 188.458 108.02 188.383 107.683 188.233C107.349 188.081 107.084 187.856 106.888 187.559C106.695 187.263 106.598 186.897 106.598 186.462C106.598 186.087 106.667 185.778 106.806 185.533C106.944 185.288 107.133 185.092 107.372 184.945C107.611 184.798 107.88 184.687 108.18 184.612C108.482 184.535 108.795 184.478 109.117 184.444C109.506 184.403 109.822 184.367 110.064 184.336C110.306 184.301 110.481 184.249 110.591 184.18C110.703 184.108 110.759 183.997 110.759 183.847V183.822C110.759 183.496 110.663 183.244 110.47 183.065C110.277 182.887 109.999 182.797 109.636 182.797C109.253 182.797 108.949 182.881 108.724 183.048C108.502 183.215 108.353 183.412 108.275 183.64L106.814 183.433C106.929 183.029 107.12 182.692 107.385 182.421C107.65 182.148 107.974 181.943 108.357 181.808C108.74 181.67 109.163 181.6 109.627 181.6C109.947 181.6 110.265 181.638 110.582 181.713C110.899 181.788 111.189 181.912 111.451 182.084C111.713 182.254 111.923 182.486 112.082 182.78C112.243 183.074 112.324 183.441 112.324 183.882V188.324H110.82V187.412H110.768C110.673 187.597 110.539 187.77 110.366 187.931C110.196 188.089 109.982 188.218 109.722 188.316C109.466 188.411 109.165 188.458 108.819 188.458ZM109.225 187.309C109.539 187.309 109.812 187.247 110.042 187.123C110.273 186.996 110.45 186.829 110.574 186.622C110.7 186.414 110.764 186.188 110.764 185.943V185.161C110.715 185.201 110.631 185.239 110.513 185.273C110.398 185.308 110.268 185.338 110.124 185.364C109.98 185.39 109.838 185.413 109.696 185.433C109.555 185.454 109.433 185.471 109.329 185.485C109.096 185.517 108.887 185.569 108.703 185.641C108.518 185.713 108.373 185.814 108.266 185.943C108.16 186.07 108.106 186.234 108.106 186.436C108.106 186.724 108.211 186.941 108.422 187.088C108.632 187.235 108.9 187.309 109.225 187.309ZM113.897 188.324V181.687H115.413V182.793H115.482C115.603 182.41 115.811 182.115 116.105 181.907C116.401 181.697 116.74 181.592 117.12 181.592C117.207 181.592 117.303 181.596 117.41 181.605C117.519 181.611 117.61 181.621 117.682 181.635V183.074C117.616 183.051 117.511 183.031 117.367 183.013C117.225 182.993 117.089 182.983 116.956 182.983C116.671 182.983 116.414 183.045 116.187 183.169C115.962 183.29 115.785 183.459 115.655 183.675C115.526 183.891 115.461 184.14 115.461 184.422V188.324H113.897ZM118.721 188.324V181.687H120.285V188.324H118.721ZM119.508 180.745C119.26 180.745 119.047 180.663 118.868 180.499C118.69 180.331 118.6 180.131 118.6 179.898C118.6 179.662 118.69 179.461 118.868 179.297C119.047 179.13 119.26 179.047 119.508 179.047C119.758 179.047 119.971 179.13 120.147 179.297C120.326 179.461 120.415 179.662 120.415 179.898C120.415 180.131 120.326 180.331 120.147 180.499C119.971 180.663 119.758 180.745 119.508 180.745ZM123.458 184.435V188.324H121.894V181.687H123.389V182.815H123.467C123.62 182.443 123.863 182.148 124.197 181.929C124.534 181.71 124.951 181.6 125.446 181.6C125.904 181.6 126.303 181.698 126.643 181.894C126.986 182.09 127.251 182.374 127.438 182.746C127.628 183.117 127.722 183.568 127.719 184.098V188.324H126.155V184.34C126.155 183.896 126.039 183.549 125.809 183.299C125.581 183.048 125.266 182.923 124.863 182.923C124.589 182.923 124.346 182.983 124.132 183.104C123.922 183.222 123.756 183.394 123.635 183.618C123.517 183.843 123.458 184.115 123.458 184.435ZM132.196 190.951C131.634 190.951 131.151 190.875 130.748 190.722C130.345 190.573 130.021 190.371 129.776 190.118C129.531 189.864 129.361 189.583 129.266 189.275L130.675 188.934C130.738 189.063 130.83 189.191 130.951 189.318C131.072 189.448 131.235 189.554 131.44 189.638C131.647 189.724 131.908 189.767 132.222 189.767C132.665 189.767 133.033 189.659 133.324 189.443C133.615 189.23 133.76 188.879 133.76 188.389V187.132H133.682C133.602 187.293 133.483 187.459 133.328 187.629C133.175 187.798 132.972 187.941 132.719 188.056C132.468 188.172 132.153 188.229 131.772 188.229C131.262 188.229 130.8 188.11 130.385 187.87C129.973 187.629 129.645 187.268 129.4 186.79C129.158 186.309 129.037 185.707 129.037 184.984C129.037 184.255 129.158 183.64 129.4 183.139C129.645 182.635 129.975 182.253 130.389 181.994C130.804 181.732 131.267 181.6 131.777 181.6C132.165 181.6 132.485 181.667 132.736 181.799C132.989 181.929 133.191 182.086 133.341 182.27C133.491 182.452 133.604 182.623 133.682 182.784H133.769V181.687H135.311V188.432C135.311 189 135.176 189.469 134.905 189.841C134.634 190.213 134.264 190.491 133.795 190.675C133.325 190.859 132.792 190.951 132.196 190.951ZM132.209 187.002C132.54 187.002 132.822 186.921 133.056 186.76C133.289 186.599 133.466 186.367 133.587 186.064C133.708 185.762 133.769 185.399 133.769 184.975C133.769 184.558 133.708 184.192 133.587 183.878C133.469 183.564 133.293 183.32 133.06 183.147C132.829 182.972 132.546 182.884 132.209 182.884C131.86 182.884 131.569 182.975 131.336 183.156C131.102 183.338 130.927 183.587 130.809 183.904C130.691 184.218 130.631 184.575 130.631 184.975C130.631 185.381 130.691 185.737 130.809 186.043C130.93 186.345 131.107 186.581 131.34 186.751C131.576 186.918 131.866 187.002 132.209 187.002ZM139.933 190.813V181.687H141.471V182.784H141.562C141.643 182.623 141.756 182.452 141.903 182.27C142.05 182.086 142.249 181.929 142.5 181.799C142.75 181.667 143.07 181.6 143.459 181.6C143.972 181.6 144.434 181.732 144.846 181.994C145.261 182.253 145.589 182.638 145.831 183.147C146.076 183.654 146.199 184.277 146.199 185.014C146.199 185.743 146.079 186.362 145.84 186.872C145.601 187.382 145.275 187.771 144.863 188.039C144.451 188.307 143.985 188.441 143.463 188.441C143.083 188.441 142.767 188.378 142.517 188.251C142.266 188.124 142.065 187.971 141.912 187.793C141.762 187.611 141.645 187.44 141.562 187.278H141.497V190.813H139.933ZM141.467 185.006C141.467 185.435 141.527 185.811 141.648 186.133C141.772 186.456 141.949 186.708 142.18 186.89C142.413 187.068 142.695 187.158 143.027 187.158C143.372 187.158 143.662 187.065 143.895 186.881C144.129 186.694 144.304 186.439 144.423 186.116C144.543 185.791 144.604 185.42 144.604 185.006C144.604 184.594 144.545 184.228 144.427 183.908C144.309 183.588 144.133 183.338 143.9 183.156C143.666 182.975 143.375 182.884 143.027 182.884C142.693 182.884 142.409 182.972 142.175 183.147C141.942 183.323 141.765 183.569 141.644 183.886C141.526 184.203 141.467 184.576 141.467 185.006ZM149.448 188.458C149.027 188.458 148.649 188.383 148.312 188.233C147.977 188.081 147.712 187.856 147.516 187.559C147.323 187.263 147.227 186.897 147.227 186.462C147.227 186.087 147.296 185.778 147.434 185.533C147.573 185.288 147.761 185.092 148 184.945C148.24 184.798 148.509 184.687 148.809 184.612C149.111 184.535 149.424 184.478 149.746 184.444C150.135 184.403 150.451 184.367 150.693 184.336C150.935 184.301 151.11 184.249 151.22 184.18C151.332 184.108 151.388 183.997 151.388 183.847V183.822C151.388 183.496 151.292 183.244 151.099 183.065C150.906 182.887 150.628 182.797 150.265 182.797C149.882 182.797 149.578 182.881 149.353 183.048C149.131 183.215 148.981 183.412 148.904 183.64L147.443 183.433C147.558 183.029 147.748 182.692 148.013 182.421C148.278 182.148 148.603 181.943 148.986 181.808C149.369 181.67 149.792 181.6 150.256 181.6C150.576 181.6 150.894 181.638 151.211 181.713C151.528 181.788 151.817 181.912 152.08 182.084C152.342 182.254 152.552 182.486 152.711 182.78C152.872 183.074 152.953 183.441 152.953 183.882V188.324H151.449V187.412H151.397C151.302 187.597 151.168 187.77 150.995 187.931C150.825 188.089 150.61 188.218 150.351 188.316C150.095 188.411 149.794 188.458 149.448 188.458ZM149.854 187.309C150.168 187.309 150.44 187.247 150.671 187.123C150.901 186.996 151.079 186.829 151.202 186.622C151.329 186.414 151.393 186.188 151.393 185.943V185.161C151.344 185.201 151.26 185.239 151.142 185.273C151.027 185.308 150.897 185.338 150.753 185.364C150.609 185.39 150.466 185.413 150.325 185.433C150.184 185.454 150.062 185.471 149.958 185.485C149.725 185.517 149.516 185.569 149.331 185.641C149.147 185.713 149.002 185.814 148.895 185.943C148.788 186.07 148.735 186.234 148.735 186.436C148.735 186.724 148.84 186.941 149.05 187.088C149.261 187.235 149.529 187.309 149.854 187.309ZM154.525 188.324V181.687H156.042V182.793H156.111C156.232 182.41 156.44 182.115 156.734 181.907C157.03 181.697 157.369 181.592 157.749 181.592C157.835 181.592 157.932 181.596 158.039 181.605C158.148 181.611 158.239 181.621 158.311 181.635V183.074C158.245 183.051 158.139 183.031 157.995 183.013C157.854 182.993 157.717 182.983 157.585 182.983C157.3 182.983 157.043 183.045 156.816 183.169C156.591 183.29 156.414 183.459 156.284 183.675C156.155 183.891 156.09 184.14 156.09 184.422V188.324H154.525ZM163.021 181.687V182.897H159.205V181.687H163.021ZM160.147 180.097H161.712V186.328C161.712 186.538 161.743 186.699 161.807 186.812C161.873 186.921 161.959 186.996 162.066 187.037C162.172 187.077 162.291 187.097 162.42 187.097C162.518 187.097 162.607 187.09 162.688 187.075C162.772 187.061 162.835 187.048 162.878 187.037L163.142 188.259C163.058 188.288 162.939 188.32 162.783 188.354C162.631 188.389 162.443 188.409 162.221 188.415C161.83 188.426 161.477 188.367 161.163 188.238C160.849 188.105 160.6 187.901 160.415 187.624C160.234 187.348 160.144 187.002 160.147 186.587V180.097ZM165.301 190.813C165.088 190.813 164.891 190.796 164.709 190.761C164.531 190.73 164.388 190.692 164.282 190.649L164.645 189.43C164.872 189.497 165.075 189.528 165.254 189.526C165.432 189.523 165.589 189.466 165.725 189.357C165.863 189.25 165.98 189.072 166.075 188.821L166.209 188.462L163.802 181.687H165.461L166.991 186.699H167.06L168.594 181.687H170.258L167.6 189.128C167.476 189.479 167.312 189.78 167.108 190.031C166.903 190.285 166.652 190.478 166.356 190.61C166.062 190.746 165.71 190.813 165.301 190.813ZM174.132 184.716C174.132 185.793 173.988 186.786 173.7 187.693C173.414 188.598 172.988 189.435 172.421 190.204H170.947C171.169 189.919 171.373 189.57 171.561 189.158C171.751 188.746 171.915 188.294 172.053 187.801C172.194 187.309 172.304 186.799 172.382 186.272C172.462 185.744 172.503 185.226 172.503 184.716C172.503 184.033 172.433 183.342 172.295 182.642C172.16 181.942 171.974 181.292 171.738 180.693C171.504 180.094 171.241 179.604 170.947 179.224H172.421C172.988 179.993 173.414 180.831 173.7 181.739C173.988 182.643 174.132 183.636 174.132 184.716Z" fill="#002B22"/>
<rect x="20.1846" y="197.235" width="264.483" height="33.8978" rx="4.78046" fill="white"/>
<rect x="20.1846" y="197.235" width="264.483" height="33.8978" rx="4.78046" stroke="#E4E7EC" stroke-width="0.869174"/>
<path d="M34.6396 209.335H35.7113V215.661C35.7113 216.226 35.6076 216.705 35.4002 217.1C35.1927 217.495 34.9003 217.794 34.523 217.999C34.1456 218.203 33.7005 218.306 33.1877 218.306C32.7037 218.306 32.2731 218.218 31.8957 218.042C31.5183 217.863 31.2216 217.61 31.0055 217.281C30.7895 216.953 30.6814 216.563 30.6814 216.11H31.7358C31.7358 216.361 31.7977 216.58 31.9216 216.767C32.0484 216.952 32.2212 217.096 32.4402 217.199C32.6591 217.303 32.9083 217.355 33.1877 217.355C33.496 217.355 33.7581 217.29 33.9742 217.16C34.1902 217.031 34.3544 216.841 34.4668 216.59C34.582 216.337 34.6396 216.027 34.6396 215.661V209.335ZM40.417 218.323C39.8178 218.323 39.2921 218.18 38.8398 217.895C38.3904 217.61 38.039 217.211 37.7855 216.698C37.5348 216.185 37.4095 215.586 37.4095 214.9C37.4095 214.209 37.5348 213.606 37.7855 213.09C38.039 212.574 38.3904 212.174 38.8398 211.889C39.2921 211.603 39.8178 211.461 40.417 211.461C41.0163 211.461 41.5406 211.603 41.99 211.889C42.4422 212.174 42.7937 212.574 43.0443 213.09C43.2978 213.606 43.4246 214.209 43.4246 214.9C43.4246 215.586 43.2978 216.185 43.0443 216.698C42.7937 217.211 42.4422 217.61 41.99 217.895C41.5406 218.18 41.0163 218.323 40.417 218.323ZM40.417 217.407C40.8722 217.407 41.2467 217.29 41.5406 217.057C41.8344 216.823 42.0519 216.517 42.1931 216.136C42.3342 215.756 42.4048 215.344 42.4048 214.9C42.4048 214.457 42.3342 214.043 42.1931 213.66C42.0519 213.277 41.8344 212.967 41.5406 212.731C41.2467 212.495 40.8722 212.377 40.417 212.377C39.9619 212.377 39.5874 212.495 39.2935 212.731C38.9997 212.967 38.7822 213.277 38.641 213.66C38.4999 214.043 38.4293 214.457 38.4293 214.9C38.4293 215.344 38.4999 215.756 38.641 216.136C38.7822 216.517 38.9997 216.823 39.2935 217.057C39.5874 217.29 39.9619 217.407 40.417 217.407ZM46.0011 214.192V218.185H44.9813V209.335H46.0011V212.584H46.0875C46.2431 212.242 46.4764 211.969 46.7875 211.768C47.1016 211.563 47.5193 211.461 48.0407 211.461C48.493 211.461 48.8891 211.552 49.229 211.733C49.5689 211.912 49.8325 212.187 50.0198 212.558C50.2099 212.927 50.305 213.397 50.305 213.967V218.185H49.2852V214.036C49.2852 213.509 49.1484 213.101 48.8747 212.813C48.6039 212.522 48.2279 212.377 47.7468 212.377C47.4127 212.377 47.1131 212.447 46.848 212.589C46.5859 212.73 46.3785 212.936 46.2258 213.207C46.076 213.477 46.0011 213.806 46.0011 214.192ZM53.1905 214.192V218.185H52.1707V211.547H53.1559V212.584H53.2423C53.3979 212.247 53.6341 211.976 53.951 211.772C54.2679 211.565 54.6769 211.461 55.1782 211.461C55.6276 211.461 56.0208 211.553 56.3579 211.737C56.6949 211.919 56.9571 212.195 57.1443 212.567C57.3316 212.936 57.4252 213.402 57.4252 213.967V218.185H56.4054V214.036C56.4054 213.515 56.27 213.109 55.9992 212.818C55.7284 212.524 55.3568 212.377 54.8844 212.377C54.5588 212.377 54.2679 212.447 54.0115 212.589C53.758 212.73 53.5578 212.936 53.4108 213.207C53.2639 213.477 53.1905 213.806 53.1905 214.192ZM63.2124 218.185H62.0888L65.3384 209.335H66.4446L69.6941 218.185H68.5706L65.9261 210.735H65.8569L63.2124 218.185ZM63.6272 214.728H68.1558V215.678H63.6272V214.728ZM71.0726 218.185V209.335H72.0924V212.602H72.1788C72.2537 212.486 72.3574 212.339 72.4899 212.161C72.6253 211.979 72.8183 211.818 73.069 211.677C73.3225 211.533 73.6653 211.461 74.0974 211.461C74.6563 211.461 75.1489 211.601 75.5752 211.88C76.0016 212.159 76.3343 212.556 76.5734 213.068C76.8125 213.581 76.9321 214.186 76.9321 214.883C76.9321 215.586 76.8125 216.195 76.5734 216.711C76.3343 217.224 76.003 217.621 75.5796 217.904C75.1561 218.183 74.6678 218.323 74.1147 218.323C73.6883 218.323 73.347 218.252 73.0906 218.111C72.8342 217.967 72.6368 217.804 72.4986 217.623C72.3603 217.438 72.2537 217.286 72.1788 217.165H72.0578V218.185H71.0726ZM72.0751 214.866C72.0751 215.367 72.1485 215.809 72.2955 216.193C72.4424 216.573 72.657 216.871 72.9393 217.087C73.2216 217.3 73.5673 217.407 73.9764 217.407C74.4028 217.407 74.7585 217.294 75.0437 217.07C75.3318 216.842 75.5479 216.537 75.6919 216.154C75.8388 215.768 75.9123 215.338 75.9123 214.866C75.9123 214.399 75.8403 213.979 75.6962 213.604C75.5551 213.227 75.3405 212.929 75.0524 212.71C74.7672 212.488 74.4085 212.377 73.9764 212.377C73.5616 212.377 73.213 212.482 72.9307 212.692C72.6484 212.9 72.4352 213.191 72.2911 213.565C72.1471 213.937 72.0751 214.37 72.0751 214.866ZM78.492 218.185V211.547H79.5118V218.185H78.492ZM79.0106 210.441C78.8118 210.441 78.6404 210.373 78.4964 210.238C78.3552 210.103 78.2846 209.94 78.2846 209.75C78.2846 209.559 78.3552 209.397 78.4964 209.261C78.6404 209.126 78.8118 209.058 79.0106 209.058C79.2094 209.058 79.3793 209.126 79.5205 209.261C79.6645 209.397 79.7365 209.559 79.7365 209.75C79.7365 209.94 79.6645 210.103 79.5205 210.238C79.3793 210.373 79.2094 210.441 79.0106 210.441ZM82.3303 215.765L82.313 214.503H82.5205L85.4243 211.547H86.6861L83.5921 214.676H83.5057L82.3303 215.765ZM81.3797 218.185V209.335H82.3995V218.185H81.3797ZM85.5971 218.185L83.0044 214.9L83.7304 214.192L86.8935 218.185H85.5971ZM90.4217 218.323C89.8225 218.323 89.2968 218.18 88.8445 217.895C88.3951 217.61 88.0436 217.211 87.7901 216.698C87.5395 216.185 87.4142 215.586 87.4142 214.9C87.4142 214.209 87.5395 213.606 87.7901 213.09C88.0436 212.574 88.3951 212.174 88.8445 211.889C89.2968 211.603 89.8225 211.461 90.4217 211.461C91.0209 211.461 91.5452 211.603 91.9946 211.889C92.4469 212.174 92.7984 212.574 93.049 213.09C93.3025 213.606 93.4293 214.209 93.4293 214.9C93.4293 215.586 93.3025 216.185 93.049 216.698C92.7984 217.211 92.4469 217.61 91.9946 217.895C91.5452 218.18 91.0209 218.323 90.4217 218.323ZM90.4217 217.407C90.8769 217.407 91.2514 217.29 91.5452 217.057C91.8391 216.823 92.0566 216.517 92.1977 216.136C92.3389 215.756 92.4095 215.344 92.4095 214.9C92.4095 214.457 92.3389 214.043 92.1977 213.66C92.0566 213.277 91.8391 212.967 91.5452 212.731C91.2514 212.495 90.8769 212.377 90.4217 212.377C89.9666 212.377 89.5921 212.495 89.2982 212.731C89.0044 212.967 88.7869 213.277 88.6457 213.66C88.5046 214.043 88.434 214.457 88.434 214.9C88.434 215.344 88.5046 215.756 88.6457 216.136C88.7869 216.517 89.0044 216.823 89.2982 217.057C89.5921 217.29 89.9666 217.407 90.4217 217.407ZM95.4051 220.674C95.2323 220.674 95.0782 220.659 94.9428 220.63C94.8074 220.604 94.7137 220.579 94.6619 220.553L94.9212 219.654C95.1689 219.717 95.3879 219.74 95.578 219.723C95.7681 219.706 95.9366 219.621 96.0836 219.468C96.2334 219.318 96.3702 219.075 96.4941 218.738L96.6842 218.219L94.2298 211.547H95.336L97.1682 216.836H97.2373L99.0695 211.547H100.176L97.3583 219.153C97.2316 219.495 97.0746 219.779 96.8873 220.004C96.7 220.231 96.4825 220.4 96.2348 220.509C95.9899 220.619 95.7134 220.674 95.4051 220.674ZM104.067 218.323C103.427 218.323 102.876 218.182 102.412 217.899C101.951 217.614 101.595 217.217 101.345 216.707C101.097 216.194 100.973 215.598 100.973 214.918C100.973 214.238 101.097 213.639 101.345 213.12C101.595 212.599 101.944 212.193 102.39 211.902C102.84 211.608 103.364 211.461 103.963 211.461C104.309 211.461 104.65 211.518 104.987 211.634C105.324 211.749 105.631 211.936 105.908 212.195C106.184 212.452 106.405 212.792 106.569 213.215C106.733 213.639 106.815 214.16 106.815 214.779V215.212H101.699V214.33H105.778C105.778 213.956 105.703 213.621 105.553 213.328C105.407 213.034 105.196 212.802 104.923 212.632C104.652 212.462 104.332 212.377 103.963 212.377C103.557 212.377 103.206 212.478 102.909 212.679C102.615 212.878 102.389 213.137 102.23 213.457C102.072 213.777 101.993 214.12 101.993 214.486V215.073C101.993 215.575 102.079 215.999 102.252 216.348C102.428 216.694 102.671 216.957 102.982 217.139C103.293 217.317 103.655 217.407 104.067 217.407C104.335 217.407 104.577 217.369 104.793 217.294C105.012 217.217 105.201 217.101 105.359 216.949C105.517 216.793 105.64 216.6 105.726 216.37L106.711 216.646C106.608 216.98 106.434 217.274 106.189 217.528C105.944 217.778 105.641 217.974 105.281 218.115C104.921 218.254 104.516 218.323 104.067 218.323Z" fill="#001A14"/>
<path d="M259.327 211.814L264.987 217.142C265.545 217.667 266.415 217.667 266.973 217.142L272.633 211.814C272.924 211.54 272.938 211.082 272.664 210.79C272.39 210.499 271.931 210.485 271.64 210.759L265.98 216.087L260.32 210.759C260.028 210.485 259.57 210.499 259.296 210.79C259.022 211.082 259.035 211.54 259.327 211.814Z" fill="#667185"/>
</g>
<defs>
<filter id="filter0_dd_10030_257" x="0.353436" y="0.0632029" width="303.793" height="267.525" filterUnits="userSpaceOnUse" color-interpolation-filters="sRGB">
<feFlood flood-opacity="0" result="BackgroundImageFix"/>
<feColorMatrix in="SourceAlpha" type="matrix" values="0 0 0 0 0 0 0 0 0 0 0 0 0 0 0 0 0 0 127 0" result="hardAlpha"/>
<feMorphology radius="0.924571" operator="erode" in="SourceAlpha" result="effect1_dropShadow_10030_257"/>
<feOffset dy="1.84914"/>
<feGaussianBlur stdDeviation="1.84914"/>
<feColorMatrix type="matrix" values="0 0 0 0 0.0627451 0 0 0 0 0.0980392 0 0 0 0 0.156863 0 0 0 0.02 0"/>
<feBlend mode="normal" in2="BackgroundImageFix" result="effect1_dropShadow_10030_257"/>
<feColorMatrix in="SourceAlpha" type="matrix" values="0 0 0 0 0 0 0 0 0 0 0 0 0 0 0 0 0 0 127 0" result="hardAlpha"/>
<feMorphology radius="4.62285" operator="erode" in="SourceAlpha" result="effect2_dropShadow_10030_257"/>
<feOffset dy="4.62285"/>
<feGaussianBlur stdDeviation="6.00971"/>
<feComposite in2="hardAlpha" operator="out"/>
<feColorMatrix type="matrix" values="0 0 0 0 0.0627451 0 0 0 0 0.0980392 0 0 0 0 0.156863 0 0 0 0.05 0"/>
<feBlend mode="normal" in2="effect1_dropShadow_10030_257" result="effect2_dropShadow_10030_257"/>
<feBlend mode="normal" in="SourceGraphic" in2="effect2_dropShadow_10030_257" result="shape"/>
</filter>
</defs>
</svg>
