<svg width="40" height="41" viewBox="0 0 40 41" fill="none" xmlns="http://www.w3.org/2000/svg">
<rect x="-0.5" y="0.5" width="39" height="39" rx="19.5" transform="matrix(-1 0 0 1 39 0.336914)" fill="white"/>
<rect x="-0.5" y="0.5" width="39" height="39" rx="19.5" transform="matrix(-1 0 0 1 39 0.336914)" stroke="#E4E7EC"/>
<path d="M28.0894 20.9258C28.4149 20.6004 28.4149 20.0728 28.0894 19.7473L24.7561 16.414C24.4306 16.0886 23.903 16.0886 23.5776 16.414C23.2521 16.7394 23.2521 17.2671 23.5776 17.5925L25.4883 19.5033L12.5002 19.5033C12.0399 19.5033 11.6668 19.8764 11.6668 20.3366C11.6668 20.7968 12.0399 21.1699 12.5002 21.1699L25.4883 21.1699L23.5776 23.0807C23.2521 23.4061 23.2521 23.9337 23.5776 24.2592C23.903 24.5846 24.4306 24.5846 24.7561 24.2592L28.0894 20.9258Z" fill="#15AD07"/>
</svg>
