<svg width="40" height="41" viewBox="0 0 40 41" fill="none" xmlns="http://www.w3.org/2000/svg">
<rect x="0.5" y="0.836914" width="39" height="39" rx="19.5" fill="white"/>
<rect x="0.5" y="0.836914" width="39" height="39" rx="19.5" stroke="#E4E7EC"/>
<path d="M11.9108 20.9258C11.5854 20.6004 11.5854 20.0728 11.9108 19.7473L15.2442 16.414C15.5696 16.0886 16.0972 16.0886 16.4227 16.414C16.7481 16.7394 16.7481 17.2671 16.4227 17.5925L14.5119 19.5033L27.5001 19.5033C27.9603 19.5033 28.3334 19.8764 28.3334 20.3366C28.3334 20.7968 27.9603 21.1699 27.5001 21.1699L14.5119 21.1699L16.4227 23.0807C16.7481 23.4061 16.7481 23.9337 16.4227 24.2592C16.0972 24.5846 15.5696 24.5846 15.2442 24.2592L11.9108 20.9258Z" fill="#15AD07"/>
</svg>
