<svg width="164" height="22" viewBox="0 0 164 22" fill="none" xmlns="http://www.w3.org/2000/svg">
<g style="mix-blend-mode:multiply">
<rect width="164" height="22" rx="11" fill="#EEF4FF"/>
<path d="M16.2797 9.1108H14.9501C14.899 8.8267 14.8038 8.5767 14.6646 8.3608C14.5254 8.14489 14.3549 7.96165 14.1532 7.81108C13.9515 7.66051 13.7257 7.54687 13.4757 7.47017C13.2285 7.39347 12.9657 7.35511 12.6873 7.35511C12.1845 7.35511 11.7342 7.48153 11.3365 7.73438C10.9416 7.98722 10.6291 8.35795 10.399 8.84659C10.1717 9.33523 10.0581 9.93182 10.0581 10.6364C10.0581 11.3466 10.1717 11.946 10.399 12.4347C10.6291 12.9233 10.943 13.2926 11.3407 13.5426C11.7385 13.7926 12.1859 13.9176 12.6831 13.9176C12.9586 13.9176 13.22 13.8807 13.4672 13.8068C13.7172 13.7301 13.943 13.6179 14.1447 13.4702C14.3464 13.3224 14.5169 13.142 14.6561 12.929C14.7981 12.7131 14.8961 12.4659 14.9501 12.1875L16.2797 12.1918C16.2086 12.6207 16.0708 13.0156 15.8663 13.3764C15.6646 13.7344 15.4047 14.044 15.0865 14.3054C14.7711 14.5639 14.4103 14.7642 14.0041 14.9062C13.5978 15.0483 13.1547 15.1193 12.6745 15.1193C11.9189 15.1193 11.2456 14.9403 10.6547 14.5824C10.0637 14.2216 9.59783 13.706 9.25692 13.0355C8.91886 12.3651 8.74982 11.5653 8.74982 10.6364C8.74982 9.70455 8.92028 8.90483 9.26119 8.23722C9.6021 7.56676 10.068 7.05256 10.6589 6.6946C11.2498 6.33381 11.9217 6.15341 12.6745 6.15341C13.1376 6.15341 13.5694 6.22017 13.97 6.35369C14.3734 6.48437 14.7356 6.67756 15.0566 6.93324C15.3777 7.18608 15.6433 7.49574 15.8535 7.86222C16.0637 8.22585 16.2058 8.64205 16.2797 9.1108ZM19.6578 15.1449C19.2431 15.1449 18.8681 15.0682 18.5328 14.9148C18.1976 14.7585 17.932 14.5327 17.736 14.2372C17.5428 13.9418 17.4462 13.5795 17.4462 13.1506C17.4462 12.7812 17.5172 12.4773 17.6593 12.2386C17.8013 12 17.9931 11.8111 18.2346 11.6719C18.476 11.5327 18.7459 11.4276 19.0442 11.3565C19.3425 11.2855 19.6465 11.2315 19.9561 11.1946C20.3482 11.1491 20.6664 11.1122 20.9107 11.0838C21.155 11.0526 21.3326 11.0028 21.4434 10.9347C21.5542 10.8665 21.6096 10.7557 21.6096 10.6023V10.5724C21.6096 10.2003 21.5044 9.91193 21.2942 9.70739C21.0868 9.50284 20.7772 9.40057 20.3652 9.40057C19.9363 9.40057 19.5982 9.49574 19.351 9.68608C19.1067 9.87358 18.9377 10.0824 18.8439 10.3125L17.6465 10.0398C17.7885 9.64205 17.9959 9.32102 18.2686 9.0767C18.5442 8.82955 18.861 8.65057 19.2189 8.53977C19.5769 8.42614 19.9533 8.36932 20.3482 8.36932C20.6096 8.36932 20.8865 8.40057 21.1792 8.46307C21.4746 8.52273 21.7502 8.63352 22.0059 8.79545C22.2644 8.95739 22.476 9.18892 22.6408 9.49006C22.8056 9.78835 22.888 10.1761 22.888 10.6534V15H21.6436V14.1051H21.5925C21.5101 14.2699 21.3865 14.4318 21.2218 14.5909C21.057 14.75 20.8453 14.8821 20.5868 14.9872C20.3283 15.0923 20.0186 15.1449 19.6578 15.1449ZM19.9348 14.1222C20.2871 14.1222 20.5882 14.0526 20.8382 13.9134C21.0911 13.7741 21.2828 13.5923 21.4135 13.3679C21.5471 13.1406 21.6138 12.8977 21.6138 12.6392V11.7955C21.5684 11.8409 21.4803 11.8835 21.3496 11.9233C21.2218 11.9602 21.0755 11.9929 20.9107 12.0213C20.7459 12.0469 20.5854 12.071 20.4292 12.0938C20.2729 12.1136 20.1422 12.1307 20.0371 12.1449C19.79 12.1761 19.5641 12.2287 19.3596 12.3026C19.1578 12.3764 18.9959 12.483 18.8738 12.6222C18.7544 12.7585 18.6948 12.9403 18.6948 13.1676C18.6948 13.483 18.8113 13.7216 19.0442 13.8835C19.2772 14.0426 19.574 14.1222 19.9348 14.1222ZM29.4899 10.0526L28.335 10.2571C28.2868 10.1094 28.21 9.96875 28.1049 9.83523C28.0027 9.7017 27.8635 9.59233 27.6873 9.5071C27.5112 9.42187 27.291 9.37926 27.0268 9.37926C26.666 9.37926 26.3649 9.46023 26.1234 9.62216C25.8819 9.78125 25.7612 9.98722 25.7612 10.2401C25.7612 10.4588 25.8422 10.6349 26.0041 10.7685C26.166 10.902 26.4274 11.0114 26.7882 11.0966L27.8279 11.3352C28.4302 11.4744 28.8791 11.6889 29.1745 11.9787C29.47 12.2685 29.6177 12.6449 29.6177 13.108C29.6177 13.5 29.5041 13.8494 29.2768 14.1562C29.0524 14.4602 28.7385 14.6989 28.335 14.8722C27.9345 15.0455 27.47 15.1321 26.9416 15.1321C26.2086 15.1321 25.6106 14.9759 25.1475 14.6634C24.6845 14.348 24.4004 13.9006 24.2953 13.321L25.5268 13.1335C25.6035 13.4545 25.7612 13.6974 25.9998 13.8622C26.2385 14.0241 26.5495 14.1051 26.9331 14.1051C27.3507 14.1051 27.6845 14.0185 27.9345 13.8452C28.1845 13.669 28.3095 13.4545 28.3095 13.2017C28.3095 12.9972 28.2328 12.8253 28.0794 12.6861C27.9288 12.5469 27.6973 12.4418 27.3848 12.3707L26.2768 12.1278C25.666 11.9886 25.2143 11.767 24.9217 11.4631C24.6319 11.1591 24.487 10.7741 24.487 10.3082C24.487 9.92187 24.595 9.58381 24.8109 9.29403C25.0268 9.00426 25.3251 8.77841 25.7058 8.61648C26.0865 8.4517 26.5225 8.36932 27.014 8.36932C27.7214 8.36932 28.2782 8.52273 28.6845 8.82955C29.0907 9.13352 29.3592 9.54119 29.4899 10.0526ZM33.8397 15.1321C33.1948 15.1321 32.6394 14.9943 32.1735 14.7188C31.7104 14.4403 31.3525 14.0497 31.0996 13.5469C30.8496 13.0412 30.7246 12.4489 30.7246 11.7699C30.7246 11.0994 30.8496 10.5085 31.0996 9.99716C31.3525 9.4858 31.7047 9.08665 32.1564 8.79972C32.611 8.51278 33.1422 8.36932 33.7502 8.36932C34.1195 8.36932 34.4775 8.4304 34.824 8.55256C35.1706 8.67472 35.4817 8.86648 35.7573 9.12784C36.0328 9.3892 36.2502 9.72869 36.4093 10.1463C36.5684 10.5611 36.6479 11.0653 36.6479 11.6591V12.1108H31.4448V11.1562H35.3993C35.3993 10.821 35.3311 10.5241 35.1948 10.2656C35.0584 10.0043 34.8667 9.7983 34.6195 9.64773C34.3752 9.49716 34.0882 9.42188 33.7587 9.42188C33.4007 9.42188 33.0882 9.50994 32.8212 9.68608C32.557 9.85937 32.3525 10.0866 32.2076 10.3679C32.0655 10.6463 31.9945 10.9489 31.9945 11.2756V12.0213C31.9945 12.4588 32.0712 12.831 32.2246 13.1378C32.3809 13.4446 32.5982 13.679 32.8766 13.8409C33.155 14 33.4803 14.0795 33.8525 14.0795C34.0939 14.0795 34.3141 14.0455 34.513 13.9773C34.7118 13.9062 34.8837 13.8011 35.0286 13.6619C35.1735 13.5227 35.2843 13.3509 35.361 13.1463L36.5669 13.3636C36.4703 13.7187 36.2971 14.0298 36.0471 14.2969C35.7999 14.5611 35.4888 14.767 35.1138 14.9148C34.7417 15.0597 34.3169 15.1321 33.8397 15.1321ZM41.2374 17.4545V8.45455H42.4817V9.51562H42.5882C42.6621 9.37926 42.7686 9.22159 42.9078 9.04261C43.0471 8.86364 43.2402 8.70739 43.4874 8.57386C43.7346 8.4375 44.0613 8.36932 44.4675 8.36932C44.9959 8.36932 45.4675 8.50284 45.8823 8.76989C46.2971 9.03693 46.6223 9.42187 46.8581 9.92472C47.0968 10.4276 47.2161 11.0327 47.2161 11.7401C47.2161 12.4474 47.0982 13.054 46.8624 13.5597C46.6266 14.0625 46.3027 14.4503 45.8908 14.723C45.4789 14.9929 45.0087 15.1278 44.4803 15.1278C44.0826 15.1278 43.7573 15.0611 43.5044 14.9276C43.2544 14.794 43.0584 14.6378 42.9164 14.4588C42.7743 14.2798 42.665 14.1207 42.5882 13.9815H42.5115V17.4545H41.2374ZM42.486 11.7273C42.486 12.1875 42.5527 12.5909 42.6863 12.9375C42.8198 13.2841 43.013 13.5554 43.2658 13.7514C43.5186 13.9446 43.8283 14.0412 44.1948 14.0412C44.5755 14.0412 44.8936 13.9403 45.1493 13.7386C45.405 13.5341 45.5982 13.2571 45.7289 12.9077C45.8624 12.5582 45.9292 12.1648 45.9292 11.7273C45.9292 11.2955 45.8638 10.9077 45.7331 10.5639C45.6053 10.2202 45.4121 9.94886 45.1536 9.75C44.8979 9.55114 44.5783 9.4517 44.1948 9.4517C43.8255 9.4517 43.513 9.54687 43.2573 9.73722C43.0044 9.92756 42.8127 10.1932 42.682 10.5341C42.5513 10.875 42.486 11.2727 42.486 11.7273ZM51.4647 15.1321C50.8198 15.1321 50.2644 14.9943 49.7985 14.7188C49.3354 14.4403 48.9775 14.0497 48.7246 13.5469C48.4746 13.0412 48.3496 12.4489 48.3496 11.7699C48.3496 11.0994 48.4746 10.5085 48.7246 9.99716C48.9775 9.4858 49.3297 9.08665 49.7814 8.79972C50.236 8.51278 50.7672 8.36932 51.3752 8.36932C51.7445 8.36932 52.1025 8.4304 52.449 8.55256C52.7956 8.67472 53.1067 8.86648 53.3823 9.12784C53.6578 9.3892 53.8752 9.72869 54.0343 10.1463C54.1934 10.5611 54.2729 11.0653 54.2729 11.6591V12.1108H49.0698V11.1562H53.0243C53.0243 10.821 52.9561 10.5241 52.8198 10.2656C52.6834 10.0043 52.4917 9.7983 52.2445 9.64773C52.0002 9.49716 51.7132 9.42188 51.3837 9.42188C51.0257 9.42188 50.7132 9.50994 50.4462 9.68608C50.182 9.85937 49.9775 10.0866 49.8326 10.3679C49.6905 10.6463 49.6195 10.9489 49.6195 11.2756V12.0213C49.6195 12.4588 49.6962 12.831 49.8496 13.1378C50.0059 13.4446 50.2232 13.679 50.5016 13.8409C50.78 14 51.1053 14.0795 51.4775 14.0795C51.7189 14.0795 51.9391 14.0455 52.138 13.9773C52.3368 13.9062 52.5087 13.8011 52.6536 13.6619C52.7985 13.5227 52.9093 13.3509 52.986 13.1463L54.1919 13.3636C54.0953 13.7187 53.9221 14.0298 53.6721 14.2969C53.4249 14.5611 53.1138 14.767 52.7388 14.9148C52.3667 15.0597 51.9419 15.1321 51.4647 15.1321ZM56.9608 11.1136V15H55.6866V8.45455H56.9096V9.51989H56.9906C57.1412 9.1733 57.377 8.89489 57.698 8.68466C58.0218 8.47443 58.4295 8.36932 58.921 8.36932C59.367 8.36932 59.7576 8.46307 60.0929 8.65057C60.4281 8.83523 60.688 9.1108 60.8727 9.47727C61.0574 9.84375 61.1497 10.2969 61.1497 10.8366V15H59.8755V10.9901C59.8755 10.5156 59.752 10.1449 59.5048 9.87784C59.2576 9.60795 58.9181 9.47301 58.4863 9.47301C58.1909 9.47301 57.9281 9.53693 57.698 9.66477C57.4707 9.79261 57.2903 9.98011 57.1568 10.2273C57.0261 10.4716 56.9608 10.767 56.9608 11.1136ZM65.3088 15.1278C64.7804 15.1278 64.3088 14.9929 63.894 14.723C63.4821 14.4503 63.1582 14.0625 62.9224 13.5597C62.6895 13.054 62.573 12.4474 62.573 11.7401C62.573 11.0327 62.6909 10.4276 62.9267 9.92472C63.1653 9.42187 63.492 9.03693 63.9068 8.76989C64.3216 8.50284 64.7917 8.36932 65.3173 8.36932C65.7235 8.36932 66.0502 8.4375 66.2974 8.57386C66.5474 8.70739 66.7406 8.86364 66.877 9.04261C67.0162 9.22159 67.1241 9.37926 67.2008 9.51562H67.2775V6.27273H68.5517V15H67.3074V13.9815H67.2008C67.1241 14.1207 67.0133 14.2798 66.8684 14.4588C66.7264 14.6378 66.5304 14.794 66.2804 14.9276C66.0304 15.0611 65.7065 15.1278 65.3088 15.1278ZM65.59 14.0412C65.9565 14.0412 66.2662 13.9446 66.519 13.7514C66.7747 13.5554 66.9679 13.2841 67.0985 12.9375C67.2321 12.5909 67.2988 12.1875 67.2988 11.7273C67.2988 11.2727 67.2335 10.875 67.1028 10.5341C66.9721 10.1932 66.7804 9.92756 66.5275 9.73722C66.2747 9.54687 65.9622 9.4517 65.59 9.4517C65.2065 9.4517 64.8869 9.55114 64.6312 9.75C64.3755 9.94886 64.1824 10.2202 64.0517 10.5639C63.9238 10.9077 63.8599 11.2955 63.8599 11.7273C63.8599 12.1648 63.9252 12.5582 64.0559 12.9077C64.1866 13.2571 64.3798 13.5341 64.6355 13.7386C64.894 13.9403 65.2122 14.0412 65.59 14.0412ZM70.3702 15V8.45455H71.6444V15H70.3702ZM71.0137 7.4446C70.7921 7.4446 70.6017 7.37074 70.4426 7.22301C70.2864 7.07244 70.2083 6.89347 70.2083 6.68608C70.2083 6.47585 70.2864 6.29687 70.4426 6.14915C70.6017 5.99858 70.7921 5.9233 71.0137 5.9233C71.2353 5.9233 71.4242 5.99858 71.5804 6.14915C71.7395 6.29687 71.8191 6.47585 71.8191 6.68608C71.8191 6.89347 71.7395 7.07244 71.5804 7.22301C71.4242 7.37074 71.2353 7.4446 71.0137 7.4446ZM74.6326 11.1136V15H73.3585V8.45455H74.5815V9.51989H74.6625C74.813 9.1733 75.0488 8.89489 75.3699 8.68466C75.6937 8.47443 76.1014 8.36932 76.5929 8.36932C77.0389 8.36932 77.4295 8.46307 77.7647 8.65057C78.1 8.83523 78.3599 9.1108 78.5446 9.47727C78.7292 9.84375 78.8216 10.2969 78.8216 10.8366V15H77.5474V10.9901C77.5474 10.5156 77.4238 10.1449 77.1767 9.87784C76.9295 9.60795 76.59 9.47301 76.1582 9.47301C75.8627 9.47301 75.6 9.53693 75.3699 9.66477C75.1426 9.79261 74.9622 9.98011 74.8287 10.2273C74.698 10.4716 74.6326 10.767 74.6326 11.1136ZM83.2747 17.5909C82.7548 17.5909 82.3074 17.5227 81.9324 17.3864C81.5602 17.25 81.2562 17.0696 81.0204 16.8452C80.7846 16.6207 80.6085 16.375 80.492 16.108L81.5872 15.6562C81.6639 15.7812 81.7662 15.9134 81.894 16.0526C82.0247 16.1946 82.2008 16.3153 82.4224 16.4148C82.6468 16.5142 82.9352 16.5639 83.2875 16.5639C83.7704 16.5639 84.1696 16.446 84.4849 16.2102C84.8002 15.9773 84.9579 15.6051 84.9579 15.0938V13.8068H84.877C84.8002 13.946 84.6895 14.1009 84.5446 14.2713C84.4025 14.4418 84.2065 14.5895 83.9565 14.7145C83.7065 14.8395 83.3812 14.902 82.9806 14.902C82.4636 14.902 81.9977 14.7812 81.5829 14.5398C81.171 14.2955 80.8443 13.9361 80.6028 13.4616C80.3642 12.9844 80.2449 12.3977 80.2449 11.7017C80.2449 11.0057 80.3627 10.4091 80.5985 9.91193C80.8372 9.41477 81.1639 9.03409 81.5787 8.76989C81.9934 8.50284 82.4636 8.36932 82.9892 8.36932C83.3954 8.36932 83.7235 8.4375 83.9735 8.57386C84.2235 8.70739 84.4181 8.86364 84.5574 9.04261C84.6994 9.22159 84.8088 9.37926 84.8855 9.51562H84.9792V8.45455H86.2278V15.1449C86.2278 15.7074 86.0971 16.169 85.8358 16.5298C85.5744 16.8906 85.2207 17.1577 84.7747 17.331C84.3315 17.5043 83.8315 17.5909 83.2747 17.5909ZM83.2619 13.8452C83.6284 13.8452 83.938 13.7599 84.1909 13.5895C84.4466 13.4162 84.6397 13.169 84.7704 12.848C84.9039 12.5241 84.9707 12.1364 84.9707 11.6847C84.9707 11.2443 84.9054 10.8565 84.7747 10.5213C84.644 10.1861 84.4522 9.92472 84.1994 9.73722C83.9466 9.54687 83.6341 9.4517 83.2619 9.4517C82.8784 9.4517 82.5588 9.55114 82.3031 9.75C82.0474 9.94602 81.8542 10.2131 81.7235 10.5511C81.5957 10.8892 81.5318 11.267 81.5318 11.6847C81.5318 12.1136 81.5971 12.4901 81.7278 12.8139C81.8585 13.1378 82.0517 13.3906 82.3074 13.5724C82.5659 13.7543 82.8841 13.8452 83.2619 13.8452ZM93.8695 15.1321C93.236 15.1321 92.6905 14.9886 92.2331 14.7017C91.7786 14.4119 91.4292 14.0128 91.1848 13.5043C90.9405 12.9957 90.8184 12.4134 90.8184 11.7571C90.8184 11.0923 90.9434 10.5057 91.1934 9.99716C91.4434 9.4858 91.7956 9.08665 92.2502 8.79972C92.7047 8.51278 93.2402 8.36932 93.8567 8.36932C94.3539 8.36932 94.7971 8.46165 95.1863 8.64631C95.5755 8.82812 95.8894 9.08381 96.128 9.41335C96.3695 9.7429 96.513 10.1278 96.5584 10.5682H95.3184C95.2502 10.2614 95.0939 9.99716 94.8496 9.77557C94.6081 9.55398 94.2843 9.44318 93.878 9.44318C93.5229 9.44318 93.2118 9.53693 92.9448 9.72443C92.6806 9.90909 92.4746 10.1733 92.3269 10.517C92.1792 10.858 92.1053 11.2614 92.1053 11.7273C92.1053 12.2045 92.1777 12.6165 92.3226 12.9631C92.4675 13.3097 92.6721 13.5781 92.9363 13.7685C93.2033 13.9588 93.5172 14.054 93.878 14.054C94.1195 14.054 94.3382 14.0099 94.5343 13.9219C94.7331 13.831 94.8993 13.7017 95.0328 13.5341C95.1692 13.3665 95.2644 13.1648 95.3184 12.929H96.5584C96.513 13.3523 96.3752 13.7301 96.1451 14.0625C95.915 14.3949 95.6067 14.6562 95.2203 14.8466C94.8368 15.0369 94.3865 15.1321 93.8695 15.1321ZM100.678 15.1321C100.064 15.1321 99.5289 14.9915 99.0716 14.7102C98.6142 14.429 98.2591 14.0355 98.0062 13.5298C97.7534 13.0241 97.627 12.4332 97.627 11.7571C97.627 11.0781 97.7534 10.4844 98.0062 9.97585C98.2591 9.46733 98.6142 9.07244 99.0716 8.79119C99.5289 8.50994 100.064 8.36932 100.678 8.36932C101.292 8.36932 101.827 8.50994 102.285 8.79119C102.742 9.07244 103.097 9.46733 103.35 9.97585C103.603 10.4844 103.729 11.0781 103.729 11.7571C103.729 12.4332 103.603 13.0241 103.35 13.5298C103.097 14.0355 102.742 14.429 102.285 14.7102C101.827 14.9915 101.292 15.1321 100.678 15.1321ZM100.682 14.0625C101.08 14.0625 101.41 13.9574 101.671 13.7472C101.932 13.5369 102.126 13.2571 102.251 12.9077C102.378 12.5582 102.442 12.1733 102.442 11.7528C102.442 11.3352 102.378 10.9517 102.251 10.6023C102.126 10.25 101.932 9.96733 101.671 9.75426C101.41 9.54119 101.08 9.43466 100.682 9.43466C100.282 9.43466 99.9494 9.54119 99.6852 9.75426C99.4238 9.96733 99.2292 10.25 99.1014 10.6023C98.9764 10.9517 98.9139 11.3352 98.9139 11.7528C98.9139 12.1733 98.9764 12.5582 99.1014 12.9077C99.2292 13.2571 99.4238 13.5369 99.6852 13.7472C99.9494 13.9574 100.282 14.0625 100.682 14.0625ZM106.426 11.1136V15H105.151V8.45455H106.374V9.51989H106.455C106.606 9.1733 106.842 8.89489 107.163 8.68466C107.487 8.47443 107.894 8.36932 108.386 8.36932C108.832 8.36932 109.222 8.46307 109.558 8.65057C109.893 8.83523 110.153 9.1108 110.338 9.47727C110.522 9.84375 110.615 10.2969 110.615 10.8366V15H109.34V10.9901C109.34 10.5156 109.217 10.1449 108.97 9.87784C108.722 9.60795 108.383 9.47301 107.951 9.47301C107.656 9.47301 107.393 9.53693 107.163 9.66477C106.936 9.79261 106.755 9.98011 106.622 10.2273C106.491 10.4716 106.426 10.767 106.426 11.1136ZM115.08 15.1321C114.447 15.1321 113.901 14.9886 113.444 14.7017C112.99 14.4119 112.64 14.0128 112.396 13.5043C112.151 12.9957 112.029 12.4134 112.029 11.7571C112.029 11.0923 112.154 10.5057 112.404 9.99716C112.654 9.4858 113.007 9.08665 113.461 8.79972C113.916 8.51278 114.451 8.36932 115.068 8.36932C115.565 8.36932 116.008 8.46165 116.397 8.64631C116.786 8.82812 117.1 9.08381 117.339 9.41335C117.58 9.7429 117.724 10.1278 117.769 10.5682H116.529C116.461 10.2614 116.305 9.99716 116.061 9.77557C115.819 9.55398 115.495 9.44318 115.089 9.44318C114.734 9.44318 114.423 9.53693 114.156 9.72443C113.892 9.90909 113.686 10.1733 113.538 10.517C113.39 10.858 113.316 11.2614 113.316 11.7273C113.316 12.2045 113.389 12.6165 113.534 12.9631C113.678 13.3097 113.883 13.5781 114.147 13.7685C114.414 13.9588 114.728 14.054 115.089 14.054C115.33 14.054 115.549 14.0099 115.745 13.9219C115.944 13.831 116.11 13.7017 116.244 13.5341C116.38 13.3665 116.475 13.1648 116.529 12.929H117.769C117.724 13.3523 117.586 13.7301 117.356 14.0625C117.126 14.3949 116.818 14.6562 116.431 14.8466C116.048 15.0369 115.597 15.1321 115.08 15.1321ZM119.132 15V8.45455H120.406V15H119.132ZM119.775 7.4446C119.554 7.4446 119.363 7.37074 119.204 7.22301C119.048 7.07244 118.97 6.89347 118.97 6.68608C118.97 6.47585 119.048 6.29687 119.204 6.14915C119.363 5.99858 119.554 5.9233 119.775 5.9233C119.997 5.9233 120.186 5.99858 120.342 6.14915C120.501 6.29687 120.581 6.47585 120.581 6.68608C120.581 6.89347 120.501 7.07244 120.342 7.22301C120.186 7.37074 119.997 7.4446 119.775 7.4446ZM123.394 6.27273V15H122.12V6.27273H123.394ZM125.108 15V8.45455H126.383V15H125.108ZM125.752 7.4446C125.53 7.4446 125.34 7.37074 125.181 7.22301C125.025 7.07244 124.947 6.89347 124.947 6.68608C124.947 6.47585 125.025 6.29687 125.181 6.14915C125.34 5.99858 125.53 5.9233 125.752 5.9233C125.974 5.9233 126.162 5.99858 126.319 6.14915C126.478 6.29687 126.557 6.47585 126.557 6.68608C126.557 6.89347 126.478 7.07244 126.319 7.22301C126.162 7.37074 125.974 7.4446 125.752 7.4446ZM130.002 15.1449C129.587 15.1449 129.212 15.0682 128.877 14.9148C128.541 14.7585 128.276 14.5327 128.08 14.2372C127.887 13.9418 127.79 13.5795 127.79 13.1506C127.79 12.7812 127.861 12.4773 128.003 12.2386C128.145 12 128.337 11.8111 128.578 11.6719C128.82 11.5327 129.09 11.4276 129.388 11.3565C129.686 11.2855 129.99 11.2315 130.3 11.1946C130.692 11.1491 131.01 11.1122 131.254 11.0838C131.499 11.0526 131.676 11.0028 131.787 10.9347C131.898 10.8665 131.953 10.7557 131.953 10.6023V10.5724C131.953 10.2003 131.848 9.91193 131.638 9.70739C131.431 9.50284 131.121 9.40057 130.709 9.40057C130.28 9.40057 129.942 9.49574 129.695 9.68608C129.45 9.87358 129.281 10.0824 129.188 10.3125L127.99 10.0398C128.132 9.64205 128.34 9.32102 128.612 9.0767C128.888 8.82955 129.205 8.65057 129.563 8.53977C129.921 8.42614 130.297 8.36932 130.692 8.36932C130.953 8.36932 131.23 8.40057 131.523 8.46307C131.818 8.52273 132.094 8.63352 132.35 8.79545C132.608 8.95739 132.82 9.18892 132.985 9.49006C133.149 9.78835 133.232 10.1761 133.232 10.6534V15H131.987V14.1051H131.936C131.854 14.2699 131.73 14.4318 131.566 14.5909C131.401 14.75 131.189 14.8821 130.931 14.9872C130.672 15.0923 130.362 15.1449 130.002 15.1449ZM130.279 14.1222C130.631 14.1222 130.932 14.0526 131.182 13.9134C131.435 13.7741 131.627 13.5923 131.757 13.3679C131.891 13.1406 131.958 12.8977 131.958 12.6392V11.7955C131.912 11.8409 131.824 11.8835 131.693 11.9233C131.566 11.9602 131.419 11.9929 131.254 12.0213C131.09 12.0469 130.929 12.071 130.773 12.0938C130.617 12.1136 130.486 12.1307 130.381 12.1449C130.134 12.1761 129.908 12.2287 129.703 12.3026C129.502 12.3764 129.34 12.483 129.218 12.6222C129.098 12.7585 129.039 12.9403 129.039 13.1676C129.039 13.483 129.155 13.7216 129.388 13.8835C129.621 14.0426 129.918 14.1222 130.279 14.1222ZM137.984 8.45455V9.47727H134.409V8.45455H137.984ZM135.368 6.88636H136.642V13.0781C136.642 13.3253 136.679 13.5114 136.753 13.6364C136.827 13.7585 136.922 13.8423 137.038 13.8878C137.157 13.9304 137.287 13.9517 137.426 13.9517C137.528 13.9517 137.618 13.9446 137.694 13.9304C137.771 13.9162 137.831 13.9048 137.873 13.8963L138.104 14.9489C138.03 14.9773 137.925 15.0057 137.788 15.0341C137.652 15.0653 137.481 15.0824 137.277 15.0852C136.942 15.0909 136.629 15.0312 136.339 14.9062C136.05 14.7812 135.815 14.5881 135.636 14.3267C135.457 14.0653 135.368 13.7372 135.368 13.3423V6.88636ZM139.394 15V8.45455H140.668V15H139.394ZM140.037 7.4446C139.816 7.4446 139.625 7.37074 139.466 7.22301C139.31 7.07244 139.232 6.89347 139.232 6.68608C139.232 6.47585 139.31 6.29687 139.466 6.14915C139.625 5.99858 139.816 5.9233 140.037 5.9233C140.259 5.9233 140.448 5.99858 140.604 6.14915C140.763 6.29687 140.843 6.47585 140.843 6.68608C140.843 6.89347 140.763 7.07244 140.604 7.22301C140.448 7.37074 140.259 7.4446 140.037 7.4446ZM145.139 15.1321C144.525 15.1321 143.99 14.9915 143.532 14.7102C143.075 14.429 142.72 14.0355 142.467 13.5298C142.214 13.0241 142.088 12.4332 142.088 11.7571C142.088 11.0781 142.214 10.4844 142.467 9.97585C142.72 9.46733 143.075 9.07244 143.532 8.79119C143.99 8.50994 144.525 8.36932 145.139 8.36932C145.753 8.36932 146.288 8.50994 146.746 8.79119C147.203 9.07244 147.558 9.46733 147.811 9.97585C148.064 10.4844 148.19 11.0781 148.19 11.7571C148.19 12.4332 148.064 13.0241 147.811 13.5298C147.558 14.0355 147.203 14.429 146.746 14.7102C146.288 14.9915 145.753 15.1321 145.139 15.1321ZM145.143 14.0625C145.541 14.0625 145.871 13.9574 146.132 13.7472C146.393 13.5369 146.586 13.2571 146.711 12.9077C146.839 12.5582 146.903 12.1733 146.903 11.7528C146.903 11.3352 146.839 10.9517 146.711 10.6023C146.586 10.25 146.393 9.96733 146.132 9.75426C145.871 9.54119 145.541 9.43466 145.143 9.43466C144.743 9.43466 144.41 9.54119 144.146 9.75426C143.885 9.96733 143.69 10.25 143.562 10.6023C143.437 10.9517 143.375 11.3352 143.375 11.7528C143.375 12.1733 143.437 12.5582 143.562 12.9077C143.69 13.2571 143.885 13.5369 144.146 13.7472C144.41 13.9574 144.743 14.0625 145.143 14.0625ZM150.887 11.1136V15H149.612V8.45455H150.835V9.51989H150.916C151.067 9.1733 151.303 8.89489 151.624 8.68466C151.948 8.47443 152.355 8.36932 152.847 8.36932C153.293 8.36932 153.683 8.46307 154.019 8.65057C154.354 8.83523 154.614 9.1108 154.798 9.47727C154.983 9.84375 155.075 10.2969 155.075 10.8366V15H153.801V10.9901C153.801 10.5156 153.678 10.1449 153.431 9.87784C153.183 9.60795 152.844 9.47301 152.412 9.47301C152.117 9.47301 151.854 9.53693 151.624 9.66477C151.396 9.79261 151.216 9.98011 151.083 10.2273C150.952 10.4716 150.887 10.767 150.887 11.1136Z" fill="#3538CD"/>
</g>
</svg>
