<svg width="158" height="22" viewBox="0 0 158 22" fill="none" xmlns="http://www.w3.org/2000/svg">
<g style="mix-blend-mode:multiply">
<rect width="158" height="22" rx="11" fill="#F4F3FF"/>
<path d="M16.2972 9.1108H14.9677C14.9165 8.8267 14.8214 8.5767 14.6822 8.3608C14.543 8.14489 14.3725 7.96165 14.1708 7.81108C13.9691 7.66051 13.7433 7.54687 13.4933 7.47017C13.2461 7.39347 12.9833 7.35511 12.7049 7.35511C12.2021 7.35511 11.7518 7.48153 11.354 7.73438C10.9592 7.98722 10.6467 8.35795 10.4165 8.84659C10.1893 9.33523 10.0756 9.93182 10.0756 10.6364C10.0756 11.3466 10.1893 11.946 10.4165 12.4347C10.6467 12.9233 10.9606 13.2926 11.3583 13.5426C11.756 13.7926 12.2035 13.9176 12.7006 13.9176C12.9762 13.9176 13.2376 13.8807 13.4847 13.8068C13.7347 13.7301 13.9606 13.6179 14.1623 13.4702C14.364 13.3224 14.5344 13.142 14.6737 12.929C14.8157 12.7131 14.9137 12.4659 14.9677 12.1875L16.2972 12.1918C16.2262 12.6207 16.0884 13.0156 15.8839 13.3764C15.6822 13.7344 15.4222 14.044 15.104 14.3054C14.7887 14.5639 14.4279 14.7642 14.0217 14.9062C13.6154 15.0483 13.1722 15.1193 12.6921 15.1193C11.9364 15.1193 11.2631 14.9403 10.6722 14.5824C10.0813 14.2216 9.61541 13.706 9.2745 13.0355C8.93643 12.3651 8.7674 11.5653 8.7674 10.6364C8.7674 9.70455 8.93786 8.90483 9.27876 8.23722C9.61967 7.56676 10.0856 7.05256 10.6765 6.6946C11.2674 6.33381 11.9393 6.15341 12.6921 6.15341C13.1552 6.15341 13.587 6.22017 13.9876 6.35369C14.391 6.48437 14.7532 6.67756 15.0742 6.93324C15.3952 7.18608 15.6609 7.49574 15.8711 7.86222C16.0813 8.22585 16.2234 8.64205 16.2972 9.1108ZM19.6754 15.1449C19.2607 15.1449 18.8857 15.0682 18.5504 14.9148C18.2152 14.7585 17.9496 14.5327 17.7536 14.2372C17.5604 13.9418 17.4638 13.5795 17.4638 13.1506C17.4638 12.7812 17.5348 12.4773 17.6768 12.2386C17.8189 12 18.0107 11.8111 18.2521 11.6719C18.4936 11.5327 18.7635 11.4276 19.0618 11.3565C19.3601 11.2855 19.6641 11.2315 19.9737 11.1946C20.3658 11.1491 20.6839 11.1122 20.9283 11.0838C21.1726 11.0526 21.3501 11.0028 21.4609 10.9347C21.5717 10.8665 21.6271 10.7557 21.6271 10.6023V10.5724C21.6271 10.2003 21.522 9.91193 21.3118 9.70739C21.1044 9.50284 20.7947 9.40057 20.3828 9.40057C19.9538 9.40057 19.6158 9.49574 19.3686 9.68608C19.1243 9.87358 18.9553 10.0824 18.8615 10.3125L17.6641 10.0398C17.8061 9.64205 18.0135 9.32102 18.2862 9.0767C18.5618 8.82955 18.8786 8.65057 19.2365 8.53977C19.5945 8.42614 19.9709 8.36932 20.3658 8.36932C20.6271 8.36932 20.9041 8.40057 21.1967 8.46307C21.4922 8.52273 21.7678 8.63352 22.0234 8.79545C22.282 8.95739 22.4936 9.18892 22.6584 9.49006C22.8232 9.78835 22.9055 10.1761 22.9055 10.6534V15H21.6612V14.1051H21.6101C21.5277 14.2699 21.4041 14.4318 21.2393 14.5909C21.0746 14.75 20.8629 14.8821 20.6044 14.9872C20.3459 15.0923 20.0362 15.1449 19.6754 15.1449ZM19.9524 14.1222C20.3047 14.1222 20.6058 14.0526 20.8558 13.9134C21.1087 13.7741 21.3004 13.5923 21.4311 13.3679C21.5646 13.1406 21.6314 12.8977 21.6314 12.6392V11.7955C21.5859 11.8409 21.4979 11.8835 21.3672 11.9233C21.2393 11.9602 21.093 11.9929 20.9283 12.0213C20.7635 12.0469 20.603 12.071 20.4467 12.0938C20.2905 12.1136 20.1598 12.1307 20.0547 12.1449C19.8075 12.1761 19.5817 12.2287 19.3771 12.3026C19.1754 12.3764 19.0135 12.483 18.8913 12.6222C18.772 12.7585 18.7124 12.9403 18.7124 13.1676C18.7124 13.483 18.8288 13.7216 19.0618 13.8835C19.2947 14.0426 19.5916 14.1222 19.9524 14.1222ZM29.5075 10.0526L28.3526 10.2571C28.3043 10.1094 28.2276 9.96875 28.1225 9.83523C28.0202 9.7017 27.881 9.59233 27.7049 9.5071C27.5288 9.42187 27.3086 9.37926 27.0444 9.37926C26.6836 9.37926 26.3825 9.46023 26.141 9.62216C25.8995 9.78125 25.7788 9.98722 25.7788 10.2401C25.7788 10.4588 25.8597 10.6349 26.0217 10.7685C26.1836 10.902 26.445 11.0114 26.8058 11.0966L27.8455 11.3352C28.4478 11.4744 28.8967 11.6889 29.1921 11.9787C29.4876 12.2685 29.6353 12.6449 29.6353 13.108C29.6353 13.5 29.5217 13.8494 29.2944 14.1562C29.07 14.4602 28.756 14.6989 28.3526 14.8722C27.9521 15.0455 27.4876 15.1321 26.9592 15.1321C26.2262 15.1321 25.6282 14.9759 25.1651 14.6634C24.7021 14.348 24.418 13.9006 24.3129 13.321L25.5444 13.1335C25.6211 13.4545 25.7788 13.6974 26.0174 13.8622C26.256 14.0241 26.5671 14.1051 26.9506 14.1051C27.3683 14.1051 27.7021 14.0185 27.9521 13.8452C28.2021 13.669 28.3271 13.4545 28.3271 13.2017C28.3271 12.9972 28.2504 12.8253 28.0969 12.6861C27.9464 12.5469 27.7148 12.4418 27.4023 12.3707L26.2944 12.1278C25.6836 11.9886 25.2319 11.767 24.9393 11.4631C24.6495 11.1591 24.5046 10.7741 24.5046 10.3082C24.5046 9.92187 24.6126 9.58381 24.8285 9.29403C25.0444 9.00426 25.3427 8.77841 25.7234 8.61648C26.104 8.4517 26.5401 8.36932 27.0316 8.36932C27.739 8.36932 28.2958 8.52273 28.7021 8.82955C29.1083 9.13352 29.3768 9.54119 29.5075 10.0526ZM33.8572 15.1321C33.2124 15.1321 32.657 14.9943 32.1911 14.7188C31.728 14.4403 31.37 14.0497 31.1172 13.5469C30.8672 13.0412 30.7422 12.4489 30.7422 11.7699C30.7422 11.0994 30.8672 10.5085 31.1172 9.99716C31.37 9.4858 31.7223 9.08665 32.174 8.79972C32.6286 8.51278 33.1598 8.36932 33.7678 8.36932C34.1371 8.36932 34.495 8.4304 34.8416 8.55256C35.1882 8.67472 35.4993 8.86648 35.7749 9.12784C36.0504 9.3892 36.2678 9.72869 36.4268 10.1463C36.5859 10.5611 36.6655 11.0653 36.6655 11.6591V12.1108H31.4624V11.1562H35.4169C35.4169 10.821 35.3487 10.5241 35.2124 10.2656C35.076 10.0043 34.8842 9.7983 34.6371 9.64773C34.3928 9.49716 34.1058 9.42188 33.7763 9.42188C33.4183 9.42188 33.1058 9.50994 32.8388 9.68608C32.5746 9.85937 32.37 10.0866 32.2251 10.3679C32.0831 10.6463 32.0121 10.9489 32.0121 11.2756V12.0213C32.0121 12.4588 32.0888 12.831 32.2422 13.1378C32.3984 13.4446 32.6158 13.679 32.8942 13.8409C33.1726 14 33.4979 14.0795 33.87 14.0795C34.1115 14.0795 34.3317 14.0455 34.5305 13.9773C34.7294 13.9062 34.9013 13.8011 35.0462 13.6619C35.1911 13.5227 35.3018 13.3509 35.3786 13.1463L36.5845 13.3636C36.4879 13.7187 36.3146 14.0298 36.0646 14.2969C35.8175 14.5611 35.5064 14.767 35.1314 14.9148C34.7592 15.0597 34.3345 15.1321 33.8572 15.1321ZM41.255 17.4545V8.45455H42.4993V9.51562H42.6058C42.6797 9.37926 42.7862 9.22159 42.9254 9.04261C43.0646 8.86364 43.2578 8.70739 43.505 8.57386C43.7521 8.4375 44.0788 8.36932 44.4851 8.36932C45.0135 8.36932 45.4851 8.50284 45.8999 8.76989C46.3146 9.03693 46.6399 9.42187 46.8757 9.92472C47.1143 10.4276 47.2337 11.0327 47.2337 11.7401C47.2337 12.4474 47.1158 13.054 46.88 13.5597C46.6442 14.0625 46.3203 14.4503 45.9084 14.723C45.4964 14.9929 45.0263 15.1278 44.4979 15.1278C44.1001 15.1278 43.7749 15.0611 43.522 14.9276C43.272 14.794 43.076 14.6378 42.9339 14.4588C42.7919 14.2798 42.6825 14.1207 42.6058 13.9815H42.5291V17.4545H41.255ZM42.5036 11.7273C42.5036 12.1875 42.5703 12.5909 42.7038 12.9375C42.8374 13.2841 43.0305 13.5554 43.2834 13.7514C43.5362 13.9446 43.8459 14.0412 44.2124 14.0412C44.593 14.0412 44.9112 13.9403 45.1669 13.7386C45.4226 13.5341 45.6158 13.2571 45.7464 12.9077C45.88 12.5582 45.9467 12.1648 45.9467 11.7273C45.9467 11.2955 45.8814 10.9077 45.7507 10.5639C45.6229 10.2202 45.4297 9.94886 45.1712 9.75C44.9155 9.55114 44.5959 9.4517 44.2124 9.4517C43.843 9.4517 43.5305 9.54687 43.2749 9.73722C43.022 9.92756 42.8303 10.1932 42.6996 10.5341C42.5689 10.875 42.5036 11.2727 42.5036 11.7273ZM51.4822 15.1321C50.8374 15.1321 50.282 14.9943 49.8161 14.7188C49.353 14.4403 48.995 14.0497 48.7422 13.5469C48.4922 13.0412 48.3672 12.4489 48.3672 11.7699C48.3672 11.0994 48.4922 10.5085 48.7422 9.99716C48.995 9.4858 49.3473 9.08665 49.799 8.79972C50.2536 8.51278 50.7848 8.36932 51.3928 8.36932C51.7621 8.36932 52.12 8.4304 52.4666 8.55256C52.8132 8.67472 53.1243 8.86648 53.3999 9.12784C53.6754 9.3892 53.8928 9.72869 54.0518 10.1463C54.2109 10.5611 54.2905 11.0653 54.2905 11.6591V12.1108H49.0874V11.1562H53.0419C53.0419 10.821 52.9737 10.5241 52.8374 10.2656C52.701 10.0043 52.5092 9.7983 52.2621 9.64773C52.0178 9.49716 51.7308 9.42188 51.4013 9.42188C51.0433 9.42188 50.7308 9.50994 50.4638 9.68608C50.1996 9.85937 49.995 10.0866 49.8501 10.3679C49.7081 10.6463 49.6371 10.9489 49.6371 11.2756V12.0213C49.6371 12.4588 49.7138 12.831 49.8672 13.1378C50.0234 13.4446 50.2408 13.679 50.5192 13.8409C50.7976 14 51.1229 14.0795 51.495 14.0795C51.7365 14.0795 51.9567 14.0455 52.1555 13.9773C52.3544 13.9062 52.5263 13.8011 52.6712 13.6619C52.8161 13.5227 52.9268 13.3509 53.0036 13.1463L54.2095 13.3636C54.1129 13.7187 53.9396 14.0298 53.6896 14.2969C53.4425 14.5611 53.1314 14.767 52.7564 14.9148C52.3842 15.0597 51.9595 15.1321 51.4822 15.1321ZM56.9783 11.1136V15H55.7042V8.45455H56.9272V9.51989H57.0082C57.1587 9.1733 57.3945 8.89489 57.7156 8.68466C58.0394 8.47443 58.4471 8.36932 58.9386 8.36932C59.3846 8.36932 59.7752 8.46307 60.1104 8.65057C60.4457 8.83523 60.7056 9.1108 60.8903 9.47727C61.0749 9.84375 61.1673 10.2969 61.1673 10.8366V15H59.8931V10.9901C59.8931 10.5156 59.7695 10.1449 59.5224 9.87784C59.2752 9.60795 58.9357 9.47301 58.5039 9.47301C58.2085 9.47301 57.9457 9.53693 57.7156 9.66477C57.4883 9.79261 57.3079 9.98011 57.1744 10.2273C57.0437 10.4716 56.9783 10.767 56.9783 11.1136ZM65.3263 15.1278C64.7979 15.1278 64.3263 14.9929 63.9116 14.723C63.4996 14.4503 63.1758 14.0625 62.94 13.5597C62.707 13.054 62.5906 12.4474 62.5906 11.7401C62.5906 11.0327 62.7085 10.4276 62.9442 9.92472C63.1829 9.42187 63.5096 9.03693 63.9244 8.76989C64.3391 8.50284 64.8093 8.36932 65.3349 8.36932C65.7411 8.36932 66.0678 8.4375 66.315 8.57386C66.565 8.70739 66.7582 8.86364 66.8945 9.04261C67.0337 9.22159 67.1417 9.37926 67.2184 9.51562H67.2951V6.27273H68.5692V15H67.3249V13.9815H67.2184C67.1417 14.1207 67.0309 14.2798 66.886 14.4588C66.744 14.6378 66.5479 14.794 66.2979 14.9276C66.0479 15.0611 65.7241 15.1278 65.3263 15.1278ZM65.6076 14.0412C65.9741 14.0412 66.2837 13.9446 66.5366 13.7514C66.7923 13.5554 66.9854 13.2841 67.1161 12.9375C67.2496 12.5909 67.3164 12.1875 67.3164 11.7273C67.3164 11.2727 67.2511 10.875 67.1204 10.5341C66.9897 10.1932 66.7979 9.92756 66.5451 9.73722C66.2923 9.54687 65.9798 9.4517 65.6076 9.4517C65.2241 9.4517 64.9045 9.55114 64.6488 9.75C64.3931 9.94886 64.1999 10.2202 64.0692 10.5639C63.9414 10.9077 63.8775 11.2955 63.8775 11.7273C63.8775 12.1648 63.9428 12.5582 64.0735 12.9077C64.2042 13.2571 64.3974 13.5341 64.6531 13.7386C64.9116 13.9403 65.2298 14.0412 65.6076 14.0412ZM70.3878 15V8.45455H71.6619V15H70.3878ZM71.0312 7.4446C70.8097 7.4446 70.6193 7.37074 70.4602 7.22301C70.304 7.07244 70.2259 6.89347 70.2259 6.68608C70.2259 6.47585 70.304 6.29687 70.4602 6.14915C70.6193 5.99858 70.8097 5.9233 71.0312 5.9233C71.2528 5.9233 71.4418 5.99858 71.598 6.14915C71.7571 6.29687 71.8366 6.47585 71.8366 6.68608C71.8366 6.89347 71.7571 7.07244 71.598 7.22301C71.4418 7.37074 71.2528 7.4446 71.0312 7.4446ZM74.6502 11.1136V15H73.3761V8.45455H74.5991V9.51989H74.68C74.8306 9.1733 75.0664 8.89489 75.3874 8.68466C75.7113 8.47443 76.119 8.36932 76.6104 8.36932C77.0565 8.36932 77.4471 8.46307 77.7823 8.65057C78.1175 8.83523 78.3775 9.1108 78.5621 9.47727C78.7468 9.84375 78.8391 10.2969 78.8391 10.8366V15H77.565V10.9901C77.565 10.5156 77.4414 10.1449 77.1942 9.87784C76.9471 9.60795 76.6076 9.47301 76.1758 9.47301C75.8803 9.47301 75.6175 9.53693 75.3874 9.66477C75.1602 9.79261 74.9798 9.98011 74.8462 10.2273C74.7156 10.4716 74.6502 10.767 74.6502 11.1136ZM83.2923 17.5909C82.7724 17.5909 82.3249 17.5227 81.9499 17.3864C81.5778 17.25 81.2738 17.0696 81.038 16.8452C80.8022 16.6207 80.6261 16.375 80.5096 16.108L81.6048 15.6562C81.6815 15.7812 81.7837 15.9134 81.9116 16.0526C82.0423 16.1946 82.2184 16.3153 82.44 16.4148C82.6644 16.5142 82.9528 16.5639 83.305 16.5639C83.788 16.5639 84.1871 16.446 84.5025 16.2102C84.8178 15.9773 84.9755 15.6051 84.9755 15.0938V13.8068H84.8945C84.8178 13.946 84.707 14.1009 84.5621 14.2713C84.4201 14.4418 84.2241 14.5895 83.9741 14.7145C83.7241 14.8395 83.3988 14.902 82.9982 14.902C82.4812 14.902 82.0153 14.7812 81.6005 14.5398C81.1886 14.2955 80.8619 13.9361 80.6204 13.4616C80.3817 12.9844 80.2624 12.3977 80.2624 11.7017C80.2624 11.0057 80.3803 10.4091 80.6161 9.91193C80.8548 9.41477 81.1815 9.03409 81.5962 8.76989C82.011 8.50284 82.4812 8.36932 83.0067 8.36932C83.413 8.36932 83.7411 8.4375 83.9911 8.57386C84.2411 8.70739 84.4357 8.86364 84.5749 9.04261C84.717 9.22159 84.8263 9.37926 84.9031 9.51562H84.9968V8.45455H86.2454V15.1449C86.2454 15.7074 86.1147 16.169 85.8533 16.5298C85.592 16.8906 85.2383 17.1577 84.7923 17.331C84.3491 17.5043 83.8491 17.5909 83.2923 17.5909ZM83.2795 13.8452C83.646 13.8452 83.9556 13.7599 84.2085 13.5895C84.4641 13.4162 84.6573 13.169 84.788 12.848C84.9215 12.5241 84.9883 12.1364 84.9883 11.6847C84.9883 11.2443 84.9229 10.8565 84.7923 10.5213C84.6616 10.1861 84.4698 9.92472 84.217 9.73722C83.9641 9.54687 83.6516 9.4517 83.2795 9.4517C82.896 9.4517 82.5763 9.55114 82.3207 9.75C82.065 9.94602 81.8718 10.2131 81.7411 10.5511C81.6133 10.8892 81.5494 11.267 81.5494 11.6847C81.5494 12.1136 81.6147 12.4901 81.7454 12.8139C81.8761 13.1378 82.0692 13.3906 82.3249 13.5724C82.5835 13.7543 82.9016 13.8452 83.2795 13.8452ZM93.0348 15.1449C92.62 15.1449 92.245 15.0682 91.9098 14.9148C91.5746 14.7585 91.3089 14.5327 91.1129 14.2372C90.9197 13.9418 90.8232 13.5795 90.8232 13.1506C90.8232 12.7812 90.8942 12.4773 91.0362 12.2386C91.1783 12 91.37 11.8111 91.6115 11.6719C91.853 11.5327 92.1229 11.4276 92.4212 11.3565C92.7195 11.2855 93.0234 11.2315 93.3331 11.1946C93.7251 11.1491 94.0433 11.1122 94.2876 11.0838C94.532 11.0526 94.7095 11.0028 94.8203 10.9347C94.9311 10.8665 94.9865 10.7557 94.9865 10.6023V10.5724C94.9865 10.2003 94.8814 9.91193 94.6712 9.70739C94.4638 9.50284 94.1541 9.40057 93.7422 9.40057C93.3132 9.40057 92.9751 9.49574 92.728 9.68608C92.4837 9.87358 92.3146 10.0824 92.2209 10.3125L91.0234 10.0398C91.1655 9.64205 91.3729 9.32102 91.6456 9.0767C91.9212 8.82955 92.2379 8.65057 92.5959 8.53977C92.9538 8.42614 93.3303 8.36932 93.7251 8.36932C93.9865 8.36932 94.2635 8.40057 94.5561 8.46307C94.8516 8.52273 95.1271 8.63352 95.3828 8.79545C95.6413 8.95739 95.853 9.18892 96.0178 9.49006C96.1825 9.78835 96.2649 10.1761 96.2649 10.6534V15H95.0206V14.1051H94.9695C94.8871 14.2699 94.7635 14.4318 94.5987 14.5909C94.4339 14.75 94.2223 14.8821 93.9638 14.9872C93.7053 15.0923 93.3956 15.1449 93.0348 15.1449ZM93.3118 14.1222C93.6641 14.1222 93.9652 14.0526 94.2152 13.9134C94.468 13.7741 94.6598 13.5923 94.7905 13.3679C94.924 13.1406 94.9908 12.8977 94.9908 12.6392V11.7955C94.9453 11.8409 94.8572 11.8835 94.7266 11.9233C94.5987 11.9602 94.4524 11.9929 94.2876 12.0213C94.1229 12.0469 93.9624 12.071 93.8061 12.0938C93.6499 12.1136 93.5192 12.1307 93.4141 12.1449C93.1669 12.1761 92.9411 12.2287 92.7365 12.3026C92.5348 12.3764 92.3729 12.483 92.2507 12.6222C92.1314 12.7585 92.0717 12.9403 92.0717 13.1676C92.0717 13.483 92.1882 13.7216 92.4212 13.8835C92.6541 14.0426 92.951 14.1222 93.3118 14.1222ZM97.962 15V8.45455H99.1935V9.49432H99.2617C99.381 9.14205 99.5913 8.86506 99.8924 8.66335C100.196 8.45881 100.54 8.35653 100.924 8.35653C101.003 8.35653 101.097 8.35937 101.205 8.36506C101.316 8.37074 101.402 8.37784 101.465 8.38636V9.60511C101.414 9.59091 101.323 9.57528 101.192 9.55824C101.061 9.53835 100.931 9.52841 100.8 9.52841C100.499 9.52841 100.23 9.59233 99.9947 9.72017C99.7617 9.84517 99.5771 10.0199 99.4407 10.2443C99.3043 10.4659 99.2362 10.7187 99.2362 11.0028V15H97.962ZM102.67 15V6.27273H103.944V9.51562H104.021C104.094 9.37926 104.201 9.22159 104.34 9.04261C104.479 8.86364 104.673 8.70739 104.92 8.57386C105.167 8.4375 105.494 8.36932 105.9 8.36932C106.428 8.36932 106.9 8.50284 107.315 8.76989C107.729 9.03693 108.055 9.42187 108.29 9.92472C108.529 10.4276 108.648 11.0327 108.648 11.7401C108.648 12.4474 108.531 13.054 108.295 13.5597C108.059 14.0625 107.735 14.4503 107.323 14.723C106.911 14.9929 106.441 15.1278 105.913 15.1278C105.515 15.1278 105.19 15.0611 104.937 14.9276C104.687 14.794 104.491 14.6378 104.349 14.4588C104.207 14.2798 104.097 14.1207 104.021 13.9815H103.914V15H102.67ZM103.918 11.7273C103.918 12.1875 103.985 12.5909 104.119 12.9375C104.252 13.2841 104.445 13.5554 104.698 13.7514C104.951 13.9446 105.261 14.0412 105.627 14.0412C106.008 14.0412 106.326 13.9403 106.582 13.7386C106.837 13.5341 107.031 13.2571 107.161 12.9077C107.295 12.5582 107.362 12.1648 107.362 11.7273C107.362 11.2955 107.296 10.9077 107.165 10.5639C107.038 10.2202 106.844 9.94886 106.586 9.75C106.33 9.55114 106.011 9.4517 105.627 9.4517C105.258 9.4517 104.945 9.54687 104.69 9.73722C104.437 9.92756 104.245 10.1932 104.114 10.5341C103.984 10.875 103.918 11.2727 103.918 11.7273ZM110.079 15V8.45455H111.353V15H110.079ZM110.723 7.4446C110.501 7.4446 110.311 7.37074 110.152 7.22301C109.995 7.07244 109.917 6.89347 109.917 6.68608C109.917 6.47585 109.995 6.29687 110.152 6.14915C110.311 5.99858 110.501 5.9233 110.723 5.9233C110.944 5.9233 111.133 5.99858 111.289 6.14915C111.449 6.29687 111.528 6.47585 111.528 6.68608C111.528 6.89347 111.449 7.07244 111.289 7.22301C111.133 7.37074 110.944 7.4446 110.723 7.4446ZM116.123 8.45455V9.47727H112.548V8.45455H116.123ZM113.506 6.88636H114.781V13.0781C114.781 13.3253 114.817 13.5114 114.891 13.6364C114.965 13.7585 115.06 13.8423 115.177 13.8878C115.296 13.9304 115.425 13.9517 115.565 13.9517C115.667 13.9517 115.756 13.9446 115.833 13.9304C115.91 13.9162 115.969 13.9048 116.012 13.8963L116.242 14.9489C116.168 14.9773 116.063 15.0057 115.927 15.0341C115.79 15.0653 115.62 15.0824 115.415 15.0852C115.08 15.0909 114.768 15.0312 114.478 14.9062C114.188 14.7812 113.954 14.5881 113.775 14.3267C113.596 14.0653 113.506 13.7372 113.506 13.3423V6.88636ZM117.532 15V8.45455H118.764V9.49432H118.832C118.951 9.14205 119.162 8.86506 119.463 8.66335C119.767 8.45881 120.11 8.35653 120.494 8.35653C120.574 8.35653 120.667 8.35937 120.775 8.36506C120.886 8.37074 120.973 8.37784 121.035 8.38636V9.60511C120.984 9.59091 120.893 9.57528 120.762 9.55824C120.632 9.53835 120.501 9.52841 120.37 9.52841C120.069 9.52841 119.801 9.59233 119.565 9.72017C119.332 9.84517 119.147 10.0199 119.011 10.2443C118.875 10.4659 118.806 10.7187 118.806 11.0028V15H117.532ZM123.984 15.1449C123.569 15.1449 123.194 15.0682 122.859 14.9148C122.524 14.7585 122.258 14.5327 122.062 14.2372C121.869 13.9418 121.772 13.5795 121.772 13.1506C121.772 12.7812 121.843 12.4773 121.985 12.2386C122.127 12 122.319 11.8111 122.561 11.6719C122.802 11.5327 123.072 11.4276 123.37 11.3565C123.669 11.2855 123.973 11.2315 124.282 11.1946C124.674 11.1491 124.993 11.1122 125.237 11.0838C125.481 11.0526 125.659 11.0028 125.77 10.9347C125.88 10.8665 125.936 10.7557 125.936 10.6023V10.5724C125.936 10.2003 125.831 9.91193 125.62 9.70739C125.413 9.50284 125.103 9.40057 124.691 9.40057C124.262 9.40057 123.924 9.49574 123.677 9.68608C123.433 9.87358 123.264 10.0824 123.17 10.3125L121.973 10.0398C122.115 9.64205 122.322 9.32102 122.595 9.0767C122.87 8.82955 123.187 8.65057 123.545 8.53977C123.903 8.42614 124.279 8.36932 124.674 8.36932C124.936 8.36932 125.213 8.40057 125.505 8.46307C125.801 8.52273 126.076 8.63352 126.332 8.79545C126.591 8.95739 126.802 9.18892 126.967 9.49006C127.132 9.78835 127.214 10.1761 127.214 10.6534V15H125.97V14.1051H125.919C125.836 14.2699 125.713 14.4318 125.548 14.5909C125.383 14.75 125.172 14.8821 124.913 14.9872C124.654 15.0923 124.345 15.1449 123.984 15.1449ZM124.261 14.1222C124.613 14.1222 124.914 14.0526 125.164 13.9134C125.417 13.7741 125.609 13.5923 125.74 13.3679C125.873 13.1406 125.94 12.8977 125.94 12.6392V11.7955C125.895 11.8409 125.806 11.8835 125.676 11.9233C125.548 11.9602 125.402 11.9929 125.237 12.0213C125.072 12.0469 124.912 12.071 124.755 12.0938C124.599 12.1136 124.468 12.1307 124.363 12.1449C124.116 12.1761 123.89 12.2287 123.686 12.3026C123.484 12.3764 123.322 12.483 123.2 12.6222C123.081 12.7585 123.021 12.9403 123.021 13.1676C123.021 13.483 123.137 13.7216 123.37 13.8835C123.603 14.0426 123.9 14.1222 124.261 14.1222ZM131.967 8.45455V9.47727H128.391V8.45455H131.967ZM129.35 6.88636H130.624V13.0781C130.624 13.3253 130.661 13.5114 130.735 13.6364C130.809 13.7585 130.904 13.8423 131.021 13.8878C131.14 13.9304 131.269 13.9517 131.408 13.9517C131.511 13.9517 131.6 13.9446 131.677 13.9304C131.754 13.9162 131.813 13.9048 131.856 13.8963L132.086 14.9489C132.012 14.9773 131.907 15.0057 131.771 15.0341C131.634 15.0653 131.464 15.0824 131.259 15.0852C130.924 15.0909 130.612 15.0312 130.322 14.9062C130.032 14.7812 129.798 14.5881 129.619 14.3267C129.44 14.0653 129.35 13.7372 129.35 13.3423V6.88636ZM133.376 15V8.45455H134.65V15H133.376ZM134.02 7.4446C133.798 7.4446 133.608 7.37074 133.449 7.22301C133.292 7.07244 133.214 6.89347 133.214 6.68608C133.214 6.47585 133.292 6.29687 133.449 6.14915C133.608 5.99858 133.798 5.9233 134.02 5.9233C134.241 5.9233 134.43 5.99858 134.586 6.14915C134.745 6.29687 134.825 6.47585 134.825 6.68608C134.825 6.89347 134.745 7.07244 134.586 7.22301C134.43 7.37074 134.241 7.4446 134.02 7.4446ZM139.121 15.1321C138.508 15.1321 137.972 14.9915 137.515 14.7102C137.058 14.429 136.702 14.0355 136.45 13.5298C136.197 13.0241 136.07 12.4332 136.07 11.7571C136.07 11.0781 136.197 10.4844 136.45 9.97585C136.702 9.46733 137.058 9.07244 137.515 8.79119C137.972 8.50994 138.508 8.36932 139.121 8.36932C139.735 8.36932 140.271 8.50994 140.728 8.79119C141.185 9.07244 141.54 9.46733 141.793 9.97585C142.046 10.4844 142.173 11.0781 142.173 11.7571C142.173 12.4332 142.046 13.0241 141.793 13.5298C141.54 14.0355 141.185 14.429 140.728 14.7102C140.271 14.9915 139.735 15.1321 139.121 15.1321ZM139.126 14.0625C139.523 14.0625 139.853 13.9574 140.114 13.7472C140.376 13.5369 140.569 13.2571 140.694 12.9077C140.822 12.5582 140.886 12.1733 140.886 11.7528C140.886 11.3352 140.822 10.9517 140.694 10.6023C140.569 10.25 140.376 9.96733 140.114 9.75426C139.853 9.54119 139.523 9.43466 139.126 9.43466C138.725 9.43466 138.393 9.54119 138.129 9.75426C137.867 9.96733 137.673 10.25 137.545 10.6023C137.42 10.9517 137.357 11.3352 137.357 11.7528C137.357 12.1733 137.42 12.5582 137.545 12.9077C137.673 13.2571 137.867 13.5369 138.129 13.7472C138.393 13.9574 138.725 14.0625 139.126 14.0625ZM144.869 11.1136V15H143.595V8.45455H144.818V9.51989H144.899C145.049 9.1733 145.285 8.89489 145.606 8.68466C145.93 8.47443 146.338 8.36932 146.829 8.36932C147.275 8.36932 147.666 8.46307 148.001 8.65057C148.336 8.83523 148.596 9.1108 148.781 9.47727C148.966 9.84375 149.058 10.2969 149.058 10.8366V15H147.784V10.9901C147.784 10.5156 147.66 10.1449 147.413 9.87784C147.166 9.60795 146.826 9.47301 146.395 9.47301C146.099 9.47301 145.836 9.53693 145.606 9.66477C145.379 9.79261 145.199 9.98011 145.065 10.2273C144.934 10.4716 144.869 10.767 144.869 11.1136Z" fill="#5925DC"/>
</g>
</svg>
