<svg width="120" height="22" viewBox="0 0 120 22" fill="none" xmlns="http://www.w3.org/2000/svg">
<g style="mix-blend-mode:multiply">
<rect width="120" height="22" rx="11" fill="#FFF6ED"/>
<path d="M16.6039 9.1108H15.2743C15.2232 8.8267 15.128 8.5767 14.9888 8.3608C14.8496 8.14489 14.6792 7.96165 14.4775 7.81108C14.2757 7.66051 14.0499 7.54687 13.7999 7.47017C13.5527 7.39347 13.29 7.35511 13.0115 7.35511C12.5087 7.35511 12.0584 7.48153 11.6607 7.73438C11.2658 7.98722 10.9533 8.35795 10.7232 8.84659C10.4959 9.33523 10.3823 9.93182 10.3823 10.6364C10.3823 11.3466 10.4959 11.946 10.7232 12.4347C10.9533 12.9233 11.2672 13.2926 11.665 13.5426C12.0627 13.7926 12.5101 13.9176 13.0073 13.9176C13.2828 13.9176 13.5442 13.8807 13.7914 13.8068C14.0414 13.7301 14.2672 13.6179 14.4689 13.4702C14.6706 13.3224 14.8411 13.142 14.9803 12.929C15.1223 12.7131 15.2203 12.4659 15.2743 12.1875L16.6039 12.1918C16.5328 12.6207 16.3951 13.0156 16.1905 13.3764C15.9888 13.7344 15.7289 14.044 15.4107 14.3054C15.0953 14.5639 14.7346 14.7642 14.3283 14.9062C13.9221 15.0483 13.4789 15.1193 12.9988 15.1193C12.2431 15.1193 11.5698 14.9403 10.9789 14.5824C10.388 14.2216 9.92205 13.706 9.58114 13.0355C9.24308 12.3651 9.07404 11.5653 9.07404 10.6364C9.07404 9.70455 9.2445 8.90483 9.5854 8.23722C9.92631 7.56676 10.3922 7.05256 10.9831 6.6946C11.574 6.33381 12.2459 6.15341 12.9988 6.15341C13.4618 6.15341 13.8936 6.22017 14.2942 6.35369C14.6976 6.48437 15.0598 6.67756 15.3809 6.93324C15.7019 7.18608 15.9675 7.49574 16.1777 7.86222C16.388 8.22585 16.53 8.64205 16.6039 9.1108ZM19.9821 15.1449C19.5673 15.1449 19.1923 15.0682 18.8571 14.9148C18.5218 14.7585 18.2562 14.5327 18.0602 14.2372C17.867 13.9418 17.7704 13.5795 17.7704 13.1506C17.7704 12.7812 17.8414 12.4773 17.9835 12.2386C18.1255 12 18.3173 11.8111 18.5588 11.6719C18.8002 11.5327 19.0701 11.4276 19.3684 11.3565C19.6667 11.2855 19.9707 11.2315 20.2804 11.1946C20.6724 11.1491 20.9906 11.1122 21.2349 11.0838C21.4792 11.0526 21.6568 11.0028 21.7676 10.9347C21.8784 10.8665 21.9338 10.7557 21.9338 10.6023V10.5724C21.9338 10.2003 21.8287 9.91193 21.6184 9.70739C21.411 9.50284 21.1014 9.40057 20.6895 9.40057C20.2605 9.40057 19.9224 9.49574 19.6752 9.68608C19.4309 9.87358 19.2619 10.0824 19.1681 10.3125L17.9707 10.0398C18.1127 9.64205 18.3201 9.32102 18.5929 9.0767C18.8684 8.82955 19.1852 8.65057 19.5431 8.53977C19.9011 8.42614 20.2775 8.36932 20.6724 8.36932C20.9338 8.36932 21.2108 8.40057 21.5034 8.46307C21.7988 8.52273 22.0744 8.63352 22.3301 8.79545C22.5886 8.95739 22.8002 9.18892 22.965 9.49006C23.1298 9.78835 23.2122 10.1761 23.2122 10.6534V15H21.9679V14.1051H21.9167C21.8343 14.2699 21.7108 14.4318 21.546 14.5909C21.3812 14.75 21.1696 14.8821 20.911 14.9872C20.6525 15.0923 20.3429 15.1449 19.9821 15.1449ZM20.2591 14.1222C20.6113 14.1222 20.9125 14.0526 21.1625 13.9134C21.4153 13.7741 21.6071 13.5923 21.7377 13.3679C21.8713 13.1406 21.938 12.8977 21.938 12.6392V11.7955C21.8926 11.8409 21.8045 11.8835 21.6738 11.9233C21.546 11.9602 21.3997 11.9929 21.2349 12.0213C21.0701 12.0469 20.9096 12.071 20.7534 12.0938C20.5971 12.1136 20.4664 12.1307 20.3613 12.1449C20.1142 12.1761 19.8883 12.2287 19.6838 12.3026C19.4821 12.3764 19.3201 12.483 19.198 12.6222C19.0787 12.7585 19.019 12.9403 19.019 13.1676C19.019 13.483 19.1355 13.7216 19.3684 13.8835C19.6014 14.0426 19.8983 14.1222 20.2591 14.1222ZM29.8141 10.0526L28.6593 10.2571C28.611 10.1094 28.5343 9.96875 28.4292 9.83523C28.3269 9.7017 28.1877 9.59233 28.0115 9.5071C27.8354 9.42187 27.6152 9.37926 27.351 9.37926C26.9902 9.37926 26.6891 9.46023 26.4476 9.62216C26.2061 9.78125 26.0854 9.98722 26.0854 10.2401C26.0854 10.4588 26.1664 10.6349 26.3283 10.7685C26.4902 10.902 26.7516 11.0114 27.1124 11.0966L28.1522 11.3352C28.7544 11.4744 29.2033 11.6889 29.4988 11.9787C29.7942 12.2685 29.9419 12.6449 29.9419 13.108C29.9419 13.5 29.8283 13.8494 29.601 14.1562C29.3766 14.4602 29.0627 14.6989 28.6593 14.8722C28.2587 15.0455 27.7942 15.1321 27.2658 15.1321C26.5328 15.1321 25.9348 14.9759 25.4718 14.6634C25.0087 14.348 24.7246 13.9006 24.6195 13.321L25.851 13.1335C25.9277 13.4545 26.0854 13.6974 26.324 13.8622C26.5627 14.0241 26.8738 14.1051 27.2573 14.1051C27.6749 14.1051 28.0087 14.0185 28.2587 13.8452C28.5087 13.669 28.6337 13.4545 28.6337 13.2017C28.6337 12.9972 28.557 12.8253 28.4036 12.6861C28.253 12.5469 28.0215 12.4418 27.709 12.3707L26.601 12.1278C25.9902 11.9886 25.5385 11.767 25.2459 11.4631C24.9561 11.1591 24.8113 10.7741 24.8113 10.3082C24.8113 9.92187 24.9192 9.58381 25.1351 9.29403C25.351 9.00426 25.6493 8.77841 26.03 8.61648C26.4107 8.4517 26.8468 8.36932 27.3382 8.36932C28.0456 8.36932 28.6025 8.52273 29.0087 8.82955C29.415 9.13352 29.6834 9.54119 29.8141 10.0526ZM34.1639 15.1321C33.519 15.1321 32.9636 14.9943 32.4977 14.7188C32.0346 14.4403 31.6767 14.0497 31.4238 13.5469C31.1738 13.0412 31.0488 12.4489 31.0488 11.7699C31.0488 11.0994 31.1738 10.5085 31.4238 9.99716C31.6767 9.4858 32.0289 9.08665 32.4806 8.79972C32.9352 8.51278 33.4664 8.36932 34.0744 8.36932C34.4437 8.36932 34.8017 8.4304 35.1483 8.55256C35.4949 8.67472 35.8059 8.86648 36.0815 9.12784C36.3571 9.3892 36.5744 9.72869 36.7335 10.1463C36.8926 10.5611 36.9721 11.0653 36.9721 11.6591V12.1108H31.769V11.1562H35.7235C35.7235 10.821 35.6554 10.5241 35.519 10.2656C35.3826 10.0043 35.1909 9.7983 34.9437 9.64773C34.6994 9.49716 34.4125 9.42188 34.0829 9.42188C33.725 9.42188 33.4125 9.50994 33.1454 9.68608C32.8812 9.85937 32.6767 10.0866 32.5318 10.3679C32.3897 10.6463 32.3187 10.9489 32.3187 11.2756V12.0213C32.3187 12.4588 32.3954 12.831 32.5488 13.1378C32.7051 13.4446 32.9224 13.679 33.2008 13.8409C33.4792 14 33.8045 14.0795 34.1767 14.0795C34.4181 14.0795 34.6383 14.0455 34.8372 13.9773C35.036 13.9062 35.2079 13.8011 35.3528 13.6619C35.4977 13.5227 35.6085 13.3509 35.6852 13.1463L36.8912 13.3636C36.7946 13.7187 36.6213 14.0298 36.3713 14.2969C36.1241 14.5611 35.813 14.767 35.438 14.9148C35.0659 15.0597 34.6412 15.1321 34.1639 15.1321ZM41.5616 17.4545V8.45455H42.8059V9.51562H42.9125C42.9863 9.37926 43.0929 9.22159 43.2321 9.04261C43.3713 8.86364 43.5645 8.70739 43.8116 8.57386C44.0588 8.4375 44.3855 8.36932 44.7917 8.36932C45.3201 8.36932 45.7917 8.50284 46.2065 8.76989C46.6213 9.03693 46.9466 9.42187 47.1824 9.92472C47.421 10.4276 47.5403 11.0327 47.5403 11.7401C47.5403 12.4474 47.4224 13.054 47.1866 13.5597C46.9508 14.0625 46.627 14.4503 46.215 14.723C45.8031 14.9929 45.3329 15.1278 44.8045 15.1278C44.4068 15.1278 44.0815 15.0611 43.8287 14.9276C43.5787 14.794 43.3826 14.6378 43.2406 14.4588C43.0985 14.2798 42.9892 14.1207 42.9125 13.9815H42.8358V17.4545H41.5616ZM42.8102 11.7273C42.8102 12.1875 42.877 12.5909 43.0105 12.9375C43.144 13.2841 43.3372 13.5554 43.59 13.7514C43.8429 13.9446 44.1525 14.0412 44.519 14.0412C44.8997 14.0412 45.2179 13.9403 45.4735 13.7386C45.7292 13.5341 45.9224 13.2571 46.0531 12.9077C46.1866 12.5582 46.2534 12.1648 46.2534 11.7273C46.2534 11.2955 46.188 10.9077 46.0574 10.5639C45.9295 10.2202 45.7363 9.94886 45.4778 9.75C45.2221 9.55114 44.9025 9.4517 44.519 9.4517C44.1497 9.4517 43.8372 9.54687 43.5815 9.73722C43.3287 9.92756 43.1369 10.1932 43.0062 10.5341C42.8755 10.875 42.8102 11.2727 42.8102 11.7273ZM51.7889 15.1321C51.144 15.1321 50.5886 14.9943 50.1227 14.7188C49.6596 14.4403 49.3017 14.0497 49.0488 13.5469C48.7988 13.0412 48.6738 12.4489 48.6738 11.7699C48.6738 11.0994 48.7988 10.5085 49.0488 9.99716C49.3017 9.4858 49.6539 9.08665 50.1056 8.79972C50.5602 8.51278 51.0914 8.36932 51.6994 8.36932C52.0687 8.36932 52.4267 8.4304 52.7733 8.55256C53.1199 8.67472 53.4309 8.86648 53.7065 9.12784C53.9821 9.3892 54.1994 9.72869 54.3585 10.1463C54.5176 10.5611 54.5971 11.0653 54.5971 11.6591V12.1108H49.394V11.1562H53.3485C53.3485 10.821 53.2804 10.5241 53.144 10.2656C53.0076 10.0043 52.8159 9.7983 52.5687 9.64773C52.3244 9.49716 52.0375 9.42188 51.7079 9.42188C51.35 9.42188 51.0375 9.50994 50.7704 9.68608C50.5062 9.85937 50.3017 10.0866 50.1568 10.3679C50.0147 10.6463 49.9437 10.9489 49.9437 11.2756V12.0213C49.9437 12.4588 50.0204 12.831 50.1738 13.1378C50.3301 13.4446 50.5474 13.679 50.8258 13.8409C51.1042 14 51.4295 14.0795 51.8017 14.0795C52.0431 14.0795 52.2633 14.0455 52.4622 13.9773C52.661 13.9062 52.8329 13.8011 52.9778 13.6619C53.1227 13.5227 53.2335 13.3509 53.3102 13.1463L54.5162 13.3636C54.4196 13.7187 54.2463 14.0298 53.9963 14.2969C53.7491 14.5611 53.438 14.767 53.063 14.9148C52.6909 15.0597 52.2662 15.1321 51.7889 15.1321ZM57.285 11.1136V15H56.0108V8.45455H57.2338V9.51989H57.3148C57.4654 9.1733 57.7012 8.89489 58.0222 8.68466C58.3461 8.47443 58.7537 8.36932 59.2452 8.36932C59.6912 8.36932 60.0819 8.46307 60.4171 8.65057C60.7523 8.83523 61.0123 9.1108 61.1969 9.47727C61.3816 9.84375 61.4739 10.2969 61.4739 10.8366V15H60.1998V10.9901C60.1998 10.5156 60.0762 10.1449 59.829 9.87784C59.5819 9.60795 59.2424 9.47301 58.8105 9.47301C58.5151 9.47301 58.2523 9.53693 58.0222 9.66477C57.7949 9.79261 57.6145 9.98011 57.481 10.2273C57.3503 10.4716 57.285 10.767 57.285 11.1136ZM65.633 15.1278C65.1046 15.1278 64.633 14.9929 64.2182 14.723C63.8063 14.4503 63.4824 14.0625 63.2466 13.5597C63.0137 13.054 62.8972 12.4474 62.8972 11.7401C62.8972 11.0327 63.0151 10.4276 63.2509 9.92472C63.4895 9.42187 63.8162 9.03693 64.231 8.76989C64.6458 8.50284 65.1159 8.36932 65.6415 8.36932C66.0478 8.36932 66.3745 8.4375 66.6216 8.57386C66.8716 8.70739 67.0648 8.86364 67.2012 9.04261C67.3404 9.22159 67.4483 9.37926 67.525 9.51562H67.6017V6.27273H68.8759V15H67.6316V13.9815H67.525C67.4483 14.1207 67.3375 14.2798 67.1926 14.4588C67.0506 14.6378 66.8546 14.794 66.6046 14.9276C66.3546 15.0611 66.0307 15.1278 65.633 15.1278ZM65.9142 14.0412C66.2807 14.0412 66.5904 13.9446 66.8432 13.7514C67.0989 13.5554 67.2921 13.2841 67.4228 12.9375C67.5563 12.5909 67.623 12.1875 67.623 11.7273C67.623 11.2727 67.5577 10.875 67.427 10.5341C67.2963 10.1932 67.1046 9.92756 66.8517 9.73722C66.5989 9.54687 66.2864 9.4517 65.9142 9.4517C65.5307 9.4517 65.2111 9.55114 64.9554 9.75C64.6998 9.94886 64.5066 10.2202 64.3759 10.5639C64.248 10.9077 64.1841 11.2955 64.1841 11.7273C64.1841 12.1648 64.2495 12.5582 64.3801 12.9077C64.5108 13.2571 64.704 13.5341 64.9597 13.7386C65.2182 13.9403 65.5364 14.0412 65.9142 14.0412ZM70.6944 15V8.45455H71.9686V15H70.6944ZM71.3379 7.4446C71.1163 7.4446 70.926 7.37074 70.7669 7.22301C70.6106 7.07244 70.5325 6.89347 70.5325 6.68608C70.5325 6.47585 70.6106 6.29687 70.7669 6.14915C70.926 5.99858 71.1163 5.9233 71.3379 5.9233C71.5595 5.9233 71.7484 5.99858 71.9047 6.14915C72.0637 6.29687 72.1433 6.47585 72.1433 6.68608C72.1433 6.89347 72.0637 7.07244 71.9047 7.22301C71.7484 7.37074 71.5595 7.4446 71.3379 7.4446ZM74.9569 11.1136V15H73.6827V8.45455H74.9057V9.51989H74.9867C75.1373 9.1733 75.373 8.89489 75.6941 8.68466C76.0179 8.47443 76.4256 8.36932 76.9171 8.36932C77.3631 8.36932 77.7537 8.46307 78.089 8.65057C78.4242 8.83523 78.6841 9.1108 78.8688 9.47727C79.0534 9.84375 79.1458 10.2969 79.1458 10.8366V15H77.8716V10.9901C77.8716 10.5156 77.748 10.1449 77.5009 9.87784C77.2537 9.60795 76.9142 9.47301 76.4824 9.47301C76.187 9.47301 75.9242 9.53693 75.6941 9.66477C75.4668 9.79261 75.2864 9.98011 75.1529 10.2273C75.0222 10.4716 74.9569 10.767 74.9569 11.1136ZM83.5989 17.5909C83.079 17.5909 82.6316 17.5227 82.2566 17.3864C81.8844 17.25 81.5804 17.0696 81.3446 16.8452C81.1088 16.6207 80.9327 16.375 80.8162 16.108L81.9114 15.6562C81.9881 15.7812 82.0904 15.9134 82.2182 16.0526C82.3489 16.1946 82.525 16.3153 82.7466 16.4148C82.9711 16.5142 83.2594 16.5639 83.6117 16.5639C84.0946 16.5639 84.4938 16.446 84.8091 16.2102C85.1245 15.9773 85.2821 15.6051 85.2821 15.0938V13.8068H85.2012C85.1245 13.946 85.0137 14.1009 84.8688 14.2713C84.7267 14.4418 84.5307 14.5895 84.2807 14.7145C84.0307 14.8395 83.7054 14.902 83.3049 14.902C82.7878 14.902 82.3219 14.7812 81.9071 14.5398C81.4952 14.2955 81.1685 13.9361 80.927 13.4616C80.6884 12.9844 80.5691 12.3977 80.5691 11.7017C80.5691 11.0057 80.687 10.4091 80.9228 9.91193C81.1614 9.41477 81.4881 9.03409 81.9029 8.76989C82.3176 8.50284 82.7878 8.36932 83.3134 8.36932C83.7196 8.36932 84.0478 8.4375 84.2978 8.57386C84.5478 8.70739 84.7424 8.86364 84.8816 9.04261C85.0236 9.22159 85.133 9.37926 85.2097 9.51562H85.3034V8.45455H86.552V15.1449C86.552 15.7074 86.4213 16.169 86.16 16.5298C85.8986 16.8906 85.5449 17.1577 85.0989 17.331C84.6557 17.5043 84.1557 17.5909 83.5989 17.5909ZM83.5861 13.8452C83.9526 13.8452 84.2623 13.7599 84.5151 13.5895C84.7708 13.4162 84.964 13.169 85.0946 12.848C85.2282 12.5241 85.2949 12.1364 85.2949 11.6847C85.2949 11.2443 85.2296 10.8565 85.0989 10.5213C84.9682 10.1861 84.7765 9.92472 84.5236 9.73722C84.2708 9.54687 83.9583 9.4517 83.5861 9.4517C83.2026 9.4517 82.883 9.55114 82.6273 9.75C82.3716 9.94602 82.1784 10.2131 82.0478 10.5511C81.9199 10.8892 81.856 11.267 81.856 11.6847C81.856 12.1136 81.9213 12.4901 82.052 12.8139C82.1827 13.1378 82.3759 13.3906 82.6316 13.5724C82.8901 13.7543 83.2083 13.8452 83.5861 13.8452ZM98.5829 6.27273V15H97.3727L92.9366 8.59943H92.8556V15H91.5389V6.27273H92.7576L97.198 12.6818H97.2789V6.27273H98.5829ZM101.82 6.27273V15H100.504V6.27273H101.82ZM110.987 9.1108H109.657C109.606 8.8267 109.511 8.5767 109.372 8.3608C109.232 8.14489 109.062 7.96165 108.86 7.81108C108.659 7.66051 108.433 7.54687 108.183 7.47017C107.936 7.39347 107.673 7.35511 107.394 7.35511C106.892 7.35511 106.441 7.48153 106.044 7.73438C105.649 7.98722 105.336 8.35795 105.106 8.84659C104.879 9.33523 104.765 9.93182 104.765 10.6364C104.765 11.3466 104.879 11.946 105.106 12.4347C105.336 12.9233 105.65 13.2926 106.048 13.5426C106.445 13.7926 106.893 13.9176 107.39 13.9176C107.666 13.9176 107.927 13.8807 108.174 13.8068C108.424 13.7301 108.65 13.6179 108.852 13.4702C109.053 13.3224 109.224 13.142 109.363 12.929C109.505 12.7131 109.603 12.4659 109.657 12.1875L110.987 12.1918C110.916 12.6207 110.778 13.0156 110.573 13.3764C110.372 13.7344 110.112 14.044 109.794 14.3054C109.478 14.5639 109.117 14.7642 108.711 14.9062C108.305 15.0483 107.862 15.1193 107.382 15.1193C106.626 15.1193 105.953 14.9403 105.362 14.5824C104.771 14.2216 104.305 13.706 103.964 13.0355C103.626 12.3651 103.457 11.5653 103.457 10.6364C103.457 9.70455 103.627 8.90483 103.968 8.23722C104.309 7.56676 104.775 7.05256 105.366 6.6946C105.957 6.33381 106.629 6.15341 107.382 6.15341C107.845 6.15341 108.276 6.22017 108.677 6.35369C109.08 6.48437 109.443 6.67756 109.764 6.93324C110.085 7.18608 110.35 7.49574 110.561 7.86222C110.771 8.22585 110.913 8.64205 110.987 9.1108Z" fill="#C4320A"/>
</g>
</svg>
