<svg width="103" height="22" viewBox="0 0 103 22" fill="none" xmlns="http://www.w3.org/2000/svg">
<g style="mix-blend-mode:multiply">
<rect width="103" height="22" rx="11" fill="#ECFDF3"/>
<path d="M16.4769 9.1108H15.1474C15.0962 8.8267 15.0011 8.5767 14.8619 8.3608C14.7227 8.14489 14.5522 7.96165 14.3505 7.81108C14.1488 7.66051 13.9229 7.54687 13.6729 7.47017C13.4258 7.39347 13.163 7.35511 12.8846 7.35511C12.3817 7.35511 11.9315 7.48153 11.5337 7.73438C11.1388 7.98722 10.8263 8.35795 10.5962 8.84659C10.369 9.33523 10.2553 9.93182 10.2553 10.6364C10.2553 11.3466 10.369 11.946 10.5962 12.4347C10.8263 12.9233 11.1403 13.2926 11.538 13.5426C11.9357 13.7926 12.3832 13.9176 12.8803 13.9176C13.1559 13.9176 13.4173 13.8807 13.6644 13.8068C13.9144 13.7301 14.1403 13.6179 14.342 13.4702C14.5437 13.3224 14.7141 13.142 14.8533 12.929C14.9954 12.7131 15.0934 12.4659 15.1474 12.1875L16.4769 12.1918C16.4059 12.6207 16.2681 13.0156 16.0636 13.3764C15.8619 13.7344 15.6019 14.044 15.2837 14.3054C14.9684 14.5639 14.6076 14.7642 14.2013 14.9062C13.7951 15.0483 13.3519 15.1193 12.8718 15.1193C12.1161 15.1193 11.4428 14.9403 10.8519 14.5824C10.261 14.2216 9.7951 13.706 9.45419 13.0355C9.11612 12.3651 8.94709 11.5653 8.94709 10.6364C8.94709 9.70455 9.11754 8.90483 9.45845 8.23722C9.79936 7.56676 10.2653 7.05256 10.8562 6.6946C11.4471 6.33381 12.119 6.15341 12.8718 6.15341C13.3349 6.15341 13.7667 6.22017 14.1673 6.35369C14.5707 6.48437 14.9329 6.67756 15.2539 6.93324C15.5749 7.18608 15.8406 7.49574 16.0508 7.86222C16.261 8.22585 16.4031 8.64205 16.4769 9.1108ZM19.8551 15.1449C19.4403 15.1449 19.0653 15.0682 18.7301 14.9148C18.3949 14.7585 18.1293 14.5327 17.9332 14.2372C17.7401 13.9418 17.6435 13.5795 17.6435 13.1506C17.6435 12.7812 17.7145 12.4773 17.8565 12.2386C17.9986 12 18.1903 11.8111 18.4318 11.6719C18.6733 11.5327 18.9432 11.4276 19.2415 11.3565C19.5398 11.2855 19.8438 11.2315 20.1534 11.1946C20.5455 11.1491 20.8636 11.1122 21.108 11.0838C21.3523 11.0526 21.5298 11.0028 21.6406 10.9347C21.7514 10.8665 21.8068 10.7557 21.8068 10.6023V10.5724C21.8068 10.2003 21.7017 9.91193 21.4915 9.70739C21.2841 9.50284 20.9744 9.40057 20.5625 9.40057C20.1335 9.40057 19.7955 9.49574 19.5483 9.68608C19.304 9.87358 19.1349 10.0824 19.0412 10.3125L17.8438 10.0398C17.9858 9.64205 18.1932 9.32102 18.4659 9.0767C18.7415 8.82955 19.0582 8.65057 19.4162 8.53977C19.7741 8.42614 20.1506 8.36932 20.5455 8.36932C20.8068 8.36932 21.0838 8.40057 21.3764 8.46307C21.6719 8.52273 21.9474 8.63352 22.2031 8.79545C22.4616 8.95739 22.6733 9.18892 22.8381 9.49006C23.0028 9.78835 23.0852 10.1761 23.0852 10.6534V15H21.8409V14.1051H21.7898C21.7074 14.2699 21.5838 14.4318 21.419 14.5909C21.2543 14.75 21.0426 14.8821 20.7841 14.9872C20.5256 15.0923 20.2159 15.1449 19.8551 15.1449ZM20.1321 14.1222C20.4844 14.1222 20.7855 14.0526 21.0355 13.9134C21.2884 13.7741 21.4801 13.5923 21.6108 13.3679C21.7443 13.1406 21.8111 12.8977 21.8111 12.6392V11.7955C21.7656 11.8409 21.6776 11.8835 21.5469 11.9233C21.419 11.9602 21.2727 11.9929 21.108 12.0213C20.9432 12.0469 20.7827 12.071 20.6264 12.0938C20.4702 12.1136 20.3395 12.1307 20.2344 12.1449C19.9872 12.1761 19.7614 12.2287 19.5568 12.3026C19.3551 12.3764 19.1932 12.483 19.071 12.6222C18.9517 12.7585 18.892 12.9403 18.892 13.1676C18.892 13.483 19.0085 13.7216 19.2415 13.8835C19.4744 14.0426 19.7713 14.1222 20.1321 14.1222ZM29.6871 10.0526L28.5323 10.2571C28.484 10.1094 28.4073 9.96875 28.3022 9.83523C28.1999 9.7017 28.0607 9.59233 27.8846 9.5071C27.7085 9.42187 27.4883 9.37926 27.2241 9.37926C26.8633 9.37926 26.5621 9.46023 26.3207 9.62216C26.0792 9.78125 25.9585 9.98722 25.9585 10.2401C25.9585 10.4588 26.0394 10.6349 26.2013 10.7685C26.3633 10.902 26.6246 11.0114 26.9854 11.0966L28.0252 11.3352C28.6275 11.4744 29.0763 11.6889 29.3718 11.9787C29.6673 12.2685 29.815 12.6449 29.815 13.108C29.815 13.5 29.7013 13.8494 29.4741 14.1562C29.2496 14.4602 28.9357 14.6989 28.5323 14.8722C28.1317 15.0455 27.6673 15.1321 27.1388 15.1321C26.4059 15.1321 25.8079 14.9759 25.3448 14.6634C24.8817 14.348 24.5977 13.9006 24.4925 13.321L25.7241 13.1335C25.8008 13.4545 25.9585 13.6974 26.1971 13.8622C26.4357 14.0241 26.7468 14.1051 27.1303 14.1051C27.5479 14.1051 27.8817 14.0185 28.1317 13.8452C28.3817 13.669 28.5067 13.4545 28.5067 13.2017C28.5067 12.9972 28.43 12.8253 28.2766 12.6861C28.1261 12.5469 27.8945 12.4418 27.582 12.3707L26.4741 12.1278C25.8633 11.9886 25.4116 11.767 25.119 11.4631C24.8292 11.1591 24.6843 10.7741 24.6843 10.3082C24.6843 9.92187 24.7923 9.58381 25.0082 9.29403C25.2241 9.00426 25.5224 8.77841 25.9031 8.61648C26.2837 8.4517 26.7198 8.36932 27.2113 8.36932C27.9187 8.36932 28.4755 8.52273 28.8817 8.82955C29.288 9.13352 29.5565 9.54119 29.6871 10.0526ZM34.0369 15.1321C33.392 15.1321 32.8366 14.9943 32.3707 14.7188C31.9077 14.4403 31.5497 14.0497 31.2969 13.5469C31.0469 13.0412 30.9219 12.4489 30.9219 11.7699C30.9219 11.0994 31.0469 10.5085 31.2969 9.99716C31.5497 9.4858 31.902 9.08665 32.3537 8.79972C32.8082 8.51278 33.3395 8.36932 33.9474 8.36932C34.3168 8.36932 34.6747 8.4304 35.0213 8.55256C35.3679 8.67472 35.679 8.86648 35.9545 9.12784C36.2301 9.3892 36.4474 9.72869 36.6065 10.1463C36.7656 10.5611 36.8452 11.0653 36.8452 11.6591V12.1108H31.642V11.1562H35.5966C35.5966 10.821 35.5284 10.5241 35.392 10.2656C35.2557 10.0043 35.0639 9.7983 34.8168 9.64773C34.5724 9.49716 34.2855 9.42188 33.956 9.42188C33.598 9.42188 33.2855 9.50994 33.0185 9.68608C32.7543 9.85937 32.5497 10.0866 32.4048 10.3679C32.2628 10.6463 32.1918 10.9489 32.1918 11.2756V12.0213C32.1918 12.4588 32.2685 12.831 32.4219 13.1378C32.5781 13.4446 32.7955 13.679 33.0739 13.8409C33.3523 14 33.6776 14.0795 34.0497 14.0795C34.2912 14.0795 34.5114 14.0455 34.7102 13.9773C34.9091 13.9062 35.081 13.8011 35.2259 13.6619C35.3707 13.5227 35.4815 13.3509 35.5582 13.1463L36.7642 13.3636C36.6676 13.7187 36.4943 14.0298 36.2443 14.2969C35.9972 14.5611 35.6861 14.767 35.3111 14.9148C34.9389 15.0597 34.5142 15.1321 34.0369 15.1321ZM43.3395 15.1449C42.9247 15.1449 42.5497 15.0682 42.2145 14.9148C41.8793 14.7585 41.6136 14.5327 41.4176 14.2372C41.2244 13.9418 41.1278 13.5795 41.1278 13.1506C41.1278 12.7812 41.1989 12.4773 41.3409 12.2386C41.483 12 41.6747 11.8111 41.9162 11.6719C42.1577 11.5327 42.4276 11.4276 42.7259 11.3565C43.0241 11.2855 43.3281 11.2315 43.6378 11.1946C44.0298 11.1491 44.348 11.1122 44.5923 11.0838C44.8366 11.0526 45.0142 11.0028 45.125 10.9347C45.2358 10.8665 45.2912 10.7557 45.2912 10.6023V10.5724C45.2912 10.2003 45.1861 9.91193 44.9759 9.70739C44.7685 9.50284 44.4588 9.40057 44.0469 9.40057C43.6179 9.40057 43.2798 9.49574 43.0327 9.68608C42.7884 9.87358 42.6193 10.0824 42.5256 10.3125L41.3281 10.0398C41.4702 9.64205 41.6776 9.32102 41.9503 9.0767C42.2259 8.82955 42.5426 8.65057 42.9006 8.53977C43.2585 8.42614 43.6349 8.36932 44.0298 8.36932C44.2912 8.36932 44.5682 8.40057 44.8608 8.46307C45.1563 8.52273 45.4318 8.63352 45.6875 8.79545C45.946 8.95739 46.1577 9.18892 46.3224 9.49006C46.4872 9.78835 46.5696 10.1761 46.5696 10.6534V15H45.3253V14.1051H45.2741C45.1918 14.2699 45.0682 14.4318 44.9034 14.5909C44.7386 14.75 44.527 14.8821 44.2685 14.9872C44.0099 15.0923 43.7003 15.1449 43.3395 15.1449ZM43.6165 14.1222C43.9688 14.1222 44.2699 14.0526 44.5199 13.9134C44.7727 13.7741 44.9645 13.5923 45.0952 13.3679C45.2287 13.1406 45.2955 12.8977 45.2955 12.6392V11.7955C45.25 11.8409 45.1619 11.8835 45.0312 11.9233C44.9034 11.9602 44.7571 11.9929 44.5923 12.0213C44.4276 12.0469 44.267 12.071 44.1108 12.0938C43.9545 12.1136 43.8239 12.1307 43.7188 12.1449C43.4716 12.1761 43.2457 12.2287 43.0412 12.3026C42.8395 12.3764 42.6776 12.483 42.5554 12.6222C42.4361 12.7585 42.3764 12.9403 42.3764 13.1676C42.3764 13.483 42.4929 13.7216 42.7259 13.8835C42.9588 14.0426 43.2557 14.1222 43.6165 14.1222ZM48.2667 17.4545V8.45455H49.511V9.51562H49.6175C49.6914 9.37926 49.7979 9.22159 49.9371 9.04261C50.0763 8.86364 50.2695 8.70739 50.5167 8.57386C50.7638 8.4375 51.0906 8.36932 51.4968 8.36932C52.0252 8.36932 52.4968 8.50284 52.9116 8.76989C53.3263 9.03693 53.6516 9.42187 53.8874 9.92472C54.1261 10.4276 54.2454 11.0327 54.2454 11.7401C54.2454 12.4474 54.1275 13.054 53.8917 13.5597C53.6559 14.0625 53.332 14.4503 52.9201 14.723C52.5082 14.9929 52.038 15.1278 51.5096 15.1278C51.1119 15.1278 50.7866 15.0611 50.5337 14.9276C50.2837 14.794 50.0877 14.6378 49.9457 14.4588C49.8036 14.2798 49.6942 14.1207 49.6175 13.9815H49.5408V17.4545H48.2667ZM49.5153 11.7273C49.5153 12.1875 49.582 12.5909 49.7156 12.9375C49.8491 13.2841 50.0423 13.5554 50.2951 13.7514C50.5479 13.9446 50.8576 14.0412 51.2241 14.0412C51.6048 14.0412 51.9229 13.9403 52.1786 13.7386C52.4343 13.5341 52.6275 13.2571 52.7582 12.9077C52.8917 12.5582 52.9585 12.1648 52.9585 11.7273C52.9585 11.2955 52.8931 10.9077 52.7624 10.5639C52.6346 10.2202 52.4414 9.94886 52.1829 9.75C51.9272 9.55114 51.6076 9.4517 51.2241 9.4517C50.8548 9.4517 50.5423 9.54687 50.2866 9.73722C50.0337 9.92756 49.842 10.1932 49.7113 10.5341C49.5806 10.875 49.5153 11.2727 49.5153 11.7273ZM55.6729 17.4545V8.45455H56.9173V9.51562H57.0238C57.0977 9.37926 57.2042 9.22159 57.3434 9.04261C57.4826 8.86364 57.6758 8.70739 57.9229 8.57386C58.1701 8.4375 58.4968 8.36932 58.9031 8.36932C59.4315 8.36932 59.9031 8.50284 60.3178 8.76989C60.7326 9.03693 61.0579 9.42187 61.2937 9.92472C61.5323 10.4276 61.6516 11.0327 61.6516 11.7401C61.6516 12.4474 61.5337 13.054 61.2979 13.5597C61.0621 14.0625 60.7383 14.4503 60.3263 14.723C59.9144 14.9929 59.4442 15.1278 58.9158 15.1278C58.5181 15.1278 58.1928 15.0611 57.94 14.9276C57.69 14.794 57.494 14.6378 57.3519 14.4588C57.2099 14.2798 57.1005 14.1207 57.0238 13.9815H56.9471V17.4545H55.6729ZM56.9215 11.7273C56.9215 12.1875 56.9883 12.5909 57.1218 12.9375C57.2553 13.2841 57.4485 13.5554 57.7013 13.7514C57.9542 13.9446 58.2638 14.0412 58.6303 14.0412C59.011 14.0412 59.3292 13.9403 59.5849 13.7386C59.8406 13.5341 60.0337 13.2571 60.1644 12.9077C60.2979 12.5582 60.3647 12.1648 60.3647 11.7273C60.3647 11.2955 60.2994 10.9077 60.1687 10.5639C60.0408 10.2202 59.8477 9.94886 59.5891 9.75C59.3335 9.55114 59.0138 9.4517 58.6303 9.4517C58.261 9.4517 57.9485 9.54687 57.6928 9.73722C57.44 9.92756 57.2482 10.1932 57.1175 10.5341C56.9869 10.875 56.9215 11.2727 56.9215 11.7273ZM63.0792 15V8.45455H64.3107V9.49432H64.3789C64.4982 9.14205 64.7085 8.86506 65.0096 8.66335C65.3136 8.45881 65.6573 8.35653 66.0408 8.35653C66.1204 8.35653 66.2141 8.35937 66.3221 8.36506C66.4329 8.37074 66.5195 8.37784 66.582 8.38636V9.60511C66.5309 9.59091 66.44 9.57528 66.3093 9.55824C66.1786 9.53835 66.0479 9.52841 65.9173 9.52841C65.6161 9.52841 65.3477 9.59233 65.1119 9.72017C64.8789 9.84517 64.6942 10.0199 64.5579 10.2443C64.4215 10.4659 64.3533 10.7187 64.3533 11.0028V15H63.0792ZM70.2074 15.1321C69.5938 15.1321 69.0582 14.9915 68.6009 14.7102C68.1435 14.429 67.7884 14.0355 67.5355 13.5298C67.2827 13.0241 67.1562 12.4332 67.1562 11.7571C67.1562 11.0781 67.2827 10.4844 67.5355 9.97585C67.7884 9.46733 68.1435 9.07244 68.6009 8.79119C69.0582 8.50994 69.5938 8.36932 70.2074 8.36932C70.821 8.36932 71.3565 8.50994 71.8139 8.79119C72.2713 9.07244 72.6264 9.46733 72.8793 9.97585C73.1321 10.4844 73.2585 11.0781 73.2585 11.7571C73.2585 12.4332 73.1321 13.0241 72.8793 13.5298C72.6264 14.0355 72.2713 14.429 71.8139 14.7102C71.3565 14.9915 70.821 15.1321 70.2074 15.1321ZM70.2116 14.0625C70.6094 14.0625 70.9389 13.9574 71.2003 13.7472C71.4616 13.5369 71.6548 13.2571 71.7798 12.9077C71.9077 12.5582 71.9716 12.1733 71.9716 11.7528C71.9716 11.3352 71.9077 10.9517 71.7798 10.6023C71.6548 10.25 71.4616 9.96733 71.2003 9.75426C70.9389 9.54119 70.6094 9.43466 70.2116 9.43466C69.8111 9.43466 69.4787 9.54119 69.2145 9.75426C68.9531 9.96733 68.7585 10.25 68.6307 10.6023C68.5057 10.9517 68.4432 11.3352 68.4432 11.7528C68.4432 12.1733 68.5057 12.5582 68.6307 12.9077C68.7585 13.2571 68.9531 13.5369 69.2145 13.7472C69.4787 13.9574 69.8111 14.0625 70.2116 14.0625ZM80.0575 8.45455L77.6839 15H76.3203L73.9425 8.45455H75.3104L76.968 13.4915H77.0362L78.6896 8.45455H80.0575ZM83.8533 15.1321C83.2085 15.1321 82.6531 14.9943 82.1871 14.7188C81.7241 14.4403 81.3661 14.0497 81.1133 13.5469C80.8633 13.0412 80.7383 12.4489 80.7383 11.7699C80.7383 11.0994 80.8633 10.5085 81.1133 9.99716C81.3661 9.4858 81.7184 9.08665 82.1701 8.79972C82.6246 8.51278 83.1559 8.36932 83.7638 8.36932C84.1332 8.36932 84.4911 8.4304 84.8377 8.55256C85.1843 8.67472 85.4954 8.86648 85.771 9.12784C86.0465 9.3892 86.2638 9.72869 86.4229 10.1463C86.582 10.5611 86.6616 11.0653 86.6616 11.6591V12.1108H81.4585V11.1562H85.413C85.413 10.821 85.3448 10.5241 85.2085 10.2656C85.0721 10.0043 84.8803 9.7983 84.6332 9.64773C84.3888 9.49716 84.1019 9.42188 83.7724 9.42188C83.4144 9.42188 83.1019 9.50994 82.8349 9.68608C82.5707 9.85937 82.3661 10.0866 82.2212 10.3679C82.0792 10.6463 82.0082 10.9489 82.0082 11.2756V12.0213C82.0082 12.4588 82.0849 12.831 82.2383 13.1378C82.3945 13.4446 82.6119 13.679 82.8903 13.8409C83.1687 14 83.494 14.0795 83.8661 14.0795C84.1076 14.0795 84.3278 14.0455 84.5266 13.9773C84.7255 13.9062 84.8974 13.8011 85.0423 13.6619C85.1871 13.5227 85.2979 13.3509 85.3746 13.1463L86.5806 13.3636C86.484 13.7187 86.3107 14.0298 86.0607 14.2969C85.8136 14.5611 85.5025 14.767 85.1275 14.9148C84.7553 15.0597 84.3306 15.1321 83.8533 15.1321ZM90.5256 15.1278C89.9972 15.1278 89.5256 14.9929 89.1108 14.723C88.6989 14.4503 88.375 14.0625 88.1392 13.5597C87.9063 13.054 87.7898 12.4474 87.7898 11.7401C87.7898 11.0327 87.9077 10.4276 88.1435 9.92472C88.3821 9.42187 88.7088 9.03693 89.1236 8.76989C89.5384 8.50284 90.0085 8.36932 90.5341 8.36932C90.9403 8.36932 91.267 8.4375 91.5142 8.57386C91.7642 8.70739 91.9574 8.86364 92.0938 9.04261C92.233 9.22159 92.3409 9.37926 92.4176 9.51562H92.4943V6.27273H93.7685V15H92.5241V13.9815H92.4176C92.3409 14.1207 92.2301 14.2798 92.0852 14.4588C91.9432 14.6378 91.7472 14.794 91.4972 14.9276C91.2472 15.0611 90.9233 15.1278 90.5256 15.1278ZM90.8068 14.0412C91.1733 14.0412 91.483 13.9446 91.7358 13.7514C91.9915 13.5554 92.1847 13.2841 92.3153 12.9375C92.4489 12.5909 92.5156 12.1875 92.5156 11.7273C92.5156 11.2727 92.4503 10.875 92.3196 10.5341C92.1889 10.1932 91.9972 9.92756 91.7443 9.73722C91.4915 9.54687 91.179 9.4517 90.8068 9.4517C90.4233 9.4517 90.1037 9.55114 89.848 9.75C89.5923 9.94886 89.3991 10.2202 89.2685 10.5639C89.1406 10.9077 89.0767 11.2955 89.0767 11.7273C89.0767 12.1648 89.142 12.5582 89.2727 12.9077C89.4034 13.2571 89.5966 13.5341 89.8523 13.7386C90.1108 13.9403 90.429 14.0412 90.8068 14.0412Z" fill="#027A48"/>
</g>
</svg>
