<svg width="194" height="22" viewBox="0 0 194 22" fill="none" xmlns="http://www.w3.org/2000/svg">
<g style="mix-blend-mode:multiply">
<rect width="194" height="22" rx="11" fill="#FDF2FA"/>
<path d="M16.4437 9.1108H15.1142C15.063 8.8267 14.9679 8.5767 14.8287 8.3608C14.6895 8.14489 14.519 7.96165 14.3173 7.81108C14.1156 7.66051 13.8897 7.54687 13.6397 7.47017C13.3926 7.39347 13.1298 7.35511 12.8514 7.35511C12.3485 7.35511 11.8983 7.48153 11.5005 7.73438C11.1056 7.98722 10.7931 8.35795 10.563 8.84659C10.3358 9.33523 10.2221 9.93182 10.2221 10.6364C10.2221 11.3466 10.3358 11.946 10.563 12.4347C10.7931 12.9233 11.1071 13.2926 11.5048 13.5426C11.9025 13.7926 12.35 13.9176 12.8471 13.9176C13.1227 13.9176 13.3841 13.8807 13.6312 13.8068C13.8812 13.7301 14.1071 13.6179 14.3088 13.4702C14.5105 13.3224 14.6809 13.142 14.8201 12.929C14.9622 12.7131 15.0602 12.4659 15.1142 12.1875L16.4437 12.1918C16.3727 12.6207 16.2349 13.0156 16.0304 13.3764C15.8287 13.7344 15.5687 14.044 15.2505 14.3054C14.9352 14.5639 14.5744 14.7642 14.1681 14.9062C13.7619 15.0483 13.3187 15.1193 12.8386 15.1193C12.0829 15.1193 11.4096 14.9403 10.8187 14.5824C10.2278 14.2216 9.7619 13.706 9.42099 13.0355C9.08292 12.3651 8.91388 11.5653 8.91388 10.6364C8.91388 9.70455 9.08434 8.90483 9.42525 8.23722C9.76616 7.56676 10.2321 7.05256 10.823 6.6946C11.4139 6.33381 12.0858 6.15341 12.8386 6.15341C13.3017 6.15341 13.7335 6.22017 14.1341 6.35369C14.5375 6.48437 14.8997 6.67756 15.2207 6.93324C15.5417 7.18608 15.8074 7.49574 16.0176 7.86222C16.2278 8.22585 16.3699 8.64205 16.4437 9.1108ZM19.8219 15.1449C19.4071 15.1449 19.0321 15.0682 18.6969 14.9148C18.3617 14.7585 18.0961 14.5327 17.9 14.2372C17.7069 13.9418 17.6103 13.5795 17.6103 13.1506C17.6103 12.7812 17.6813 12.4773 17.8233 12.2386C17.9654 12 18.1571 11.8111 18.3986 11.6719C18.6401 11.5327 18.91 11.4276 19.2083 11.3565C19.5066 11.2855 19.8105 11.2315 20.1202 11.1946C20.5123 11.1491 20.8304 11.1122 21.0748 11.0838C21.3191 11.0526 21.4966 11.0028 21.6074 10.9347C21.7182 10.8665 21.7736 10.7557 21.7736 10.6023V10.5724C21.7736 10.2003 21.6685 9.91193 21.4583 9.70739C21.2509 9.50284 20.9412 9.40057 20.5293 9.40057C20.1003 9.40057 19.7623 9.49574 19.5151 9.68608C19.2708 9.87358 19.1017 10.0824 19.008 10.3125L17.8105 10.0398C17.9526 9.64205 18.16 9.32102 18.4327 9.0767C18.7083 8.82955 19.025 8.65057 19.383 8.53977C19.7409 8.42614 20.1174 8.36932 20.5123 8.36932C20.7736 8.36932 21.0506 8.40057 21.3432 8.46307C21.6387 8.52273 21.9142 8.63352 22.1699 8.79545C22.4284 8.95739 22.6401 9.18892 22.8049 9.49006C22.9696 9.78835 23.052 10.1761 23.052 10.6534V15H21.8077V14.1051H21.7566C21.6742 14.2699 21.5506 14.4318 21.3858 14.5909C21.2211 14.75 21.0094 14.8821 20.7509 14.9872C20.4924 15.0923 20.1827 15.1449 19.8219 15.1449ZM20.0989 14.1222C20.4512 14.1222 20.7523 14.0526 21.0023 13.9134C21.2551 13.7741 21.4469 13.5923 21.5776 13.3679C21.7111 13.1406 21.7779 12.8977 21.7779 12.6392V11.7955C21.7324 11.8409 21.6444 11.8835 21.5137 11.9233C21.3858 11.9602 21.2395 11.9929 21.0748 12.0213C20.91 12.0469 20.7495 12.071 20.5932 12.0938C20.437 12.1136 20.3063 12.1307 20.2012 12.1449C19.954 12.1761 19.7282 12.2287 19.5236 12.3026C19.3219 12.3764 19.16 12.483 19.0378 12.6222C18.9185 12.7585 18.8588 12.9403 18.8588 13.1676C18.8588 13.483 18.9753 13.7216 19.2083 13.8835C19.4412 14.0426 19.7381 14.1222 20.0989 14.1222ZM29.6539 10.0526L28.4991 10.2571C28.4508 10.1094 28.3741 9.96875 28.269 9.83523C28.1667 9.7017 28.0275 9.59233 27.8514 9.5071C27.6752 9.42187 27.4551 9.37926 27.1909 9.37926C26.8301 9.37926 26.5289 9.46023 26.2875 9.62216C26.046 9.78125 25.9252 9.98722 25.9252 10.2401C25.9252 10.4588 26.0062 10.6349 26.1681 10.7685C26.3301 10.902 26.5914 11.0114 26.9522 11.0966L27.992 11.3352C28.5943 11.4744 29.0431 11.6889 29.3386 11.9787C29.6341 12.2685 29.7818 12.6449 29.7818 13.108C29.7818 13.5 29.6681 13.8494 29.4409 14.1562C29.2164 14.4602 28.9025 14.6989 28.4991 14.8722C28.0985 15.0455 27.6341 15.1321 27.1056 15.1321C26.3727 15.1321 25.7747 14.9759 25.3116 14.6634C24.8485 14.348 24.5645 13.9006 24.4593 13.321L25.6909 13.1335C25.7676 13.4545 25.9252 13.6974 26.1639 13.8622C26.4025 14.0241 26.7136 14.1051 27.0971 14.1051C27.5147 14.1051 27.8485 14.0185 28.0985 13.8452C28.3485 13.669 28.4735 13.4545 28.4735 13.2017C28.4735 12.9972 28.3968 12.8253 28.2434 12.6861C28.0929 12.5469 27.8613 12.4418 27.5488 12.3707L26.4409 12.1278C25.8301 11.9886 25.3784 11.767 25.0858 11.4631C24.796 11.1591 24.6511 10.7741 24.6511 10.3082C24.6511 9.92187 24.7591 9.58381 24.975 9.29403C25.1909 9.00426 25.4892 8.77841 25.8699 8.61648C26.2505 8.4517 26.6866 8.36932 27.1781 8.36932C27.8855 8.36932 28.4423 8.52273 28.8485 8.82955C29.2548 9.13352 29.5233 9.54119 29.6539 10.0526ZM34.0037 15.1321C33.3588 15.1321 32.8034 14.9943 32.3375 14.7188C31.8745 14.4403 31.5165 14.0497 31.2637 13.5469C31.0137 13.0412 30.8887 12.4489 30.8887 11.7699C30.8887 11.0994 31.0137 10.5085 31.2637 9.99716C31.5165 9.4858 31.8688 9.08665 32.3205 8.79972C32.775 8.51278 33.3063 8.36932 33.9142 8.36932C34.2836 8.36932 34.6415 8.4304 34.9881 8.55256C35.3347 8.67472 35.6458 8.86648 35.9213 9.12784C36.1969 9.3892 36.4142 9.72869 36.5733 10.1463C36.7324 10.5611 36.812 11.0653 36.812 11.6591V12.1108H31.6088V11.1562H35.5634C35.5634 10.821 35.4952 10.5241 35.3588 10.2656C35.2225 10.0043 35.0307 9.7983 34.7836 9.64773C34.5392 9.49716 34.2523 9.42188 33.9228 9.42188C33.5648 9.42188 33.2523 9.50994 32.9853 9.68608C32.7211 9.85937 32.5165 10.0866 32.3716 10.3679C32.2296 10.6463 32.1586 10.9489 32.1586 11.2756V12.0213C32.1586 12.4588 32.2353 12.831 32.3887 13.1378C32.5449 13.4446 32.7623 13.679 33.0407 13.8409C33.3191 14 33.6444 14.0795 34.0165 14.0795C34.258 14.0795 34.4782 14.0455 34.677 13.9773C34.8759 13.9062 35.0478 13.8011 35.1926 13.6619C35.3375 13.5227 35.4483 13.3509 35.525 13.1463L36.731 13.3636C36.6344 13.7187 36.4611 14.0298 36.2111 14.2969C35.964 14.5611 35.6529 14.767 35.2779 14.9148C34.9057 15.0597 34.481 15.1321 34.0037 15.1321ZM41.4015 17.4545V8.45455H42.6458V9.51562H42.7523C42.8262 9.37926 42.9327 9.22159 43.0719 9.04261C43.2111 8.86364 43.4043 8.70739 43.6515 8.57386C43.8986 8.4375 44.2253 8.36932 44.6316 8.36932C45.16 8.36932 45.6316 8.50284 46.0463 8.76989C46.4611 9.03693 46.7864 9.42187 47.0222 9.92472C47.2608 10.4276 47.3801 11.0327 47.3801 11.7401C47.3801 12.4474 47.2623 13.054 47.0265 13.5597C46.7907 14.0625 46.4668 14.4503 46.0549 14.723C45.6429 14.9929 45.1728 15.1278 44.6444 15.1278C44.2466 15.1278 43.9213 15.0611 43.6685 14.9276C43.4185 14.794 43.2225 14.6378 43.0804 14.4588C42.9384 14.2798 42.829 14.1207 42.7523 13.9815H42.6756V17.4545H41.4015ZM42.65 11.7273C42.65 12.1875 42.7168 12.5909 42.8503 12.9375C42.9838 13.2841 43.177 13.5554 43.4299 13.7514C43.6827 13.9446 43.9924 14.0412 44.3588 14.0412C44.7395 14.0412 45.0577 13.9403 45.3134 13.7386C45.5691 13.5341 45.7623 13.2571 45.8929 12.9077C46.0265 12.5582 46.0932 12.1648 46.0932 11.7273C46.0932 11.2955 46.0279 10.9077 45.8972 10.5639C45.7694 10.2202 45.5762 9.94886 45.3176 9.75C45.062 9.55114 44.7424 9.4517 44.3588 9.4517C43.9895 9.4517 43.677 9.54687 43.4213 9.73722C43.1685 9.92756 42.9767 10.1932 42.8461 10.5341C42.7154 10.875 42.65 11.2727 42.65 11.7273ZM51.6287 15.1321C50.9838 15.1321 50.4284 14.9943 49.9625 14.7188C49.4995 14.4403 49.1415 14.0497 48.8887 13.5469C48.6387 13.0412 48.5137 12.4489 48.5137 11.7699C48.5137 11.0994 48.6387 10.5085 48.8887 9.99716C49.1415 9.4858 49.4938 9.08665 49.9455 8.79972C50.4 8.51278 50.9313 8.36932 51.5392 8.36932C51.9086 8.36932 52.2665 8.4304 52.6131 8.55256C52.9597 8.67472 53.2708 8.86648 53.5463 9.12784C53.8219 9.3892 54.0392 9.72869 54.1983 10.1463C54.3574 10.5611 54.437 11.0653 54.437 11.6591V12.1108H49.2338V11.1562H53.1884C53.1884 10.821 53.1202 10.5241 52.9838 10.2656C52.8475 10.0043 52.6557 9.7983 52.4086 9.64773C52.1642 9.49716 51.8773 9.42188 51.5478 9.42188C51.1898 9.42188 50.8773 9.50994 50.6103 9.68608C50.3461 9.85937 50.1415 10.0866 49.9966 10.3679C49.8546 10.6463 49.7836 10.9489 49.7836 11.2756V12.0213C49.7836 12.4588 49.8603 12.831 50.0137 13.1378C50.1699 13.4446 50.3873 13.679 50.6657 13.8409C50.9441 14 51.2694 14.0795 51.6415 14.0795C51.883 14.0795 52.1032 14.0455 52.302 13.9773C52.5009 13.9062 52.6728 13.8011 52.8176 13.6619C52.9625 13.5227 53.0733 13.3509 53.15 13.1463L54.356 13.3636C54.2594 13.7187 54.0861 14.0298 53.8361 14.2969C53.589 14.5611 53.2779 14.767 52.9029 14.9148C52.5307 15.0597 52.106 15.1321 51.6287 15.1321ZM57.1248 11.1136V15H55.8507V8.45455H57.0737V9.51989H57.1547C57.3052 9.1733 57.541 8.89489 57.862 8.68466C58.1859 8.47443 58.5936 8.36932 59.085 8.36932C59.5311 8.36932 59.9217 8.46307 60.2569 8.65057C60.5922 8.83523 60.8521 9.1108 61.0368 9.47727C61.2214 9.84375 61.3137 10.2969 61.3137 10.8366V15H60.0396V10.9901C60.0396 10.5156 59.916 10.1449 59.6689 9.87784C59.4217 9.60795 59.0822 9.47301 58.6504 9.47301C58.3549 9.47301 58.0922 9.53693 57.862 9.66477C57.6348 9.79261 57.4544 9.98011 57.3208 10.2273C57.1902 10.4716 57.1248 10.767 57.1248 11.1136ZM65.4728 15.1278C64.9444 15.1278 64.4728 14.9929 64.0581 14.723C63.6461 14.4503 63.3223 14.0625 63.0865 13.5597C62.8535 13.054 62.737 12.4474 62.737 11.7401C62.737 11.0327 62.8549 10.4276 63.0907 9.92472C63.3294 9.42187 63.6561 9.03693 64.0708 8.76989C64.4856 8.50284 64.9558 8.36932 65.4814 8.36932C65.8876 8.36932 66.2143 8.4375 66.4615 8.57386C66.7115 8.70739 66.9047 8.86364 67.041 9.04261C67.1802 9.22159 67.2882 9.37926 67.3649 9.51562H67.4416V6.27273H68.7157V15H67.4714V13.9815H67.3649C67.2882 14.1207 67.1774 14.2798 67.0325 14.4588C66.8904 14.6378 66.6944 14.794 66.4444 14.9276C66.1944 15.0611 65.8706 15.1278 65.4728 15.1278ZM65.7541 14.0412C66.1206 14.0412 66.4302 13.9446 66.6831 13.7514C66.9387 13.5554 67.1319 13.2841 67.2626 12.9375C67.3961 12.5909 67.4629 12.1875 67.4629 11.7273C67.4629 11.2727 67.3975 10.875 67.2669 10.5341C67.1362 10.1932 66.9444 9.92756 66.6916 9.73722C66.4387 9.54687 66.1262 9.4517 65.7541 9.4517C65.3706 9.4517 65.051 9.55114 64.7953 9.75C64.5396 9.94886 64.3464 10.2202 64.2157 10.5639C64.0879 10.9077 64.024 11.2955 64.024 11.7273C64.024 12.1648 64.0893 12.5582 64.22 12.9077C64.3507 13.2571 64.5439 13.5341 64.7995 13.7386C65.0581 13.9403 65.3762 14.0412 65.7541 14.0412ZM70.5343 15V8.45455H71.8084V15H70.5343ZM71.1777 7.4446C70.9561 7.4446 70.7658 7.37074 70.6067 7.22301C70.4505 7.07244 70.3723 6.89347 70.3723 6.68608C70.3723 6.47585 70.4505 6.29687 70.6067 6.14915C70.7658 5.99858 70.9561 5.9233 71.1777 5.9233C71.3993 5.9233 71.5882 5.99858 71.7445 6.14915C71.9036 6.29687 71.9831 6.47585 71.9831 6.68608C71.9831 6.89347 71.9036 7.07244 71.7445 7.22301C71.5882 7.37074 71.3993 7.4446 71.1777 7.4446ZM74.7967 11.1136V15H73.5225V8.45455H74.7456V9.51989H74.8265C74.9771 9.1733 75.2129 8.89489 75.5339 8.68466C75.8578 8.47443 76.2654 8.36932 76.7569 8.36932C77.2029 8.36932 77.5936 8.46307 77.9288 8.65057C78.264 8.83523 78.524 9.1108 78.7086 9.47727C78.8933 9.84375 78.9856 10.2969 78.9856 10.8366V15H77.7115V10.9901C77.7115 10.5156 77.5879 10.1449 77.3407 9.87784C77.0936 9.60795 76.7541 9.47301 76.3223 9.47301C76.0268 9.47301 75.764 9.53693 75.5339 9.66477C75.3066 9.79261 75.1262 9.98011 74.9927 10.2273C74.862 10.4716 74.7967 10.767 74.7967 11.1136ZM83.4387 17.5909C82.9189 17.5909 82.4714 17.5227 82.0964 17.3864C81.7243 17.25 81.4203 17.0696 81.1845 16.8452C80.9487 16.6207 80.7725 16.375 80.6561 16.108L81.7512 15.6562C81.8279 15.7812 81.9302 15.9134 82.0581 16.0526C82.1887 16.1946 82.3649 16.3153 82.5865 16.4148C82.8109 16.5142 83.0993 16.5639 83.4515 16.5639C83.9345 16.5639 84.3336 16.446 84.649 16.2102C84.9643 15.9773 85.122 15.6051 85.122 15.0938V13.8068H85.041C84.9643 13.946 84.8535 14.1009 84.7086 14.2713C84.5666 14.4418 84.3706 14.5895 84.1206 14.7145C83.8706 14.8395 83.5453 14.902 83.1447 14.902C82.6277 14.902 82.1618 14.7812 81.747 14.5398C81.335 14.2955 81.0083 13.9361 80.7669 13.4616C80.5282 12.9844 80.4089 12.3977 80.4089 11.7017C80.4089 11.0057 80.5268 10.4091 80.7626 9.91193C81.0012 9.41477 81.3279 9.03409 81.7427 8.76989C82.1575 8.50284 82.6277 8.36932 83.1532 8.36932C83.5595 8.36932 83.8876 8.4375 84.1376 8.57386C84.3876 8.70739 84.5822 8.86364 84.7214 9.04261C84.8635 9.22159 84.9728 9.37926 85.0495 9.51562H85.1433V8.45455H86.3919V15.1449C86.3919 15.7074 86.2612 16.169 85.9998 16.5298C85.7385 16.8906 85.3848 17.1577 84.9387 17.331C84.4956 17.5043 83.9956 17.5909 83.4387 17.5909ZM83.426 13.8452C83.7924 13.8452 84.1021 13.7599 84.3549 13.5895C84.6106 13.4162 84.8038 13.169 84.9345 12.848C85.068 12.5241 85.1348 12.1364 85.1348 11.6847C85.1348 11.2443 85.0694 10.8565 84.9387 10.5213C84.8081 10.1861 84.6163 9.92472 84.3635 9.73722C84.1106 9.54687 83.7981 9.4517 83.426 9.4517C83.0424 9.4517 82.7228 9.55114 82.4672 9.75C82.2115 9.94602 82.0183 10.2131 81.8876 10.5511C81.7598 10.8892 81.6958 11.267 81.6958 11.6847C81.6958 12.1136 81.7612 12.4901 81.8919 12.8139C82.0225 13.1378 82.2157 13.3906 82.4714 13.5724C82.7299 13.7543 83.0481 13.8452 83.426 13.8452ZM91.3787 15V6.27273H94.5748C95.1941 6.27273 95.7069 6.375 96.1131 6.57955C96.5194 6.78125 96.8233 7.0554 97.025 7.40199C97.2267 7.74574 97.3276 8.13352 97.3276 8.56534C97.3276 8.92898 97.2608 9.2358 97.1273 9.4858C96.9938 9.73295 96.8148 9.93182 96.5904 10.0824C96.3688 10.2301 96.1245 10.3381 95.8574 10.4062V10.4915C96.1472 10.5057 96.4299 10.5994 96.7054 10.7727C96.9838 10.9432 97.214 11.1861 97.3958 11.5014C97.5776 11.8168 97.6685 12.2003 97.6685 12.652C97.6685 13.098 97.5634 13.4986 97.3532 13.8537C97.1458 14.206 96.8248 14.4858 96.3901 14.6932C95.9554 14.8977 95.4 15 94.7239 15H91.3787ZM92.6955 13.8707H94.5961C95.2267 13.8707 95.6784 13.7486 95.9512 13.5043C96.2239 13.2599 96.3603 12.9545 96.3603 12.5881C96.3603 12.3125 96.2907 12.0597 96.1515 11.8295C96.0123 11.5994 95.8134 11.4162 95.5549 11.2798C95.2992 11.1435 94.9952 11.0753 94.6429 11.0753H92.6955V13.8707ZM92.6955 10.0483H94.4597C94.7551 10.0483 95.0208 9.99148 95.2566 9.87784C95.4952 9.7642 95.6841 9.60511 95.8233 9.40057C95.9654 9.19318 96.0364 8.94886 96.0364 8.66761C96.0364 8.30682 95.91 8.00426 95.6571 7.75994C95.4043 7.51562 95.0165 7.39347 94.4938 7.39347H92.6955V10.0483ZM101.885 15.1321C101.271 15.1321 100.736 14.9915 100.279 14.7102C99.8212 14.429 99.4661 14.0355 99.2132 13.5298C98.9604 13.0241 98.834 12.4332 98.834 11.7571C98.834 11.0781 98.9604 10.4844 99.2132 9.97585C99.4661 9.46733 99.8212 9.07244 100.279 8.79119C100.736 8.50994 101.271 8.36932 101.885 8.36932C102.499 8.36932 103.034 8.50994 103.492 8.79119C103.949 9.07244 104.304 9.46733 104.557 9.97585C104.81 10.4844 104.936 11.0781 104.936 11.7571C104.936 12.4332 104.81 13.0241 104.557 13.5298C104.304 14.0355 103.949 14.429 103.492 14.7102C103.034 14.9915 102.499 15.1321 101.885 15.1321ZM101.889 14.0625C102.287 14.0625 102.617 13.9574 102.878 13.7472C103.139 13.5369 103.333 13.2571 103.458 12.9077C103.585 12.5582 103.649 12.1733 103.649 11.7528C103.649 11.3352 103.585 10.9517 103.458 10.6023C103.333 10.25 103.139 9.96733 102.878 9.75426C102.617 9.54119 102.287 9.43466 101.889 9.43466C101.489 9.43466 101.156 9.54119 100.892 9.75426C100.631 9.96733 100.436 10.25 100.308 10.6023C100.183 10.9517 100.121 11.3352 100.121 11.7528C100.121 12.1733 100.183 12.5582 100.308 12.9077C100.436 13.2571 100.631 13.5369 100.892 13.7472C101.156 13.9574 101.489 14.0625 101.889 14.0625ZM108.263 15.1449C107.849 15.1449 107.474 15.0682 107.138 14.9148C106.803 14.7585 106.537 14.5327 106.341 14.2372C106.148 13.9418 106.052 13.5795 106.052 13.1506C106.052 12.7812 106.123 12.4773 106.265 12.2386C106.407 12 106.599 11.8111 106.84 11.6719C107.081 11.5327 107.351 11.4276 107.65 11.3565C107.948 11.2855 108.252 11.2315 108.562 11.1946C108.954 11.1491 109.272 11.1122 109.516 11.0838C109.76 11.0526 109.938 11.0028 110.049 10.9347C110.16 10.8665 110.215 10.7557 110.215 10.6023V10.5724C110.215 10.2003 110.11 9.91193 109.9 9.70739C109.692 9.50284 109.383 9.40057 108.971 9.40057C108.542 9.40057 108.204 9.49574 107.956 9.68608C107.712 9.87358 107.543 10.0824 107.449 10.3125L106.252 10.0398C106.394 9.64205 106.601 9.32102 106.874 9.0767C107.15 8.82955 107.466 8.65057 107.824 8.53977C108.182 8.42614 108.559 8.36932 108.954 8.36932C109.215 8.36932 109.492 8.40057 109.785 8.46307C110.08 8.52273 110.356 8.63352 110.611 8.79545C110.87 8.95739 111.081 9.18892 111.246 9.49006C111.411 9.78835 111.493 10.1761 111.493 10.6534V15H110.249V14.1051H110.198C110.116 14.2699 109.992 14.4318 109.827 14.5909C109.662 14.75 109.451 14.8821 109.192 14.9872C108.934 15.0923 108.624 15.1449 108.263 15.1449ZM108.54 14.1222C108.893 14.1222 109.194 14.0526 109.444 13.9134C109.697 13.7741 109.888 13.5923 110.019 13.3679C110.153 13.1406 110.219 12.8977 110.219 12.6392V11.7955C110.174 11.8409 110.086 11.8835 109.955 11.9233C109.827 11.9602 109.681 11.9929 109.516 12.0213C109.351 12.0469 109.191 12.071 109.035 12.0938C108.878 12.1136 108.748 12.1307 108.643 12.1449C108.395 12.1761 108.17 12.2287 107.965 12.3026C107.763 12.3764 107.601 12.483 107.479 12.6222C107.36 12.7585 107.3 12.9403 107.3 13.1676C107.3 13.483 107.417 13.7216 107.65 13.8835C107.883 14.0426 108.18 14.1222 108.54 14.1222ZM113.191 15V8.45455H114.422V9.49432H114.49C114.61 9.14205 114.82 8.86506 115.121 8.66335C115.425 8.45881 115.769 8.35653 116.152 8.35653C116.232 8.35653 116.325 8.35937 116.433 8.36506C116.544 8.37074 116.631 8.37784 116.693 8.38636V9.60511C116.642 9.59091 116.551 9.57528 116.421 9.55824C116.29 9.53835 116.159 9.52841 116.029 9.52841C115.727 9.52841 115.459 9.59233 115.223 9.72017C114.99 9.84517 114.806 10.0199 114.669 10.2443C114.533 10.4659 114.465 10.7187 114.465 11.0028V15H113.191ZM120.012 15.1278C119.483 15.1278 119.012 14.9929 118.597 14.723C118.185 14.4503 117.861 14.0625 117.626 13.5597C117.393 13.054 117.276 12.4474 117.276 11.7401C117.276 11.0327 117.394 10.4276 117.63 9.92472C117.868 9.42187 118.195 9.03693 118.61 8.76989C119.025 8.50284 119.495 8.36932 120.02 8.36932C120.427 8.36932 120.753 8.4375 121.001 8.57386C121.251 8.70739 121.444 8.86364 121.58 9.04261C121.719 9.22159 121.827 9.37926 121.904 9.51562H121.981V6.27273H123.255V15H122.01V13.9815H121.904C121.827 14.1207 121.716 14.2798 121.572 14.4588C121.43 14.6378 121.233 14.794 120.983 14.9276C120.733 15.0611 120.41 15.1278 120.012 15.1278ZM120.293 14.0412C120.66 14.0412 120.969 13.9446 121.222 13.7514C121.478 13.5554 121.671 13.2841 121.802 12.9375C121.935 12.5909 122.002 12.1875 122.002 11.7273C122.002 11.2727 121.937 10.875 121.806 10.5341C121.675 10.1932 121.483 9.92756 121.231 9.73722C120.978 9.54687 120.665 9.4517 120.293 9.4517C119.91 9.4517 119.59 9.55114 119.334 9.75C119.079 9.94886 118.885 10.2202 118.755 10.5639C118.627 10.9077 118.563 11.2955 118.563 11.7273C118.563 12.1648 118.628 12.5582 118.759 12.9077C118.89 13.2571 119.083 13.5341 119.339 13.7386C119.597 13.9403 119.915 14.0412 120.293 14.0412ZM131.006 15.1321C130.393 15.1321 129.857 14.9915 129.4 14.7102C128.942 14.429 128.587 14.0355 128.334 13.5298C128.081 13.0241 127.955 12.4332 127.955 11.7571C127.955 11.0781 128.081 10.4844 128.334 9.97585C128.587 9.46733 128.942 9.07244 129.4 8.79119C129.857 8.50994 130.393 8.36932 131.006 8.36932C131.62 8.36932 132.155 8.50994 132.613 8.79119C133.07 9.07244 133.425 9.46733 133.678 9.97585C133.931 10.4844 134.057 11.0781 134.057 11.7571C134.057 12.4332 133.931 13.0241 133.678 13.5298C133.425 14.0355 133.07 14.429 132.613 14.7102C132.155 14.9915 131.62 15.1321 131.006 15.1321ZM131.01 14.0625C131.408 14.0625 131.738 13.9574 131.999 13.7472C132.26 13.5369 132.454 13.2571 132.579 12.9077C132.706 12.5582 132.77 12.1733 132.77 11.7528C132.77 11.3352 132.706 10.9517 132.579 10.6023C132.454 10.25 132.26 9.96733 131.999 9.75426C131.738 9.54119 131.408 9.43466 131.01 9.43466C130.61 9.43466 130.278 9.54119 130.013 9.75426C129.752 9.96733 129.557 10.25 129.43 10.6023C129.305 10.9517 129.242 11.3352 129.242 11.7528C129.242 12.1733 129.305 12.5582 129.43 12.9077C129.557 13.2571 129.752 13.5369 130.013 13.7472C130.278 13.9574 130.61 14.0625 131.01 14.0625ZM138.595 8.45455V9.47727H134.896V8.45455H138.595ZM135.91 15V7.69602C135.91 7.28693 135.999 6.94744 136.178 6.67756C136.357 6.40483 136.595 6.2017 136.89 6.06818C137.186 5.93182 137.507 5.86364 137.853 5.86364C138.109 5.86364 138.328 5.88494 138.509 5.92756C138.691 5.96733 138.826 6.00426 138.914 6.03835L138.616 7.0696C138.556 7.05256 138.48 7.03267 138.386 7.00994C138.292 6.98437 138.178 6.97159 138.045 6.97159C137.735 6.97159 137.514 7.0483 137.38 7.2017C137.249 7.35511 137.184 7.5767 137.184 7.86648V15H135.91ZM143.187 15V6.27273H148.659V7.40625H144.504V10.0653H148.373V11.1946H144.504V13.8665H148.71V15H143.187ZM151.59 11.1136V15H150.316V8.45455H151.539V9.51989H151.619C151.77 9.1733 152.006 8.89489 152.327 8.68466C152.651 8.47443 153.058 8.36932 153.55 8.36932C153.996 8.36932 154.387 8.46307 154.722 8.65057C155.057 8.83523 155.317 9.1108 155.502 9.47727C155.686 9.84375 155.779 10.2969 155.779 10.8366V15H154.504V10.9901C154.504 10.5156 154.381 10.1449 154.134 9.87784C153.887 9.60795 153.547 9.47301 153.115 9.47301C152.82 9.47301 152.557 9.53693 152.327 9.66477C152.1 9.79261 151.919 9.98011 151.786 10.2273C151.655 10.4716 151.59 10.767 151.59 11.1136ZM161.906 17.4545V13.9815H161.83C161.753 14.1207 161.642 14.2798 161.497 14.4588C161.355 14.6378 161.159 14.794 160.909 14.9276C160.659 15.0611 160.335 15.1278 159.938 15.1278C159.409 15.1278 158.938 14.9929 158.523 14.723C158.111 14.4503 157.787 14.0625 157.551 13.5597C157.318 13.054 157.202 12.4474 157.202 11.7401C157.202 11.0327 157.32 10.4276 157.556 9.92472C157.794 9.42187 158.121 9.03693 158.536 8.76989C158.95 8.50284 159.421 8.36932 159.946 8.36932C160.352 8.36932 160.679 8.4375 160.926 8.57386C161.176 8.70739 161.369 8.86364 161.506 9.04261C161.645 9.22159 161.753 9.37926 161.83 9.51562H161.936V8.45455H163.181V17.4545H161.906ZM160.219 14.0412C160.585 14.0412 160.895 13.9446 161.148 13.7514C161.404 13.5554 161.597 13.2841 161.727 12.9375C161.861 12.5909 161.928 12.1875 161.928 11.7273C161.928 11.2727 161.862 10.875 161.732 10.5341C161.601 10.1932 161.409 9.92756 161.156 9.73722C160.904 9.54687 160.591 9.4517 160.219 9.4517C159.835 9.4517 159.516 9.55114 159.26 9.75C159.004 9.94886 158.811 10.2202 158.681 10.5639C158.553 10.9077 158.489 11.2955 158.489 11.7273C158.489 12.1648 158.554 12.5582 158.685 12.9077C158.816 13.2571 159.009 13.5341 159.264 13.7386C159.523 13.9403 159.841 14.0412 160.219 14.0412ZM169.04 12.2855V8.45455H170.318V15H169.066V13.8665H168.997C168.847 14.2159 168.605 14.5071 168.273 14.7401C167.943 14.9702 167.533 15.0852 167.041 15.0852C166.621 15.0852 166.249 14.9929 165.925 14.8082C165.604 14.6207 165.351 14.3438 165.166 13.9773C164.985 13.6108 164.894 13.1577 164.894 12.6179V8.45455H166.168V12.4645C166.168 12.9105 166.291 13.2656 166.539 13.5298C166.786 13.794 167.107 13.9261 167.502 13.9261C167.74 13.9261 167.977 13.8665 168.213 13.7472C168.452 13.6278 168.649 13.4474 168.806 13.206C168.965 12.9645 169.043 12.6577 169.04 12.2855ZM172.03 15V8.45455H173.305V15H172.03ZM172.674 7.4446C172.452 7.4446 172.262 7.37074 172.103 7.22301C171.947 7.07244 171.868 6.89347 171.868 6.68608C171.868 6.47585 171.947 6.29687 172.103 6.14915C172.262 5.99858 172.452 5.9233 172.674 5.9233C172.895 5.9233 173.084 5.99858 173.241 6.14915C173.4 6.29687 173.479 6.47585 173.479 6.68608C173.479 6.89347 173.4 7.07244 173.241 7.22301C173.084 7.37074 172.895 7.4446 172.674 7.4446ZM175.019 15V8.45455H176.25V9.49432H176.318C176.438 9.14205 176.648 8.86506 176.949 8.66335C177.253 8.45881 177.597 8.35653 177.98 8.35653C178.06 8.35653 178.154 8.35937 178.262 8.36506C178.372 8.37074 178.459 8.37784 178.521 8.38636V9.60511C178.47 9.59091 178.379 9.57528 178.249 9.55824C178.118 9.53835 177.987 9.52841 177.857 9.52841C177.556 9.52841 177.287 9.59233 177.051 9.72017C176.818 9.84517 176.634 10.0199 176.497 10.2443C176.361 10.4659 176.293 10.7187 176.293 11.0028V15H175.019ZM180.629 17.4545C180.438 17.4545 180.265 17.4389 180.109 17.4077C179.953 17.3793 179.836 17.348 179.759 17.3139L180.066 16.2699C180.299 16.3324 180.507 16.3594 180.688 16.3509C180.87 16.3423 181.031 16.2741 181.17 16.1463C181.312 16.0185 181.437 15.8097 181.545 15.5199L181.703 15.0852L179.308 8.45455H180.671L182.329 13.5341H182.397L184.055 8.45455H185.423L182.725 15.8736C182.6 16.2145 182.441 16.5028 182.248 16.7386C182.055 16.9773 181.825 17.1563 181.558 17.2756C181.291 17.3949 180.981 17.4545 180.629 17.4545Z" fill="#C11574"/>
</g>
</svg>
